<svg width="28" height="28" viewBox="0 0 28 28" fill="none" xmlns="http://www.w3.org/2000/svg">
<path fill-rule="evenodd" clip-rule="evenodd" d="M25.8828 6.66016H1.91406V5.91016H25.8828V6.66016Z" fill="#5C5C5C"/>
<path fill-rule="evenodd" clip-rule="evenodd" d="M25.8828 22.832H1.91406V22.082H25.8828V22.832Z" fill="#5C5C5C"/>
<path d="M6.92688 18L6.20488 16.043H3.58288L2.86088 18H1.79688L4.37138 11.1885H5.43538L8.00038 18H6.92688ZM5.91988 15.15L5.23588 13.2405C5.21054 13.1708 5.17571 13.0663 5.13138 12.927C5.08704 12.7877 5.04271 12.642 4.99838 12.49C4.95404 12.338 4.91921 12.2145 4.89388 12.1195C4.84321 12.3158 4.78621 12.5248 4.72288 12.7465C4.65954 12.9682 4.60888 13.1328 4.57088 13.2405L3.88688 15.15H5.91988ZM10.5587 18.095C9.93803 18.095 9.44086 17.8733 9.0672 17.43C8.69353 16.9867 8.5067 16.328 8.5067 15.454C8.5067 14.5737 8.6967 13.9087 9.0767 13.459C9.4567 13.0093 9.95703 12.7845 10.5777 12.7845C10.964 12.7845 11.2807 12.8573 11.5277 13.003C11.7747 13.1487 11.9742 13.326 12.1262 13.535H12.1832C12.1705 13.4463 12.1547 13.3165 12.1357 13.1455C12.1167 12.9745 12.1072 12.8257 12.1072 12.699V10.78H13.1142V18H12.3257L12.1547 17.316H12.1072C11.9615 17.5313 11.7652 17.715 11.5182 17.867C11.2712 18.019 10.9514 18.095 10.5587 18.095ZM10.7962 17.2685C11.2902 17.2685 11.6354 17.1323 11.8317 16.86C12.0344 16.5877 12.1389 16.1728 12.1452 15.6155V15.4635C12.1452 14.8618 12.047 14.4027 11.8507 14.086C11.6607 13.7693 11.306 13.611 10.7867 13.611C10.375 13.611 10.0647 13.7757 9.8557 14.105C9.6467 14.4343 9.5422 14.8903 9.5422 15.473C9.5422 16.0493 9.6467 16.4927 9.8557 16.803C10.0647 17.1133 10.3782 17.2685 10.7962 17.2685ZM19.1003 12.8795V18H18.2928L18.1503 17.3255H18.1028C17.9381 17.5915 17.7101 17.7878 17.4188 17.9145C17.1275 18.0348 16.8203 18.095 16.4973 18.095C15.8956 18.095 15.4365 17.9493 15.1198 17.658C14.8031 17.3603 14.6448 16.8853 14.6448 16.233V12.8795H15.6613V16.081C15.6613 16.48 15.7436 16.7777 15.9083 16.974C16.0793 17.1703 16.3421 17.2685 16.6968 17.2685C17.2225 17.2685 17.5866 17.1165 17.7893 16.8125C17.992 16.5022 18.0933 16.0557 18.0933 15.473V12.8795H19.1003ZM21.6832 18H20.6762V10.78H21.6832V18ZM25.1076 17.278C25.3926 17.278 25.6491 17.2368 25.8771 17.1545V17.9145C25.7694 17.9652 25.6237 18.0063 25.4401 18.038C25.2564 18.076 25.0727 18.095 24.8891 18.095C24.6104 18.095 24.3539 18.0475 24.1196 17.9525C23.8916 17.8575 23.7079 17.6928 23.5686 17.4585C23.4292 17.2242 23.3596 16.898 23.3596 16.48V13.649H22.6471V13.193L23.3976 12.813L23.7491 11.73H24.3666V12.8795H25.8296V13.649H24.3666V16.461C24.3666 16.7397 24.4331 16.9455 24.5661 17.0785C24.7054 17.2115 24.8859 17.278 25.1076 17.278Z" fill="#5C5C5C"/>
</svg>
