<svg width="28" height="28" viewBox="0 0 28 28" fill="none" xmlns="http://www.w3.org/2000/svg">
<path d="M7 18.5078H20" stroke="#924514" stroke-width="0.75" stroke-miterlimit="10" stroke-linejoin="round"/>
<path d="M7.55597 9.4539C7.58061 8.92011 8.02055 8.5 8.55491 8.5H18.4451C18.9794 8.5 19.4194 8.92011 19.444 9.4539L19.9517 20.4539C19.978 21.0237 19.5232 21.5 18.9528 21.5H8.04722C7.47683 21.5 7.02198 21.0237 7.04828 20.4539L7.55597 9.4539Z" stroke="#924514" stroke-width="0.75"/>
<path d="M10.125 11C10.125 11.2071 10.2929 11.375 10.5 11.375C10.7071 11.375 10.875 11.2071 10.875 11H10.125ZM16.125 11C16.125 11.2071 16.2929 11.375 16.5 11.375C16.7071 11.375 16.875 11.2071 16.875 11H16.125ZM10.875 8C10.875 6.55025 12.0503 5.375 13.5 5.375V4.625C11.636 4.625 10.125 6.13604 10.125 8H10.875ZM13.5 5.375C14.9497 5.375 16.125 6.55025 16.125 8H16.875C16.875 6.13604 15.364 4.625 13.5 4.625V5.375ZM10.125 8V11H10.875V8H10.125ZM16.125 8V11H16.875V8H16.125Z" fill="#924514"/>
</svg>
