<svg width="28" height="28" viewBox="0 0 28 28" fill="none" xmlns="http://www.w3.org/2000/svg">
<path d="M9.23828 8V12.14" stroke="#5C5C5C" stroke-width="0.75" stroke-miterlimit="10" stroke-linecap="round" stroke-linejoin="round"/>
<path d="M13.4297 8V12.14" stroke="#5C5C5C" stroke-width="0.75" stroke-miterlimit="10" stroke-linecap="round" stroke-linejoin="round"/>
<path d="M17.6289 8V12.14" stroke="#5C5C5C" stroke-width="0.75" stroke-miterlimit="10" stroke-linecap="round" stroke-linejoin="round"/>
<path d="M20.7 17.66H22.15C22.61 17.66 22.99 17.29 22.99 16.83V12.76C22.99 12.35 22.96 11.94 22.89 11.54C22.55 9.5 20.76 8 18.67 8H6.61C5.72 8 5 8.71 5 9.59V16.29L7.5 17.5" stroke="#5C5C5C" stroke-width="0.75" stroke-miterlimit="10" stroke-linecap="round" stroke-linejoin="round"/>
<path d="M11.2695 17.6602L17 17.6602" stroke="#5C5C5C" stroke-width="0.75" stroke-miterlimit="10" stroke-linecap="round" stroke-linejoin="round"/>
<path d="M9.37109 19C10.1995 19 10.8711 18.3284 10.8711 17.5C10.8711 16.6716 10.1995 16 9.37109 16C8.54267 16 7.87109 16.6716 7.87109 17.5C7.87109 18.3284 8.54267 19 9.37109 19Z" stroke="#5C5C5C" stroke-width="0.75" stroke-miterlimit="10" stroke-linecap="round" stroke-linejoin="round"/>
<path d="M18.8086 19C19.637 19 20.3086 18.3284 20.3086 17.5C20.3086 16.6716 19.637 16 18.8086 16C17.9802 16 17.3086 16.6716 17.3086 17.5C17.3086 18.3284 17.9802 19 18.8086 19Z" stroke="#5C5C5C" stroke-width="0.75" stroke-miterlimit="10" stroke-linecap="round" stroke-linejoin="round"/>
<path d="M17.63 12.1406H5" stroke="#5C5C5C" stroke-width="0.75" stroke-miterlimit="10" stroke-linecap="round" stroke-linejoin="round"/>
<path d="M17.6289 12.1406C17.6289 12.1406 18.5889 14.7906 22.9989 14.7906" stroke="#5C5C5C" stroke-width="0.75" stroke-miterlimit="10" stroke-linecap="round" stroke-linejoin="round"/>
</svg>
