<svg width="28" height="28" viewBox="0 0 28 28" fill="none" xmlns="http://www.w3.org/2000/svg">
<path d="M12.6016 9.5V12.9" stroke="#924514" stroke-width="0.75" stroke-miterlimit="10" stroke-linecap="round" stroke-linejoin="round"/>
<path d="M8.59156 9.76953L7.60156 12.8995" stroke="#924514" stroke-width="0.75" stroke-miterlimit="10" stroke-linecap="round" stroke-linejoin="round"/>
<path d="M11.9688 9.5H13.9688C14.6888 9.5 15.3887 9.73 15.9887 10.17L19.4887 12.71C19.6687 12.84 19.8688 12.92 20.0688 12.96" stroke="#924514" stroke-width="0.75" stroke-miterlimit="10" stroke-linecap="round" stroke-linejoin="round"/>
<path d="M9.71875 9.5H11.9688" stroke="#924514" stroke-width="0.75" stroke-miterlimit="10" stroke-linecap="round" stroke-linejoin="round"/>
<path d="M7.5 17.5012H5.91C5.13 17.5012 4.5 16.8112 4.5 15.9612V15.0312" stroke="#924514" stroke-width="0.75" stroke-miterlimit="10" stroke-linecap="round" stroke-linejoin="round"/>
<path d="M17.3697 17.5H11.6797" stroke="#924514" stroke-width="0.75" stroke-miterlimit="10" stroke-linecap="round" stroke-linejoin="round"/>
<path d="M20.0703 12.9609L22.2703 13.3409C23.0003 13.4609 23.7003 13.8509 24.1303 14.5109C24.3703 14.8809 24.5003 15.2709 24.5003 15.7009V15.9709C24.5003 16.8209 23.8703 17.5109 23.0903 17.5109H21.7703" stroke="#924514" stroke-width="0.75" stroke-miterlimit="10" stroke-linecap="round" stroke-linejoin="round"/>
<path d="M4.5 15.03C4.5 15.03 4.7 9.5 9.72 9.5" stroke="#924514" stroke-width="0.75" stroke-miterlimit="10" stroke-linecap="round" stroke-linejoin="round"/>
<path d="M4.96094 12.8984L20.0709 12.9584" stroke="#924514" stroke-width="0.75" stroke-miterlimit="10" stroke-linecap="round" stroke-linejoin="round"/>
<path d="M9.5 19.5C10.6046 19.5 11.5 18.6046 11.5 17.5C11.5 16.3954 10.6046 15.5 9.5 15.5C8.39543 15.5 7.5 16.3954 7.5 17.5C7.5 18.6046 8.39543 19.5 9.5 19.5Z" stroke="#924514" stroke-width="0.75" stroke-miterlimit="10" stroke-linecap="round" stroke-linejoin="round"/>
<path d="M19.5 19.5C20.6046 19.5 21.5 18.6046 21.5 17.5C21.5 16.3954 20.6046 15.5 19.5 15.5C18.3954 15.5 17.5 16.3954 17.5 17.5C17.5 18.6046 18.3954 19.5 19.5 19.5Z" stroke="#924514" stroke-width="0.75" stroke-miterlimit="10" stroke-linecap="round" stroke-linejoin="round"/>
</svg>
