<svg width="20" height="20" viewBox="0 0 20 20" fill="none" xmlns="http://www.w3.org/2000/svg">
<path d="M14.8955 12.5318C14.0802 14.2088 12.4363 15.4417 10.4411 15.6471C7.37217 15.9587 4.628 13.7249 4.31646 10.6559C4.27669 10.2715 4.28332 9.89366 4.31646 9.52909C4.31646 9.52909 4.35623 9.10487 4.38275 8.99219" stroke="#5C5C5C" stroke-width="0.75" stroke-miterlimit="10" stroke-linejoin="round"/>
<path d="M2.30859 10.9994L4.3833 8.98438L6.39834 11.0591" stroke="#5C5C5C" stroke-width="0.75" stroke-miterlimit="10" stroke-linejoin="round"/>
<path d="M4.85547 7.64437C5.6774 5.96075 7.31462 4.73448 9.30978 4.529C12.3787 4.21747 15.1163 6.45125 15.4345 9.52022C15.4742 9.90467 15.4742 10.2825 15.4345 10.6537" stroke="#5C5C5C" stroke-width="0.75" stroke-miterlimit="10" stroke-linejoin="round"/>
<path d="M17.3084 9.13115L15.4193 10.9672L13.5898 9.07812" stroke="#5C5C5C" stroke-width="0.75" stroke-miterlimit="10" stroke-linejoin="round"/>
</svg>
