<svg width="20" height="20" viewBox="0 0 20 20" fill="none" xmlns="http://www.w3.org/2000/svg">
<path d="M14.2783 4.64453H16.7783V7.15882" stroke="#E5E5E5" stroke-width="0.75" stroke-miterlimit="10" stroke-linejoin="round"/>
<path d="M5.70672 4.64453H3.21387V7.15882" stroke="#E5E5E5" stroke-width="0.75" stroke-miterlimit="10" stroke-linejoin="round"/>
<path d="M14.2783 15.3789H16.7783V12.8789" stroke="#E5E5E5" stroke-width="0.75" stroke-miterlimit="10" stroke-linejoin="round"/>
<path d="M5.70672 15.3789H3.21387V12.8789" stroke="#E5E5E5" stroke-width="0.75" stroke-miterlimit="10" stroke-linejoin="round"/>
<path d="M14.3067 13.9412C14.3067 13.9412 14.0924 13.634 11.8782 12.5126C11.821 12.484 11.8067 11.4983 11.8067 11.4983C11.8067 11.4983 12.471 10.9055 12.5353 10.4055C12.5353 10.4055 13.0924 9.88404 13.071 9.38404C13.0496 8.89118 12.9067 8.59118 12.7496 8.44833C12.7496 8.44833 12.7567 5.44118 10.0424 5.35547C7.24244 5.4269 7.3353 8.44833 7.3353 8.44833C7.17815 8.59118 6.87815 8.84833 6.87815 9.38404C6.87815 10.0698 7.54958 10.4055 7.54958 10.4055C7.61387 10.9055 8.27815 11.4983 8.27815 11.4983C8.27815 11.4983 8.27101 12.484 8.20672 12.5126C5.95672 13.4769 5.71387 13.9412 5.71387 13.9412H14.3067Z" stroke="#E5E5E5" stroke-width="0.75" stroke-miterlimit="10" stroke-linejoin="round"/>
</svg>
