<svg width="28" height="28" viewBox="0 0 28 28" fill="none" xmlns="http://www.w3.org/2000/svg">
<path d="M19.9883 6.5H23.4883V10.02" stroke="#F37321" stroke-width="0.75" stroke-miterlimit="10" stroke-linejoin="round"/>
<path d="M7.99 6.5H4.5V10.02" stroke="#F37321" stroke-width="0.75" stroke-miterlimit="10" stroke-linejoin="round"/>
<path d="M19.9883 21.5312H23.4883V18.0312" stroke="#F37321" stroke-width="0.75" stroke-miterlimit="10" stroke-linejoin="round"/>
<path d="M7.99 21.5312H4.5V18.0312" stroke="#F37321" stroke-width="0.75" stroke-miterlimit="10" stroke-linejoin="round"/>
<path d="M20.03 19.52C20.03 19.52 19.73 19.09 16.63 17.52C16.55 17.48 16.53 16.1 16.53 16.1C16.53 16.1 17.46 15.27 17.55 14.57C17.55 14.57 18.33 13.84 18.3 13.14C18.27 12.45 18.07 12.03 17.85 11.83C17.85 11.83 17.86 7.62 14.06 7.5C10.14 7.6 10.27 11.83 10.27 11.83C10.05 12.03 9.63 12.39 9.63 13.14C9.63 14.1 10.57 14.57 10.57 14.57C10.66 15.27 11.59 16.1 11.59 16.1C11.59 16.1 11.58 17.48 11.49 17.52C8.34 18.87 8 19.52 8 19.52H20.03Z" stroke="#F37321" stroke-width="0.75" stroke-miterlimit="10" stroke-linejoin="round"/>
</svg>
