<svg width="28" height="28" viewBox="0 0 28 28" fill="none" xmlns="http://www.w3.org/2000/svg">
<path d="M16.17 15.6289V17.0889C16.17 17.7789 16.73 18.3389 17.42 18.3389H18.43C19.94 18.3389 21.17 19.5689 21.17 21.0789V22.4989H7V21.0889C7 19.5789 8.23 18.3489 9.74 18.3489H10.75C11.44 18.3489 12 17.7889 12 17.0989V15.6389" stroke="white" stroke-width="0.75" stroke-miterlimit="10" stroke-linecap="round" stroke-linejoin="round"/>
<path d="M10.75 18.3398C10.75 18.3398 11.51 20.4198 14.08 20.4198C16.65 20.4198 17.41 18.3398 17.41 18.3398" stroke="white" stroke-width="0.75" stroke-miterlimit="10" stroke-linecap="round" stroke-linejoin="round"/>
<path d="M8.67188 18.56V10.42C8.67188 7.5 11.1719 5 14.0919 5C17.0119 5 19.5119 7.5 19.5119 10.42V18.56" stroke="white" stroke-width="0.75" stroke-miterlimit="10" stroke-linecap="round" stroke-linejoin="round"/>
<path d="M8.67188 12.8286C8.67188 12.8286 13.7019 11.5086 15.8719 8.55859C16.0019 8.58859 16.1219 8.62859 16.2419 8.66859C17.2019 8.98859 17.8419 9.90859 17.8419 10.9186V12.0686V12.4986C17.8419 14.5686 16.1619 16.2486 14.0919 16.2486C12.0219 16.2486 10.3419 14.5686 10.3419 12.4986V12.2686" stroke="white" stroke-width="0.75" stroke-miterlimit="10" stroke-linecap="round" stroke-linejoin="round"/>
</svg>
