<svg width="28" height="28" viewBox="0 0 28 28" fill="none" xmlns="http://www.w3.org/2000/svg">
<path d="M12.2109 17.773C12.2109 17.773 13.7557 16.2447 15.3005 17.773" stroke="#924514" stroke-width="0.75" stroke-miterlimit="10" stroke-linecap="round" stroke-linejoin="round"/>
<path d="M8.60448 20.8313C10.5952 20.8313 12.209 19.2347 12.209 17.2653C12.209 15.2958 10.5952 13.6992 8.60448 13.6992C6.61378 13.6992 5 15.2958 5 17.2653C5 19.2347 6.61378 20.8313 8.60448 20.8313Z" stroke="#924514" stroke-width="0.75" stroke-miterlimit="10" stroke-linecap="round" stroke-linejoin="round"/>
<path d="M18.9014 20.8313C20.8921 20.8313 22.5058 19.2347 22.5058 17.2653C22.5058 15.2958 20.8921 13.6992 18.9014 13.6992C16.9107 13.6992 15.2969 15.2958 15.2969 17.2653C15.2969 19.2347 16.9107 20.8313 18.9014 20.8313Z" stroke="#924514" stroke-width="0.75" stroke-miterlimit="10" stroke-linecap="round" stroke-linejoin="round"/>
<path d="M5 16.7551C5 16.7551 6.86403 11.6403 7.0597 10.6418C7.36866 9.00147 10.1699 8.56336 10.1493 8.60411H11.1791" stroke="#924514" stroke-width="0.75" stroke-miterlimit="10" stroke-linecap="round" stroke-linejoin="round"/>
<path d="M22.5072 16.7551C22.5072 16.7551 20.6432 11.6403 20.4475 10.6418C20.1386 9.00147 17.3374 8.56336 17.358 8.60411H16.3281" stroke="#924514" stroke-width="0.75" stroke-miterlimit="10" stroke-linecap="round" stroke-linejoin="round"/>
</svg>
