<svg width="20" height="20" viewBox="0 0 20 20" fill="none" xmlns="http://www.w3.org/2000/svg">
<path d="M7.04241 11.7824L6.79949 10.9467H5.61384L5.37092 11.7824H4.59961L5.78526 8.21094H6.65667L7.84947 11.7824H7.04241ZM6.62807 10.3109L6.24948 9.01835C6.22513 8.94115 6.20616 8.86235 6.19245 8.78258C6.14245 8.98972 5.99238 9.49661 5.75666 10.3109H6.62807Z" fill="#E5E5E5"/>
<path d="M8.26367 8.2477H9.3065C9.66501 8.22045 10.0241 8.29457 10.3424 8.46185C10.4554 8.54084 10.5449 8.64895 10.6015 8.7747C10.6581 8.90045 10.6796 9.03915 10.6637 9.17613C10.6732 9.35752 10.6256 9.53748 10.5279 9.69057C10.4852 9.75588 10.4296 9.8115 10.3645 9.8545C10.2994 9.89749 10.2263 9.92668 10.1495 9.94029C10.3333 9.97275 10.4986 10.0721 10.6137 10.219C10.713 10.3846 10.7602 10.5762 10.7494 10.769C10.7517 10.9051 10.7234 11.0398 10.6665 11.1634C10.6097 11.2871 10.5257 11.3965 10.4208 11.4833C10.1627 11.6781 9.84358 11.7742 9.52082 11.7546H8.26367V8.2477ZM8.97796 9.67627H9.38515C9.53184 9.68951 9.6791 9.65681 9.80664 9.58315C9.85141 9.54625 9.88643 9.49925 9.90883 9.44574C9.93123 9.39222 9.94029 9.33402 9.93516 9.27623C9.94122 9.21893 9.93095 9.16096 9.90569 9.10917C9.88043 9.05738 9.84123 9.01376 9.79234 8.98326C9.65547 8.91386 9.50262 8.88191 9.3494 8.89049H8.97796V9.67627ZM8.97796 10.2762V11.1976H9.4352C9.59017 11.2094 9.74425 11.1664 9.87081 11.0762C9.92051 11.0302 9.95926 10.9733 9.98399 10.9102C10.0087 10.8472 10.0188 10.7793 10.0136 10.7118C10.0136 10.4189 9.81375 10.2762 9.41375 10.2762H8.97796Z" fill="#E5E5E5"/>
<path d="M12.8784 11.7855H12.1641V9.74275C12.1641 9.69989 12.1641 9.64992 12.1641 9.59277V9.40688C12.1677 9.34264 12.1677 9.27824 12.1641 9.21401C12.1675 9.15453 12.1675 9.09491 12.1641 9.03544V9.08566C12.1392 9.10332 12.1176 9.12494 12.0999 9.14983L12.0284 9.21401L11.9569 9.2855L11.5714 9.60707L11.2285 9.15716L12.3071 8.25H12.8927L12.8784 11.7855Z" fill="#E5E5E5"/>
<path d="M16.0359 11.785H13.7786V11.271L14.5716 10.3708L14.8429 10.0565C14.9188 9.96894 14.988 9.87573 15.0501 9.77786C15.1052 9.69265 15.1506 9.60171 15.1858 9.50651C15.2213 9.40812 15.2383 9.30419 15.2358 9.19959C15.2385 9.14931 15.2304 9.09891 15.2119 9.05206C15.1934 9.00522 15.1651 8.96277 15.1287 8.9279C15.0935 8.89246 15.0509 8.86531 15.004 8.84803C14.9572 8.83076 14.907 8.82403 14.8572 8.82815C14.7345 8.82853 14.614 8.86042 14.5072 8.92092C14.3802 8.99442 14.2627 9.08326 14.1572 9.18529L13.7715 8.70643L13.9858 8.52088C14.0635 8.458 14.1473 8.40299 14.2359 8.35661C14.3305 8.30578 14.4313 8.26726 14.5358 8.24221C14.6549 8.21233 14.7773 8.19789 14.9001 8.19932C15.0459 8.19918 15.1908 8.22339 15.3288 8.27081C15.4509 8.31419 15.5627 8.38247 15.6573 8.47101C15.751 8.55725 15.8222 8.66513 15.8645 8.78525C15.9178 8.91678 15.9445 9.05766 15.9429 9.19959C15.9412 9.33362 15.9172 9.46627 15.8716 9.59231C15.8232 9.72598 15.7584 9.85299 15.6787 9.97073C15.5969 10.0961 15.5061 10.2154 15.4072 10.3279L15.0715 10.6993L14.6643 11.128H16.0359V11.785Z" fill="#E5E5E5"/>
<path d="M16.9801 5.35938H4.03479C3.66069 5.35938 3.35742 5.64719 3.35742 6.00223V14.0022C3.35742 14.3573 3.66069 14.6451 4.03479 14.6451H16.9801C17.3542 14.6451 17.6574 14.3573 17.6574 14.0022V6.00223C17.6574 5.64719 17.3542 5.35938 16.9801 5.35938Z" stroke="#E5E5E5" stroke-width="0.75" stroke-linecap="round" stroke-linejoin="round"/>
</svg>
