<svg width="28" height="28" viewBox="0 0 28 28" fill="none" xmlns="http://www.w3.org/2000/svg">
<path d="M17.1175 10.3196H11.0583C9.70863 10.3196 8.62109 9.22037 8.62109 7.85611V5C8.62109 5 10.6408 6.63907 12.6702 6.63907H16.3115C18.3215 6.63907 19.9528 8.28796 19.9528 10.3196V11.5465C19.9528 12.6752 19.0498 13.588 17.9331 13.588V11.1343C17.9234 10.6828 17.5641 10.3196 17.1175 10.3196Z" stroke="#924514" stroke-width="0.75" stroke-miterlimit="10" stroke-linecap="round" stroke-linejoin="round"/>
<path d="M16.7101 16.1406V17.2693C16.7101 17.9466 17.2539 18.4962 17.9239 18.4962H19.7106C21.1768 18.4962 22.3712 19.7034 22.3712 21.1854V22.5791H7V21.1854C7 19.7034 8.19435 18.4962 9.66058 18.4962H11.4472C12.1172 18.4962 12.661 17.9466 12.661 17.2693V16.1406" stroke="#924514" stroke-width="0.75" stroke-miterlimit="10" stroke-linecap="round" stroke-linejoin="round"/>
<path d="M11.4453 18.4961L14.6885 20.5376L17.922 18.4961" stroke="#924514" stroke-width="0.75" stroke-miterlimit="10" stroke-linecap="round" stroke-linejoin="round"/>
<path d="M17.922 13.5886V13.7653C17.922 14.6879 17.4947 15.5516 16.7665 16.1111L15.9023 16.7588C15.1837 17.3085 14.1836 17.3085 13.465 16.7588L12.6008 16.1111C11.8726 15.5614 11.4453 14.6879 11.4453 13.7653V10.3203" stroke="#924514" stroke-width="0.75" stroke-miterlimit="10" stroke-linecap="round" stroke-linejoin="round"/>
</svg>
