<svg width="28" height="28" viewBox="0 0 28 28" fill="none" xmlns="http://www.w3.org/2000/svg">
<path d="M10.0391 15.5195H18.0191" stroke="#E5E5E5" stroke-width="0.75" stroke-miterlimit="10" stroke-linejoin="round"/>
<path d="M10.0391 11.4922H18.0191" stroke="#E5E5E5" stroke-width="0.75" stroke-miterlimit="10" stroke-linejoin="round"/>
<path d="M6.45 17.4919C4.76 17.1219 3.5 15.6819 3.5 13.9619C3.5 12.2219 4.8 10.7619 6.53 10.4219" stroke="#E5E5E5" stroke-width="0.75" stroke-miterlimit="10"/>
<path d="M21.5391 10.4219C23.2691 10.7619 24.5691 12.2219 24.5691 13.9619C24.5691 15.6819 23.3091 17.1219 21.6191 17.4819" stroke="#E5E5E5" stroke-width="0.75" stroke-miterlimit="10"/>
<path d="M21.5892 10.91C21.3792 9.01 21.3692 7.5 14.0292 7.5C6.67922 7.5 6.67922 9.01 6.46922 10.9C6.46922 10.93 6.44922 11.22 6.44922 11.22C6.44922 11.22 6.44922 16.94 6.44922 16.96C6.44922 18.95 6.44922 20.56 14.0292 20.56C20.9292 20.56 21.6092 18.95 21.6092 16.96C21.6092 16.93 21.6092 11.22 21.6092 11.22C21.6092 11.22 21.5992 10.94 21.5892 10.91Z" stroke="#E5E5E5" stroke-width="0.75" stroke-miterlimit="10"/>
</svg>
