<svg width="28" height="28" viewBox="0 0 28 28" fill="none" xmlns="http://www.w3.org/2000/svg">
<path fill-rule="evenodd" clip-rule="evenodd" d="M25.9688 6.75H2V6H25.9688V6.75Z" fill="#E5E5E5"/>
<path fill-rule="evenodd" clip-rule="evenodd" d="M25.9688 22.9219H2V22.1719H25.9688V22.9219Z" fill="#E5E5E5"/>
<path d="M4.46988 18L2.88338 12.433H2.84538C2.86438 12.6167 2.87704 12.8035 2.88338 12.9935C2.88971 13.1772 2.89604 13.3545 2.90238 13.5255C2.90871 13.6902 2.91188 13.8422 2.91188 13.9815V18H1.99038V11.217H3.37738L4.89738 16.5465H4.92588L6.45538 11.217H7.84238V18H6.89238V13.972C6.89238 13.8327 6.89238 13.6807 6.89238 13.516C6.89871 13.345 6.90504 13.1677 6.91138 12.984C6.92404 12.8003 6.93354 12.6167 6.93988 12.433H6.91138L5.30588 18H4.46988ZM10.0914 12.87V18H9.14143V12.87H10.0914ZM9.62593 10.9225C9.79059 10.9225 9.91726 10.9732 10.0059 11.0745C10.1009 11.1695 10.1484 11.3152 10.1484 11.5115C10.1484 11.7078 10.1009 11.8567 10.0059 11.958C9.91726 12.053 9.79059 12.1005 9.62593 12.1005C9.46126 12.1005 9.32826 12.053 9.22693 11.958C9.13193 11.8567 9.08443 11.7078 9.08443 11.5115C9.08443 11.3088 9.13193 11.16 9.22693 11.065C9.32193 10.97 9.45493 10.9225 9.62593 10.9225ZM12.7084 18.095C12.2017 18.095 11.8059 17.8702 11.5209 17.4205C11.2422 16.9645 11.1029 16.3058 11.1029 15.4445C11.1029 14.5832 11.2422 13.9245 11.5209 13.4685C11.8059 13.0062 12.1954 12.775 12.6894 12.775C12.873 12.775 13.0377 12.8067 13.1834 12.87C13.329 12.927 13.462 13.0125 13.5824 13.1265C13.7027 13.2405 13.804 13.3767 13.8864 13.535H13.9339C13.9275 13.3957 13.918 13.2595 13.9054 13.1265C13.899 12.9872 13.8959 12.8637 13.8959 12.756V10.78H14.8364V18H14.0859L13.9434 17.3635H13.8959C13.8009 17.5155 13.6964 17.6453 13.5824 17.753C13.4747 17.8607 13.348 17.943 13.2024 18C13.0567 18.0633 12.892 18.095 12.7084 18.095ZM12.9554 17.3065C13.2847 17.3065 13.5254 17.1703 13.6774 16.898C13.8294 16.6193 13.9054 16.1982 13.9054 15.6345V15.3875C13.9054 14.7795 13.8294 14.3267 13.6774 14.029C13.5317 13.7313 13.2879 13.5825 12.9459 13.5825C12.6545 13.5825 12.436 13.744 12.2904 14.067C12.1447 14.39 12.0719 14.8492 12.0719 15.4445C12.0719 16.0525 12.1447 16.5148 12.2904 16.8315C12.436 17.1482 12.6577 17.3065 12.9554 17.3065ZM17.4398 18.095C16.9332 18.095 16.5373 17.8702 16.2523 17.4205C15.9737 16.9645 15.8343 16.3058 15.8343 15.4445C15.8343 14.5832 15.9737 13.9245 16.2523 13.4685C16.5373 13.0062 16.9268 12.775 17.4208 12.775C17.6045 12.775 17.7692 12.8067 17.9148 12.87C18.0605 12.927 18.1935 13.0125 18.3138 13.1265C18.4342 13.2405 18.5355 13.3767 18.6178 13.535H18.6653C18.659 13.3957 18.6495 13.2595 18.6368 13.1265C18.6305 12.9872 18.6273 12.8637 18.6273 12.756V10.78H19.5678V18H18.8173L18.6748 17.3635H18.6273C18.5323 17.5155 18.4278 17.6453 18.3138 17.753C18.2062 17.8607 18.0795 17.943 17.9338 18C17.7882 18.0633 17.6235 18.095 17.4398 18.095ZM17.6868 17.3065C18.0162 17.3065 18.2568 17.1703 18.4088 16.898C18.5608 16.6193 18.6368 16.1982 18.6368 15.6345V15.3875C18.6368 14.7795 18.5608 14.3267 18.4088 14.029C18.2632 13.7313 18.0193 13.5825 17.6773 13.5825C17.386 13.5825 17.1675 13.744 17.0218 14.067C16.8762 14.39 16.8033 14.8492 16.8033 15.4445C16.8033 16.0525 16.8762 16.5148 17.0218 16.8315C17.1675 17.1482 17.3892 17.3065 17.6868 17.3065ZM21.7343 18H20.7938V10.78H21.7343V18ZM24.5702 12.7845C24.9502 12.7845 25.2668 12.8827 25.5202 13.079C25.7798 13.2753 25.9762 13.5445 26.1092 13.8865C26.2422 14.2285 26.3087 14.6243 26.3087 15.074V15.644H23.6867C23.6993 16.2013 23.8007 16.6193 23.9907 16.898C24.1807 17.1767 24.4657 17.316 24.8457 17.316C25.0737 17.316 25.2858 17.2875 25.4822 17.2305C25.6785 17.1735 25.8843 17.0817 26.0997 16.955V17.7625C25.897 17.8702 25.688 17.9525 25.4727 18.0095C25.2573 18.0665 25.0135 18.095 24.7412 18.095C24.2978 18.095 23.9273 17.9873 23.6297 17.772C23.332 17.5503 23.1103 17.2432 22.9647 16.8505C22.819 16.4578 22.7462 15.9987 22.7462 15.473C22.7462 14.8967 22.8158 14.409 22.9552 14.01C23.1008 13.611 23.3098 13.307 23.5822 13.098C23.8545 12.889 24.1838 12.7845 24.5702 12.7845ZM24.5797 13.5255C24.32 13.5255 24.1142 13.6427 23.9622 13.877C23.8102 14.1113 23.7215 14.466 23.6962 14.941H25.4157C25.4157 14.6687 25.384 14.428 25.3207 14.219C25.2637 14.01 25.175 13.8422 25.0547 13.7155C24.9343 13.5888 24.776 13.5255 24.5797 13.5255Z" fill="#E5E5E5"/>
</svg>
