<svg width="28" height="28" viewBox="0 0 28 28" fill="none" xmlns="http://www.w3.org/2000/svg">
<path d="M16 18.8828C16.2071 18.8828 16.375 18.7149 16.375 18.5078C16.375 18.3007 16.2071 18.1328 16 18.1328V18.8828ZM7 18.8828H16V18.1328H7V18.8828Z" fill="#F37321"/>
<path d="M19 21.5H8.04722C7.47683 21.5 7.02198 21.0237 7.04828 20.4539L7.53077 10M10.5 8.5H18.4451C18.9794 8.5 19.4194 8.92011 19.444 9.4539L19.7 15L19.8226 17.6558" stroke="#F37321" stroke-width="0.75" stroke-linecap="round"/>
<path d="M16.125 11C16.125 11.2071 16.2929 11.375 16.5 11.375C16.7071 11.375 16.875 11.2071 16.875 11H16.125ZM10.875 8C10.875 6.55025 12.0503 5.375 13.5 5.375V4.625C11.636 4.625 10.125 6.13604 10.125 8H10.875ZM13.5 5.375C14.9497 5.375 16.125 6.55025 16.125 8H16.875C16.875 6.13604 15.364 4.625 13.5 4.625V5.375ZM16.125 8V11H16.875V8H16.125ZM10.125 8V8.5H10.875V8H10.125Z" fill="#F37321"/>
<line x1="4.23053" y1="4.5" x2="22.085" y2="22.3544" stroke="#F37321" stroke-width="0.75" stroke-linecap="round"/>
</svg>
