<svg width="28" height="28" viewBox="0 0 28 28" fill="none" xmlns="http://www.w3.org/2000/svg">
<path d="M12.209 16.773C12.209 16.773 13.7538 15.2447 15.2985 16.773" stroke="#924514" stroke-width="0.75" stroke-miterlimit="10" stroke-linecap="round" stroke-linejoin="round"/>
<path d="M8.60448 20.8313C10.5952 20.8313 12.209 19.2347 12.209 17.2653C12.209 15.2958 10.5952 13.6992 8.60448 13.6992C6.61378 13.6992 5 15.2958 5 17.2653C5 19.2347 6.61378 20.8313 8.60448 20.8313Z" stroke="#924514" stroke-width="0.75" stroke-miterlimit="10" stroke-linecap="round" stroke-linejoin="round"/>
<path d="M15.3604 16.6056C15.32 16.8194 15.2988 17.0399 15.2988 17.2653C15.2988 19.2347 16.9126 20.8313 18.9033 20.8313C19.0818 20.8313 19.2574 20.8185 19.4289 20.7936M16.7209 14.4269C17.3266 13.9703 18.083 13.6992 18.9033 13.6992C20.894 13.6992 22.5078 15.2958 22.5078 17.2653C22.5078 18.0429 22.2562 18.7625 21.8291 19.3485" stroke="#924514" stroke-width="0.75" stroke-miterlimit="10" stroke-linecap="round" stroke-linejoin="round"/>
<path d="M5 16.7564C5 16.7564 6.86403 11.6417 7.0597 10.6432C7.13435 10.2469 7.35449 9.92071 7.64516 9.65454C7.74226 9.56563 7.8615 9.48003 7.99314 9.39901M11.1791 8.60547H10.9976" stroke="#924514" stroke-width="0.75" stroke-miterlimit="10" stroke-linecap="round" stroke-linejoin="round"/>
<path d="M22.5072 16.7551C22.5072 16.7551 20.6432 11.6403 20.4475 10.6418C20.1386 9.00147 17.3374 8.56336 17.358 8.60411H16.3281" stroke="#924514" stroke-width="0.75" stroke-miterlimit="10" stroke-linecap="round" stroke-linejoin="round"/>
<line x1="5.83111" y1="5.19922" x2="23.6856" y2="23.0537" stroke="#924514" stroke-width="0.75" stroke-linecap="round"/>
</svg>
