<svg width="28" height="28" viewBox="0 0 28 28" fill="none" xmlns="http://www.w3.org/2000/svg">
<path d="M10.04 15.5195H14.6729" stroke="#924514" stroke-width="0.75" stroke-miterlimit="10" stroke-linecap="square" stroke-linejoin="round"/>
<path d="M10.04 11.4922H10.7197M18.02 11.4922H14.6729" stroke="#924514" stroke-width="0.75" stroke-miterlimit="10" stroke-linecap="square" stroke-linejoin="round"/>
<path d="M6.45 17.4919C4.76 17.1219 3.5 15.6819 3.5 13.9619C3.5 12.2219 4.8 10.7619 6.53 10.4219" stroke="#924514" stroke-width="0.75" stroke-miterlimit="10"/>
<path d="M21.54 10.4219C23.27 10.7619 24.57 12.2219 24.57 13.9619C24.57 15.6819 23.31 17.1219 21.62 17.4819" stroke="#924514" stroke-width="0.75" stroke-miterlimit="10"/>
<path d="M10.7476 7.63854C11.6354 7.54834 12.7151 7.5 14.0302 7.5C21.3702 7.5 21.3802 9.01 21.5902 10.91C21.6002 10.94 21.6102 11.22 21.6102 11.22C21.6102 11.22 21.6102 16.93 21.6102 16.96C21.6102 18.95 20.9302 20.56 14.0302 20.56C6.4502 20.56 6.4502 18.95 6.4502 16.96C6.4502 16.94 6.4502 11.22 6.4502 11.22C6.4502 11.22 6.4702 10.93 6.4702 10.9C6.57548 9.95246 6.62798 9.10043 7.58034 8.4863" stroke="#924514" stroke-width="0.75" stroke-miterlimit="10" stroke-linecap="round"/>
<line x1="5.33013" y1="4.125" x2="23.1846" y2="21.9794" stroke="#924514" stroke-width="0.75" stroke-linecap="round"/>
</svg>
