<svg width="28" height="28" viewBox="0 0 28 28" fill="none" xmlns="http://www.w3.org/2000/svg">
<path d="M9.45117 17.1094L9.11108 15.9395H7.45117L7.11108 17.1094H6.03125L7.69116 12.1094H8.91113L10.5811 17.1094H9.45117ZM8.87109 15.0493L8.34106 13.2397C8.30698 13.1317 8.28042 13.0213 8.26123 12.9097C8.19123 13.1997 7.98112 13.9093 7.65112 15.0493H8.87109Z" fill="#E5E5E5"/>
<path d="M11.1602 12.1601H12.6201C13.122 12.1219 13.6247 12.2257 14.0703 12.4599C14.2286 12.5705 14.3539 12.7218 14.4331 12.8979C14.5123 13.0739 14.5424 13.2681 14.5203 13.4599C14.5335 13.7138 14.4669 13.9657 14.3301 14.1801C14.2703 14.2715 14.1925 14.3494 14.1013 14.4096C14.0102 14.4698 13.9079 14.5106 13.8003 14.5297C14.0576 14.5751 14.289 14.7142 14.4502 14.9198C14.5892 15.1517 14.6553 15.4199 14.6401 15.6899C14.6434 15.8804 14.6038 16.069 14.5242 16.2421C14.4445 16.4152 14.327 16.5684 14.1802 16.6899C13.8189 16.9626 13.372 17.0972 12.9202 17.0697H11.1602V12.1601ZM12.1602 14.1601H12.7302C12.9356 14.1786 13.1418 14.1328 13.3203 14.0297C13.383 13.978 13.432 13.9122 13.4634 13.8373C13.4947 13.7624 13.5074 13.6809 13.5002 13.6C13.5087 13.5198 13.4944 13.4386 13.459 13.3661C13.4236 13.2936 13.3687 13.2326 13.3003 13.1899C13.1087 13.0927 12.8947 13.048 12.6802 13.06H12.1602V14.1601ZM12.1602 14.9999V16.2899H12.8003C13.0173 16.3064 13.233 16.2463 13.4102 16.12C13.4797 16.0556 13.534 15.9759 13.5686 15.8876C13.6032 15.7993 13.6173 15.7044 13.6101 15.6098C13.6101 15.1998 13.3303 14.9999 12.7703 14.9999H12.1602Z" fill="#E5E5E5"/>
<path d="M17.6184 17.1099H16.6184V14.25C16.6184 14.19 16.6184 14.12 16.6184 14.04V13.7798C16.6234 13.6899 16.6234 13.5997 16.6184 13.5098C16.6232 13.4265 16.6232 13.343 16.6184 13.2598V13.3301C16.5836 13.3548 16.5533 13.3851 16.5286 13.4199L16.4285 13.5098L16.3284 13.6099L15.7886 14.0601L15.3086 13.4302L16.8186 12.1602H17.6384L17.6184 17.1099Z" fill="#E5E5E5"/>
<path d="M22.0413 17.11H18.8811V16.3903L19.9912 15.13L20.3711 14.6901C20.4773 14.5674 20.5743 14.437 20.6611 14.2999C20.7383 14.1807 20.8019 14.0533 20.8511 13.9201C20.9009 13.7823 20.9247 13.6368 20.9211 13.4904C20.925 13.42 20.9136 13.3494 20.8877 13.2838C20.8618 13.2182 20.8221 13.1588 20.7712 13.11C20.7219 13.0604 20.6623 13.0224 20.5967 12.9982C20.531 12.974 20.4608 12.9646 20.3911 12.9703C20.2193 12.9709 20.0506 13.0155 19.9011 13.1002C19.7233 13.2031 19.5588 13.3275 19.4111 13.4703L18.8711 12.7999L19.1711 12.5402C19.2799 12.4521 19.3973 12.3751 19.5212 12.3102C19.6538 12.239 19.7949 12.1851 19.9412 12.15C20.1079 12.1082 20.2793 12.088 20.4512 12.09C20.6553 12.0898 20.8582 12.1237 21.0513 12.1901C21.2222 12.2508 21.3788 12.3464 21.5112 12.4703C21.6424 12.5911 21.742 12.7421 21.8013 12.9103C21.876 13.0944 21.9132 13.2917 21.9111 13.4904C21.9087 13.678 21.8751 13.8637 21.8113 14.0402C21.7435 14.2273 21.6528 14.4051 21.5413 14.57C21.4267 14.7455 21.2995 14.9126 21.1611 15.07L20.6912 15.59L20.1211 16.1901H22.0413V17.11Z" fill="#E5E5E5"/>
<path d="M22.6 8.5H5.4C4.90294 8.5 4.5 8.90294 4.5 9.4V20.6C4.5 21.0971 4.90294 21.5 5.4 21.5H22.6C23.0971 21.5 23.5 21.0971 23.5 20.6V9.4C23.5 8.90294 23.0971 8.5 22.6 8.5Z" stroke="#E5E5E5" stroke-width="0.75" stroke-linecap="round" stroke-linejoin="round"/>
</svg>
