<svg width="20" height="20" viewBox="0 0 20 20" fill="none" xmlns="http://www.w3.org/2000/svg">
<g clip-path="url(#clip0_4256_117400)">
<path d="M12.2863 4.99665C12.2863 5.98237 11.4863 6.78237 10.5006 6.78237C9.51484 6.78237 8.71484 5.98237 8.71484 4.99665C8.71484 4.01094 9.51484 3.21094 10.5006 3.21094C11.4863 3.21094 12.2863 4.01094 12.2863 4.99665Z" stroke="#E5E5E5" stroke-width="0.75" stroke-miterlimit="10" stroke-linejoin="round"/>
<path d="M13.6076 8.18839C13.529 7.40268 13.0861 6.78125 12.0361 6.78125C12.029 6.78125 8.85042 6.78125 8.85042 6.78125C8.00042 6.78125 7.32185 7.43839 7.27899 8.25982L6.78613 11.7741C6.78613 12.1598 7.10756 12.4741 7.50042 12.4741H8.32185L8.52185 16.0598C8.52185 16.4455 8.84328 16.7598 9.23613 16.7598H11.6576C12.0504 16.7598 12.3718 16.4455 12.3718 16.0598L12.5718 12.4741H13.4004C13.7933 12.4741 14.1147 12.1598 14.1147 11.7741L13.6076 8.18839Z" stroke="#E5E5E5" stroke-width="0.75" stroke-miterlimit="10" stroke-linejoin="round"/>
</g>
<defs>
<clipPath id="clip0_4256_117400">
<rect width="8.04286" height="14.2643" fill="white" transform="translate(6.42871 2.85547)"/>
</clipPath>
</defs>
</svg>
