<svg width="28" height="28" viewBox="0 0 28 28" fill="none" xmlns="http://www.w3.org/2000/svg">
<g clip-path="url(#clip0_4122_54956)">
<path d="M17.1992 7C17.1992 8.38 16.0792 9.5 14.6992 9.5C13.3192 9.5 12.1992 8.38 12.1992 7C12.1992 5.62 13.3192 4.5 14.6992 4.5C16.0792 4.5 17.1992 5.62 17.1992 7Z" stroke="#F37321" stroke-width="0.75" stroke-miterlimit="10" stroke-linejoin="round"/>
<path d="M19.05 11.47C18.94 10.37 18.32 9.5 16.85 9.5C16.84 9.5 12.39 9.5 12.39 9.5C11.2 9.5 10.25 10.42 10.19 11.57L9.5 16.49C9.5 17.03 9.95 17.47 10.5 17.47H11.65L11.93 22.49C11.93 23.03 12.38 23.47 12.93 23.47H16.32C16.87 23.47 17.32 23.03 17.32 22.49L17.6 17.47H18.76C19.31 17.47 19.76 17.03 19.76 16.49L19.05 11.47Z" stroke="#F37321" stroke-width="0.75" stroke-miterlimit="10" stroke-linejoin="round"/>
</g>
<defs>
<clipPath id="clip0_4122_54956">
<rect width="11.26" height="19.97" fill="white" transform="translate(9 4)"/>
</clipPath>
</defs>
</svg>
