<svg width="28" height="28" viewBox="0 0 28 28" fill="none" xmlns="http://www.w3.org/2000/svg">
<line x1="1.91406" y1="6.28516" x2="25.8828" y2="6.28516" stroke="#F37321" stroke-width="0.75"/>
<line x1="1.91406" y1="22.457" x2="25.8828" y2="22.457" stroke="#F37321" stroke-width="0.75"/>
<path d="M5.79638 16.0174C5.79638 16.4101 5.71088 16.7553 5.53988 17.0529C5.37521 17.3506 5.14088 17.5818 4.83688 17.7464C4.53288 17.9111 4.17504 17.9934 3.76338 17.9934C3.14271 17.9934 2.61388 17.8858 2.17688 17.6704V16.6919C2.41121 16.8186 2.66771 16.9199 2.94638 16.9959C3.23138 17.0719 3.50054 17.1099 3.75388 17.1099C4.10221 17.1099 4.36504 17.0149 4.54238 16.8249C4.72604 16.6286 4.81788 16.3879 4.81788 16.1029C4.81788 15.9066 4.77988 15.7388 4.70388 15.5994C4.63421 15.4538 4.51388 15.3208 4.34288 15.2004C4.17821 15.0738 3.95021 14.9408 3.65888 14.8014C3.36754 14.6621 3.11421 14.5101 2.89888 14.3454C2.68988 14.1744 2.52521 13.9718 2.40488 13.7374C2.29088 13.4968 2.23388 13.1959 2.23388 12.8349C2.23388 12.4739 2.31304 12.1573 2.47138 11.8849C2.62971 11.6063 2.85454 11.3941 3.14588 11.2484C3.43721 11.0964 3.77288 11.0204 4.15288 11.0204C4.44421 11.0204 4.72288 11.0553 4.98888 11.1249C5.25488 11.1946 5.49871 11.2833 5.72038 11.3909L5.42588 12.2459C5.21054 12.1383 4.99521 12.0559 4.77988 11.9989C4.57088 11.9356 4.36504 11.9039 4.16238 11.9039C3.85838 11.9039 3.62404 11.9894 3.45938 12.1604C3.29471 12.3251 3.21238 12.5373 3.21238 12.7969C3.21238 13.0059 3.24721 13.1801 3.31688 13.3194C3.38654 13.4588 3.50371 13.5854 3.66838 13.6994C3.83938 13.8134 4.06738 13.9433 4.35238 14.0889C4.82738 14.3233 5.18521 14.5861 5.42588 14.8774C5.67288 15.1688 5.79638 15.5488 5.79638 16.0174ZM8.46573 12.6829C8.85206 12.6829 9.17823 12.7811 9.44423 12.9774C9.71023 13.1674 9.90973 13.4366 10.0427 13.7849C10.1821 14.1269 10.2517 14.5228 10.2517 14.9724V15.5424H7.51573C7.53473 16.6571 7.94006 17.2144 8.73173 17.2144C8.96606 17.2144 9.18773 17.1859 9.39673 17.1289C9.60573 17.0719 9.81789 16.9801 10.0332 16.8534V17.6609C9.62789 17.8826 9.16556 17.9934 8.64623 17.9934C7.94956 17.9934 7.43023 17.7559 7.08823 17.2809C6.74623 16.7996 6.57523 16.1631 6.57523 15.3714C6.57523 14.5101 6.73989 13.8483 7.06923 13.3859C7.39856 12.9173 7.86406 12.6829 8.46573 12.6829ZM8.46573 13.4239C8.19339 13.4239 7.97489 13.5411 7.81023 13.7754C7.64556 14.0098 7.55056 14.3644 7.52523 14.8394H9.35873C9.35873 14.4341 9.28589 14.0984 9.14023 13.8324C8.99456 13.5601 8.76973 13.4239 8.46573 13.4239ZM13.4787 12.6734C13.941 12.6734 14.2957 12.8223 14.5427 13.1199C14.796 13.4113 14.9227 13.8641 14.9227 14.4784V17.8984H13.9917V14.6779C13.9917 14.2853 13.9315 13.9908 13.8112 13.7944C13.6972 13.5918 13.5072 13.4904 13.2412 13.4904C12.8675 13.4904 12.6047 13.6361 12.4527 13.9274C12.3007 14.2188 12.2247 14.6748 12.2247 15.2954V17.8984H11.2937V12.7684H12.0347L12.1487 13.4524H12.2057C12.3324 13.1991 12.5065 13.0059 12.7282 12.8729C12.9562 12.7399 13.2064 12.6734 13.4787 12.6734ZM16.6764 10.8209C17.0247 10.8209 17.1989 11.0173 17.1989 11.4099C17.1989 11.6063 17.1514 11.7551 17.0564 11.8564C16.9614 11.9514 16.8347 11.9989 16.6764 11.9989C16.5181 11.9989 16.3882 11.9514 16.2869 11.8564C16.1919 11.7551 16.1444 11.6063 16.1444 11.4099C16.1444 11.2136 16.1919 11.0679 16.2869 10.9729C16.3819 10.8716 16.5117 10.8209 16.6764 10.8209ZM17.1324 12.7684V17.8984H16.2014V12.7684H17.1324ZM22.161 15.3239C22.161 15.8559 22.085 16.3246 21.933 16.7299C21.7873 17.1289 21.5657 17.4393 21.268 17.6609C20.9767 17.8826 20.6093 17.9934 20.166 17.9934C19.748 17.9934 19.3933 17.8826 19.102 17.6609C18.8107 17.4393 18.589 17.1289 18.437 16.7299C18.285 16.3309 18.209 15.8623 18.209 15.3239C18.209 14.4943 18.3737 13.8451 18.703 13.3764C19.0323 12.9078 19.5263 12.6734 20.185 12.6734C20.7867 12.6734 21.2648 12.9014 21.6195 13.3574C21.9805 13.8071 22.161 14.4626 22.161 15.3239ZM19.1685 15.3334C19.1685 15.9351 19.2477 16.3974 19.406 16.7204C19.5707 17.0371 19.8303 17.1954 20.185 17.1954C20.5397 17.1954 20.7962 17.0371 20.9545 16.7204C21.1192 16.4038 21.2015 15.9383 21.2015 15.3239C21.2015 14.7159 21.1192 14.2568 20.9545 13.9464C20.7962 13.6298 20.5397 13.4714 20.185 13.4714C19.8303 13.4714 19.5707 13.6298 19.406 13.9464C19.2477 14.2568 19.1685 14.7191 19.1685 15.3334ZM25.3048 12.6734C25.3808 12.6734 25.46 12.6798 25.5423 12.6924C25.6247 12.6988 25.7038 12.7146 25.7798 12.7399L25.6658 13.6899C25.6025 13.6646 25.5328 13.6488 25.4568 13.6424C25.3872 13.6298 25.3143 13.6234 25.2383 13.6234C24.928 13.6234 24.6683 13.7723 24.4593 14.0699C24.2567 14.3613 24.1553 14.7476 24.1553 15.2289V17.8984H23.2243V12.7684H23.9558L24.0793 13.6519H24.1268C24.2535 13.3733 24.415 13.1421 24.6113 12.9584C24.8077 12.7684 25.0388 12.6734 25.3048 12.6734Z" fill="#F37321"/>
</svg>
