<svg width="28" height="28" viewBox="0 0 28 28" fill="none" xmlns="http://www.w3.org/2000/svg">
<line x1="2" y1="6.39062" x2="25.9688" y2="6.39062" stroke="#F37321" stroke-width="0.75"/>
<line x1="2" y1="22.5625" x2="25.9688" y2="22.5625" stroke="#F37321" stroke-width="0.75"/>
<path d="M3.92613 14.1148L5.11363 11.0178H6.13013L4.40113 15.1693V17.8008H3.43213V15.1978L1.70312 11.0178H2.72913L3.92613 14.1148ZM10.5352 15.2263C10.5352 15.7583 10.4592 16.2269 10.3072 16.6323C10.1615 17.0313 9.93982 17.3416 9.64216 17.5633C9.35082 17.7849 8.98349 17.8958 8.54016 17.8958C8.12216 17.8958 7.76749 17.7849 7.47616 17.5633C7.18482 17.3416 6.96316 17.0313 6.81116 16.6323C6.65916 16.2333 6.58316 15.7646 6.58316 15.2263C6.58316 14.3966 6.74782 13.7474 7.07716 13.2788C7.40649 12.8101 7.90049 12.5758 8.55916 12.5758C9.16082 12.5758 9.63899 12.8038 9.99366 13.2598C10.3547 13.7094 10.5352 14.3649 10.5352 15.2263ZM7.54266 15.2358C7.54266 15.8374 7.62182 16.2998 7.78016 16.6228C7.94482 16.9394 8.20449 17.0978 8.55916 17.0978C8.91382 17.0978 9.17032 16.9394 9.32866 16.6228C9.49332 16.3061 9.57566 15.8406 9.57566 15.2263C9.57566 14.6183 9.49332 14.1591 9.32866 13.8488C9.17032 13.5321 8.91382 13.3738 8.55916 13.3738C8.20449 13.3738 7.94482 13.5321 7.78016 13.8488C7.62182 14.1591 7.54266 14.6214 7.54266 15.2358ZM15.5885 12.6708V17.8008H14.838L14.724 17.1263H14.667C14.5403 17.3859 14.3662 17.5791 14.1445 17.7058C13.9228 17.8324 13.6758 17.8958 13.4035 17.8958C12.9032 17.8958 12.5358 17.7343 12.3015 17.4113C12.0672 17.0883 11.95 16.6259 11.95 16.0243V12.6708H12.8905V15.8343C12.8905 16.6639 13.1312 17.0788 13.6125 17.0788C14.0052 17.0788 14.2743 16.9331 14.42 16.6418C14.572 16.3504 14.648 15.9166 14.648 15.3403V12.6708H15.5885ZM19.4512 12.5758C19.9135 12.5758 20.2682 12.7246 20.5152 13.0223C20.7685 13.3136 20.8952 13.7664 20.8952 14.3808V17.8008H19.9642V14.5803C19.9642 14.1876 19.904 13.8931 19.7837 13.6968C19.6697 13.4941 19.4797 13.3928 19.2137 13.3928C18.84 13.3928 18.5772 13.5384 18.4252 13.8298C18.2732 14.1211 18.1972 14.5771 18.1972 15.1978V17.8008H17.2662V12.6708H18.0072L18.1212 13.3548H18.1782C18.3049 13.1014 18.479 12.9083 18.7007 12.7753C18.9287 12.6423 19.1789 12.5758 19.4512 12.5758ZM23.9884 12.5758C24.2544 12.5758 24.4888 12.6359 24.6914 12.7563C24.9004 12.8766 25.0809 13.0729 25.2329 13.3453H25.2804L25.3849 12.6708H26.1639V17.7913C26.1639 18.5259 25.9929 19.0896 25.6509 19.4823C25.3153 19.8813 24.7801 20.0808 24.0454 20.0808C23.4818 20.0808 23.0004 19.9763 22.6014 19.7673V18.9123C23.0701 19.1593 23.5514 19.2828 24.0454 19.2828C24.4318 19.2828 24.7263 19.1783 24.9289 18.9693C25.1316 18.7666 25.2329 18.4404 25.2329 17.9908V17.8388C25.2329 17.7438 25.2361 17.6298 25.2424 17.4968C25.2488 17.3574 25.2583 17.2276 25.2709 17.1073H25.2329C24.9353 17.6329 24.5109 17.8958 23.9599 17.8958C23.4406 17.8958 23.0353 17.6678 22.7439 17.2118C22.4589 16.7558 22.3164 16.1034 22.3164 15.2548C22.3164 14.3934 22.4653 13.7316 22.7629 13.2693C23.0606 12.8069 23.4691 12.5758 23.9884 12.5758ZM24.2069 13.3928C23.5863 13.3928 23.2759 14.0198 23.2759 15.2738C23.2759 15.8944 23.3551 16.3536 23.5134 16.6513C23.6718 16.9489 23.9093 17.0978 24.2259 17.0978C24.5679 17.0978 24.8213 16.9648 24.9859 16.6988C25.1569 16.4328 25.2424 16.0179 25.2424 15.4543V15.2263C25.2424 14.5803 25.1601 14.1148 24.9954 13.8298C24.8308 13.5384 24.5679 13.3928 24.2069 13.3928Z" fill="#F37321"/>
</svg>
