<svg width="20" height="20" viewBox="0 0 20 20" fill="none" xmlns="http://www.w3.org/2000/svg">
<path fill-rule="evenodd" clip-rule="evenodd" d="M16.0713 3.93754C15.7753 3.64046 15.4232 3.40467 15.0352 3.24376C14.6472 3.08285 14.2311 3 13.8108 3C13.3905 3 12.9744 3.08285 12.5864 3.24376C12.1984 3.40467 11.8463 3.64046 11.5503 3.93754L10.1438 5.36868C9.71551 5.79842 9.42013 6.34151 9.29273 6.93345C9.16533 7.52538 9.21125 8.14129 9.42506 8.70801L10.0433 8.09247C9.96187 7.70438 9.97855 7.30223 10.0919 6.92215C10.2052 6.54207 10.4116 6.19598 10.6925 5.91498L12.1299 4.48384C12.3525 4.26166 12.6169 4.08539 12.9079 3.96511C13.199 3.84484 13.5111 3.78293 13.8263 3.78293C14.1414 3.78293 14.4535 3.84484 14.7446 3.96511C15.0356 4.08539 15.3 4.26166 15.5226 4.48384C15.7487 4.70238 15.9276 4.96452 16.0486 5.25424C16.1695 5.54396 16.2298 5.85518 16.2258 6.16889C16.2269 6.48333 16.1653 6.79484 16.0445 7.0854C15.9238 7.37597 15.7464 7.6398 15.5226 7.86164L14.0851 9.29278C13.803 9.56778 13.4578 9.77032 13.0795 9.88292C12.7012 9.99552 12.301 10.0148 11.9135 9.9391L11.2798 10.57C11.6327 10.7047 12.007 10.775 12.3849 10.7778C12.8047 10.7775 13.2203 10.6945 13.6076 10.5333C13.995 10.3722 14.3464 10.1362 14.6416 9.83907L16.0713 8.40024C16.3657 8.10728 16.5993 7.75942 16.7586 7.37656C16.918 6.9937 17 6.58332 17 6.16889C17 5.75446 16.918 5.34408 16.7586 4.96122C16.5993 4.57835 16.3657 4.2305 16.0713 3.93754ZM9.30649 14.1125L7.86682 15.5562C7.64366 15.781 7.37825 15.9591 7.08596 16.0804C6.79366 16.2016 6.48029 16.2635 6.16398 16.2625C5.68827 16.2634 5.22303 16.1225 4.82735 15.8577C4.43168 15.5929 4.12343 15.2161 3.94176 14.7753C3.76009 14.3344 3.71321 13.8493 3.80707 13.3817C3.90092 12.914 4.13128 12.4849 4.46888 12.1489L5.90855 10.7052C6.19265 10.4305 6.539 10.2291 6.91784 10.1183C7.29669 10.0074 7.69671 9.99042 8.08354 10.0688L8.71824 9.43232C8.14886 9.21269 7.52805 9.164 6.93154 9.29217C6.33504 9.42035 5.78863 9.71985 5.359 10.1541L3.91933 11.5667C3.47899 12.0132 3.17985 12.5801 3.0594 13.1963C2.93895 13.8125 3.00255 14.4507 3.24223 15.0308C3.48191 15.6109 3.887 16.1072 4.40675 16.4575C4.92649 16.8078 5.53777 16.9964 6.16398 16.9998C6.99995 17.0088 7.80601 16.6883 8.40863 16.1072L9.85604 14.6714C10.2842 14.2373 10.5794 13.6895 10.707 13.0926C10.8345 12.4957 10.7891 11.8747 10.5759 11.3028L9.95666 11.9238C10.0369 12.3141 10.0195 12.7182 9.90605 13.1001C9.7926 13.482 9.58662 13.8299 9.30649 14.1125ZM12.0584 7.39171L7.39171 12.0584L7.94168 12.6083L12.6083 7.94168L12.0584 7.39171Z" fill="#909090"/>
</svg>
