<svg width="46" height="20" viewBox="0 0 46 20" fill="none" xmlns="http://www.w3.org/2000/svg">
<rect x="2.5" y="1.5" width="41" height="17" rx="8.5" stroke="#909090"/>
<path d="M22.5527 10.0098C22.5527 10.8457 22.4121 11.5762 22.1309 12.2012C21.8496 12.8223 21.4512 13.2969 20.9355 13.625C20.4199 13.9531 19.8184 14.1172 19.1309 14.1172C18.459 14.1172 17.8633 13.9531 17.3438 13.625C16.8242 13.293 16.4199 12.8223 16.1309 12.2129C15.8457 11.5996 15.6992 10.8906 15.6914 10.0859V9.4707C15.6914 8.65039 15.834 7.92578 16.1191 7.29688C16.4043 6.66797 16.8066 6.1875 17.3262 5.85547C17.8496 5.51953 18.4473 5.35156 19.1191 5.35156C19.8027 5.35156 20.4043 5.51758 20.9238 5.84961C21.4473 6.17773 21.8496 6.65625 22.1309 7.28516C22.4121 7.91016 22.5527 8.63867 22.5527 9.4707V10.0098ZM21.4336 9.45898C21.4336 8.44727 21.2305 7.67188 20.8242 7.13281C20.418 6.58984 19.8496 6.31836 19.1191 6.31836C18.4082 6.31836 17.8477 6.58984 17.4375 7.13281C17.0312 7.67188 16.8223 8.42188 16.8105 9.38281V10.0098C16.8105 10.9902 17.0156 11.7617 17.4258 12.3242C17.8398 12.8828 18.4082 13.1621 19.1309 13.1621C19.8574 13.1621 20.4199 12.8984 20.8184 12.3711C21.2168 11.8398 21.4219 11.0801 21.4336 10.0918V9.45898ZM24.6035 14V8.49805H23.6016V7.66016H24.6035V7.00977C24.6035 6.33008 24.7852 5.80469 25.1484 5.43359C25.5117 5.0625 26.0254 4.87695 26.6895 4.87695C26.9395 4.87695 27.1875 4.91016 27.4336 4.97656L27.375 5.85547C27.1914 5.82031 26.9961 5.80273 26.7891 5.80273C26.4375 5.80273 26.166 5.90625 25.9746 6.11328C25.7832 6.31641 25.6875 6.60938 25.6875 6.99219V7.66016H27.041V8.49805H25.6875V14H24.6035ZM28.7754 14V8.49805H27.7734V7.66016H28.7754V7.00977C28.7754 6.33008 28.957 5.80469 29.3203 5.43359C29.6836 5.0625 30.1973 4.87695 30.8613 4.87695C31.1113 4.87695 31.3594 4.91016 31.6055 4.97656L31.5469 5.85547C31.3633 5.82031 31.168 5.80273 30.9609 5.80273C30.6094 5.80273 30.3379 5.90625 30.1465 6.11328C29.9551 6.31641 29.8594 6.60938 29.8594 6.99219V7.66016H31.2129V8.49805H29.8594V14H28.7754Z" fill="#909090"/>
</svg>
