<svg width="46" height="20" viewBox="0 0 46 20" fill="none" xmlns="http://www.w3.org/2000/svg">
<rect x="2.5" y="1.5" width="41" height="17" rx="8.5" stroke="#8DC63F"/>
<path d="M23.6172 10.0098C23.6172 10.8457 23.4766 11.5762 23.1953 12.2012C22.9141 12.8223 22.5156 13.2969 22 13.625C21.4844 13.9531 20.8828 14.1172 20.1953 14.1172C19.5234 14.1172 18.9277 13.9531 18.4082 13.625C17.8887 13.293 17.4844 12.8223 17.1953 12.2129C16.9102 11.5996 16.7637 10.8906 16.7559 10.0859V9.4707C16.7559 8.65039 16.8984 7.92578 17.1836 7.29688C17.4688 6.66797 17.8711 6.1875 18.3906 5.85547C18.9141 5.51953 19.5117 5.35156 20.1836 5.35156C20.8672 5.35156 21.4688 5.51758 21.9883 5.84961C22.5117 6.17773 22.9141 6.65625 23.1953 7.28516C23.4766 7.91016 23.6172 8.63867 23.6172 9.4707V10.0098ZM22.498 9.45898C22.498 8.44727 22.2949 7.67188 21.8887 7.13281C21.4824 6.58984 20.9141 6.31836 20.1836 6.31836C19.4727 6.31836 18.9121 6.58984 18.502 7.13281C18.0957 7.67188 17.8867 8.42188 17.875 9.38281V10.0098C17.875 10.9902 18.0801 11.7617 18.4902 12.3242C18.9043 12.8828 19.4727 13.1621 20.1953 13.1621C20.9219 13.1621 21.4844 12.8984 21.8828 12.3711C22.2812 11.8398 22.4863 11.0801 22.498 10.0918V9.45898ZM26.1602 7.66016L26.1953 8.45703C26.6797 7.84766 27.3125 7.54297 28.0938 7.54297C29.4336 7.54297 30.1094 8.29883 30.1211 9.81055V14H29.0371V9.80469C29.0332 9.34766 28.9277 9.00977 28.7207 8.79102C28.5176 8.57227 28.1992 8.46289 27.7656 8.46289C27.4141 8.46289 27.1055 8.55664 26.8398 8.74414C26.5742 8.93164 26.3672 9.17773 26.2188 9.48242V14H25.1348V7.66016H26.1602Z" fill="#8DC63F"/>
</svg>
