<svg width="160" height="18" viewBox="0 0 160 18" fill="none" xmlns="http://www.w3.org/2000/svg">
<rect x="0.5" y="0.5" width="159" height="17" rx="8.5" stroke="#909090"/>
<rect x="80.5" y="0.5" width="79" height="17" rx="8.5" stroke="#909090"/>
<path d="M30.3867 12.0801H34.4297V13H29.2559V4.46875H30.3867V12.0801ZM36.7207 13H35.6367V6.66016H36.7207V13ZM35.5488 4.97852C35.5488 4.80273 35.6016 4.6543 35.707 4.5332C35.8164 4.41211 35.9766 4.35156 36.1875 4.35156C36.3984 4.35156 36.5586 4.41211 36.668 4.5332C36.7773 4.6543 36.832 4.80273 36.832 4.97852C36.832 5.1543 36.7773 5.30078 36.668 5.41797C36.5586 5.53516 36.3984 5.59375 36.1875 5.59375C35.9766 5.59375 35.8164 5.53516 35.707 5.41797C35.6016 5.30078 35.5488 5.1543 35.5488 4.97852ZM40.5527 11.5293L42.123 6.66016H43.2305L40.957 13H40.1309L37.834 6.66016H38.9414L40.5527 11.5293ZM46.8223 13.1172C45.9629 13.1172 45.2637 12.8359 44.7246 12.2734C44.1855 11.707 43.916 10.9512 43.916 10.0059V9.80664C43.916 9.17773 44.0352 8.61719 44.2734 8.125C44.5156 7.62891 44.8516 7.24219 45.2812 6.96484C45.7148 6.68359 46.1836 6.54297 46.6875 6.54297C47.5117 6.54297 48.1523 6.81445 48.6094 7.35742C49.0664 7.90039 49.2949 8.67773 49.2949 9.68945V10.1406H45C45.0156 10.7656 45.1973 11.2715 45.5449 11.6582C45.8965 12.041 46.3418 12.2324 46.8809 12.2324C47.2637 12.2324 47.5879 12.1543 47.8535 11.998C48.1191 11.8418 48.3516 11.6348 48.5508 11.377L49.2129 11.8926C48.6816 12.709 47.8848 13.1172 46.8223 13.1172ZM46.6875 7.43359C46.25 7.43359 45.8828 7.59375 45.5859 7.91406C45.2891 8.23047 45.1055 8.67578 45.0352 9.25H48.2109V9.16797C48.1797 8.61719 48.0312 8.19141 47.7656 7.89062C47.5 7.58594 47.1406 7.43359 46.6875 7.43359Z" fill="#909090"/>
<path d="M97.498 9.66016V13H96.373V4.46875H99.5195C100.453 4.46875 101.184 4.70703 101.711 5.18359C102.242 5.66016 102.508 6.29102 102.508 7.07617C102.508 7.9043 102.248 8.54297 101.729 8.99219C101.213 9.4375 100.473 9.66016 99.5078 9.66016H97.498ZM97.498 8.74023H99.5195C100.121 8.74023 100.582 8.59961 100.902 8.31836C101.223 8.0332 101.383 7.62305 101.383 7.08789C101.383 6.58008 101.223 6.17383 100.902 5.86914C100.582 5.56445 100.143 5.40625 99.584 5.39453H97.498V8.74023ZM104.951 13H103.867V4H104.951V13ZM110.605 13C110.543 12.875 110.492 12.6523 110.453 12.332C109.949 12.8555 109.348 13.1172 108.648 13.1172C108.023 13.1172 107.51 12.9414 107.107 12.5898C106.709 12.2344 106.51 11.7852 106.51 11.2422C106.51 10.582 106.76 10.0703 107.26 9.70703C107.764 9.33984 108.471 9.15625 109.381 9.15625H110.436V8.6582C110.436 8.2793 110.322 7.97852 110.096 7.75586C109.869 7.5293 109.535 7.41602 109.094 7.41602C108.707 7.41602 108.383 7.51367 108.121 7.70898C107.859 7.9043 107.729 8.14062 107.729 8.41797H106.639C106.639 8.10156 106.75 7.79688 106.973 7.50391C107.199 7.20703 107.504 6.97266 107.887 6.80078C108.273 6.62891 108.697 6.54297 109.158 6.54297C109.889 6.54297 110.461 6.72656 110.875 7.09375C111.289 7.45703 111.504 7.95898 111.52 8.59961V11.5176C111.52 12.0996 111.594 12.5625 111.742 12.9062V13H110.605ZM108.807 12.1738C109.146 12.1738 109.469 12.0859 109.773 11.9102C110.078 11.7344 110.299 11.5059 110.436 11.2246V9.92383H109.586C108.258 9.92383 107.594 10.3125 107.594 11.0898C107.594 11.4297 107.707 11.6953 107.934 11.8867C108.16 12.0781 108.451 12.1738 108.807 12.1738ZM115.199 11.4121L116.676 6.66016H117.836L115.287 13.9785C114.893 15.0332 114.266 15.5605 113.406 15.5605L113.201 15.543L112.797 15.4668V14.5879L113.09 14.6113C113.457 14.6113 113.742 14.5371 113.945 14.3887C114.152 14.2402 114.322 13.9688 114.455 13.5742L114.695 12.9297L112.434 6.66016H113.617L115.199 11.4121ZM124.176 9.90039C124.176 10.8691 123.953 11.6484 123.508 12.2383C123.062 12.8242 122.465 13.1172 121.715 13.1172C120.914 13.1172 120.295 12.834 119.857 12.2676L119.805 13H118.809V4H119.893V7.35742C120.33 6.81445 120.934 6.54297 121.703 6.54297C122.473 6.54297 123.076 6.83398 123.514 7.41602C123.955 7.99805 124.176 8.79492 124.176 9.80664V9.90039ZM123.092 9.77734C123.092 9.03906 122.949 8.46875 122.664 8.06641C122.379 7.66406 121.969 7.46289 121.434 7.46289C120.719 7.46289 120.205 7.79492 119.893 8.45898V11.2012C120.225 11.8652 120.742 12.1973 121.445 12.1973C121.965 12.1973 122.369 11.9961 122.658 11.5938C122.947 11.1914 123.092 10.5859 123.092 9.77734ZM129.461 13C129.398 12.875 129.348 12.6523 129.309 12.332C128.805 12.8555 128.203 13.1172 127.504 13.1172C126.879 13.1172 126.365 12.9414 125.963 12.5898C125.564 12.2344 125.365 11.7852 125.365 11.2422C125.365 10.582 125.615 10.0703 126.115 9.70703C126.619 9.33984 127.326 9.15625 128.236 9.15625H129.291V8.6582C129.291 8.2793 129.178 7.97852 128.951 7.75586C128.725 7.5293 128.391 7.41602 127.949 7.41602C127.562 7.41602 127.238 7.51367 126.977 7.70898C126.715 7.9043 126.584 8.14062 126.584 8.41797H125.494C125.494 8.10156 125.605 7.79688 125.828 7.50391C126.055 7.20703 126.359 6.97266 126.742 6.80078C127.129 6.62891 127.553 6.54297 128.014 6.54297C128.744 6.54297 129.316 6.72656 129.73 7.09375C130.145 7.45703 130.359 7.95898 130.375 8.59961V11.5176C130.375 12.0996 130.449 12.5625 130.598 12.9062V13H129.461ZM127.662 12.1738C128.002 12.1738 128.324 12.0859 128.629 11.9102C128.934 11.7344 129.154 11.5059 129.291 11.2246V9.92383H128.441C127.113 9.92383 126.449 10.3125 126.449 11.0898C126.449 11.4297 126.562 11.6953 126.789 11.8867C127.016 12.0781 127.307 12.1738 127.662 12.1738ZM134.617 12.2324C135.004 12.2324 135.342 12.1152 135.631 11.8809C135.92 11.6465 136.08 11.3535 136.111 11.002H137.137C137.117 11.3652 136.992 11.7109 136.762 12.0391C136.531 12.3672 136.223 12.6289 135.836 12.8242C135.453 13.0195 135.047 13.1172 134.617 13.1172C133.754 13.1172 133.066 12.8301 132.555 12.2559C132.047 11.6777 131.793 10.8887 131.793 9.88867V9.70703C131.793 9.08984 131.906 8.54102 132.133 8.06055C132.359 7.58008 132.684 7.20703 133.105 6.94141C133.531 6.67578 134.033 6.54297 134.611 6.54297C135.322 6.54297 135.912 6.75586 136.381 7.18164C136.854 7.60742 137.105 8.16016 137.137 8.83984H136.111C136.08 8.42969 135.924 8.09375 135.643 7.83203C135.365 7.56641 135.021 7.43359 134.611 7.43359C134.061 7.43359 133.633 7.63281 133.328 8.03125C133.027 8.42578 132.877 8.99805 132.877 9.74805V9.95312C132.877 10.6836 133.027 11.2461 133.328 11.6406C133.629 12.0352 134.059 12.2324 134.617 12.2324ZM140.125 10.0645L139.445 10.7734V13H138.361V4H139.445V9.44336L140.025 8.74609L142 6.66016H143.318L140.852 9.30859L143.605 13H142.334L140.125 10.0645Z" fill="#909090"/>
</svg>
