<svg width="160" height="18" viewBox="0 0 160 18" fill="none" xmlns="http://www.w3.org/2000/svg">
<rect x="0.5" y="0.5" width="159" height="17" rx="8.5" stroke="#909090"/>
<rect x="80.5" y="0.5" width="79" height="17" rx="8.5" stroke="#F37321"/>
<path d="M34.4238 12.0801V13H30.1582V12.0801H34.4238ZM30.3809 4.46875V13H29.25V4.46875H30.3809ZM36.7324 6.66016V13H35.6426V6.66016H36.7324ZM35.5605 4.97852C35.5605 4.80273 35.6133 4.6543 35.7188 4.5332C35.8281 4.41211 35.9883 4.35156 36.1992 4.35156C36.4062 4.35156 36.5645 4.41211 36.6738 4.5332C36.7871 4.6543 36.8438 4.80273 36.8438 4.97852C36.8438 5.14648 36.7871 5.29102 36.6738 5.41211C36.5645 5.5293 36.4062 5.58789 36.1992 5.58789C35.9883 5.58789 35.8281 5.5293 35.7188 5.41211C35.6133 5.29102 35.5605 5.14648 35.5605 4.97852ZM40.4004 12.0215L42.1348 6.66016H43.2422L40.9629 13H40.2363L40.4004 12.0215ZM38.9531 6.66016L40.7402 12.0508L40.8633 13H40.1367L37.8398 6.66016H38.9531ZM46.834 13.1172C46.3926 13.1172 45.9922 13.043 45.6328 12.8945C45.2773 12.7422 44.9707 12.5293 44.7129 12.2559C44.459 11.9824 44.2637 11.6582 44.127 11.2832C43.9902 10.9082 43.9219 10.498 43.9219 10.0527V9.80664C43.9219 9.29102 43.998 8.83203 44.1504 8.42969C44.3027 8.02344 44.5098 7.67969 44.7715 7.39844C45.0332 7.11719 45.3301 6.9043 45.6621 6.75977C45.9941 6.61523 46.3379 6.54297 46.6934 6.54297C47.1465 6.54297 47.5371 6.62109 47.8652 6.77734C48.1973 6.93359 48.4688 7.15234 48.6797 7.43359C48.8906 7.71094 49.0469 8.03906 49.1484 8.41797C49.25 8.79297 49.3008 9.20312 49.3008 9.64844V10.1348H44.5664V9.25H48.2168V9.16797C48.2012 8.88672 48.1426 8.61328 48.041 8.34766C47.9434 8.08203 47.7871 7.86328 47.5723 7.69141C47.3574 7.51953 47.0645 7.43359 46.6934 7.43359C46.4473 7.43359 46.2207 7.48633 46.0137 7.5918C45.8066 7.69336 45.6289 7.8457 45.4805 8.04883C45.332 8.25195 45.2168 8.5 45.1348 8.79297C45.0527 9.08594 45.0117 9.42383 45.0117 9.80664V10.0527C45.0117 10.3535 45.0527 10.6367 45.1348 10.9023C45.2207 11.1641 45.3438 11.3945 45.5039 11.5938C45.668 11.793 45.8652 11.9492 46.0957 12.0625C46.3301 12.1758 46.5957 12.2324 46.8926 12.2324C47.2754 12.2324 47.5996 12.1543 47.8652 11.998C48.1309 11.8418 48.3633 11.6328 48.5625 11.3711L49.2188 11.8926C49.082 12.0996 48.9082 12.2969 48.6973 12.4844C48.4863 12.6719 48.2266 12.8242 47.918 12.9414C47.6133 13.0586 47.252 13.1172 46.834 13.1172Z" fill="#C4C4C4"/>
<path d="M99.5195 9.6543H97.2402V8.73438H99.5195C99.9609 8.73438 100.318 8.66406 100.592 8.52344C100.865 8.38281 101.064 8.1875 101.189 7.9375C101.318 7.6875 101.383 7.40234 101.383 7.08203C101.383 6.78906 101.318 6.51367 101.189 6.25586C101.064 5.99805 100.865 5.79102 100.592 5.63477C100.318 5.47461 99.9609 5.39453 99.5195 5.39453H97.5039V13H96.373V4.46875H99.5195C100.164 4.46875 100.709 4.58008 101.154 4.80273C101.6 5.02539 101.938 5.33398 102.168 5.72852C102.398 6.11914 102.514 6.56641 102.514 7.07031C102.514 7.61719 102.398 8.08398 102.168 8.4707C101.938 8.85742 101.6 9.15234 101.154 9.35547C100.709 9.55469 100.164 9.6543 99.5195 9.6543ZM104.957 4V13H103.867V4H104.957ZM110.436 11.916V8.65234C110.436 8.40234 110.385 8.18555 110.283 8.00195C110.186 7.81445 110.037 7.66992 109.838 7.56836C109.639 7.4668 109.393 7.41602 109.1 7.41602C108.826 7.41602 108.586 7.46289 108.379 7.55664C108.176 7.65039 108.016 7.77344 107.898 7.92578C107.785 8.07812 107.729 8.24219 107.729 8.41797H106.645C106.645 8.19141 106.703 7.9668 106.82 7.74414C106.938 7.52148 107.105 7.32031 107.324 7.14062C107.547 6.95703 107.812 6.8125 108.121 6.70703C108.434 6.59766 108.781 6.54297 109.164 6.54297C109.625 6.54297 110.031 6.62109 110.383 6.77734C110.738 6.93359 111.016 7.16992 111.215 7.48633C111.418 7.79883 111.52 8.19141 111.52 8.66406V11.6172C111.52 11.8281 111.537 12.0527 111.572 12.291C111.611 12.5293 111.668 12.7344 111.742 12.9062V13H110.611C110.557 12.875 110.514 12.709 110.482 12.502C110.451 12.291 110.436 12.0957 110.436 11.916ZM110.623 9.15625L110.635 9.91797H109.539C109.23 9.91797 108.955 9.94336 108.713 9.99414C108.471 10.041 108.268 10.1133 108.104 10.2109C107.939 10.3086 107.814 10.4316 107.729 10.5801C107.643 10.7246 107.6 10.8945 107.6 11.0898C107.6 11.2891 107.645 11.4707 107.734 11.6348C107.824 11.7988 107.959 11.9297 108.139 12.0273C108.322 12.1211 108.547 12.168 108.812 12.168C109.145 12.168 109.438 12.0977 109.691 11.957C109.945 11.8164 110.146 11.6445 110.295 11.4414C110.447 11.2383 110.529 11.041 110.541 10.8496L111.004 11.3711C110.977 11.5352 110.902 11.7168 110.781 11.916C110.66 12.1152 110.498 12.3066 110.295 12.4902C110.096 12.6699 109.857 12.8203 109.58 12.9414C109.307 13.0586 108.998 13.1172 108.654 13.1172C108.225 13.1172 107.848 13.0332 107.523 12.8652C107.203 12.6973 106.953 12.4727 106.773 12.1914C106.598 11.9062 106.51 11.5879 106.51 11.2363C106.51 10.8965 106.576 10.5977 106.709 10.3398C106.842 10.0781 107.033 9.86133 107.283 9.68945C107.533 9.51367 107.834 9.38086 108.186 9.29102C108.537 9.20117 108.93 9.15625 109.363 9.15625H110.623ZM114.912 12.3438L116.676 6.66016H117.836L115.293 13.9785C115.234 14.1348 115.156 14.3027 115.059 14.4824C114.965 14.666 114.844 14.8398 114.695 15.0039C114.547 15.168 114.367 15.3008 114.156 15.4023C113.949 15.5078 113.701 15.5605 113.412 15.5605C113.326 15.5605 113.217 15.5488 113.084 15.5254C112.951 15.502 112.857 15.4824 112.803 15.4668L112.797 14.5879C112.828 14.5918 112.877 14.5957 112.943 14.5996C113.014 14.6074 113.062 14.6113 113.09 14.6113C113.336 14.6113 113.545 14.5781 113.717 14.5117C113.889 14.4492 114.033 14.3418 114.15 14.1895C114.271 14.041 114.375 13.8359 114.461 13.5742L114.912 12.3438ZM113.617 6.66016L115.264 11.582L115.545 12.7246L114.766 13.123L112.434 6.66016H113.617ZM118.809 4H119.898V11.7695L119.805 13H118.809V4ZM124.182 9.77734V9.90039C124.182 10.3613 124.127 10.7891 124.018 11.1836C123.908 11.5742 123.748 11.9141 123.537 12.2031C123.326 12.4922 123.068 12.7168 122.764 12.877C122.459 13.0371 122.109 13.1172 121.715 13.1172C121.312 13.1172 120.959 13.0488 120.654 12.9121C120.354 12.7715 120.1 12.5703 119.893 12.3086C119.686 12.0469 119.52 11.7305 119.395 11.3594C119.273 10.9883 119.189 10.5703 119.143 10.1055V9.56641C119.189 9.09766 119.273 8.67773 119.395 8.30664C119.52 7.93555 119.686 7.61914 119.893 7.35742C120.1 7.0918 120.354 6.89062 120.654 6.75391C120.955 6.61328 121.305 6.54297 121.703 6.54297C122.102 6.54297 122.455 6.62109 122.764 6.77734C123.072 6.92969 123.33 7.14844 123.537 7.43359C123.748 7.71875 123.908 8.06055 124.018 8.45898C124.127 8.85352 124.182 9.29297 124.182 9.77734ZM123.092 9.90039V9.77734C123.092 9.46094 123.062 9.16406 123.004 8.88672C122.945 8.60547 122.852 8.35938 122.723 8.14844C122.594 7.93359 122.424 7.76562 122.213 7.64453C122.002 7.51953 121.742 7.45703 121.434 7.45703C121.16 7.45703 120.922 7.50391 120.719 7.59766C120.52 7.69141 120.35 7.81836 120.209 7.97852C120.068 8.13477 119.953 8.31445 119.863 8.51758C119.777 8.7168 119.713 8.92383 119.67 9.13867V10.5508C119.732 10.8242 119.834 11.0879 119.975 11.3418C120.119 11.5918 120.311 11.7969 120.549 11.957C120.791 12.1172 121.09 12.1973 121.445 12.1973C121.738 12.1973 121.988 12.1387 122.195 12.0215C122.406 11.9004 122.576 11.7344 122.705 11.5234C122.838 11.3125 122.936 11.0684 122.998 10.791C123.061 10.5137 123.092 10.2168 123.092 9.90039ZM129.291 11.916V8.65234C129.291 8.40234 129.24 8.18555 129.139 8.00195C129.041 7.81445 128.893 7.66992 128.693 7.56836C128.494 7.4668 128.248 7.41602 127.955 7.41602C127.682 7.41602 127.441 7.46289 127.234 7.55664C127.031 7.65039 126.871 7.77344 126.754 7.92578C126.641 8.07812 126.584 8.24219 126.584 8.41797H125.5C125.5 8.19141 125.559 7.9668 125.676 7.74414C125.793 7.52148 125.961 7.32031 126.18 7.14062C126.402 6.95703 126.668 6.8125 126.977 6.70703C127.289 6.59766 127.637 6.54297 128.02 6.54297C128.48 6.54297 128.887 6.62109 129.238 6.77734C129.594 6.93359 129.871 7.16992 130.07 7.48633C130.273 7.79883 130.375 8.19141 130.375 8.66406V11.6172C130.375 11.8281 130.393 12.0527 130.428 12.291C130.467 12.5293 130.523 12.7344 130.598 12.9062V13H129.467C129.412 12.875 129.369 12.709 129.338 12.502C129.307 12.291 129.291 12.0957 129.291 11.916ZM129.479 9.15625L129.49 9.91797H128.395C128.086 9.91797 127.811 9.94336 127.568 9.99414C127.326 10.041 127.123 10.1133 126.959 10.2109C126.795 10.3086 126.67 10.4316 126.584 10.5801C126.498 10.7246 126.455 10.8945 126.455 11.0898C126.455 11.2891 126.5 11.4707 126.59 11.6348C126.68 11.7988 126.814 11.9297 126.994 12.0273C127.178 12.1211 127.402 12.168 127.668 12.168C128 12.168 128.293 12.0977 128.547 11.957C128.801 11.8164 129.002 11.6445 129.15 11.4414C129.303 11.2383 129.385 11.041 129.396 10.8496L129.859 11.3711C129.832 11.5352 129.758 11.7168 129.637 11.916C129.516 12.1152 129.354 12.3066 129.15 12.4902C128.951 12.6699 128.713 12.8203 128.436 12.9414C128.162 13.0586 127.854 13.1172 127.51 13.1172C127.08 13.1172 126.703 13.0332 126.379 12.8652C126.059 12.6973 125.809 12.4727 125.629 12.1914C125.453 11.9062 125.365 11.5879 125.365 11.2363C125.365 10.8965 125.432 10.5977 125.564 10.3398C125.697 10.0781 125.889 9.86133 126.139 9.68945C126.389 9.51367 126.689 9.38086 127.041 9.29102C127.393 9.20117 127.785 9.15625 128.219 9.15625H129.479ZM134.617 12.2266C134.875 12.2266 135.113 12.1738 135.332 12.0684C135.551 11.9629 135.73 11.8184 135.871 11.6348C136.012 11.4473 136.092 11.2344 136.111 10.9961H137.143C137.123 11.3711 136.996 11.7207 136.762 12.0449C136.531 12.3652 136.229 12.625 135.854 12.8242C135.479 13.0195 135.066 13.1172 134.617 13.1172C134.141 13.1172 133.725 13.0332 133.369 12.8652C133.018 12.6973 132.725 12.4668 132.49 12.1738C132.26 11.8809 132.086 11.5449 131.969 11.166C131.855 10.7832 131.799 10.3789 131.799 9.95312V9.70703C131.799 9.28125 131.855 8.87891 131.969 8.5C132.086 8.11719 132.26 7.7793 132.49 7.48633C132.725 7.19336 133.018 6.96289 133.369 6.79492C133.725 6.62695 134.141 6.54297 134.617 6.54297C135.113 6.54297 135.547 6.64453 135.918 6.84766C136.289 7.04688 136.58 7.32031 136.791 7.66797C137.006 8.01172 137.123 8.40234 137.143 8.83984H136.111C136.092 8.57812 136.018 8.3418 135.889 8.13086C135.764 7.91992 135.592 7.75195 135.373 7.62695C135.158 7.49805 134.906 7.43359 134.617 7.43359C134.285 7.43359 134.006 7.5 133.779 7.63281C133.557 7.76172 133.379 7.9375 133.246 8.16016C133.117 8.37891 133.023 8.62305 132.965 8.89258C132.91 9.1582 132.883 9.42969 132.883 9.70703V9.95312C132.883 10.2305 132.91 10.5039 132.965 10.7734C133.02 11.043 133.111 11.2871 133.24 11.5059C133.373 11.7246 133.551 11.9004 133.773 12.0332C134 12.1621 134.281 12.2266 134.617 12.2266ZM139.451 4V13H138.361V4H139.451ZM143.324 6.66016L140.559 9.61914L139.012 11.2246L138.924 10.0703L140.031 8.74609L142 6.66016H143.324ZM142.334 13L140.072 9.97656L140.635 9.00977L143.611 13H142.334Z" fill="#F37321"/>
</svg>
