<svg width="24" height="24" viewBox="0 0 24 24" fill="none" xmlns="http://www.w3.org/2000/svg">
<path d="M16.6449 6.64674L16.2914 6.29349L15.938 6.64689L12.0497 10.5351L8.16109 6.64645L7.80768 6.29303L7.45412 6.6463L6.74625 7.35361L6.39242 7.70716L6.74611 8.06085L10.635 11.9498L6.48083 16.1039L6.12712 16.4576L6.48097 16.8111L7.18882 17.5184L7.54237 17.8716L7.89577 17.5182L12.0496 13.3645L15.9386 17.2535L16.292 17.6069L16.6455 17.2536L17.3534 16.5463L17.7072 16.1928L17.3536 15.8391L13.4643 11.9498L17.3529 8.06126L17.7066 7.70755L17.3528 7.354L16.6449 6.64674Z" fill="#E5E5E5" stroke="#313131"/>
</svg>
