<svg width="24" height="24" viewBox="0 0 24 24" fill="none" xmlns="http://www.w3.org/2000/svg">
<path d="M16.5566 6.73517L16.2914 6.47023L16.0264 6.73528L12.0497 10.7119L8.0727 6.73484L7.80764 6.46977L7.54248 6.73473L6.83461 7.44203L6.56923 7.70719L6.8345 7.97247L10.8118 11.9498L6.56921 16.1923L6.30393 16.4575L6.56932 16.7227L7.27717 17.43L7.54233 17.6949L7.80738 17.4299L12.0496 13.1877L16.027 17.1651L16.292 17.4301L16.5572 17.1652L17.2651 16.4579L17.5304 16.1927L17.2652 15.9274L13.2876 11.9498L17.2645 7.97287L17.5298 7.70759L17.2644 7.44242L16.5566 6.73517Z" fill="white" stroke="#313131" stroke-width="0.75"/>
</svg>
