<svg width="16" height="16" viewBox="0 0 16 16" fill="none" xmlns="http://www.w3.org/2000/svg">
<path d="M11.2793 8.13966C11.2793 9.15619 10.9779 10.1498 10.4131 10.995C9.84839 11.8403 9.04568 12.499 8.10653 12.888C7.16738 13.277 6.13397 13.3789 5.13697 13.1806C4.13998 12.9822 3.22418 12.4927 2.50539 11.7739C1.78659 11.0551 1.29707 10.1392 1.09876 9.14225C0.900443 8.14525 1.00223 7.112 1.39124 6.17285C1.78025 5.2337 2.43903 4.43092 3.28424 3.86617C4.12945 3.30142 5.12314 3 6.13967 3C7.5028 3 8.81008 3.54153 9.77395 4.5054C10.7378 5.46928 11.2793 6.77654 11.2793 8.13966V8.13966Z" stroke="#E5E5E5" stroke-width="0.75" stroke-linejoin="round"/>
<path d="M7.96047 3.36035C8.55443 3.12661 9.18713 3.00705 9.82542 3.00793C10.5841 3.00276 11.3346 3.16552 12.0229 3.48476C12.7112 3.80399 13.3203 4.27175 13.8065 4.85428C14.2926 5.43681 14.6438 6.11976 14.8347 6.85407C15.0256 7.58839 15.0516 8.35587 14.9108 9.10142C14.77 9.84697 14.4658 10.552 14.0202 11.1661C13.5745 11.7802 12.9985 12.288 12.3333 12.653C11.6682 13.0181 10.9305 13.2314 10.1732 13.2776C9.41583 13.3237 8.65768 13.2017 7.95312 12.9201" stroke="#E5E5E5" stroke-width="0.75" stroke-linejoin="round"/>
<path d="M7.60883 8.12472C7.60883 8.41516 7.5227 8.69903 7.36134 8.94052C7.19998 9.18201 6.97065 9.3702 6.70232 9.48134C6.434 9.59249 6.13873 9.62154 5.85388 9.56488C5.56902 9.50822 5.30735 9.36835 5.10198 9.16298C4.89661 8.95761 4.75675 8.69603 4.70009 8.41118C4.64343 8.12632 4.67252 7.83108 4.78367 7.56275C4.89481 7.29442 5.08302 7.06498 5.32451 6.90362C5.566 6.74227 5.84992 6.65625 6.14035 6.65625C6.52982 6.65625 6.90333 6.8109 7.17872 7.08629C7.45411 7.36168 7.60883 7.73526 7.60883 8.12472Z" stroke="#E5E5E5" stroke-width="0.75" stroke-linejoin="round"/>
</svg>
