<svg width="16" height="16" viewBox="0 0 16 16" fill="none" xmlns="http://www.w3.org/2000/svg">
<path d="M10.8359 3C11.7786 3.53583 12.5656 4.30579 13.1202 5.23493C13.6748 6.16408 13.978 7.22066 14.0002 8.30133C14.0224 9.382 13.7629 10.4499 13.2469 11.4008C12.7309 12.3518 11.9762 13.1533 11.0564 13.727" stroke="#E5E5E5" stroke-width="0.75" stroke-linejoin="round"/>
<path d="M8.95703 6.23828C9.33028 6.44932 9.64226 6.75307 9.86256 7.11991C10.0828 7.48676 10.2039 7.90431 10.214 8.33163C10.2241 8.75895 10.1228 9.18154 9.92011 9.55829C9.71737 9.93504 9.42002 10.253 9.05714 10.4813" stroke="#E5E5E5" stroke-width="0.75" stroke-linejoin="round"/>
<path d="M9.87891 4.65625C10.5287 5.02811 11.0708 5.56087 11.4528 6.20292C11.8348 6.84497 12.0437 7.5745 12.0592 8.32063C12.0746 9.06677 11.8961 9.8042 11.541 10.4614C11.1859 11.1186 10.6663 11.6732 10.0325 12.0714" stroke="#E5E5E5" stroke-width="0.75" stroke-linejoin="round"/>
<path d="M7.34249 4.03906L3.84985 6.11391H2.66781C2.4907 6.11391 2.32081 6.18402 2.19557 6.30874C2.07033 6.43346 2 6.60257 2 6.77895V9.98449C2 10.1609 2.07033 10.33 2.19557 10.4547C2.32081 10.5794 2.4907 10.6495 2.66781 10.6495H3.84317L7.34249 12.7044V4.03906Z" stroke="#E5E5E5" stroke-width="0.75" stroke-linejoin="round"/>
</svg>
