<svg width="16" height="16" viewBox="0 0 16 16" fill="none" xmlns="http://www.w3.org/2000/svg">
<path d="M7.82174 13.2717H2.71061C2.31978 13.2717 2 12.9759 2 12.6143L2.35531 10.7081C2.35531 10.3466 2.67508 10.0508 3.06592 10.0508H7.25574" stroke="#E5E5E5" stroke-width="0.75" stroke-miterlimit="10"/>
<path d="M3.29297 9.73011V6.20761C3.29297 3.88082 5.31702 2 7.82099 2C10.3179 2 12.3488 3.88098 12.349 6.20761V6.50923" stroke="#E5E5E5" stroke-width="0.75" stroke-miterlimit="10" stroke-linejoin="round"/>
<path d="M14.1288 10.6346C14.1288 11.192 13.9627 11.7368 13.6517 12.2003C13.3407 12.6637 12.8989 13.0249 12.3818 13.2382C11.8647 13.4515 11.2956 13.5076 10.7466 13.3988C10.1977 13.2901 9.69338 13.0217 9.29761 12.6275C8.90183 12.2334 8.63229 11.731 8.5231 11.1844C8.4139 10.6377 8.47006 10.0711 8.68425 9.55612C8.89845 9.04116 9.2611 8.60117 9.72649 8.2915C10.1919 7.98183 10.7391 7.81641 11.2988 7.81641C12.0494 7.81641 12.7691 8.11319 13.2999 8.64171C13.8306 9.17023 14.1288 9.88718 14.1288 10.6346Z" stroke="#E5E5E5" stroke-width="0.75" stroke-linejoin="round"/>
<path d="M13.0625 12.8867L14.868 14.945" stroke="#E5E5E5" stroke-width="0.75" stroke-linejoin="round"/>
</svg>
