<svg width="16" height="16" viewBox="0 0 16 16" fill="none" xmlns="http://www.w3.org/2000/svg">
<circle cx="8.00156" cy="8.00156" r="6.025" stroke="#E5E5E5" stroke-width="0.75"/>
<path d="M5.05977 8.43115H4.37129V9.80078H3.75361V6.24609H5.00361C5.41377 6.24609 5.73034 6.33805 5.95332 6.52197C6.1763 6.70589 6.28779 6.97201 6.28779 7.32031C6.28779 7.55794 6.23001 7.75732 6.11445 7.91846C6.00052 8.07796 5.84102 8.20085 5.63594 8.28711L6.43428 9.76904V9.80078H5.77266L5.05977 8.43115ZM4.37129 7.93555H5.00605C5.21439 7.93555 5.37715 7.88346 5.49434 7.7793C5.61152 7.6735 5.67012 7.52946 5.67012 7.34717C5.67012 7.15674 5.61559 7.00944 5.50654 6.90527C5.39912 6.80111 5.23799 6.7474 5.02314 6.74414H4.37129V7.93555ZM8.95137 8.21387H7.49141V9.30762H9.19795V9.80078H6.87373V6.24609H9.18086V6.74414H7.49141V7.72559H8.95137V8.21387ZM12.4133 8.64355C12.3775 9.02279 12.2375 9.31901 11.9934 9.53223C11.7492 9.74382 11.4245 9.84961 11.0192 9.84961C10.736 9.84961 10.4862 9.78288 10.2697 9.64941C10.0549 9.51432 9.88887 9.32308 9.77168 9.07568C9.65449 8.82829 9.59346 8.54102 9.58857 8.21387V7.88184C9.58857 7.54655 9.64798 7.25114 9.7668 6.99561C9.88561 6.74007 10.0557 6.54313 10.2771 6.40479C10.5 6.26644 10.7572 6.19727 11.0485 6.19727C11.4408 6.19727 11.7565 6.30387 11.9958 6.51709C12.2351 6.73031 12.3742 7.03141 12.4133 7.42041H11.798C11.7688 7.16488 11.6939 6.98096 11.5734 6.86865C11.4546 6.75472 11.2797 6.69775 11.0485 6.69775C10.78 6.69775 10.5733 6.79622 10.4284 6.99316C10.2852 7.18848 10.2119 7.47575 10.2087 7.85498V8.16992C10.2087 8.55404 10.2771 8.84701 10.4138 9.04883C10.5521 9.25065 10.7539 9.35156 11.0192 9.35156C11.2618 9.35156 11.444 9.29704 11.5661 9.18799C11.6882 9.07894 11.7655 8.89746 11.798 8.64355H12.4133Z" fill="#E5E5E5"/>
</svg>
