<svg width="24" height="24" viewBox="0 0 24 24" fill="none" xmlns="http://www.w3.org/2000/svg">
<path d="M14.9015 19.9851H9.79806V17.6667C9.79806 17.2786 9.6392 17.0697 9.5002 16.9602C9.30162 16.791 9.04347 16.7612 8.97397 16.791L6.61092 16.7711L6.28327 13.5373C6.26341 13.3284 6.11448 13.1493 5.90597 13.0995L4.24786 12.7015L5.75704 10.0348C5.78683 9.96519 5.80668 9.89554 5.80668 9.81594C5.8464 6.60201 8.35839 3.99505 11.4065 3.99505C12.8065 3.99505 14.127 4.54231 15.1497 5.50748H16.5C15.239 3.91545 13.3923 3.00002 11.4165 3.00002C7.86194 2.99007 4.93295 5.97515 4.82373 9.66668L3.06634 12.7712C2.98691 12.9105 2.97698 13.0697 3.04648 13.2189C3.10605 13.3582 3.23513 13.4677 3.38406 13.5075L5.34003 13.9851L5.67761 17.3184C5.7074 17.5672 5.9159 17.7662 6.16412 17.7662L8.80518 17.7861V20.5025C8.80518 20.7811 9.02361 21 9.30162 21H15.388C15.6561 21 15.8844 20.7811 15.8844 20.5025L15.9142 16.4627H14.9213L14.9015 19.995V19.9851ZM8.96404 17.7662C8.96404 17.7662 9.02361 17.7662 9.06333 17.7662C9.02361 17.7662 8.99383 17.7662 8.96404 17.7662Z" fill="#E5E5E5"/>
<path fill-rule="evenodd" clip-rule="evenodd" d="M15 7H13V9H13.5V13H13V15H15V14.5H19V15H21V13H20.5V9H21V7H19V7.5H15V7ZM19.5 13V9H19V8.5H15V9H14.5V13H15V13.5H19V13H19.5Z" fill="#E5E5E5"/>
</svg>
