<svg width="24" height="24" viewBox="0 0 24 24" fill="none" xmlns="http://www.w3.org/2000/svg">
<path d="M18.4992 19.9976V6.58452C18.5085 6.18281 18.4381 5.78328 18.2923 5.40943C18.1464 5.03557 17.928 4.69494 17.6499 4.40755C17.3718 4.12017 17.0397 3.89183 16.6729 3.73598C16.3061 3.58012 15.9122 3.49989 15.5143 3.5C14.7094 3.50794 13.9401 3.83642 13.3737 4.41402C12.8073 4.99162 12.4896 5.77165 12.4896 6.58452V17.4255C12.4976 17.8264 12.4262 18.2248 12.2798 18.5975C12.1334 18.9702 11.9148 19.3096 11.6368 19.596C11.3588 19.8823 11.0271 20.1097 10.661 20.2649C10.2949 20.4202 9.90182 20.5001 9.50477 20.5C8.70422 20.4894 7.94001 20.1609 7.37762 19.5854C6.81523 19.01 6.49993 18.234 6.5 17.4255V9.52837" stroke="white" stroke-miterlimit="10"/>
<path d="M20.5 18.5L18.5 20.5L16.5 18.5" stroke="white" stroke-linejoin="round"/>
<path d="M9.5 3.5H3.5V9.5H9.5V3.5Z" stroke="white" stroke-linejoin="round"/>
</svg>
