<svg width="14" height="14" viewBox="0 0 14 14" fill="none" xmlns="http://www.w3.org/2000/svg">
<path d="M12.6019 1.4502L6.71484 7.30773" stroke="#B5FF51" stroke-linejoin="round"/>
<path d="M8.89453 1.33105H12.6686V5.09472" stroke="#B5FF51" stroke-width="0.75" stroke-linejoin="round"/>
<path d="M12.0371 7.01707V12.0462C12.0275 12.2094 11.9577 12.3633 11.8412 12.4783C11.7246 12.5933 11.5696 12.6612 11.4059 12.6691H1.99061C1.90803 12.6699 1.8261 12.6545 1.74955 12.6236C1.67301 12.5927 1.60337 12.5469 1.54467 12.489C1.48597 12.4311 1.43936 12.3621 1.40755 12.2861C1.37575 12.2101 1.35937 12.1286 1.35938 12.0462V2.62383C1.35937 2.54148 1.37575 2.45993 1.40755 2.38393C1.43936 2.30792 1.48597 2.23899 1.54467 2.18106C1.60337 2.12314 1.67301 2.07738 1.74955 2.04647C1.8261 2.01556 1.90803 2.00014 1.99061 2.00101H7.02715" stroke="#B5FF51" stroke-linejoin="round"/>
</svg>
