<svg width="185" height="19" viewBox="0 0 185 19" fill="none" xmlns="http://www.w3.org/2000/svg">
<path d="M76.4117 1.01172H74.8124C74.5261 1.01172 74.3484 1.18942 74.3484 1.47571V13.3619L66.3124 1.3375C66.1939 1.1598 65.9274 1.01172 65.7102 1.01172H63.8937C63.5679 1.01172 63.4297 1.14993 63.4297 1.47571V17.3305C63.4297 17.6168 63.6074 17.7945 63.8937 17.7945H65.4436C65.7299 17.7945 65.9076 17.6267 65.9076 17.3305V4.84215L74.4175 17.4589C74.5458 17.6761 74.7532 17.7847 75.0197 17.7847H76.4117C76.7079 17.7847 76.8757 17.6168 76.8757 17.3207V1.47571C76.8757 1.18942 76.7079 1.01172 76.4117 1.01172Z" fill="white"/>
<path d="M106.457 1.01172H94.1658C93.9783 1.01172 93.8203 1.16967 93.8203 1.35725V2.89732C93.8203 3.08489 93.9783 3.24285 94.1658 3.24285H98.9341V17.449C98.9341 17.6464 99.0921 17.8044 99.2895 17.8044H101.155C101.353 17.8044 101.511 17.6464 101.511 17.449V3.24285H106.467C106.654 3.24285 106.812 3.08489 106.812 2.89732V1.35725C106.792 1.16967 106.644 1.01172 106.457 1.01172Z" fill="white"/>
<path d="M86.9442 1.03125H84.7427C83.0447 1.03125 79.0859 1.57422 79.0859 6.59919V12.2362C79.0859 17.2612 83.0447 17.7943 84.7427 17.7943H91.2584C91.5052 17.7943 91.7027 17.5969 91.7027 17.3501V16.1259C91.7027 15.8791 91.5052 15.6817 91.2584 15.6817H84.802C81.8995 15.6817 81.5639 13.7171 81.5639 12.2362V10.558H92.1568C92.4036 10.558 92.601 10.3605 92.601 10.1137V6.59919C92.601 1.57422 88.6521 1.03125 86.9442 1.03125ZM90.1231 6.59919V8.4453H81.5639V6.59919C81.5639 5.11836 81.8995 3.15378 84.802 3.15378H86.885C89.7874 3.15378 90.1231 5.11836 90.1231 6.59919Z" fill="white"/>
<path d="M12.3922 8.0899L14.2877 16.2641C14.6036 17.6364 15.8475 17.7844 16.3609 17.7844H18.1773L14.416 1.66307C14.3272 1.24844 14.1495 1.15959 13.8434 1.14972H10.8719C10.5659 1.16946 10.3882 1.33729 10.3388 1.66307C10.2203 2.14681 7.62392 13.4209 7.59431 13.5295C7.56469 13.6578 7.5252 13.8158 7.37712 13.8158C7.26852 13.8158 7.18954 13.7072 7.15006 13.5295C7.13031 13.4012 4.89918 1.49525 4.89918 1.49525C4.81033 1.11023 4.65238 1.03125 4.41544 1.03125H1.40441C1.30569 1.03125 1.17735 1.05099 1.0885 1.15959C0.999649 1.26818 0.979904 1.42614 1.01939 1.63346L3.754 15.7409C4.00081 17.1033 4.83995 17.7844 6.25168 17.7844H8.55191C9.65761 17.7844 10.3487 17.1427 10.6152 15.8791L12.3922 8.0899Z" fill="white"/>
<path d="M25.6609 1C25.424 1 25.2266 1.18757 25.2266 1.42451V17.3583C25.2266 17.5952 25.4141 17.7927 25.6609 17.7927H28.8299C29.0669 17.7927 29.2643 17.5952 29.2643 17.3583V1.43438C29.2643 1.19744 29.0669 1.00987 28.8299 1.00987H25.6609V1Z" fill="white"/>
<path d="M52.6216 1.00987C47.5867 1.00987 46.6094 4.26771 46.6094 7.91057V10.8722C46.6094 12.4913 46.8661 17.7927 51.9404 17.7927H59.621C59.8678 17.7927 60.0652 17.5952 60.0652 17.3484V14.9791C60.0652 14.7323 59.8678 14.525 59.621 14.525H53.4212C52.9572 14.525 50.6471 14.4065 50.6471 11.9878V10.892H60.0159C60.6576 10.892 60.8057 10.8229 60.8057 10.1713V7.9007C60.8057 3.51742 59.1965 1 54.9218 1H52.6216V1.00987ZM56.758 7.86121H50.6471V6.85424C50.6471 4.60337 52.2366 4.26771 53.1843 4.26771H54.2307C55.1785 4.26771 56.7679 4.60337 56.7679 6.85424V7.86121H56.758Z" fill="white"/>
<path d="M37.0702 6.98258C36.853 6.89373 36.1422 6.5482 36.1422 5.62021C36.1422 5.15621 36.4581 4.26771 37.6428 4.26771H43.6254C43.8722 4.26771 44.0696 4.07027 44.0696 3.81359V1.45412C44.0696 1.20732 43.8722 1 43.6254 1C42.2137 1 37.9094 1 37.0011 1C34.6318 1 32.0156 2.68815 32.0156 5.42276C32.0156 8.01916 33.0423 9.40128 35.5203 10.349C35.5203 10.349 39.4099 11.8397 39.8838 12.0273C40.4663 12.2445 40.792 12.7085 40.792 13.2909C40.792 13.8931 40.3379 14.525 39.4889 14.525H32.6771C32.4303 14.525 32.2328 14.7224 32.2328 14.9791V17.3386C32.2328 17.5854 32.4303 17.7927 32.6771 17.7927H40.8908C43.2601 17.7927 44.9186 15.9564 44.9186 13.2317C44.9186 10.9413 44.0203 9.68757 41.9866 8.90767C41.1869 8.59175 37.4552 7.13066 37.0702 6.98258Z" fill="white"/>
<path d="M22.6712 1.54297L19.8379 11.7509L17.4982 1.55285C17.429 1.24681 17.6265 1 17.9424 1H22.2664C22.5725 1 22.7502 1.24681 22.6712 1.54297Z" fill="#F37321"/>
<path d="M123.513 13.4092L119.593 1.28608C119.544 1.12813 119.396 1.01953 119.228 1.01953H117.125C116.948 1.01953 116.829 1.18736 116.878 1.35519L122.328 17.5457C122.377 17.7036 122.525 17.8122 122.693 17.8122H124.332C124.5 17.8122 124.648 17.7036 124.697 17.5457L130.147 1.35519C130.206 1.18736 130.078 1.01953 129.9 1.01953H127.797C127.629 1.01953 127.481 1.12813 127.432 1.28608L123.513 13.4092Z" fill="white"/>
<path d="M159.559 14.0495L157.052 5.84567C157.022 5.73707 156.923 5.66797 156.805 5.66797H155.423C155.314 5.66797 155.206 5.73707 155.176 5.84567L152.669 14.0495L150.299 5.94439C150.25 5.77656 150.102 5.66797 149.934 5.66797H148.117C147.94 5.66797 147.821 5.8358 147.871 6.00363L151.632 17.5245C151.681 17.6825 151.829 17.7911 151.997 17.7911H153.281C153.439 17.7911 153.577 17.6924 153.636 17.5541L156.114 9.25159L158.592 17.5541C158.651 17.7022 158.789 17.7911 158.947 17.7911H160.231C160.398 17.7911 160.547 17.6825 160.596 17.5245L164.357 6.00363C164.407 5.8358 164.288 5.66797 164.11 5.66797H162.294C162.126 5.66797 161.968 5.77656 161.929 5.94439L159.559 14.0495Z" fill="white"/>
<path d="M132.499 17.7911H134.523C134.661 17.7911 134.779 17.6726 134.779 17.5344V5.92465C134.779 5.78644 134.661 5.66797 134.523 5.66797H132.499C132.361 5.66797 132.242 5.78644 132.242 5.92465V17.5344C132.242 17.6726 132.361 17.7911 132.499 17.7911Z" fill="white"/>
<path d="M132.499 4.27758H134.523C134.661 4.27758 134.779 4.15912 134.779 4.02091V1.25668C134.779 1.11847 134.661 1 134.523 1H132.499C132.361 1 132.242 1.11847 132.242 1.25668V4.02091C132.242 4.15912 132.361 4.27758 132.499 4.27758Z" fill="white"/>
<path d="M141.881 5.48047C138.86 5.48047 137.133 6.88233 137.133 9.32077V14.1286C137.133 16.5867 138.86 17.9985 141.881 17.9985C142.118 17.9985 144.251 17.9787 146.166 17.4061C146.265 17.3765 146.344 17.2778 146.344 17.1593V15.4712C146.344 15.333 146.225 15.2145 146.087 15.2145C146.067 15.2145 146.047 15.2145 146.028 15.2244C144.211 15.7377 142.533 15.7871 141.891 15.7871C141.23 15.7871 139.68 15.6193 139.68 14.0496V12.7859H146.452C146.59 12.7859 146.709 12.6675 146.709 12.5293V9.1332C146.699 6.88233 144.853 5.48047 141.881 5.48047ZM144.162 10.614H139.67V9.38988C139.67 8.65933 139.897 7.68198 141.881 7.68198C142.414 7.68198 144.162 7.79057 144.162 9.2023V10.614Z" fill="white"/>
<path d="M170.28 5.48047C167.259 5.48047 165.531 6.88233 165.531 9.32077V14.1286C165.531 16.5867 167.259 17.9985 170.28 17.9985C170.517 17.9985 172.649 17.9787 174.564 17.4061C174.663 17.3765 174.742 17.2778 174.742 17.1593V15.4712C174.742 15.333 174.624 15.2145 174.485 15.2145C174.466 15.2145 174.446 15.2145 174.426 15.2244C172.61 15.7377 170.931 15.7871 170.29 15.7871C169.628 15.7871 168.078 15.6193 168.078 14.0496V12.7859H174.851C174.989 12.7859 175.107 12.6675 175.107 12.5293V9.1332C175.088 6.88233 173.241 5.48047 170.28 5.48047ZM172.55 10.614H168.059V9.38988C168.059 8.65933 168.286 7.68198 170.27 7.68198C170.803 7.68198 172.55 7.79057 172.55 9.2023V10.614Z" fill="white"/>
<path d="M183.963 7.61351C184.072 7.5839 184.151 7.48517 184.151 7.36671V5.67855C184.151 5.54034 184.032 5.42188 183.894 5.42188C183.874 5.42188 183.855 5.42187 183.845 5.43175C182.551 5.6983 180.774 6.37948 179.787 6.86322V5.92536C179.787 5.78715 179.669 5.66868 179.53 5.66868H177.507C177.368 5.66868 177.25 5.78715 177.25 5.92536V17.5351C177.25 17.6733 177.368 17.7918 177.507 17.7918H179.53C179.669 17.7918 179.787 17.6733 179.787 17.5351V9.3609C180.567 8.92652 182.571 8.0084 183.963 7.61351Z" fill="white"/>
</svg>
