<svg width="16" height="16" viewBox="0 0 16 16" fill="none" xmlns="http://www.w3.org/2000/svg">
<path d="M5.68359 7.21094H10.3152" stroke="#AAAAAA" stroke-width="0.75" stroke-miterlimit="10" stroke-linejoin="round"/>
<path d="M5.68359 8.9375H9.13412" stroke="#AAAAAA" stroke-width="0.75" stroke-miterlimit="10" stroke-linejoin="round"/>
<path d="M5.68359 10.668H10.3152" stroke="#AAAAAA" stroke-width="0.75" stroke-miterlimit="10" stroke-linejoin="round"/>
<path d="M10.621 2.57812H11.7615C12.0799 2.57812 12.3405 2.83865 12.3405 3.16286V12.4144C12.3405 12.7386 12.0799 12.9992 11.7615 12.9992H4.2352C3.91678 12.9992 3.65625 12.7386 3.65625 12.4144V3.16286C3.65625 2.83865 3.91678 2.57812 4.2352 2.57812H5.36414" stroke="#AAAAAA" stroke-width="0.75" stroke-miterlimit="10" stroke-linejoin="round"/>
<path d="M10.6051 3.73684C10.6051 4.05526 10.3503 4.31579 10.0319 4.31579H5.96769C5.64927 4.31579 5.39453 4.05526 5.39453 3.73684V2.57895C5.39453 2.26053 5.64927 2 5.96769 2H10.0319C10.3503 2 10.6051 2.26053 10.6051 2.57895V3.73684Z" stroke="#AAAAAA" stroke-width="0.75" stroke-miterlimit="10"/>
</svg>
