<svg width="16" height="16" viewBox="0 0 16 16" fill="none" xmlns="http://www.w3.org/2000/svg">
<path fill-rule="evenodd" clip-rule="evenodd" d="M12.4579 7.98766C12.4579 7.78236 12.438 7.57706 12.4115 7.37839L13.6764 6.39163L12.2459 3.9413L10.7559 4.52408C10.4247 4.26581 10.0605 4.05389 9.66316 3.89494L9.43137 2.33203H6.57044L6.33865 3.89494C5.9413 4.05389 5.57706 4.26581 5.24594 4.52408L3.76249 3.9413L2.33203 6.39163L3.59693 7.37839C3.57044 7.57706 3.55057 7.78236 3.55057 7.98766C3.55057 8.19958 3.57044 8.4115 3.59693 8.6168L2.33203 9.61018L3.76249 12.0605L5.27243 11.4711C5.59693 11.7228 5.95455 11.9281 6.33865 12.087L6.57706 13.6764H9.43137L9.66978 12.087C10.0605 11.9347 10.4181 11.7228 10.7426 11.4711L12.2459 12.0605L13.6764 9.61018L12.4115 8.6168C12.4314 8.4115 12.4579 8.2062 12.4579 7.98766Z" stroke="#AAAAAA" stroke-width="0.75" stroke-linejoin="round"/>
<path fill-rule="evenodd" clip-rule="evenodd" d="M7.99871 9.6146C7.10467 9.6146 6.38281 8.89275 6.38281 7.99871C6.38281 7.10467 7.10467 6.38281 7.99871 6.38281C8.89275 6.38281 9.6146 7.10467 9.6146 7.99871C9.6146 8.89275 8.89275 9.6146 7.99871 9.6146Z" stroke="#AAAAAA" stroke-width="0.75" stroke-linejoin="round"/>
</svg>
