<svg width="16" height="16" viewBox="0 0 16 16" fill="none" xmlns="http://www.w3.org/2000/svg">
<path d="M12.7187 10.7033L12.7198 10.7045C13.1567 11.1667 13.3967 11.9571 13.5174 12.6957C13.576 13.0546 13.6035 13.3817 13.6158 13.6187C13.616 13.6208 13.6161 13.6229 13.6162 13.625H2.38774C2.38781 13.6238 2.38789 13.6225 2.38796 13.6213C2.40199 13.3835 2.43102 13.0559 2.49069 12.6966C2.61349 11.9572 2.8535 11.166 3.28735 10.7035L3.28751 10.7033C3.77037 10.1878 4.31802 9.91826 4.87711 9.64305C4.95961 9.60244 5.04235 9.56171 5.12517 9.52005C5.75191 9.20478 6.40205 8.82353 6.67584 7.96896L6.77337 7.66455L6.48825 7.52005C5.43566 6.9866 4.71398 5.90051 4.71398 4.62933C4.71398 2.82786 6.1619 1.375 7.93125 1.375C9.70805 1.375 11.1485 2.82732 11.1485 4.62933C11.1485 5.89096 10.4204 6.97936 9.37161 7.52141L9.08946 7.66723L9.18685 7.96953C9.46367 8.82883 10.1624 9.20888 10.8163 9.52067C10.8965 9.55891 10.9765 9.59639 11.0563 9.63372C11.6536 9.91339 12.2327 10.1845 12.7187 10.7033Z" stroke="#AAAAAA" stroke-width="0.75" stroke-miterlimit="10"/>
</svg>
