<svg width="18" height="18" viewBox="0 0 18 18" fill="none" xmlns="http://www.w3.org/2000/svg">
<path d="M16.0016 12.3249C16.0007 12.4306 15.9788 12.5351 15.9374 12.6324C15.8961 12.7297 15.8362 12.8178 15.7608 12.8918C15.6853 12.9659 15.596 13.0244 15.4979 13.064C15.3999 13.1035 15.295 13.1234 15.1893 13.1224H6.47637C6.37067 13.1234 6.26577 13.1035 6.16774 13.064C6.06972 13.0244 5.98033 12.9659 5.90491 12.8918C5.82948 12.8178 5.76958 12.7297 5.72824 12.6324C5.6869 12.5351 5.66503 12.4306 5.66406 12.3249V5.79756C5.66503 5.69186 5.6869 5.5873 5.72824 5.49002C5.76958 5.39274 5.82948 5.30466 5.90491 5.2306C5.98033 5.15655 6.06972 5.09799 6.16774 5.05844C6.26577 5.01889 6.37067 4.99906 6.47637 5.00003H15.1893C15.295 4.99906 15.3999 5.01889 15.4979 5.05844C15.596 5.09799 15.6853 5.15655 15.7608 5.2306C15.8362 5.30466 15.8961 5.39274 15.9374 5.49002C15.9788 5.5873 16.0007 5.69186 16.0016 5.79756V12.3249Z" stroke="white" stroke-width="0.75" stroke-linecap="round" stroke-linejoin="round"/>
<path d="M5.77321 10.974L2 13.1301V5.07422L5.77321 7.26726" stroke="white" stroke-width="0.75" stroke-linejoin="round"/>
</svg>
