<svg width="18" height="18" viewBox="0 0 18 18" fill="none" xmlns="http://www.w3.org/2000/svg">
<mask id="path-1-inside-1_1598:234843" fill="white">
<path fill-rule="evenodd" clip-rule="evenodd" d="M15.9972 13.4069C15.999 13.3891 16 13.3711 16 13.3529V5.48039C16 5.12451 15.6316 4.83333 15.1813 4.83333H11.6854H8.18947L5.6924 3H2.81871C2.36842 3 2 3.29118 2 3.64706V13.3529C2 13.3711 2.00096 13.3891 2.00284 13.4069C2.00096 13.4377 2 13.4687 2 13.5C2 14.3284 2.67157 15 3.5 15H14.5C15.3284 15 16 14.3284 16 13.5C16 13.4687 15.999 13.4377 15.9972 13.4069Z"/>
</mask>
<path d="M15.9972 13.4069L15.2513 13.3281L15.2447 13.3903L15.2486 13.4527L15.9972 13.4069ZM8.18947 4.83333L7.74561 5.43789L7.94371 5.58333H8.18947V4.83333ZM5.6924 3L6.13626 2.39544L5.93816 2.25H5.6924V3ZM2.00284 13.4069L2.75144 13.4527L2.75526 13.3903L2.74868 13.3281L2.00284 13.4069ZM15.25 13.3529C15.25 13.3446 15.2504 13.3363 15.2513 13.3281L16.743 13.4858C16.7476 13.4419 16.75 13.3976 16.75 13.3529H15.25ZM15.25 5.48039V13.3529H16.75V5.48039H15.25ZM15.1813 5.58333C15.2489 5.58333 15.2871 5.60597 15.2945 5.61182C15.297 5.61387 15.2868 5.60666 15.2748 5.58425C15.2618 5.56017 15.25 5.52386 15.25 5.48039H16.75C16.75 4.5554 15.8717 4.08333 15.1813 4.08333V5.58333ZM11.6854 5.58333H15.1813V4.08333H11.6854V5.58333ZM8.18947 5.58333H11.6854V4.08333H8.18947V5.58333ZM5.24854 3.60456L7.74561 5.43789L8.63333 4.22878L6.13626 2.39544L5.24854 3.60456ZM2.81871 3.75H5.6924V2.25H2.81871V3.75ZM2.75 3.64706C2.75 3.69052 2.73815 3.72684 2.72521 3.75092C2.71317 3.77332 2.70296 3.78053 2.70554 3.77849C2.71295 3.77264 2.75109 3.75 2.81871 3.75V2.25C2.1283 2.25 1.25 2.72207 1.25 3.64706H2.75ZM2.75 13.3529V3.64706H1.25V13.3529H2.75ZM2.74868 13.3281C2.74956 13.3363 2.75 13.3447 2.75 13.3529H1.25C1.25 13.3976 1.25236 13.4419 1.257 13.4858L2.74868 13.3281ZM2.75 13.5C2.75 13.484 2.75049 13.4683 2.75144 13.4527L1.25424 13.3611C1.25142 13.4071 1.25 13.4534 1.25 13.5H2.75ZM3.5 14.25C3.08579 14.25 2.75 13.9142 2.75 13.5H1.25C1.25 14.7426 2.25736 15.75 3.5 15.75V14.25ZM14.5 14.25H3.5V15.75H14.5V14.25ZM15.25 13.5C15.25 13.9142 14.9142 14.25 14.5 14.25V15.75C15.7426 15.75 16.75 14.7426 16.75 13.5H15.25ZM15.2486 13.4527C15.2495 13.4683 15.25 13.484 15.25 13.5H16.75C16.75 13.4534 16.7486 13.4071 16.7458 13.3611L15.2486 13.4527Z" fill="#5C5C5C" mask="url(#path-1-inside-1_1598:234843)"/>
</svg>
