<svg width="18" height="18" viewBox="0 0 18 18" fill="none" xmlns="http://www.w3.org/2000/svg">
<path d="M2.50009 4.50009L2.12509 4.50012L2.50009 4.50009ZM2.50077 12.5001L2.87577 12.5001L2.50077 12.5001ZM2.12509 4.50012L2.12577 12.5001L2.87577 12.5001L2.87509 4.50005L2.12509 4.50012ZM5.69701 3.125H3.50009V3.875H5.69701V3.125ZM3.50077 13.875H7.02555V13.125H3.50077V13.875ZM14.875 8.98427V4.5H14.125V8.98427H14.875ZM13.5 3.125H5.69701V3.875H13.5V3.125ZM14.875 4.5C14.875 3.74061 14.2594 3.125 13.5 3.125V3.875C13.8452 3.875 14.125 4.15482 14.125 4.5H14.875ZM2.12577 12.5001C2.12583 13.2595 2.74142 13.875 3.50077 13.875V13.125C3.15561 13.125 2.8758 12.8452 2.87577 12.5001L2.12577 12.5001ZM2.87509 4.50005C2.87506 4.15485 3.15489 3.875 3.50009 3.875V3.125C2.74065 3.125 2.12502 3.74068 2.12509 4.50012L2.87509 4.50005Z" fill="white"/>
<path d="M10.5625 8.74529L7.61206 10.4462L7.61206 7.04438L10.5625 8.74529Z" stroke="white" stroke-width="0.75" stroke-linejoin="round"/>
<circle cx="9.84375" cy="12.125" r="0.875" fill="#8DC63F"/>
<circle cx="12.4688" cy="12.125" r="0.875" fill="#8DC63F"/>
<circle cx="15.0938" cy="12.125" r="0.875" fill="#8DC63F"/>
</svg>
