<svg width="18" height="18" viewBox="0 0 18 18" fill="none" xmlns="http://www.w3.org/2000/svg">
<path d="M11 11.25V9.93288C11 9.38709 11.2109 8.86382 11.5859 8.47789C11.961 8.09197 12.4696 7.875 13 7.875C13.5304 7.875 14.039 8.09197 14.4141 8.47789C14.7891 8.86382 15 9.38709 15 9.93288V11.2418" stroke="white" stroke-width="0.75" stroke-miterlimit="10"/>
<path d="M16 11.25H10V16.3477H16V11.25Z" stroke="white" stroke-width="0.75" stroke-linejoin="round"/>
<path fill-rule="evenodd" clip-rule="evenodd" d="M13.7969 13.5742C13.7969 13.7226 13.7529 13.8677 13.6705 13.991C13.5881 14.1143 13.471 14.2104 13.3339 14.2671C13.1969 14.3239 13.0461 14.3387 12.9006 14.3098C12.7551 14.2809 12.6213 14.2094 12.5164 14.1045C12.4115 13.9996 12.3403 13.866 12.3113 13.7206C12.2824 13.5751 12.2971 13.4244 12.3538 13.2873C12.4106 13.1503 12.507 13.033 12.6303 12.9506C12.7537 12.8682 12.8984 12.8242 13.0468 12.8242C13.2457 12.8242 13.4368 12.9033 13.5775 13.044C13.7182 13.1846 13.7969 13.3753 13.7969 13.5742Z" fill="white"/>
<path d="M15.6272 7.00098V5.02109C15.6272 4.10982 14.8885 3.37109 13.9772 3.37109H4.01719C3.10592 3.37109 2.36719 4.10982 2.36719 5.02109V12.9811C2.36719 13.8924 3.10592 14.6311 4.01719 14.6311H8.49707" stroke="white" stroke-width="0.75"/>
<path d="M2 5C2 3.89543 2.89543 3 4 3H14C15.1046 3 16 3.89543 16 5H2Z" fill="white"/>
<line x1="6.375" y1="3" x2="6.375" y2="15" stroke="white" stroke-width="0.75"/>
<line x1="6" y1="9.375" x2="2" y2="9.375" stroke="white" stroke-width="0.75"/>
</svg>
