<svg width="18" height="18" viewBox="0 0 18 18" fill="none" xmlns="http://www.w3.org/2000/svg">
<path d="M11 11.25V9.93288C11 9.38709 11.2109 8.86382 11.5859 8.47789C11.961 8.09197 12.4696 7.875 13 7.875C13.5304 7.875 14.039 8.09197 14.4141 8.47789C14.7891 8.86382 15 9.38709 15 9.93288V11.2418" stroke="#E5E5E5" stroke-width="0.75" stroke-miterlimit="10"/>
<path d="M16 11.25H10V16.3477H16V11.25Z" stroke="#E5E5E5" stroke-width="0.75" stroke-linejoin="round"/>
<path fill-rule="evenodd" clip-rule="evenodd" d="M13.8008 13.5742C13.8008 13.7226 13.7568 13.8677 13.6744 13.991C13.592 14.1143 13.4749 14.2104 13.3378 14.2671C13.2008 14.3239 13.0501 14.3387 12.9046 14.3098C12.759 14.2809 12.6253 14.2094 12.5203 14.1045C12.4154 13.9996 12.3442 13.866 12.3152 13.7206C12.2863 13.5751 12.301 13.4244 12.3577 13.2873C12.4145 13.1503 12.5109 13.033 12.6343 12.9506C12.7576 12.8682 12.9023 12.8242 13.0507 12.8242C13.2496 12.8242 13.4407 12.9033 13.5814 13.044C13.7221 13.1846 13.8008 13.3753 13.8008 13.5742Z" fill="#E5E5E5"/>
<path d="M15.6311 7.00098V5.02109C15.6311 4.10982 14.8924 3.37109 13.9811 3.37109H4.02109C3.10982 3.37109 2.37109 4.10982 2.37109 5.02109V12.9811C2.37109 13.8924 3.10982 14.6311 4.02109 14.6311H8.50098" stroke="#E5E5E5" stroke-width="0.75"/>
<path d="M2 5C2 3.89543 2.89543 3 4 3H14C15.1046 3 16 3.89543 16 5H2Z" fill="#E5E5E5"/>
<line x1="6.375" y1="3" x2="6.375" y2="15" stroke="#E5E5E5" stroke-width="0.75"/>
<line x1="6" y1="9.375" x2="2" y2="9.375" stroke="#E5E5E5" stroke-width="0.75"/>
</svg>
