<svg width="18" height="18" viewBox="0 0 18 18" fill="none" xmlns="http://www.w3.org/2000/svg">
<path d="M2.50009 4.50009L2.12509 4.50012L2.50009 4.50009ZM2.50077 12.5001L2.87577 12.5001L2.50077 12.5001ZM2.12509 4.50012L2.12577 12.5001L2.87577 12.5001L2.87509 4.50005L2.12509 4.50012ZM5.69701 3.125H3.50009V3.875H5.69701V3.125ZM3.50077 13.875H7.02555V13.125H3.50077V13.875ZM14.875 8.98427V4.5H14.125V8.98427H14.875ZM13.5 3.125H5.69701V3.875H13.5V3.125ZM14.875 4.5C14.875 3.74061 14.2594 3.125 13.5 3.125V3.875C13.8452 3.875 14.125 4.15482 14.125 4.5H14.875ZM2.12577 12.5001C2.12583 13.2595 2.74142 13.875 3.50077 13.875V13.125C3.15561 13.125 2.8758 12.8452 2.87577 12.5001L2.12577 12.5001ZM2.87509 4.50005C2.87506 4.15485 3.15489 3.875 3.50009 3.875V3.125C2.74065 3.125 2.12502 3.74068 2.12509 4.50012L2.87509 4.50005Z" fill="#E5E5E5"/>
<path d="M10.5625 8.73997L7.61206 7.03906L7.61206 9.00894" stroke="#E5E5E5" stroke-width="0.75" stroke-linejoin="round"/>
<path d="M12.3389 14.75H11.1846L9.32129 11.5098H9.29492C9.33203 12.082 9.35059 12.4902 9.35059 12.7344V14.75H8.53906V10.4668H9.68457L11.5449 13.6748H11.5654C11.5361 13.1182 11.5215 12.7246 11.5215 12.4941V10.4668H12.3389V14.75ZM17.3076 12.6025C17.3076 13.3115 17.1318 13.8564 16.7803 14.2373C16.4287 14.6182 15.9248 14.8086 15.2686 14.8086C14.6123 14.8086 14.1084 14.6182 13.7568 14.2373C13.4053 13.8564 13.2295 13.3096 13.2295 12.5967C13.2295 11.8838 13.4053 11.3398 13.7568 10.9648C14.1104 10.5879 14.6162 10.3994 15.2744 10.3994C15.9326 10.3994 16.4355 10.5889 16.7832 10.9678C17.1328 11.3467 17.3076 11.8916 17.3076 12.6025ZM14.1816 12.6025C14.1816 13.0811 14.2725 13.4414 14.4541 13.6836C14.6357 13.9258 14.9072 14.0469 15.2686 14.0469C15.9932 14.0469 16.3555 13.5654 16.3555 12.6025C16.3555 11.6377 15.9951 11.1553 15.2744 11.1553C14.9131 11.1553 14.6406 11.2773 14.457 11.5215C14.2734 11.7637 14.1816 12.124 14.1816 12.6025Z" fill="#E5E5E5"/>
</svg>
