<svg width="18" height="18" viewBox="0 0 18 18" fill="none" xmlns="http://www.w3.org/2000/svg">
<path d="M17.2019 16.5781H8L12.601 9.10156L17.2019 16.5781Z" stroke="#FF0000" stroke-width="0.75" stroke-linejoin="round"/>
<path fill-rule="evenodd" clip-rule="evenodd" d="M12.0234 15.1011C12.0234 14.95 12.0835 14.805 12.1904 14.6982C12.2973 14.5913 12.4423 14.5313 12.5934 14.5313C12.7455 14.5312 12.8914 14.591 13 14.6975C13.1086 14.8041 13.1709 14.949 13.1737 15.1011C13.1737 15.255 13.1125 15.4026 13.0036 15.5115C12.8948 15.6203 12.7474 15.6815 12.5934 15.6815C12.4413 15.6787 12.2965 15.6163 12.1899 15.5077C12.0833 15.3992 12.0234 15.2532 12.0234 15.1011Z" fill="#FF0000"/>
<path d="M12.6016 13.932V11.9766" stroke="#FF0000" stroke-width="0.75" stroke-linejoin="round"/>
<path d="M2.50009 4.50009L2.12509 4.50012L2.50009 4.50009ZM2.50077 12.5001L2.87577 12.5001L2.50077 12.5001ZM2.12509 4.50012L2.12577 12.5001L2.87577 12.5001L2.87509 4.50005L2.12509 4.50012ZM5.69701 3.125H3.50009V3.875H5.69701V3.125ZM3.50077 13.875H7.02555V13.125H3.50077V13.875ZM14.875 7.99587V4.5H14.125V7.99587H14.875ZM13.5 3.125H5.69701V3.875H13.5V3.125ZM14.875 4.5C14.875 3.74061 14.2594 3.125 13.5 3.125V3.875C13.8452 3.875 14.125 4.15482 14.125 4.5H14.875ZM2.12577 12.5001C2.12583 13.2595 2.74142 13.875 3.50077 13.875V13.125C3.15561 13.125 2.8758 12.8452 2.87577 12.5001L2.12577 12.5001ZM2.87509 4.50005C2.87506 4.15485 3.15489 3.875 3.50009 3.875V3.125C2.74065 3.125 2.12502 3.74068 2.12509 4.50012L2.87509 4.50005Z" fill="#E5E5E5"/>
<path d="M10.7031 8.84375L7.70312 10.5758L7.70312 7.1117L10.7031 8.84375Z" stroke="#E5E5E5" stroke-width="0.75" stroke-linejoin="round"/>
</svg>
