<svg width="19" height="18" viewBox="0 0 19 18" fill="none" xmlns="http://www.w3.org/2000/svg">
<path d="M11.7266 15.3226L18.3012 8.75" stroke="#FF0000" stroke-width="0.75" stroke-linejoin="round"/>
<path d="M18.3012 15.3855L11.7266 8.82812" stroke="#FF0000" stroke-width="0.75" stroke-linejoin="round"/>
<path d="M6.67555 10.974L2.90234 13.1301V5.07422L6.67555 7.26726" stroke="white" stroke-width="0.75" stroke-linejoin="round"/>
<path d="M16.9025 7.01562V5.73092C16.9025 5.5371 16.8207 5.35115 16.6753 5.2141C16.5299 5.07705 16.3328 5 16.1271 5H7.33792C7.13224 5 6.93513 5.07705 6.7897 5.2141C6.64426 5.35115 6.5625 5.5371 6.5625 5.73092V12.3893C6.5625 12.5831 6.64426 12.769 6.7897 12.9061C6.93513 13.0431 7.13224 13.12 7.33792 13.12H7.855H10" stroke="white" stroke-width="0.75" stroke-linejoin="round"/>
</svg>
