<svg width="20" height="20" viewBox="0 0 20 20" fill="none" xmlns="http://www.w3.org/2000/svg">
<path d="M17.5 16.1383C17.5 16.6133 17.1025 17.0019 16.6166 17.0019H3.38339C2.89753 17.0019 2.5 16.6133 2.5 16.1383V4.89481C2.5 4.41985 2.89753 4.03125 3.38339 4.03125H16.6166C17.1025 4.03125 17.5 4.41985 17.5 4.89481V16.1383Z" stroke="#F37321" stroke-width="0.75" stroke-miterlimit="10"/>
<path d="M5.14062 2V5.23835" stroke="#F37321" stroke-width="0.75" stroke-miterlimit="10"/>
<path d="M14.8945 2V5.23835" stroke="#F37321" stroke-width="0.75" stroke-miterlimit="10"/>
<path d="M9.57114 9.122C9.57114 9.46733 9.46614 9.74267 9.25614 9.948C9.05081 10.1533 8.79647 10.2933 8.49314 10.368V10.389C8.89447 10.4357 9.19781 10.557 9.40314 10.753C9.61314 10.949 9.71814 11.2127 9.71814 11.544C9.71814 11.8333 9.64581 12.0947 9.50114 12.328C9.36114 12.5567 9.14181 12.7387 8.84314 12.874C8.54914 13.0047 8.16881 13.07 7.70214 13.07C7.16081 13.07 6.68014 12.979 6.26014 12.797V11.901C6.47481 12.0083 6.69881 12.09 6.93214 12.146C7.17014 12.202 7.38947 12.23 7.59014 12.23C7.96814 12.23 8.23181 12.1647 8.38114 12.034C8.53514 11.9033 8.61214 11.719 8.61214 11.481C8.61214 11.341 8.57714 11.2243 8.50714 11.131C8.43714 11.033 8.31347 10.9607 8.13614 10.914C7.96347 10.8627 7.72081 10.837 7.40814 10.837H7.03014V10.025H7.41514C7.72314 10.025 7.95647 9.997 8.11514 9.941C8.27847 9.88033 8.38814 9.801 8.44414 9.703C8.50481 9.60033 8.53514 9.48367 8.53514 9.353C8.53514 9.17567 8.47914 9.038 8.36714 8.94C8.25981 8.83733 8.07781 8.786 7.82114 8.786C7.58314 8.786 7.37547 8.828 7.19814 8.912C7.02547 8.99133 6.87847 9.07067 6.75714 9.15L6.26714 8.422C6.46314 8.282 6.69181 8.16533 6.95314 8.072C7.21914 7.97867 7.53414 7.932 7.89814 7.932C8.41147 7.932 8.81747 8.037 9.11614 8.247C9.41947 8.45233 9.57114 8.744 9.57114 9.122ZM12.891 13H11.834V10.109C11.834 9.98767 11.8363 9.829 11.841 9.633C11.8503 9.437 11.8573 9.26433 11.862 9.115C11.8387 9.143 11.7873 9.19433 11.708 9.269C11.6333 9.339 11.5633 9.402 11.498 9.458L10.924 9.92L10.413 9.283L12.023 8.002H12.891V13Z" fill="#F37321"/>
</svg>
