<svg width="20" height="20" viewBox="0 0 20 20" fill="none" xmlns="http://www.w3.org/2000/svg">
<path d="M18.4492 14.0181C18.4481 14.1482 18.4227 14.2769 18.3747 14.3967C18.3267 14.5165 18.2572 14.6249 18.1696 14.7161C18.0821 14.8073 17.9783 14.8794 17.8645 14.928C17.7508 14.9767 17.629 15.0012 17.5063 15H7.39216C7.26947 15.0012 7.14769 14.9767 7.0339 14.928C6.92011 14.8794 6.81635 14.8073 6.72879 14.7161C6.64124 14.6249 6.57171 14.5165 6.52372 14.3967C6.47573 14.2769 6.45034 14.1482 6.44922 14.0181V5.98192C6.45034 5.85179 6.47573 5.72305 6.52372 5.60329C6.57171 5.48352 6.64124 5.37508 6.72879 5.28391C6.81635 5.19274 6.92011 5.12064 7.0339 5.07195C7.14769 5.02326 7.26947 4.99884 7.39216 5.00004H17.5063C17.629 4.99884 17.7508 5.02326 17.8645 5.07195C17.9783 5.12064 18.0821 5.19274 18.1696 5.28391C18.2572 5.37508 18.3267 5.48352 18.3747 5.60329C18.4227 5.72305 18.4481 5.85179 18.4492 5.98192V14.0181Z" stroke="#FFFFFF" stroke-width="0.75" stroke-linecap="round" stroke-linejoin="round"/>
<path d="M6.6 12.3236L2 15V5L6.6 7.72227" stroke="#FFFFFF" stroke-width="0.75" stroke-linejoin="round"/>
</svg>
