<svg width="20" height="21" viewBox="0 0 20 21" fill="none" xmlns="http://www.w3.org/2000/svg">
<path d="M9.5 17H3.87884C3.39548 17 3 16.6327 3 16.1837L3.43942 13.8163C3.43942 13.3673 3.8349 13 4.31827 13H8.5" stroke="#909090" stroke-width="0.75" stroke-miterlimit="10"/>
<path d="M4 13V8.44314C4 5.43311 6.68203 3 10 3C13.3088 3 16 5.43311 16 8.44314" stroke="#909090" stroke-width="0.75" stroke-miterlimit="10" stroke-linejoin="round"/>
<path d="M17.5 13.7265C17.5 14.4187 17.2946 15.0953 16.91 15.6709C16.5254 16.2464 15.979 16.6949 15.3395 16.9598C14.6999 17.2247 13.9961 17.2944 13.3171 17.1593C12.6382 17.0243 12.0146 16.691 11.5251 16.2015C11.0356 15.712 10.7023 15.0881 10.5672 14.4092C10.4322 13.7303 10.5016 13.0266 10.7665 12.3871C11.0314 11.7476 11.4799 11.2012 12.0555 10.8166C12.6311 10.432 13.3078 10.2266 14.0001 10.2266C14.9283 10.2266 15.8185 10.5951 16.4748 11.2515C17.1312 11.9079 17.5 12.7983 17.5 13.7265Z" stroke="#909090" stroke-width="0.75" stroke-linejoin="round"/>
<path d="M16 16.2266L19 19.2266" stroke="#909090" stroke-width="0.75" stroke-linejoin="round"/>
</svg>
