<svg width="20" height="20" viewBox="0 0 20 20" fill="none" xmlns="http://www.w3.org/2000/svg">
<path d="M9.5 17H3.87884C3.39548 17 3 16.6327 3 16.1837L3.43942 13.8163C3.43942 13.3673 3.8349 13 4.31827 13H8.5" stroke="white" stroke-width="0.75" stroke-miterlimit="10"/>
<path d="M4 13V8.44314C4 5.43311 6.68203 3 10 3C13.3088 3 16 5.43311 16 8.44314" stroke="white" stroke-width="0.75" stroke-miterlimit="10" stroke-linejoin="round"/>
<path d="M17.5 13.4999C17.5 14.1922 17.2946 14.8687 16.91 15.4443C16.5254 16.0198 15.979 16.4684 15.3395 16.7333C14.6999 16.9982 13.9961 17.0678 13.3171 16.9328C12.6382 16.7977 12.0146 16.4644 11.5251 15.9749C11.0356 15.4854 10.7023 14.8616 10.5672 14.1827C10.4322 13.5037 10.5016 12.8001 10.7665 12.1605C11.0314 11.521 11.4799 10.9746 12.0555 10.59C12.6311 10.2054 13.3078 10 14.0001 10C14.9283 10 15.8185 10.3686 16.4748 11.0249C17.1312 11.6813 17.5 12.5717 17.5 13.4999Z" stroke="white" stroke-width="0.75" stroke-linejoin="round"/>
<path d="M16 16L19 19" stroke="white" stroke-width="0.75" stroke-linejoin="round"/>
</svg>
