<svg width="40" height="40" viewBox="0 0 40 40" fill="none" xmlns="http://www.w3.org/2000/svg">
<path d="M36.25 29C36.25 33.5563 32.5563 37.25 28 37.25C23.4437 37.25 19.75 33.5563 19.75 29C19.75 24.4437 23.4437 20.75 28 20.75C32.5563 20.75 36.25 24.4437 36.25 29Z" stroke="white" stroke-width="1.5"/>
<path d="M28 25V32.9444" stroke="white" stroke-width="1.5"/>
<path d="M31.9453 29L24.0009 29" stroke="white" stroke-width="1.5"/>
<g clip-path="url(#clip0_3856_65126)">
<path d="M27 4.79688H34.2V11.9969" stroke="white" stroke-width="1.5" stroke-miterlimit="10" stroke-linejoin="round"/>
<g clip-path="url(#clip1_3856_65126)">
<path d="M18.0649 18.5558C18.6342 17.5944 18.9236 16.4175 18.9236 15.0613C18.9236 13.9115 18.7177 12.8946 18.3112 12.0365C17.902 11.1732 17.2896 10.4931 16.4901 10.0157C15.6919 9.53819 14.6986 9.29688 13.5357 9.29688C12.3202 9.29688 11.2973 9.54077 10.4937 10.0234C9.68884 10.506 9.08181 11.1887 8.68878 12.0533C8.29845 12.9101 8.10059 13.9167 8.10059 15.0458C8.10059 16.1943 8.29845 17.2137 8.68878 18.0758C9.08181 18.9455 9.69019 19.632 10.4937 20.1146C11.2959 20.596 12.3149 20.8412 13.5195 20.8412C13.5868 20.8412 13.6568 20.8386 13.7308 20.8334C13.7752 20.8296 13.817 20.8283 13.8587 20.827L16.0674 23.2982H18.5118L15.6986 20.4915C16.7297 20.1185 17.5238 19.4694 18.0649 18.5558ZM13.5357 10.768C14.7753 10.768 15.6933 11.1448 16.2613 11.8894C16.8387 12.6469 17.1321 13.7128 17.1321 15.06C17.1321 16.4072 16.836 17.4796 16.2532 18.2461C15.6798 19.001 14.7592 19.383 13.5195 19.383C12.2785 19.383 11.3565 18.9997 10.7777 18.2461C10.1895 17.4796 9.89074 16.4072 9.89074 15.06C9.89074 13.7128 10.1882 12.6469 10.7764 11.8894C11.3565 11.1461 12.2839 10.768 13.5357 10.768Z" fill="white"/>
<path d="M22.8113 16.1597H24.8734L25.72 17.5443C26.2961 17.4282 26.8897 17.3559 27.4967 17.3301L26.4657 15.7158C26.8049 15.5919 27.1306 15.4241 27.4388 15.2151C27.8009 14.9699 28.1024 14.6395 28.3352 14.2356C28.5694 13.8292 28.6879 13.3168 28.6879 12.7142C28.6879 11.6341 28.3285 10.8121 27.6205 10.2714C26.9206 9.73845 25.8344 9.46875 24.3902 9.46875H21.1006V19.6684C21.6309 19.2516 22.2029 18.8825 22.8113 18.5677V16.1597ZM22.8113 10.9244H24.3108C25.2179 10.9244 25.8923 11.0689 26.3149 11.3541C26.7295 11.6328 26.93 12.0974 26.93 12.7762C26.93 13.4188 26.7308 13.9104 26.3365 14.2369C25.9367 14.5673 25.2812 14.735 24.3902 14.735H22.8113V10.9244Z" fill="white"/>
</g>
<path d="M10.9998 4.79688H3.7998V11.9969" stroke="white" stroke-width="1.5" stroke-miterlimit="10" stroke-linejoin="round"/>
<path d="M10.9998 28.7938H3.7998V21.5938" stroke="white" stroke-width="1.5" stroke-miterlimit="10" stroke-linejoin="round"/>
</g>
<defs>
<clipPath id="clip0_3856_65126">
<rect width="32" height="25.6" fill="white" transform="translate(3 4)"/>
</clipPath>
<clipPath id="clip1_3856_65126">
<rect width="21" height="14" fill="white" transform="translate(8.10059 9.29688)"/>
</clipPath>
</defs>
</svg>
