<svg width="40" height="40" viewBox="0 0 40 40" fill="none" xmlns="http://www.w3.org/2000/svg">
<path d="M30.1333 11V18M5 11V19.6667C5 26.8456 10.6271 32.6667 17.5667 32.6667C17.8806 32.6667 18.1918 32.6548 18.5 32.6313" stroke="white" stroke-width="1.5"/>
<path d="M4.7321 4.82031H30.2673C31.2189 4.82031 31.9163 5.53949 31.9163 6.33231V9.60831C31.9163 10.4025 31.2174 11.1203 30.2741 11.1203H4.7321C3.77905 11.1203 3.08301 10.3998 3.08301 9.61481V6.33231C3.08301 5.53949 3.78049 4.82031 4.7321 4.82031Z" stroke="white" stroke-width="1.5"/>
<circle cx="13.6394" cy="22.3118" r="1.77273" fill="white"/>
<path d="M37.25 29C37.25 33.5563 33.5563 37.25 29 37.25C24.4437 37.25 20.75 33.5563 20.75 29C20.75 24.4437 24.4437 20.75 29 20.75C33.5563 20.75 37.25 24.4437 37.25 29Z" stroke="white" stroke-width="1.5"/>
<path d="M29 25V32.9444" stroke="white" stroke-width="1.5"/>
<path d="M32.9453 29L25.0009 29" stroke="white" stroke-width="1.5"/>
</svg>
