<svg width="40" height="40" viewBox="0 0 40 40" fill="none" xmlns="http://www.w3.org/2000/svg">
<path d="M8 25V16.1176C8 9.97824 12.7017 5 18.5 5C24.2983 5 29 9.97824 29 16.1176V18" stroke="white" stroke-width="1.5"/>
<path d="M18.8684 24.6641H7.76985C6.6576 24.6641 5.75391 25.6261 5.75391 26.8101V29.9242C5.75391 31.1021 6.6576 32.0641 7.76985 32.0641H18.418" stroke="white" stroke-width="1.5"/>
<path d="M37.25 29C37.25 33.5563 33.5563 37.25 29 37.25C24.4437 37.25 20.75 33.5563 20.75 29C20.75 24.4437 24.4437 20.75 29 20.75C33.5563 20.75 37.25 24.4437 37.25 29Z" stroke="white" stroke-width="1.5"/>
<path d="M29 25V32.9444" stroke="white" stroke-width="1.5"/>
<path d="M32.9453 29L25.0009 29" stroke="white" stroke-width="1.5"/>
</svg>
