<svg width="40" height="40" viewBox="0 0 40 40" fill="none" xmlns="http://www.w3.org/2000/svg">
<path d="M22.3555 9.53594C23.3435 9.33594 23.8288 9.33594 24.4355 9.33594C27.5208 9.33594 30.0168 11.8859 30.0168 15.0193C30.0168 15.8731 29.8317 16.6799 29.5 17.4025" stroke="white" stroke-width="1.5" stroke-miterlimit="10"/>
<path d="M18 31H5.00003C5.00003 31 4.96943 26.2786 6.94318 24.1672C9.28414 21.6598 12.4207 21.8651 13.2776 19.1818C11.0284 18.0381 9.48305 15.7067 9.48305 12.9795C9.48305 9.12317 12.5737 6 16.3682 6C20.178 6 23.2534 9.12317 23.2534 12.9795C23.2534 15.6921 21.6928 18.0235 19.4589 19.1818C19.7047 19.9474 20.1609 20.4777 20.7417 20.9038" stroke="white" stroke-width="1.5" stroke-miterlimit="10"/>
<path d="M37.25 28C37.25 32.5563 33.5563 36.25 29 36.25C24.4437 36.25 20.75 32.5563 20.75 28C20.75 23.4437 24.4437 19.75 29 19.75C33.5563 19.75 37.25 23.4437 37.25 28Z" stroke="white" stroke-width="1.5"/>
<path d="M29 24V31.9444" stroke="white" stroke-width="1.5"/>
<path d="M32.9453 28L25.0009 28" stroke="white" stroke-width="1.5"/>
</svg>
