<svg width="40" height="40" viewBox="0 0 40 40" fill="none" xmlns="http://www.w3.org/2000/svg">
<path d="M17 30H5.00003C5.00003 30 4.96943 25.2786 6.94318 23.1672C9.28414 20.6598 12.4207 20.8651 13.2776 18.1818C11.0284 17.0381 9.48305 14.7067 9.48305 11.9795C9.48305 8.12317 12.5737 5 16.3682 5C20.178 5 23.2534 8.12317 23.2534 11.9795C23.2534 14.6921 21.6928 17.0235 19.4589 18.1818C19.8189 19.3029 20.6298 19.9194 21.6228 20.4433" stroke="white" stroke-width="1.5" stroke-miterlimit="10"/>
<path d="M36.25 29C36.25 33.5563 32.5563 37.25 28 37.25C23.4437 37.25 19.75 33.5563 19.75 29C19.75 24.4437 23.4437 20.75 28 20.75C32.5563 20.75 36.25 24.4437 36.25 29Z" stroke="white" stroke-width="1.5"/>
<path d="M28 25V32.9444" stroke="white" stroke-width="1.5"/>
<path d="M31.9453 29L24.0009 29" stroke="white" stroke-width="1.5"/>
</svg>
