<svg width="20" height="20" viewBox="0 0 20 20" fill="none" xmlns="http://www.w3.org/2000/svg">
<path d="M16.625 10C16.625 13.6589 13.6589 16.625 10 16.625C6.34111 16.625 3.375 13.6589 3.375 10C3.375 6.34111 6.34111 3.375 10 3.375C13.6589 3.375 16.625 6.34111 16.625 10Z" stroke="#C4C4C4" stroke-width="0.75" stroke-miterlimit="10" stroke-linejoin="round"/>
<path d="M12.1691 10C12.1691 11.9009 11.8872 13.6054 11.4433 14.8211C11.2207 15.4305 10.9647 15.8974 10.6992 16.2049C10.4328 16.5135 10.1913 16.625 9.98824 16.625C9.78514 16.625 9.54365 16.5135 9.27725 16.2049C9.0118 15.8974 8.75573 15.4305 8.53322 14.8211C8.08931 13.6054 7.80737 11.9009 7.80737 10C7.80737 8.09911 8.08931 6.39464 8.53322 5.17887C8.75573 4.56946 9.0118 4.10264 9.27725 3.79514C9.54365 3.48654 9.78514 3.375 9.98824 3.375C10.1913 3.375 10.4328 3.48654 10.6992 3.79514C10.9647 4.10264 11.2207 4.56946 11.4433 5.17887C11.8872 6.39464 12.1691 8.09911 12.1691 10Z" stroke="#C4C4C4" stroke-width="0.75" stroke-miterlimit="10" stroke-linejoin="round"/>
<path d="M3.39099 9.99609H16.5575" stroke="#C4C4C4" stroke-width="0.75" stroke-miterlimit="10" stroke-linejoin="round"/>
</svg>
