<svg width="288" height="23" viewBox="0 0 288 23" fill="none" xmlns="http://www.w3.org/2000/svg">
<path d="M196.498 18.043H193.529L193.549 16.5098H196.498C197.514 16.5098 198.36 16.2982 199.037 15.875C199.714 15.4453 200.222 14.8464 200.561 14.0781C200.906 13.3034 201.078 12.3984 201.078 11.3633V10.4941C201.078 9.68034 200.98 8.95768 200.785 8.32617C200.59 7.68815 200.303 7.15104 199.926 6.71484C199.548 6.27214 199.086 5.93685 198.539 5.70898C197.999 5.48112 197.377 5.36719 196.674 5.36719H193.471V3.82422H196.674C197.605 3.82422 198.454 3.98047 199.223 4.29297C199.991 4.59896 200.652 5.04492 201.205 5.63086C201.765 6.21029 202.195 6.91341 202.494 7.74023C202.794 8.56055 202.943 9.48503 202.943 10.5137V11.3633C202.943 12.3919 202.794 13.3197 202.494 14.1465C202.195 14.9668 201.762 15.6667 201.195 16.2461C200.635 16.8255 199.958 17.2715 199.164 17.584C198.376 17.89 197.488 18.043 196.498 18.043ZM194.535 3.82422V18.043H192.65V3.82422H194.535ZM211.732 16.2363V10.7969C211.732 10.3802 211.648 10.0189 211.479 9.71289C211.316 9.40039 211.068 9.15951 210.736 8.99023C210.404 8.82096 209.994 8.73633 209.506 8.73633C209.05 8.73633 208.65 8.81445 208.305 8.9707C207.966 9.12695 207.699 9.33203 207.504 9.58594C207.315 9.83984 207.221 10.1133 207.221 10.4062H205.414C205.414 10.0286 205.512 9.6543 205.707 9.2832C205.902 8.91211 206.182 8.57682 206.547 8.27734C206.918 7.97135 207.361 7.73047 207.875 7.55469C208.396 7.3724 208.975 7.28125 209.613 7.28125C210.382 7.28125 211.059 7.41146 211.645 7.67188C212.237 7.93229 212.699 8.32617 213.031 8.85352C213.37 9.37435 213.539 10.0286 213.539 10.8164V15.7383C213.539 16.0898 213.568 16.4642 213.627 16.8613C213.692 17.2585 213.786 17.6003 213.91 17.8867V18.043H212.025C211.934 17.8346 211.863 17.5579 211.811 17.2129C211.758 16.8613 211.732 16.5358 211.732 16.2363ZM212.045 11.6367L212.064 12.9062H210.238C209.724 12.9062 209.265 12.9486 208.861 13.0332C208.458 13.1113 208.119 13.2318 207.846 13.3945C207.572 13.5573 207.364 13.7624 207.221 14.0098C207.077 14.2507 207.006 14.5339 207.006 14.8594C207.006 15.1914 207.081 15.4941 207.23 15.7676C207.38 16.041 207.605 16.2591 207.904 16.4219C208.21 16.5781 208.585 16.6562 209.027 16.6562C209.581 16.6562 210.069 16.5391 210.492 16.3047C210.915 16.0703 211.251 15.7839 211.498 15.4453C211.752 15.1068 211.889 14.778 211.908 14.459L212.68 15.3281C212.634 15.6016 212.51 15.9043 212.309 16.2363C212.107 16.5684 211.837 16.8874 211.498 17.1934C211.166 17.4928 210.769 17.7435 210.307 17.9453C209.851 18.1406 209.337 18.2383 208.764 18.2383C208.048 18.2383 207.419 18.0983 206.879 17.8184C206.345 17.5384 205.928 17.1641 205.629 16.6953C205.336 16.2201 205.189 15.6895 205.189 15.1035C205.189 14.5371 205.3 14.0391 205.521 13.6094C205.743 13.1732 206.062 12.8118 206.479 12.5254C206.895 12.2324 207.396 12.0111 207.982 11.8613C208.568 11.7116 209.223 11.6367 209.945 11.6367H212.045ZM222.533 15.2402C222.533 14.9798 222.475 14.7389 222.357 14.5176C222.247 14.2897 222.016 14.0846 221.664 13.9023C221.319 13.7135 220.798 13.5508 220.102 13.4141C219.516 13.2904 218.985 13.1439 218.51 12.9746C218.041 12.8053 217.641 12.6003 217.309 12.3594C216.983 12.1185 216.732 11.8353 216.557 11.5098C216.381 11.1842 216.293 10.8034 216.293 10.3672C216.293 9.95052 216.384 9.55664 216.566 9.18555C216.755 8.81445 217.019 8.48568 217.357 8.19922C217.702 7.91276 218.116 7.68815 218.598 7.52539C219.079 7.36263 219.617 7.28125 220.209 7.28125C221.055 7.28125 221.778 7.43099 222.377 7.73047C222.976 8.02995 223.435 8.43034 223.754 8.93164C224.073 9.42643 224.232 9.97656 224.232 10.582H222.426C222.426 10.2891 222.338 10.0059 222.162 9.73242C221.993 9.45247 221.742 9.22135 221.41 9.03906C221.085 8.85677 220.684 8.76562 220.209 8.76562C219.708 8.76562 219.301 8.84375 218.988 9C218.682 9.14974 218.458 9.3418 218.314 9.57617C218.178 9.81055 218.109 10.0579 218.109 10.3184C218.109 10.5137 218.142 10.6895 218.207 10.8457C218.279 10.9954 218.402 11.1354 218.578 11.2656C218.754 11.3893 219.001 11.5065 219.32 11.6172C219.639 11.7279 220.046 11.8385 220.541 11.9492C221.407 12.1445 222.12 12.3789 222.68 12.6523C223.24 12.9258 223.656 13.2611 223.93 13.6582C224.203 14.0553 224.34 14.5371 224.34 15.1035C224.34 15.5658 224.242 15.9889 224.047 16.373C223.858 16.7572 223.581 17.0892 223.217 17.3691C222.859 17.6426 222.429 17.8574 221.928 18.0137C221.433 18.1634 220.876 18.2383 220.258 18.2383C219.327 18.2383 218.539 18.0723 217.895 17.7402C217.25 17.4082 216.762 16.9785 216.43 16.4512C216.098 15.9238 215.932 15.3672 215.932 14.7812H217.748C217.774 15.276 217.917 15.6699 218.178 15.9629C218.438 16.2493 218.757 16.4544 219.135 16.5781C219.512 16.6953 219.887 16.7539 220.258 16.7539C220.753 16.7539 221.166 16.6888 221.498 16.5586C221.837 16.4284 222.094 16.2493 222.27 16.0215C222.445 15.7936 222.533 15.5332 222.533 15.2402ZM228.52 3.04297V18.043H226.713V3.04297H228.52ZM228.09 12.3594L227.338 12.3301C227.344 11.6074 227.452 10.9401 227.66 10.3281C227.868 9.70964 228.161 9.17253 228.539 8.7168C228.917 8.26107 229.366 7.90951 229.887 7.66211C230.414 7.4082 230.997 7.28125 231.635 7.28125C232.156 7.28125 232.624 7.35286 233.041 7.49609C233.458 7.63281 233.812 7.85417 234.105 8.16016C234.405 8.46615 234.633 8.86328 234.789 9.35156C234.945 9.83333 235.023 10.4225 235.023 11.1191V18.043H233.207V11.0996C233.207 10.5462 233.126 10.1035 232.963 9.77148C232.8 9.43294 232.562 9.1888 232.25 9.03906C231.938 8.88281 231.553 8.80469 231.098 8.80469C230.648 8.80469 230.238 8.89909 229.867 9.08789C229.503 9.27669 229.187 9.53711 228.92 9.86914C228.66 10.2012 228.454 10.582 228.305 11.0117C228.161 11.4349 228.09 11.8841 228.09 12.3594ZM237.719 3.04297H239.535V15.9922L239.379 18.043H237.719V3.04297ZM246.674 12.6719V12.877C246.674 13.6452 246.583 14.3581 246.4 15.0156C246.218 15.6667 245.951 16.2331 245.6 16.7148C245.248 17.1966 244.818 17.571 244.311 17.8379C243.803 18.1048 243.22 18.2383 242.562 18.2383C241.892 18.2383 241.303 18.1243 240.795 17.8965C240.294 17.6621 239.87 17.3268 239.525 16.8906C239.18 16.4544 238.904 15.9271 238.695 15.3086C238.493 14.6901 238.354 13.9935 238.275 13.2188V12.3203C238.354 11.5391 238.493 10.8392 238.695 10.2207C238.904 9.60221 239.18 9.07487 239.525 8.63867C239.87 8.19596 240.294 7.86068 240.795 7.63281C241.296 7.39844 241.879 7.28125 242.543 7.28125C243.207 7.28125 243.796 7.41146 244.311 7.67188C244.825 7.92578 245.255 8.29036 245.6 8.76562C245.951 9.24089 246.218 9.81055 246.4 10.4746C246.583 11.1322 246.674 11.8646 246.674 12.6719ZM244.857 12.877V12.6719C244.857 12.1445 244.809 11.6497 244.711 11.1875C244.613 10.7188 244.457 10.3086 244.242 9.95703C244.027 9.59896 243.744 9.31901 243.393 9.11719C243.041 8.90885 242.608 8.80469 242.094 8.80469C241.638 8.80469 241.241 8.88281 240.902 9.03906C240.57 9.19531 240.287 9.4069 240.053 9.67383C239.818 9.93424 239.626 10.2337 239.477 10.5723C239.333 10.9043 239.226 11.2493 239.154 11.6074V13.9609C239.258 14.4167 239.428 14.8561 239.662 15.2793C239.903 15.696 240.222 16.0378 240.619 16.3047C241.023 16.5716 241.521 16.7051 242.113 16.7051C242.602 16.7051 243.018 16.6074 243.363 16.4121C243.715 16.2103 243.998 15.9336 244.213 15.582C244.434 15.2305 244.597 14.8236 244.701 14.3613C244.805 13.8991 244.857 13.4043 244.857 12.877ZM248.48 12.877V12.6523C248.48 11.8906 248.591 11.1842 248.812 10.5332C249.034 9.87565 249.353 9.30599 249.77 8.82422C250.186 8.33594 250.691 7.95833 251.283 7.69141C251.876 7.41797 252.54 7.28125 253.275 7.28125C254.018 7.28125 254.685 7.41797 255.277 7.69141C255.876 7.95833 256.384 8.33594 256.801 8.82422C257.224 9.30599 257.546 9.87565 257.768 10.5332C257.989 11.1842 258.1 11.8906 258.1 12.6523V12.877C258.1 13.6387 257.989 14.3451 257.768 14.9961C257.546 15.6471 257.224 16.2168 256.801 16.7051C256.384 17.1868 255.88 17.5645 255.287 17.8379C254.701 18.1048 254.037 18.2383 253.295 18.2383C252.553 18.2383 251.885 18.1048 251.293 17.8379C250.701 17.5645 250.193 17.1868 249.77 16.7051C249.353 16.2168 249.034 15.6471 248.812 14.9961C248.591 14.3451 248.48 13.6387 248.48 12.877ZM250.287 12.6523V12.877C250.287 13.4043 250.349 13.9023 250.473 14.3711C250.596 14.8333 250.782 15.2435 251.029 15.6016C251.283 15.9596 251.599 16.2428 251.977 16.4512C252.354 16.653 252.794 16.7539 253.295 16.7539C253.79 16.7539 254.223 16.653 254.594 16.4512C254.971 16.2428 255.284 15.9596 255.531 15.6016C255.779 15.2435 255.964 14.8333 256.088 14.3711C256.218 13.9023 256.283 13.4043 256.283 12.877V12.6523C256.283 12.1315 256.218 11.64 256.088 11.1777C255.964 10.709 255.775 10.2956 255.521 9.9375C255.274 9.57292 254.962 9.28646 254.584 9.07812C254.213 8.86979 253.777 8.76562 253.275 8.76562C252.781 8.76562 252.344 8.86979 251.967 9.07812C251.596 9.28646 251.283 9.57292 251.029 9.9375C250.782 10.2956 250.596 10.709 250.473 11.1777C250.349 11.64 250.287 12.1315 250.287 12.6523ZM266.596 16.2363V10.7969C266.596 10.3802 266.511 10.0189 266.342 9.71289C266.179 9.40039 265.932 9.15951 265.6 8.99023C265.268 8.82096 264.857 8.73633 264.369 8.73633C263.913 8.73633 263.513 8.81445 263.168 8.9707C262.829 9.12695 262.562 9.33203 262.367 9.58594C262.178 9.83984 262.084 10.1133 262.084 10.4062H260.277C260.277 10.0286 260.375 9.6543 260.57 9.2832C260.766 8.91211 261.046 8.57682 261.41 8.27734C261.781 7.97135 262.224 7.73047 262.738 7.55469C263.259 7.3724 263.839 7.28125 264.477 7.28125C265.245 7.28125 265.922 7.41146 266.508 7.67188C267.1 7.93229 267.562 8.32617 267.895 8.85352C268.233 9.37435 268.402 10.0286 268.402 10.8164V15.7383C268.402 16.0898 268.432 16.4642 268.49 16.8613C268.555 17.2585 268.65 17.6003 268.773 17.8867V18.043H266.889C266.798 17.8346 266.726 17.5579 266.674 17.2129C266.622 16.8613 266.596 16.5358 266.596 16.2363ZM266.908 11.6367L266.928 12.9062H265.102C264.587 12.9062 264.128 12.9486 263.725 13.0332C263.321 13.1113 262.982 13.2318 262.709 13.3945C262.436 13.5573 262.227 13.7624 262.084 14.0098C261.941 14.2507 261.869 14.5339 261.869 14.8594C261.869 15.1914 261.944 15.4941 262.094 15.7676C262.243 16.041 262.468 16.2591 262.768 16.4219C263.074 16.5781 263.448 16.6562 263.891 16.6562C264.444 16.6562 264.932 16.5391 265.355 16.3047C265.779 16.0703 266.114 15.7839 266.361 15.4453C266.615 15.1068 266.752 14.778 266.771 14.459L267.543 15.3281C267.497 15.6016 267.374 15.9043 267.172 16.2363C266.97 16.5684 266.7 16.8874 266.361 17.1934C266.029 17.4928 265.632 17.7435 265.17 17.9453C264.714 18.1406 264.2 18.2383 263.627 18.2383C262.911 18.2383 262.283 18.0983 261.742 17.8184C261.208 17.5384 260.792 17.1641 260.492 16.6953C260.199 16.2201 260.053 15.6895 260.053 15.1035C260.053 14.5371 260.163 14.0391 260.385 13.6094C260.606 13.1732 260.925 12.8118 261.342 12.5254C261.758 12.2324 262.26 12.0111 262.846 11.8613C263.432 11.7116 264.086 11.6367 264.809 11.6367H266.908ZM273.051 9.13672V18.043H271.244V7.47656H273.002L273.051 9.13672ZM276.352 7.41797L276.342 9.09766C276.192 9.0651 276.049 9.04557 275.912 9.03906C275.782 9.02604 275.632 9.01953 275.463 9.01953C275.046 9.01953 274.678 9.08464 274.359 9.21484C274.04 9.34505 273.77 9.52734 273.549 9.76172C273.327 9.99609 273.152 10.276 273.021 10.6016C272.898 10.9206 272.816 11.2721 272.777 11.6562L272.27 11.9492C272.27 11.3112 272.331 10.7122 272.455 10.1523C272.585 9.59245 272.784 9.09766 273.051 8.66797C273.318 8.23177 273.656 7.89323 274.066 7.65234C274.483 7.40495 274.978 7.28125 275.551 7.28125C275.681 7.28125 275.831 7.29753 276 7.33008C276.169 7.35612 276.286 7.38542 276.352 7.41797ZM284.486 15.9922V3.04297H286.303V18.043H284.643L284.486 15.9922ZM277.377 12.877V12.6719C277.377 11.8646 277.475 11.1322 277.67 10.4746C277.872 9.81055 278.155 9.24089 278.52 8.76562C278.891 8.29036 279.33 7.92578 279.838 7.67188C280.352 7.41146 280.925 7.28125 281.557 7.28125C282.221 7.28125 282.8 7.39844 283.295 7.63281C283.796 7.86068 284.219 8.19596 284.564 8.63867C284.916 9.07487 285.193 9.60221 285.395 10.2207C285.596 10.8392 285.736 11.5391 285.814 12.3203V13.2188C285.743 13.9935 285.603 14.6901 285.395 15.3086C285.193 15.9271 284.916 16.4544 284.564 16.8906C284.219 17.3268 283.796 17.6621 283.295 17.8965C282.794 18.1243 282.208 18.2383 281.537 18.2383C280.919 18.2383 280.352 18.1048 279.838 17.8379C279.33 17.571 278.891 17.1966 278.52 16.7148C278.155 16.2331 277.872 15.6667 277.67 15.0156C277.475 14.3581 277.377 13.6452 277.377 12.877ZM279.193 12.6719V12.877C279.193 13.4043 279.245 13.8991 279.35 14.3613C279.46 14.8236 279.63 15.2305 279.857 15.582C280.085 15.9336 280.375 16.2103 280.727 16.4121C281.078 16.6074 281.498 16.7051 281.986 16.7051C282.585 16.7051 283.077 16.5781 283.461 16.3242C283.852 16.0703 284.164 15.735 284.398 15.3184C284.633 14.9017 284.815 14.4492 284.945 13.9609V11.6074C284.867 11.2493 284.753 10.9043 284.604 10.5723C284.46 10.2337 284.271 9.93424 284.037 9.67383C283.809 9.4069 283.526 9.19531 283.188 9.03906C282.855 8.88281 282.462 8.80469 282.006 8.80469C281.511 8.80469 281.085 8.90885 280.727 9.11719C280.375 9.31901 280.085 9.59896 279.857 9.95703C279.63 10.3086 279.46 10.7188 279.35 11.1875C279.245 11.6497 279.193 12.1445 279.193 12.6719Z" fill="#AAAAAA"/>
<path d="M76.4141 1.05286H74.8148C74.5285 1.05286 74.3508 1.23056 74.3508 1.51685V13.403L66.3148 1.37864C66.1964 1.20094 65.9298 1.05286 65.7126 1.05286H63.8961C63.5703 1.05286 63.4321 1.19107 63.4321 1.51685V17.3717C63.4321 17.658 63.6098 17.8357 63.8961 17.8357H65.4461C65.7324 17.8357 65.9101 17.6678 65.9101 17.3717V4.88329L74.4199 17.5C74.5483 17.7172 74.7556 17.8258 75.0221 17.8258H76.4141C76.7103 17.8258 76.8781 17.658 76.8781 17.3618V1.51685C76.8781 1.23056 76.7103 1.05286 76.4141 1.05286Z" fill="white"/>
<path d="M106.455 1.05286H94.1639C93.9763 1.05286 93.8184 1.21081 93.8184 1.39838V2.93845C93.8184 3.12603 93.9763 3.28398 94.1639 3.28398H98.9322V17.4901C98.9322 17.6876 99.0901 17.8455 99.2876 17.8455H101.153C101.351 17.8455 101.509 17.6876 101.509 17.4901V3.28398H106.465C106.652 3.28398 106.81 3.12603 106.81 2.93845V1.39838C106.79 1.21081 106.642 1.05286 106.455 1.05286Z" fill="white"/>
<path d="M86.9472 1.0726H84.7457C83.0476 1.0726 79.0889 1.61557 79.0889 6.64055V12.2776C79.0889 17.3026 83.0476 17.8357 84.7457 17.8357H91.2613C91.5081 17.8357 91.7056 17.6382 91.7056 17.3914V16.1673C91.7056 15.9205 91.5081 15.723 91.2613 15.723H84.8049C81.9025 15.723 81.5668 13.7584 81.5668 12.2776V10.5993H92.1597C92.4065 10.5993 92.604 10.4019 92.604 10.1551V6.64055C92.604 1.61557 88.6551 1.0726 86.9472 1.0726ZM90.126 6.64055V8.48665H81.5668V6.64055C81.5668 5.15971 81.9025 3.19513 84.8049 3.19513H86.8879C89.7904 3.19513 90.126 5.15971 90.126 6.64055Z" fill="white"/>
<path d="M12.3922 8.13162L14.2877 16.3058C14.6036 17.6781 15.8475 17.8262 16.3609 17.8262H18.1773L14.416 1.70479C14.3272 1.29016 14.1495 1.20131 13.8434 1.19143H10.8719C10.5659 1.21118 10.3882 1.37901 10.3388 1.70479C10.2203 2.18853 7.62392 13.4626 7.59431 13.5712C7.56469 13.6996 7.5252 13.8575 7.37712 13.8575C7.26852 13.8575 7.18954 13.7489 7.15006 13.5712C7.13031 13.4429 4.89918 1.53696 4.89918 1.53696C4.81033 1.15195 4.65238 1.07297 4.41544 1.07297H1.40441C1.30569 1.07297 1.17735 1.09271 1.0885 1.20131C0.999649 1.3099 0.979904 1.46786 1.01939 1.67517L3.754 15.7826C4.00081 17.145 4.83995 17.8262 6.25168 17.8262H8.55191C9.65761 17.8262 10.3487 17.1845 10.6152 15.9208L12.3922 8.13162Z" fill="white"/>
<path d="M25.66 1.04297C25.423 1.04297 25.2256 1.23054 25.2256 1.46748V17.4013C25.2256 17.6382 25.4132 17.8357 25.66 17.8357H28.829C29.0659 17.8357 29.2633 17.6382 29.2633 17.4013V1.47735C29.2633 1.24041 29.0659 1.05284 28.829 1.05284H25.66V1.04297Z" fill="white"/>
<path d="M52.6211 1.05284C47.5862 1.05284 46.6089 4.31068 46.6089 7.95354V10.9152C46.6089 12.5343 46.8656 17.8357 51.9399 17.8357H59.6205C59.8673 17.8357 60.0648 17.6382 60.0648 17.3914V15.0221C60.0648 14.7753 59.8673 14.5679 59.6205 14.5679H53.4207C52.9567 14.5679 50.6466 14.4495 50.6466 12.0308V10.935H60.0154C60.6571 10.935 60.8052 10.8658 60.8052 10.2143V7.94367C60.8052 3.56039 59.196 1.04297 54.9213 1.04297H52.6211V1.05284ZM56.7576 7.90418H50.6466V6.89721C50.6466 4.64634 52.2361 4.31068 53.1838 4.31068H54.2303C55.178 4.31068 56.7674 4.64634 56.7674 6.89721V7.90418H56.7576Z" fill="white"/>
<path d="M37.0731 7.02555C36.856 6.9367 36.1452 6.59117 36.1452 5.66318C36.1452 5.19918 36.4611 4.31068 37.6457 4.31068H43.6283C43.8751 4.31068 44.0726 4.11324 44.0726 3.85656V1.49709C44.0726 1.25029 43.8751 1.04297 43.6283 1.04297C42.2166 1.04297 37.9123 1.04297 37.004 1.04297C34.6347 1.04297 32.0186 2.73112 32.0186 5.46573C32.0186 8.06213 33.0453 9.44425 35.5232 10.392C35.5232 10.392 39.4129 11.8827 39.8867 12.0703C40.4692 12.2875 40.795 12.7514 40.795 13.3339C40.795 13.9361 40.3409 14.5679 39.4918 14.5679H32.68C32.4332 14.5679 32.2357 14.7654 32.2357 15.0221V17.3815C32.2357 17.6283 32.4332 17.8357 32.68 17.8357H40.8937C43.263 17.8357 44.9216 15.9994 44.9216 13.2747C44.9216 10.9843 44.0232 9.73054 41.9895 8.95063C41.1899 8.63472 37.4582 7.17363 37.0731 7.02555Z" fill="white"/>
<path d="M22.6688 1.58594L19.8354 11.7938L17.4957 1.59581C17.4266 1.28977 17.6241 1.04297 17.94 1.04297H22.264C22.57 1.04297 22.7477 1.28977 22.6688 1.58594Z" fill="#F37321"/>
<path d="M123.515 13.4526L119.596 1.32951C119.546 1.17155 119.398 1.06296 119.23 1.06296H117.128C116.95 1.06296 116.832 1.23079 116.881 1.39861L122.33 17.5891C122.38 17.747 122.528 17.8556 122.696 17.8556H124.334C124.502 17.8556 124.65 17.747 124.7 17.5891L130.149 1.39861C130.208 1.23079 130.08 1.06296 129.902 1.06296H127.8C127.632 1.06296 127.484 1.17155 127.434 1.32951L123.515 13.4526Z" fill="white"/>
<path d="M159.56 14.0941L157.052 5.89022C157.023 5.78163 156.924 5.71252 156.806 5.71252H155.423C155.315 5.71252 155.206 5.78163 155.177 5.89022L152.669 14.0941L150.3 5.98895C150.25 5.82112 150.102 5.71252 149.934 5.71252H148.118C147.94 5.71252 147.822 5.88035 147.871 6.04818L151.632 17.5691C151.682 17.727 151.83 17.8356 151.998 17.8356H153.281C153.439 17.8356 153.577 17.7369 153.637 17.5987L156.114 9.29615L158.592 17.5987C158.652 17.7468 158.79 17.8356 158.948 17.8356H160.231C160.399 17.8356 160.547 17.727 160.596 17.5691L164.358 6.04818C164.407 5.88035 164.289 5.71252 164.111 5.71252H162.294C162.127 5.71252 161.969 5.82112 161.929 5.98895L159.56 14.0941Z" fill="white"/>
<path d="M132.501 17.8356H134.525C134.663 17.8356 134.782 17.7172 134.782 17.579V5.9692C134.782 5.83099 134.663 5.71252 134.525 5.71252H132.501C132.363 5.71252 132.245 5.83099 132.245 5.9692V17.579C132.245 17.7172 132.363 17.8356 132.501 17.8356Z" fill="white"/>
<path d="M132.5 4.32055H134.524C134.662 4.32055 134.781 4.20209 134.781 4.06387V1.29965C134.781 1.16144 134.662 1.04297 134.524 1.04297H132.5C132.362 1.04297 132.244 1.16144 132.244 1.29965V4.06387C132.244 4.20209 132.362 4.32055 132.5 4.32055Z" fill="white"/>
<path d="M141.888 5.52499C138.867 5.52499 137.139 6.92685 137.139 9.3653V14.1731C137.139 16.6313 138.867 18.043 141.888 18.043C142.125 18.043 144.257 18.0233 146.172 17.4507C146.271 17.421 146.35 17.3223 146.35 17.2039V15.5157C146.35 15.3775 146.232 15.259 146.093 15.259C146.074 15.259 146.054 15.259 146.034 15.2689C144.218 15.7823 142.539 15.8316 141.898 15.8316C141.236 15.8316 139.686 15.6638 139.686 14.0941V12.8305H146.459C146.597 12.8305 146.715 12.712 146.715 12.5738V9.17772C146.705 6.92685 144.859 5.52499 141.888 5.52499ZM144.168 10.6586H139.676V9.4344C139.676 8.70386 139.903 7.7265 141.888 7.7265C142.421 7.7265 144.168 7.8351 144.168 9.24683V10.6586Z" fill="white"/>
<path d="M170.28 5.52499C167.259 5.52499 165.531 6.92685 165.531 9.3653V14.1731C165.531 16.6313 167.259 18.043 170.28 18.043C170.517 18.043 172.649 18.0233 174.564 17.4507C174.663 17.421 174.742 17.3223 174.742 17.2039V15.5157C174.742 15.3775 174.624 15.259 174.485 15.259C174.466 15.259 174.446 15.259 174.426 15.2689C172.61 15.7823 170.931 15.8316 170.29 15.8316C169.628 15.8316 168.078 15.6638 168.078 14.0941V12.8305H174.851C174.989 12.8305 175.107 12.712 175.107 12.5738V9.17772C175.088 6.92685 173.241 5.52499 170.28 5.52499ZM172.55 10.6586H168.059V9.4344C168.059 8.70386 168.286 7.7265 170.27 7.7265C170.803 7.7265 172.55 7.8351 172.55 9.24683V10.6586Z" fill="white"/>
<path d="M183.964 7.65737C184.073 7.62775 184.152 7.52903 184.152 7.41056V5.72241C184.152 5.5842 184.033 5.46573 183.895 5.46573C183.875 5.46573 183.856 5.46573 183.846 5.4756C182.552 5.74215 180.775 6.42334 179.788 6.90708V5.96921C179.788 5.831 179.67 5.71253 179.531 5.71253H177.508C177.369 5.71253 177.251 5.831 177.251 5.96921V17.579C177.251 17.7172 177.369 17.8356 177.508 17.8356H179.531C179.67 17.8356 179.788 17.7172 179.788 17.579V9.40475C180.568 8.97037 182.572 8.05226 183.964 7.65737Z" fill="white"/>
</svg>
