<?xml version="1.0" encoding="utf-8"?>
<!-- Generator: Adobe Illustrator 26.0.2, SVG Export Plug-In . SVG Version: 6.00 Build 0)  -->
<svg version="1.1" id="레이어_1" xmlns="http://www.w3.org/2000/svg" xmlns:xlink="http://www.w3.org/1999/xlink" x="0px"
	 y="0px" viewBox="0 0 779.9 246.3" style="enable-background:new 0 0 779.9 246.3;" xml:space="preserve">
<style type="text/css">
	.st0{fill:#C9CACA;}
	.st1{fill:#E36F0D;}
	.st2{fill:#E2700E;}
	.st3{fill:#040000;}
	.st4{clip-path:url(#SVGID_00000014605869571319714150000014541893559304429191_);fill:#E2700E;}
	.st5{fill-rule:evenodd;clip-rule:evenodd;fill:#FFFFFF;}
	.st6{fill:none;stroke:#E36F0D;stroke-width:0.72;stroke-miterlimit:10;}
	.st7{fill:none;stroke:#E36F0D;stroke-width:0.5102;stroke-miterlimit:10;}
	.st8{font-family:'NotoSansKR-Regular-KSCpc-EUC-H';}
	.st9{font-size:17px;}
</style>
<g>
	<rect x="448.9" y="10" class="st0" width="160" height="90"/>
	<path d="M449.4,100V10h-1v90H449.4z M608.9,99.5h-160v1h160V99.5z M608.4,10v90h1V10H608.4z M448.9,10.5h160v-1h-160V10.5z
		 M448.9,100h-0.5v0.5h0.5V100z M608.9,100v0.5h0.5V100H608.9z M608.9,10h0.5V9.5h-0.5V10z M448.9,10V9.5h-0.5V10H448.9z"/>
	<rect x="448.9" y="100" class="st0" width="160" height="90"/>
	<path d="M449.4,190v-90h-1v90H449.4z M608.9,189.5h-160v1h160V189.5z M608.4,100v90h1v-90H608.4z M448.9,100.5h160v-1h-160V100.5z
		 M448.9,190h-0.5v0.5h0.5V190z M608.9,190v0.5h0.5V190H608.9z M608.9,100h0.5v-0.5h-0.5V100z M448.9,100v-0.5h-0.5v0.5H448.9z"/>
	<rect x="608.9" y="10" class="st0" width="160" height="90"/>
	<path d="M609.4,100V10h-1v90H609.4z M768.9,99.5h-160v1h160V99.5z M768.4,10v90h1V10H768.4z M608.9,10.5h160v-1h-160V10.5z
		 M608.9,100h-0.5v0.5h0.5V100z M768.9,100v0.5h0.5V100H768.9z M768.9,10h0.5V9.5h-0.5V10z M608.9,10V9.5h-0.5V10H608.9z"/>
	<rect x="608.9" y="100" class="st0" width="160" height="90"/>
	<path d="M609.4,190v-90h-1v90H609.4z M768.9,189.5h-160v1h160V189.5z M768.4,100v90h1v-90H768.4z M608.9,100.5h160v-1h-160V100.5z
		 M608.9,190h-0.5v0.5h0.5V190z M768.9,190v0.5h0.5V190H768.9z M768.9,100h0.5v-0.5h-0.5V100z M608.9,100v-0.5h-0.5v0.5H608.9z"/>
	<path d="M530.2,62h-1.5v-8c0-0.3,0-0.5,0-0.8c0-0.3,0-0.6,0-0.9c0-0.3,0-0.6,0-0.8c0-0.3,0-0.5,0-0.7c-0.1,0.1-0.2,0.2-0.3,0.3
		s-0.2,0.1-0.2,0.2c-0.1,0.1-0.2,0.1-0.2,0.2c-0.1,0.1-0.2,0.2-0.3,0.3l-1.3,1.1l-0.8-1.1l3.4-2.6h1.3V62z"/>
	<path d="M532.4,142.1c0,0.4-0.1,0.8-0.2,1.2s-0.3,0.7-0.6,0.9c-0.2,0.3-0.5,0.5-0.9,0.6c-0.3,0.2-0.7,0.3-1.1,0.4v0.1
		c1,0.1,1.8,0.5,2.4,1c0.5,0.5,0.8,1.2,0.8,2.1c0,0.6-0.1,1.1-0.3,1.5c-0.2,0.5-0.5,0.9-0.9,1.2s-0.9,0.6-1.5,0.8s-1.3,0.3-2.1,0.3
		c-0.6,0-1.2,0-1.8-0.1c-0.6-0.1-1.1-0.3-1.6-0.5V150c0.5,0.3,1.1,0.5,1.7,0.6c0.6,0.1,1.2,0.2,1.7,0.2c0.5,0,1-0.1,1.4-0.2
		s0.7-0.3,1-0.5c0.3-0.2,0.4-0.5,0.6-0.8c0.1-0.3,0.2-0.7,0.2-1.1c0-0.4-0.1-0.7-0.2-1c-0.2-0.3-0.4-0.5-0.7-0.7
		c-0.3-0.2-0.6-0.3-1.1-0.4c-0.4-0.1-0.9-0.1-1.4-0.1h-1.2v-1.3h1.2c0.5,0,0.9-0.1,1.3-0.2c0.4-0.1,0.7-0.3,0.9-0.5
		c0.3-0.2,0.4-0.5,0.6-0.8s0.2-0.6,0.2-1c0-0.3-0.1-0.6-0.2-0.8c-0.1-0.2-0.3-0.4-0.4-0.6c-0.2-0.2-0.4-0.3-0.7-0.4
		c-0.3-0.1-0.6-0.1-0.9-0.1c-0.6,0-1.2,0.1-1.7,0.3c-0.5,0.2-0.9,0.4-1.4,0.8l-0.8-1.1c0.2-0.2,0.5-0.4,0.7-0.5
		c0.3-0.2,0.6-0.3,0.9-0.4c0.3-0.1,0.7-0.2,1-0.3c0.4-0.1,0.8-0.1,1.2-0.1c0.6,0,1.2,0.1,1.7,0.2c0.5,0.2,0.9,0.4,1.2,0.7
		c0.3,0.3,0.6,0.6,0.7,1C532.3,141.2,532.4,141.7,532.4,142.1z"/>
	<path d="M692.1,147.6v-3.1c0-0.3,0-0.7,0-1c0-0.4,0-0.7,0-1.1c0-0.3,0-0.7,0-1c0-0.3,0-0.5,0-0.7h-0.1c0,0.1-0.1,0.2-0.2,0.4
		c-0.1,0.1-0.1,0.3-0.2,0.4c-0.1,0.1-0.1,0.3-0.2,0.4c-0.1,0.1-0.1,0.2-0.2,0.3l-3.6,5.3H692.1z M695.5,149.1h-1.9v2.9h-1.5v-2.9
		h-5.9v-1.4l5.8-8.6h1.7v8.6h1.9V149.1z"/>
	<path d="M694.8,62h-8v-1.4l3.1-3.3c0.4-0.5,0.8-0.9,1.2-1.3s0.6-0.8,0.9-1.2c0.2-0.4,0.4-0.8,0.6-1.1c0.1-0.4,0.2-0.8,0.2-1.2
		c0-0.3,0-0.7-0.1-0.9s-0.2-0.5-0.4-0.7c-0.2-0.2-0.4-0.3-0.7-0.4s-0.5-0.1-0.8-0.1c-0.6,0-1.1,0.1-1.5,0.3
		c-0.4,0.2-0.9,0.5-1.3,0.9l-0.9-1c0.2-0.2,0.5-0.4,0.8-0.6c0.3-0.2,0.6-0.3,0.9-0.5c0.3-0.1,0.6-0.2,1-0.3c0.3-0.1,0.7-0.1,1.1-0.1
		c0.6,0,1.1,0.1,1.5,0.2c0.5,0.2,0.8,0.4,1.2,0.7c0.3,0.3,0.6,0.7,0.7,1.1c0.2,0.4,0.3,0.9,0.3,1.4c0,0.5-0.1,1-0.2,1.4
		c-0.2,0.5-0.4,0.9-0.6,1.3c-0.3,0.4-0.6,0.9-1,1.3c-0.4,0.4-0.8,0.9-1.2,1.4l-2.5,2.6v0.1h6.1V62z"/>
</g>
<g>
	<path class="st1" d="M10.8,40V10h-1v30H10.8z M63.6,39.5H10.3v1h53.3V39.5z M63.1,10v30h1V10H63.1z M10.3,10.5h53.3v-1H10.3V10.5z
		 M10.3,40H9.8v0.5h0.5V40z M63.6,40v0.5h0.5V40H63.6z M63.6,10h0.5V9.5h-0.5V10z M10.3,10V9.5H9.8V10H10.3z"/>
	<path class="st1" d="M10.8,70V40h-1v30H10.8z M63.6,69.5H10.3v1h53.3V69.5z M63.1,40v30h1V40H63.1z M10.3,40.5h53.3v-1H10.3V40.5z
		 M10.3,70H9.8v0.5h0.5V70z M63.6,70v0.5h0.5V70H63.6z M63.6,40h0.5v-0.5h-0.5V40z M10.3,40v-0.5H9.8V40H10.3z"/>
	<path class="st1" d="M64.1,40V10h-1v30H64.1z M116.9,39.5H63.6v1h53.3V39.5z M116.4,10v30h1V10H116.4z M63.6,10.5h53.3v-1H63.6
		V10.5z M63.6,40h-0.5v0.5h0.5V40z M116.9,40v0.5h0.5V40H116.9z M116.9,10h0.5V9.5h-0.5V10z M63.6,10V9.5h-0.5V10H63.6z"/>
	<path class="st1" d="M64.1,70V40h-1v30H64.1z M116.9,69.5H63.6v1h53.3V69.5z M116.4,40v30h1V40H116.4z M63.6,40.5h53.3v-1H63.6
		V40.5z M63.6,70h-0.5v0.5h0.5V70z M116.9,70v0.5h0.5V70H116.9z M116.9,40h0.5v-0.5h-0.5V40z M63.6,40v-0.5h-0.5V40H63.6z"/>
	<path class="st1" d="M10.8,100V70h-1v30H10.8z M63.6,99.5H10.3v1h53.3V99.5z M63.1,70v30h1V70H63.1z M10.3,70.5h53.3v-1H10.3V70.5z
		 M10.3,100H9.8v0.5h0.5V100z M63.6,100v0.5h0.5V100H63.6z M63.6,70h0.5v-0.5h-0.5V70z M10.3,70v-0.5H9.8V70H10.3z"/>
	<path class="st1" d="M10.8,130v-30h-1v30H10.8z M63.6,129.5H10.3v1h53.3V129.5z M63.1,100v30h1v-30H63.1z M10.3,100.5h53.3v-1H10.3
		V100.5z M10.3,130H9.8v0.5h0.5V130z M63.6,130v0.5h0.5V130H63.6z M63.6,100h0.5v-0.5h-0.5V100z M10.3,100v-0.5H9.8v0.5H10.3z"/>
	<path class="st1" d="M64.1,100V70h-1v30H64.1z M116.9,99.5H63.6v1h53.3V99.5z M116.4,70v30h1V70H116.4z M63.6,70.5h53.3v-1H63.6
		V70.5z M63.6,100h-0.5v0.5h0.5V100z M116.9,100v0.5h0.5V100H116.9z M116.9,70h0.5v-0.5h-0.5V70z M63.6,70v-0.5h-0.5V70H63.6z"/>
	<path class="st1" d="M64.1,130v-30h-1v30H64.1z M116.9,129.5H63.6v1h53.3V129.5z M116.4,100v30h1v-30H116.4z M63.6,100.5h53.3v-1
		H63.6V100.5z M63.6,130h-0.5v0.5h0.5V130z M116.9,130v0.5h0.5V130H116.9z M116.9,100h0.5v-0.5h-0.5V100z M63.6,100v-0.5h-0.5v0.5
		H63.6z"/>
	<path class="st1" d="M10.8,160v-30h-1v30H10.8z M63.6,159.5H10.3v1h53.3V159.5z M63.1,130v30h1v-30H63.1z M10.3,130.5h53.3v-1H10.3
		V130.5z M10.3,160H9.8v0.5h0.5V160z M63.6,160v0.5h0.5V160H63.6z M63.6,130h0.5v-0.5h-0.5V130z M10.3,130v-0.5H9.8v0.5H10.3z"/>
	<path class="st1" d="M10.8,190v-30h-1v30H10.8z M63.6,189.5H10.3v1h53.3V189.5z M63.1,160v30h1v-30H63.1z M10.3,160.5h53.3v-1H10.3
		V160.5z M10.3,190H9.8v0.5h0.5V190z M63.6,190v0.5h0.5V190H63.6z M63.6,160h0.5v-0.5h-0.5V160z M10.3,160v-0.5H9.8v0.5H10.3z"/>
	<path class="st1" d="M64.1,160v-30h-1v30H64.1z M116.9,159.5H63.6v1h53.3V159.5z M116.4,130v30h1v-30H116.4z M63.6,130.5h53.3v-1
		H63.6V130.5z M63.6,160h-0.5v0.5h0.5V160z M116.9,160v0.5h0.5V160H116.9z M116.9,130h0.5v-0.5h-0.5V130z M63.6,130v-0.5h-0.5v0.5
		H63.6z"/>
	<path class="st1" d="M64.1,190v-30h-1v30H64.1z M116.9,189.5H63.6v1h53.3V189.5z M116.4,160v30h1v-30H116.4z M63.6,160.5h53.3v-1
		H63.6V160.5z M63.6,190h-0.5v0.5h0.5V190z M116.9,190v0.5h0.5V190H116.9z M116.9,160h0.5v-0.5h-0.5V160z M63.6,160v-0.5h-0.5v0.5
		H63.6z"/>
	<path class="st1" d="M117.4,40V10h-1v30H117.4z M170.3,39.5h-53.3v1h53.3V39.5z M169.8,10v30h1V10H169.8z M116.9,10.5h53.3v-1
		h-53.3V10.5z M116.9,40h-0.5v0.5h0.5V40z M170.3,40v0.5h0.5V40H170.3z M170.3,10h0.5V9.5h-0.5V10z M116.9,10V9.5h-0.5V10H116.9z"/>
	<path class="st1" d="M117.4,70V40h-1v30H117.4z M170.3,69.5h-53.3v1h53.3V69.5z M169.8,40v30h1V40H169.8z M116.9,40.5h53.3v-1
		h-53.3V40.5z M116.9,70h-0.5v0.5h0.5V70z M170.3,70v0.5h0.5V70H170.3z M170.3,40h0.5v-0.5h-0.5V40z M116.9,40v-0.5h-0.5V40H116.9z"
		/>
	<path class="st1" d="M170.8,40V10h-1v30H170.8z M223.6,39.5h-53.3v1h53.3V39.5z M223.1,10v30h1V10H223.1z M170.3,10.5h53.3v-1
		h-53.3V10.5z M170.3,40h-0.5v0.5h0.5V40z M223.6,40v0.5h0.5V40H223.6z M223.6,10h0.5V9.5h-0.5V10z M170.3,10V9.5h-0.5V10H170.3z"/>
	<path class="st1" d="M170.8,70V40h-1v30H170.8z M223.6,69.5h-53.3v1h53.3V69.5z M223.1,40v30h1V40H223.1z M170.3,40.5h53.3v-1
		h-53.3V40.5z M170.3,70h-0.5v0.5h0.5V70z M223.6,70v0.5h0.5V70H223.6z M223.6,40h0.5v-0.5h-0.5V40z M170.3,40v-0.5h-0.5V40H170.3z"
		/>
	<path class="st1" d="M117.4,160v-30h-1v30H117.4z M170.3,159.5h-53.3v1h53.3V159.5z M169.8,130v30h1v-30H169.8z M116.9,130.5h53.3
		v-1h-53.3V130.5z M116.9,160h-0.5v0.5h0.5V160z M170.3,160v0.5h0.5V160H170.3z M170.3,130h0.5v-0.5h-0.5V130z M116.9,130v-0.5h-0.5
		v0.5H116.9z"/>
	<path class="st1" d="M117.4,190v-30h-1v30H117.4z M170.3,189.5h-53.3v1h53.3V189.5z M169.8,160v30h1v-30H169.8z M116.9,160.5h53.3
		v-1h-53.3V160.5z M116.9,190h-0.5v0.5h0.5V190z M170.3,190v0.5h0.5V190H170.3z M170.3,160h0.5v-0.5h-0.5V160z M116.9,160v-0.5h-0.5
		v0.5H116.9z"/>
	<path class="st1" d="M170.8,160v-30h-1v30H170.8z M223.6,159.5h-53.3v1h53.3V159.5z M223.1,130v30h1v-30H223.1z M170.3,130.5h53.3
		v-1h-53.3V130.5z M170.3,160h-0.5v0.5h0.5V160z M223.6,160v0.5h0.5V160H223.6z M223.6,130h0.5v-0.5h-0.5V130z M170.3,130v-0.5h-0.5
		v0.5H170.3z"/>
	<path class="st1" d="M170.8,190v-30h-1v30H170.8z M223.6,189.5h-53.3v1h53.3V189.5z M223.1,160v30h1v-30H223.1z M170.3,160.5h53.3
		v-1h-53.3V160.5z M170.3,190h-0.5v0.5h0.5V190z M223.6,190v0.5h0.5V190H223.6z M223.6,160h0.5v-0.5h-0.5V160z M170.3,160v-0.5h-0.5
		v0.5H170.3z"/>
	<path class="st1" d="M224.1,40V10h-1v30H224.1z M276.9,39.5h-53.3v1h53.3V39.5z M276.4,10v30h1V10H276.4z M223.6,10.5h53.3v-1
		h-53.3V10.5z M223.6,40h-0.5v0.5h0.5V40z M276.9,40v0.5h0.5V40H276.9z M276.9,10h0.5V9.5h-0.5V10z M223.6,10V9.5h-0.5V10H223.6z"/>
	<path class="st2" d="M224.1,70V40h-1v30H224.1z M276.9,69.5h-53.3v1h53.3V69.5z M276.4,40v30h1V40H276.4z M223.6,40.5h53.3v-1
		h-53.3V40.5z M223.6,70h-0.5v0.5h0.5V70z M276.9,70v0.5h0.5V70H276.9z M276.9,40h0.5v-0.5h-0.5V40z M223.6,40v-0.5h-0.5V40H223.6z"
		/>
	<path class="st2" d="M277.4,40V10h-1v30H277.4z M330.3,39.5h-53.3v1h53.3V39.5z M329.8,10v30h1V10H329.8z M276.9,10.5h53.3v-1
		h-53.3V10.5z M276.9,40h-0.5v0.5h0.5V40z M330.3,40v0.5h0.5V40H330.3z M330.3,10h0.5V9.5h-0.5V10z M276.9,10V9.5h-0.5V10H276.9z"/>
	<path class="st1" d="M277.4,70V40h-1v30H277.4z M330.3,69.5h-53.3v1h53.3V69.5z M329.8,40v30h1V40H329.8z M276.9,40.5h53.3v-1
		h-53.3V40.5z M276.9,70h-0.5v0.5h0.5V70z M330.3,70v0.5h0.5V70H330.3z M330.3,40h0.5v-0.5h-0.5V40z M276.9,40v-0.5h-0.5V40H276.9z"
		/>
	<path class="st1" d="M224.1,100V70h-1v30H224.1z M276.9,99.5h-53.3v1h53.3V99.5z M276.4,70v30h1V70H276.4z M223.6,70.5h53.3v-1
		h-53.3V70.5z M223.6,100h-0.5v0.5h0.5V100z M276.9,100v0.5h0.5V100H276.9z M276.9,70h0.5v-0.5h-0.5V70z M223.6,70v-0.5h-0.5V70
		H223.6z"/>
	<path class="st1" d="M224.1,130v-30h-1v30H224.1z M276.9,129.5h-53.3v1h53.3V129.5z M276.4,100v30h1v-30H276.4z M223.6,100.5h53.3
		v-1h-53.3V100.5z M223.6,130h-0.5v0.5h0.5V130z M276.9,130v0.5h0.5V130H276.9z M276.9,100h0.5v-0.5h-0.5V100z M223.6,100v-0.5h-0.5
		v0.5H223.6z"/>
	<path class="st1" d="M277.4,100V70h-1v30H277.4z M330.3,99.5h-53.3v1h53.3V99.5z M329.8,70v30h1V70H329.8z M276.9,70.5h53.3v-1
		h-53.3V70.5z M276.9,100h-0.5v0.5h0.5V100z M330.3,100v0.5h0.5V100H330.3z M330.3,70h0.5v-0.5h-0.5V70z M276.9,70v-0.5h-0.5V70
		H276.9z"/>
	<path class="st1" d="M277.4,130v-30h-1v30H277.4z M330.3,129.5h-53.3v1h53.3V129.5z M329.8,100v30h1v-30H329.8z M276.9,100.5h53.3
		v-1h-53.3V100.5z M276.9,130h-0.5v0.5h0.5V130z M330.3,130v0.5h0.5V130H330.3z M330.3,100h0.5v-0.5h-0.5V100z M276.9,100v-0.5h-0.5
		v0.5H276.9z"/>
	<path class="st1" d="M224.1,160v-30h-1v30H224.1z M276.9,159.5h-53.3v1h53.3V159.5z M276.4,130v30h1v-30H276.4z M223.6,130.5h53.3
		v-1h-53.3V130.5z M223.6,160h-0.5v0.5h0.5V160z M276.9,160v0.5h0.5V160H276.9z M276.9,130h0.5v-0.5h-0.5V130z M223.6,130v-0.5h-0.5
		v0.5H223.6z"/>
	<path class="st1" d="M224.1,190v-30h-1v30H224.1z M276.9,189.5h-53.3v1h53.3V189.5z M276.4,160v30h1v-30H276.4z M223.6,160.5h53.3
		v-1h-53.3V160.5z M223.6,190h-0.5v0.5h0.5V190z M276.9,190v0.5h0.5V190H276.9z M276.9,160h0.5v-0.5h-0.5V160z M223.6,160v-0.5h-0.5
		v0.5H223.6z"/>
	<path class="st1" d="M277.4,160v-30h-1v30H277.4z M330.3,159.5h-53.3v1h53.3V159.5z M329.8,130v30h1v-30H329.8z M276.9,130.5h53.3
		v-1h-53.3V130.5z M276.9,160h-0.5v0.5h0.5V160z M330.3,160v0.5h0.5V160H330.3z M330.3,130h0.5v-0.5h-0.5V130z M276.9,130v-0.5h-0.5
		v0.5H276.9z"/>
	<path class="st1" d="M277.4,190v-30h-1v30H277.4z M330.3,189.5h-53.3v1h53.3V189.5z M329.8,160v30h1v-30H329.8z M276.9,160.5h53.3
		v-1h-53.3V160.5z M276.9,190h-0.5v0.5h0.5V190z M330.3,190v0.5h0.5V190H330.3z M330.3,160h0.5v-0.5h-0.5V160z M276.9,160v-0.5h-0.5
		v0.5H276.9z"/>
	<rect x="116.9" y="70" class="st0" width="53.3" height="30"/>
	<path class="st3" d="M117.4,100V70h-1v30H117.4z M170.3,99.5h-53.3v1h53.3V99.5z M169.8,70v30h1V70H169.8z M116.9,70.5h53.3v-1
		h-53.3V70.5z M116.9,100h-0.5v0.5h0.5V100z M170.3,100v0.5h0.5V100H170.3z M170.3,70h0.5v-0.5h-0.5V70z M116.9,70v-0.5h-0.5V70
		H116.9z"/>
	<rect x="116.9" y="100" class="st0" width="53.3" height="30"/>
	<path class="st3" d="M117.4,130v-30h-1v30H117.4z M170.3,129.5h-53.3v1h53.3V129.5z M169.8,100v30h1v-30H169.8z M116.9,100.5h53.3
		v-1h-53.3V100.5z M116.9,130h-0.5v0.5h0.5V130z M170.3,130v0.5h0.5V130H170.3z M170.3,100h0.5v-0.5h-0.5V100z M116.9,100v-0.5h-0.5
		v0.5H116.9z"/>
	<rect x="170.3" y="70" class="st0" width="53.3" height="30"/>
	<path class="st3" d="M170.8,100V70h-1v30H170.8z M223.6,99.5h-53.3v1h53.3V99.5z M223.1,70v30h1V70H223.1z M170.3,70.5h53.3v-1
		h-53.3V70.5z M170.3,100h-0.5v0.5h0.5V100z M223.6,100v0.5h0.5V100H223.6z M223.6,70h0.5v-0.5h-0.5V70z M170.3,70v-0.5h-0.5V70
		H170.3z"/>
	<rect x="170.3" y="100" class="st0" width="53.3" height="30"/>
	<path class="st3" d="M170.8,130v-30h-1v30H170.8z M223.6,129.5h-53.3v1h53.3V129.5z M223.1,100v30h1v-30H223.1z M170.3,100.5h53.3
		v-1h-53.3V100.5z M170.3,130h-0.5v0.5h0.5V130z M223.6,130v0.5h0.5V130H223.6z M223.6,100h0.5v-0.5h-0.5V100z M170.3,100v-0.5h-0.5
		v0.5H170.3z"/>
	<path d="M144.9,91.6h-1.5v-8c0-0.3,0-0.5,0-0.8c0-0.3,0-0.6,0-0.9c0-0.3,0-0.6,0-0.8c0-0.3,0-0.5,0-0.7c-0.1,0.1-0.2,0.2-0.3,0.3
		s-0.2,0.1-0.2,0.2c-0.1,0.1-0.2,0.1-0.2,0.2c-0.1,0.1-0.2,0.2-0.3,0.3l-1.3,1.1l-0.8-1.1l3.4-2.6h1.3V91.6z"/>
	<path d="M147.1,111.8c0,0.4-0.1,0.8-0.2,1.2s-0.3,0.7-0.6,0.9c-0.2,0.3-0.5,0.5-0.9,0.6c-0.3,0.2-0.7,0.3-1.1,0.4v0.1
		c1,0.1,1.8,0.5,2.4,1c0.5,0.5,0.8,1.2,0.8,2.1c0,0.6-0.1,1.1-0.3,1.5c-0.2,0.5-0.5,0.9-0.9,1.2c-0.4,0.3-0.9,0.6-1.5,0.8
		s-1.3,0.3-2.1,0.3c-0.6,0-1.2,0-1.8-0.1c-0.6-0.1-1.1-0.3-1.6-0.5v-1.5c0.5,0.3,1.1,0.5,1.7,0.6c0.6,0.1,1.2,0.2,1.7,0.2
		c0.5,0,1-0.1,1.4-0.2s0.7-0.3,1-0.5c0.3-0.2,0.4-0.5,0.6-0.8c0.1-0.3,0.2-0.7,0.2-1.1c0-0.4-0.1-0.7-0.2-1
		c-0.2-0.3-0.4-0.5-0.7-0.7c-0.3-0.2-0.6-0.3-1.1-0.4c-0.4-0.1-0.9-0.1-1.4-0.1h-1.2v-1.3h1.2c0.5,0,0.9-0.1,1.3-0.2
		s0.7-0.3,0.9-0.5c0.3-0.2,0.4-0.5,0.6-0.8c0.1-0.3,0.2-0.6,0.2-1c0-0.3-0.1-0.6-0.2-0.8s-0.3-0.4-0.4-0.6c-0.2-0.2-0.4-0.3-0.7-0.4
		s-0.6-0.1-0.9-0.1c-0.6,0-1.2,0.1-1.7,0.3c-0.5,0.2-0.9,0.4-1.4,0.8l-0.8-1.1c0.2-0.2,0.5-0.4,0.7-0.5c0.3-0.2,0.6-0.3,0.9-0.4
		c0.3-0.1,0.7-0.2,1-0.3c0.4-0.1,0.8-0.1,1.2-0.1c0.6,0,1.2,0.1,1.7,0.2c0.5,0.2,0.9,0.4,1.2,0.7c0.3,0.3,0.6,0.6,0.7,1
		C147,110.9,147.1,111.3,147.1,111.8z"/>
	<path d="M198.8,117.3v-3.1c0-0.3,0-0.7,0-1c0-0.4,0-0.7,0-1.1c0-0.3,0-0.7,0-1c0-0.3,0-0.5,0-0.7h-0.1c0,0.1-0.1,0.2-0.2,0.4
		c-0.1,0.1-0.1,0.3-0.2,0.4c-0.1,0.1-0.1,0.3-0.2,0.4s-0.1,0.2-0.2,0.3l-3.6,5.3H198.8z M202.2,118.8h-1.9v2.9h-1.5v-2.9h-5.9v-1.4
		l5.8-8.6h1.7v8.6h1.9V118.8z"/>
	<path d="M201.5,91.6h-8v-1.4l3.1-3.3c0.4-0.5,0.8-0.9,1.2-1.3c0.3-0.4,0.6-0.8,0.9-1.2c0.2-0.4,0.4-0.8,0.6-1.1
		c0.1-0.4,0.2-0.8,0.2-1.2c0-0.3,0-0.7-0.1-0.9s-0.2-0.5-0.4-0.7c-0.2-0.2-0.4-0.3-0.7-0.4s-0.5-0.1-0.8-0.1c-0.6,0-1.1,0.1-1.5,0.3
		c-0.4,0.2-0.9,0.5-1.3,0.9l-0.9-1c0.2-0.2,0.5-0.4,0.8-0.6c0.3-0.2,0.6-0.3,0.9-0.5s0.6-0.2,1-0.3c0.3-0.1,0.7-0.1,1.1-0.1
		c0.6,0,1.1,0.1,1.5,0.2c0.5,0.2,0.8,0.4,1.2,0.7c0.3,0.3,0.6,0.7,0.7,1.1c0.2,0.4,0.3,0.9,0.3,1.4c0,0.5-0.1,1-0.2,1.4
		c-0.2,0.5-0.4,0.9-0.6,1.3c-0.3,0.4-0.6,0.9-1,1.3c-0.4,0.4-0.8,0.9-1.2,1.4l-2.5,2.6v0.1h6.1V91.6z"/>
	<path d="M10.8,190V10h-1v180H10.8z M330.3,189.5h-320v1h320V189.5z M329.8,10v180h1V10H329.8z M10.3,10.5h320v-1h-320V10.5z
		 M10.3,190H9.8v0.5h0.5V190z M330.3,190v0.5h0.5V190H330.3z M330.3,10h0.5V9.5h-0.5V10z M10.3,10V9.5H9.8V10H10.3z"/>
	<rect x="248" y="14" width="77.1" height="20"/>
	<g>
		<defs>
			<rect id="SVGID_1_" x="248" y="14" width="77.1" height="20"/>
		</defs>
		<clipPath id="SVGID_00000165226882740059151780000003937595395098818710_">
			<use xlink:href="#SVGID_1_"  style="overflow:visible;"/>
		</clipPath>
		<path style="clip-path:url(#SVGID_00000165226882740059151780000003937595395098818710_);fill:#E2700E;" d="M249.2,34V14h-2.5v20
			H249.2z M325.1,33H248v2h77.1V33z M323.9,14v20h2.5V14H323.9z M248,15h77.1v-2H248V15z M248,34h-1.2v1h1.2V34z M325.1,34v1h1.2v-1
			H325.1z M325.1,14h1.2v-1h-1.2V14z M248,14v-1h-1.2v1H248z"/>
	</g>
	<path class="st1" d="M314.6,27.3c0.1,0,0.3,0,0.4,0c0.2,0,0.3-0.1,0.4-0.1v0.7c-0.1,0-0.2,0.1-0.4,0.1c-0.2,0-0.4,0.1-0.6,0.1
		c-1.1,0-1.7-0.6-1.7-1.8v-3.4h-0.8v-0.5l0.8-0.4l0.4-1.2h0.6v1.3h1.7v0.7h-1.7v3.4c0,0.3,0.1,0.6,0.2,0.8
		C314.1,27.2,314.3,27.3,314.6,27.3z M309.8,20.6c0-0.2,0.1-0.4,0.2-0.5c0.1-0.1,0.2-0.1,0.4-0.1c0.1,0,0.3,0,0.4,0.1
		c0.1,0.1,0.2,0.2,0.2,0.5c0,0.2-0.1,0.4-0.2,0.5c-0.1,0.1-0.2,0.1-0.4,0.1c-0.2,0-0.3,0-0.4-0.1C309.9,20.9,309.8,20.8,309.8,20.6z
		 M310.8,28h-1v-5.8h1V28z M308.8,22.9h-1.5V28h-1v-5.1h-1v-0.4l1-0.3v-0.3c0-0.7,0.2-1.2,0.5-1.6c0.3-0.4,0.8-0.5,1.4-0.5
		c0.4,0,0.7,0.1,1.1,0.2l-0.3,0.7c-0.3-0.1-0.6-0.2-0.9-0.2c-0.3,0-0.6,0.1-0.7,0.3c-0.2,0.2-0.2,0.5-0.2,1v0.4h1.5V22.9z M300.2,25
		c0,0.7,0.1,1.3,0.4,1.7c0.3,0.4,0.7,0.6,1.3,0.6c0.6,0,1-0.2,1.3-0.6c0.3-0.4,0.4-0.9,0.4-1.7c0-0.7-0.1-1.3-0.4-1.6
		c-0.3-0.4-0.7-0.6-1.3-0.6C300.8,22.8,300.2,23.6,300.2,25z M304.6,25c0,0.9-0.2,1.7-0.7,2.2c-0.5,0.5-1.1,0.8-2,0.8
		c-0.5,0-1-0.1-1.4-0.4c-0.4-0.2-0.7-0.6-0.9-1.1c-0.2-0.5-0.3-1-0.3-1.6c0-0.9,0.2-1.7,0.7-2.2c0.5-0.5,1.1-0.8,2-0.8
		c0.8,0,1.5,0.3,1.9,0.8C304.4,23.4,304.6,24.1,304.6,25z M297.6,27.3c0.1,0,0.3,0,0.4,0c0.2,0,0.3-0.1,0.4-0.1v0.7
		c-0.1,0-0.2,0.1-0.4,0.1c-0.2,0-0.4,0.1-0.6,0.1c-1.1,0-1.7-0.6-1.7-1.8v-3.4h-0.8v-0.5l0.8-0.4l0.4-1.2h0.6v1.3h1.7v0.7h-1.7v3.4
		c0,0.3,0.1,0.6,0.2,0.8C297.1,27.2,297.3,27.3,297.6,27.3z M289.9,22.2v3.7c0,0.5,0.1,0.8,0.3,1c0.2,0.2,0.5,0.3,1,0.3
		c0.6,0,1-0.2,1.3-0.5c0.3-0.3,0.4-0.9,0.4-1.6v-3h1V28h-0.8l-0.1-0.8h0c-0.2,0.3-0.4,0.5-0.7,0.6c-0.3,0.2-0.7,0.2-1.1,0.2
		c-0.7,0-1.2-0.2-1.6-0.5c-0.4-0.3-0.5-0.9-0.5-1.6v-3.8H289.9z M285.8,24.7l-0.9-2.3l-0.4-1.2c-0.1,0.4-0.2,0.8-0.3,1.2l-0.9,2.3
		H285.8z M287,28l-0.9-2.4H283l-0.9,2.4h-1l3-7.8h0.9l3,7.8H287z"/>
	<g>
		<defs>
			<rect id="SVGID_00000178184777008571812540000014759556301048374182_" x="215.5" y="122.2" width="19.6" height="19.6"/>
		</defs>
		<clipPath id="SVGID_00000174576446473082920380000007398349082396128173_">
			<use xlink:href="#SVGID_00000178184777008571812540000014759556301048374182_"  style="overflow:visible;"/>
		</clipPath>
		<g style="clip-path:url(#SVGID_00000174576446473082920380000007398349082396128173_);">
			
				<image style="overflow:visible;" width="39" height="39" xlink:href="DC47C9E3.png"  transform="matrix(0.5027 0 0 0.5028 215.4683 122.1721)">
			</image>
		</g>
	</g>
	<path d="M228.2,132.5l5.1,5.1l-1.4,1.4l-5.1-5.1c-1,0.7-2.2,1.1-3.5,1.1c-3.3,0-6-2.7-6-6c0-3.3,2.7-6,6-6c3.3,0,6,2.7,6,6
		C229.3,130.3,228.9,131.5,228.2,132.5z"/>
	<circle class="st5" cx="223.3" cy="129" r="5"/>
	<rect x="220.3" y="128" width="6" height="2"/>
	<g>
		<rect x="257.7" y="19.3" class="st6" width="11.5" height="9.4"/>
		<polyline class="st7" points="259.2,21.5 259.9,21.5 259.9,20.6 		"/>
		<polyline class="st7" points="259.2,26.3 259.9,26.3 259.9,27.2 		"/>
		<polyline class="st7" points="267.9,26.3 267.1,26.3 267.1,27.2 		"/>
		<polyline class="st7" points="267.9,21.5 267.1,21.5 267.1,20.6 		"/>
	</g>
</g>
<text transform="matrix(1 0 0 1 129.5314 229.0378)" class="st8 st9">Zoom Out</text>
<text transform="matrix(1 0 0 1 574.5314 229.0378)" class="st8 st9">Run Autofit</text>
</svg>
