<?xml version="1.0" encoding="utf-8"?>
<!-- Generator: Adobe Illustrator 26.4.1, SVG Export Plug-In . SVG Version: 6.00 Build 0)  -->
<svg version="1.1" id="레이어_1" xmlns="http://www.w3.org/2000/svg" xmlns:xlink="http://www.w3.org/1999/xlink" x="0px"
	 y="0px" viewBox="0 0 31 30" style="enable-background:new 0 0 31 30;" xml:space="preserve">
<style type="text/css">
	.st0{fill:#F37321;}
	.st1{fill:none;stroke:#FFFFFF;stroke-width:1.3168;stroke-miterlimit:10;}
	.st2{fill:#FFFFFF;}
</style>
<g>
	<circle class="st0" cx="15.4" cy="15" r="15"/>
	<path class="st1" d="M22.1,21.3H8c-0.5,0-0.9-0.4-0.9-0.9V9.2c0-0.5,0.4-0.9,0.9-0.9h14.1c0.5,0,0.9,0.4,0.9,0.9v11.3
		C22.9,20.9,22.6,21.3,22.1,21.3z"/>
	<g>
		<path class="st2" d="M9.9,12h3.6v1H11v1.4h2.1v1H11v1.6h2.5v1H9.9V12z"/>
		<path class="st2" d="M14.5,16.3v-2h-0.6v-0.9l0.7-0.1l0.1-1.2h1v1.2h1.1v0.9h-1.1v2c0,0.5,0.2,0.7,0.6,0.7c0.1,0,0.3,0,0.4-0.1
			l0.2,0.8C16.7,17.9,16.4,18,16,18C14.9,18,14.5,17.3,14.5,16.3z"/>
		<path class="st2" d="M17.3,15.7c0-1.5,1.1-2.3,2.3-2.3c0.5,0,1,0.2,1.3,0.5l-0.6,0.8c-0.2-0.2-0.4-0.3-0.7-0.3
			c-0.7,0-1.1,0.5-1.1,1.4c0,0.8,0.5,1.4,1.1,1.4c0.3,0,0.6-0.2,0.9-0.4l0.5,0.8c-0.4,0.4-1,0.5-1.4,0.5
			C18.2,18,17.3,17.1,17.3,15.7z"/>
	</g>
</g>
</svg>
