<svg width="16" height="16" viewBox="0 0 16 16" fill="none" xmlns="http://www.w3.org/2000/svg">
<path d="M8.28906 0V1.3956" stroke="#E5E5E5" stroke-width="0.75" stroke-linejoin="round"/>
<path d="M3.34766 1.78516L4.35249 2.8179" stroke="#E5E5E5" stroke-width="0.75" stroke-linejoin="round"/>
<path d="M13.1845 1.78516L12.1797 2.81092" stroke="#E5E5E5" stroke-width="0.75" stroke-linejoin="round"/>
<path d="M1 7.40234H2.32582" stroke="#E5E5E5" stroke-width="0.75" stroke-linejoin="round"/>
<path d="M14.1914 7.38281H15.5172" stroke="#E5E5E5" stroke-width="0.75" stroke-linejoin="round"/>
<path d="M7.5 13.0004H3.88865C3.81351 13.0004 3.73916 12.9856 3.66974 12.9568C3.60031 12.928 3.53718 12.8859 3.48404 12.8328C3.43091 12.7796 3.38877 12.7167 3.36002 12.6473C3.33126 12.5778 3.31641 12.5033 3.31641 12.4282L4.07008 10.4953V7.41802C4.06553 6.82191 4.1883 6.23162 4.43023 5.6868C4.67215 5.14198 5.02759 4.6552 5.47284 4.25883C5.91809 3.86247 6.44289 3.56568 7.01206 3.38846C7.58122 3.21124 8.18169 3.15767 8.77325 3.23121C9.80982 3.38364 10.7554 3.90814 11.4334 4.70688C11.9873 5.35933 12.3317 6.15828 12.4295 7" stroke="#E5E5E5" stroke-width="0.75" stroke-linejoin="round"/>
<path d="M4.10547 10.2305H7.5" stroke="#E5E5E5" stroke-width="0.75" stroke-linejoin="round"/>
<path d="M12.7287 8.5L8.54688 11.3655L12.7287 14.5V12.8655H15.5469V10.1883H12.7287V8.5Z" stroke="#E5E5E5" stroke-width="0.75" stroke-linecap="round" stroke-linejoin="round"/>
</svg>
