<svg width="18" height="18" viewBox="0 0 18 18" fill="none" xmlns="http://www.w3.org/2000/svg">
<path d="M8.36914 1V2.56025" stroke="#D2D2D2" stroke-width="0.75" stroke-linejoin="round"/>
<path d="M3.49414 2.55859L4.49054 3.57816" stroke="#D2D2D2" stroke-width="0.75" stroke-linejoin="round"/>
<path d="M13.2191 2.55859L12.2227 3.57816" stroke="#D2D2D2" stroke-width="0.75" stroke-linejoin="round"/>
<path d="M1 7.56641H2.55252" stroke="#D2D2D2" stroke-width="0.75" stroke-linejoin="round"/>
<path d="M7.2105 13.7743H4.33719C4.2625 13.7753 4.18832 13.7615 4.11901 13.7336C4.04971 13.7057 3.98664 13.6644 3.93346 13.612C3.88028 13.5595 3.838 13.497 3.80919 13.4281C3.78037 13.3592 3.76562 13.2852 3.76563 13.2105L4.05131 12.0287C4.144 11.6579 4.30619 11.4648 4.61515 11.4648H7.2105" stroke="#D2D2D2" stroke-width="0.75" stroke-miterlimit="10"/>
<path d="M4.46875 11.1969V8.0609C4.4748 7.58415 4.57469 7.1132 4.76274 6.67507C4.95078 6.23694 5.22333 5.84023 5.56474 5.50742C5.90616 5.17461 6.30978 4.9122 6.75257 4.7354C7.19536 4.5586 7.66863 4.47074 8.14538 4.47686C8.89803 4.47282 9.6338 4.69943 10.2538 5.12612C10.8738 5.55282 11.3484 6.15921 11.6134 6.86364" stroke="#D2D2D2" stroke-width="0.75" stroke-linejoin="round"/>
<path d="M11.8112 8L16 11.343L11.8112 15V13.093H9V9.96973H11.8112V8Z" stroke="#D2D2D2" stroke-width="0.75" stroke-linecap="round" stroke-linejoin="round"/>
</svg>
