<svg width="18" height="18" viewBox="0 0 18 18" fill="none" xmlns="http://www.w3.org/2000/svg">
<g clip-path="url(#clip0_2103_244765)">
<path d="M9.0332 2V3.36126" stroke="#D2D2D2" stroke-width="0.75" stroke-linejoin="round"/>
<path d="M4.26758 3.74219L5.23681 4.74952" stroke="#D2D2D2" stroke-width="0.75" stroke-linejoin="round"/>
<path d="M13.7524 3.74219L12.7832 4.74271" stroke="#D2D2D2" stroke-width="0.75" stroke-linejoin="round"/>
<path d="M2 9.22266H3.27885" stroke="#D2D2D2" stroke-width="0.75" stroke-linejoin="round"/>
<path d="M14.7207 9.19922H15.9995" stroke="#D2D2D2" stroke-width="0.75" stroke-linejoin="round"/>
<path d="M13.0517 12.1628V9.38579C13.069 8.364 12.7178 7.37074 12.0638 6.59166C11.4098 5.81257 10.4977 5.30098 9.49788 5.1523C8.92728 5.08057 8.34809 5.13282 7.79909 5.30568C7.25009 5.47853 6.74388 5.76802 6.31441 6.15463C5.88493 6.54125 5.54209 7.01605 5.30873 7.54746C5.07538 8.07887 4.95696 8.65464 4.96135 9.23607V12.2376L4.23438 14.1229C4.23438 14.1962 4.24871 14.2689 4.27644 14.3366C4.30418 14.4043 4.34482 14.4658 4.39607 14.5176C4.44732 14.5694 4.50822 14.6105 4.57519 14.6386C4.64215 14.6666 4.71386 14.6811 4.78634 14.6811H13.1796C13.2521 14.6811 13.324 14.6666 13.3909 14.6386C13.4579 14.6105 13.5186 14.5694 13.5699 14.5176C13.6211 14.4658 13.6618 14.4043 13.6895 14.3366C13.7172 14.2689 13.7316 14.1962 13.7316 14.1229C13.7316 14.1229 13.0585 12.2921 13.0585 12.1832L13.0517 12.1628Z" stroke="#D2D2D2" stroke-width="0.75" stroke-linejoin="round"/>
<path d="M4.99609 11.9766H13.073" stroke="#D2D2D2" stroke-width="0.75" stroke-linejoin="round"/>
</g>
<defs>
<clipPath id="clip0_2103_244765">
<rect width="14" height="13" fill="white" transform="translate(2 2)"/>
</clipPath>
</defs>
</svg>
