<svg width="16" height="16" viewBox="0 0 16 16" fill="none" xmlns="http://www.w3.org/2000/svg">
<g clip-path="url(#clip0_3546_42787)">
<path fill-rule="evenodd" clip-rule="evenodd" d="M6.85532 2.79688C6.3688 2.79688 5.88731 2.88934 5.43872 3.06907C4.99012 3.24881 4.58325 3.51219 4.24099 3.84326C3.89885 4.1742 3.62824 4.56637 3.44376 4.99717C3.2593 5.42793 3.16447 5.88929 3.16447 6.35472V9.8771H6.57796L6.34567 10.6271H2.4166C2.33771 10.6271 2.26439 10.6575 2.21207 10.7081C2.16018 10.7583 2.13354 10.8235 2.13354 10.8886V10.9275L2.12558 10.9655L1.80654 12.4891C1.81341 12.5442 1.83922 12.5974 1.88286 12.6396C1.93503 12.69 2.00864 12.7206 2.08775 12.7206H5.69726L5.46496 13.4706H2.08775C1.81777 13.4706 1.55611 13.367 1.36142 13.1787C1.16609 12.9897 1.05469 12.7311 1.05469 12.4591V12.4202L1.06265 12.3822L1.38449 10.8453C1.39571 10.5888 1.50605 10.3476 1.69063 10.1691C1.88466 9.9814 2.14503 9.87765 2.41447 9.87711V6.35472C2.41447 5.78722 2.53013 5.22547 2.75432 4.70193C2.97849 4.17844 3.30659 3.70363 3.71955 3.30418C4.13238 2.90486 4.62181 2.58842 5.15978 2.37288C5.69776 2.15732 6.27399 2.04688 6.85532 2.04688C7.43669 2.04688 8.01256 2.15734 8.55051 2.37288C9.08839 2.58838 9.5782 2.90479 9.9911 3.30418C10.4041 3.70363 10.7322 4.17844 10.9563 4.70193C11.1805 5.22547 11.2962 5.78722 11.2962 6.35472V8.7454H10.6434C10.6109 8.74532 10.5785 8.74628 10.5462 8.74828V6.35472C10.5462 5.88929 10.4513 5.42793 10.2669 4.99717C10.0824 4.56637 9.8118 4.1742 9.46966 3.84326C9.12747 3.51225 8.72026 3.24885 8.27157 3.06907C7.82295 2.88933 7.34182 2.79688 6.85532 2.79688Z" fill="white"/>
<path d="M9.32891 14.2009L9.0729 13.239H7.77855L7.52254 14.2009H6.71094L7.96137 10.1406H8.88294L10.1405 14.2009H9.32891ZM8.89758 12.5175C8.65626 11.6475 8.52442 11.1592 8.49517 11.039C8.4677 10.9507 8.44584 10.861 8.42947 10.7703C8.37097 11.0107 8.22481 11.5909 7.96886 12.5175H8.89758Z" fill="white"/>
<path d="M10.6016 14.1951V10.1562H11.3328V13.4878H12.7953V14.1951H10.6016Z" fill="white"/>
<path d="M13.4141 14.1951V10.1562H14.1453V13.4878H15.6078V14.1951H13.4141Z" fill="white"/>
</g>
<defs>
<clipPath id="clip0_3546_42787">
<rect width="16" height="13.8667" fill="white" transform="translate(0 1)"/>
</clipPath>
</defs>
</svg>
