<svg width="16" height="16" viewBox="0 0 16 16" fill="none" xmlns="http://www.w3.org/2000/svg">
<g clip-path="url(#clip0_3546_42816)">
<path fill-rule="evenodd" clip-rule="evenodd" d="M7.01939 2.96094C6.53286 2.96094 6.05137 3.0534 5.60278 3.23314C5.15418 3.41287 4.74731 3.67625 4.40505 4.00732C4.06291 4.33826 3.79231 4.73043 3.60783 5.16123C3.42336 5.592 3.32853 6.05335 3.32853 6.51878V10.0412H6.74203L6.50973 10.7912H2.58067C2.50177 10.7912 2.42845 10.8216 2.37614 10.8722C2.32424 10.9224 2.2976 10.9876 2.2976 11.0527V11.0915L2.28964 11.1296L1.97061 12.6531C1.97747 12.7083 2.00328 12.7614 2.04693 12.8036C2.09909 12.8541 2.1727 12.8847 2.25181 12.8847H5.86132L5.62903 13.6347H2.25181C1.98183 13.6347 1.72017 13.531 1.52549 13.3427C1.33015 13.1538 1.21875 12.8952 1.21875 12.6231V12.5843L1.22671 12.5463L1.54855 11.0093C1.55977 10.7529 1.67012 10.5117 1.8547 10.3331C2.04872 10.1455 2.30909 10.0417 2.57853 10.0412V6.51878C2.57853 5.95128 2.69419 5.38953 2.91838 4.866C3.14255 4.3425 3.47065 3.86769 3.88361 3.46824C4.29644 3.06892 4.78587 2.75248 5.32384 2.53694C5.86183 2.32139 6.43805 2.21094 7.01939 2.21094C7.60076 2.21094 8.17662 2.3214 8.71457 2.53694C9.25246 2.75245 9.74227 3.06885 10.1552 3.46824C10.5681 3.86769 10.8962 4.3425 11.1204 4.866C11.3446 5.38953 11.4602 5.95128 11.4602 6.51878V8.90946H10.8075C10.775 8.90938 10.7425 8.91034 10.7102 8.91234V6.51878C10.7102 6.05335 10.6154 5.592 10.4309 5.16123C10.2465 4.73043 9.97586 4.33826 9.63372 4.00732C9.29153 3.67632 8.88432 3.41291 8.43563 3.23314C7.98701 3.05339 7.50588 2.96094 7.01939 2.96094Z" fill="#F37321"/>
<path d="M9.49297 14.365L9.23696 13.4031H7.94261L7.6866 14.365H6.875L8.12543 10.3047H9.047L10.3046 14.365H9.49297ZM9.06164 12.6816C8.82033 11.8116 8.68849 11.3233 8.65924 11.203C8.63176 11.1148 8.6099 11.0251 8.59354 10.9343C8.53504 11.1748 8.38887 11.755 8.13293 12.6816H9.06164Z" fill="#F37321"/>
<path d="M10.7656 14.3592V10.3203H11.4969V13.6518H12.9594V14.3592H10.7656Z" fill="#F37321"/>
<path d="M13.5781 14.3592V10.3203H14.3094V13.6518H15.7719V14.3592H13.5781Z" fill="#F37321"/>
</g>
<defs>
<clipPath id="clip0_3546_42816">
<rect width="16" height="13.5385" fill="white" transform="translate(0 1)"/>
</clipPath>
</defs>
</svg>
