<svg width="16" height="16" viewBox="0 0 16 16" fill="none" xmlns="http://www.w3.org/2000/svg">
<g clip-path="url(#clip0_2809_167899)">
<path d="M9.61797 14.0603L9.36196 13.0984H8.06761L7.8116 14.0603H7L8.25043 10H9.172L10.4296 14.0603H9.61797ZM9.18664 12.3769C8.94533 11.5069 8.81349 11.0186 8.78424 10.8983C8.75676 10.8101 8.7349 10.7204 8.71854 10.6296C8.66004 10.8701 8.51387 11.4503 8.25793 12.3769H9.18664Z" fill="#C4C4C4"/>
<path d="M10.8906 14.0584V10.0195H11.6219V13.3511H13.0844V14.0584H10.8906Z" fill="#C4C4C4"/>
<path d="M13.7031 14.0584V10.0195H14.4344V13.3511H15.8969V14.0584H13.7031Z" fill="#C4C4C4"/>
<g clip-path="url(#clip1_2809_167899)">
<path d="M5.13655 7.59086C5.13656 7.68914 5.11947 7.78659 5.08633 7.87729C5.0532 7.96799 5.0047 8.05011 4.94353 8.11924C4.88237 8.18836 4.80977 8.24294 4.73002 8.27982C4.65026 8.3167 4.56462 8.33531 4.47858 8.33426C4.30601 8.33426 4.14078 8.25589 4.01875 8.1165C3.89673 7.97712 3.82812 7.78798 3.82812 7.59086C3.82812 7.39373 3.89673 7.20479 4.01875 7.06541C4.14078 6.92602 4.30601 6.84766 4.47858 6.84766C4.6518 6.84765 4.81835 6.92566 4.94148 7.06482C5.06462 7.20398 5.13471 7.393 5.13655 7.59086Z" fill="#C4C4C4"/>
<mask id="mask0_2809_167899" style="mask-type:alpha" maskUnits="userSpaceOnUse" x="1" y="3" width="14" height="10">
<path d="M14.9156 3.60156H1V12.6016H5.5L7 7.60156H15L14.9156 3.60156Z" fill="black"/>
</mask>
<g mask="url(#mask0_2809_167899)">
<path d="M13.9523 4H2.05121C1.66481 4 1.35156 4.35781 1.35156 4.7992V10.4016C1.35156 10.843 1.66481 11.2008 2.05121 11.2008H13.9523C14.3387 11.2008 14.6519 10.843 14.6519 10.4016V4.7992C14.6519 4.35781 14.3387 4 13.9523 4Z" stroke="#C4C4C4" stroke-width="0.75" stroke-linecap="round" stroke-linejoin="round"/>
</g>
</g>
</g>
<defs>
<clipPath id="clip0_2809_167899">
<rect width="16" height="13.8667" fill="white" transform="translate(0 1)"/>
</clipPath>
<clipPath id="clip1_2809_167899">
<rect width="14" height="8" fill="white" transform="translate(1 3.60156)"/>
</clipPath>
</defs>
</svg>
