<svg width="16" height="16" viewBox="0 0 16 16" fill="none" xmlns="http://www.w3.org/2000/svg">
<path d="M9.61797 14.0603L9.36196 13.0984H8.06761L7.8116 14.0603H7L8.25043 10H9.172L10.4296 14.0603H9.61797ZM9.18664 12.3769C8.94533 11.5069 8.81349 11.0186 8.78424 10.8983C8.75676 10.8101 8.7349 10.7204 8.71854 10.6296C8.66004 10.8701 8.51387 11.4503 8.25793 12.3769H9.18664Z" fill="#E5E5E5"/>
<path d="M10.8906 14.0623V10.0234H11.6219V13.355H13.0844V14.0623H10.8906Z" fill="#E5E5E5"/>
<path d="M13.7031 14.0623V10.0234H14.4344V13.355H15.8969V14.0623H13.7031Z" fill="#E5E5E5"/>
<path d="M5.22812 7.54364C5.22813 7.63619 5.20985 7.72796 5.17439 7.81338C5.13894 7.89879 5.08704 7.97613 5.0216 8.04122C4.95615 8.10632 4.87847 8.15772 4.79314 8.19244C4.7078 8.22717 4.61616 8.24471 4.5241 8.24371C4.33946 8.24371 4.16266 8.16991 4.03209 8.03865C3.90153 7.90739 3.82812 7.72927 3.82812 7.54364C3.82812 7.358 3.90153 7.18007 4.03209 7.04881C4.16266 6.91755 4.33946 6.84375 4.5241 6.84375C4.70945 6.84374 4.88765 6.91721 5.0194 7.04826C5.15116 7.17931 5.22615 7.35731 5.22812 7.54364Z" fill="#E5E5E5"/>
<path d="M14.2769 7.50049V7.87549H15.0269V7.50049H14.2769ZM5.5 11.5758H5.875V10.8258H5.5V11.5758ZM2.05121 4.375H13.9523V3.625H2.05121V4.375ZM13.9523 4.375C14.0863 4.375 14.2769 4.51651 14.2769 4.7992H15.0269C15.0269 4.19912 14.5911 3.625 13.9523 3.625V4.375ZM14.2769 4.7992V7.50049H15.0269V4.7992H14.2769ZM5.5 10.8258H2.05121V11.5758H5.5V10.8258ZM2.05121 10.8258C1.91722 10.8258 1.72656 10.6843 1.72656 10.4016H0.976562C0.976562 11.0017 1.41239 11.5758 2.05121 11.5758V10.8258ZM1.72656 10.4016V4.7992H0.976562V10.4016H1.72656ZM1.72656 4.7992C1.72656 4.51651 1.91722 4.375 2.05121 4.375V3.625C1.41239 3.625 0.976562 4.19912 0.976562 4.7992H1.72656Z" fill="#E5E5E5"/>
</svg>
