<svg width="16" height="16" viewBox="0 0 16 16" fill="none" xmlns="http://www.w3.org/2000/svg">
<path d="M14.1483 4.98438H11.3594" stroke="#E5E5E5" stroke-width="0.75" stroke-linejoin="round"/>
<path d="M14.1483 8.69531H11.3594" stroke="#E5E5E5" stroke-width="0.75" stroke-linejoin="round"/>
<path d="M14.1483 6.83984H11.3594" stroke="#E5E5E5" stroke-width="0.75" stroke-linejoin="round"/>
<path d="M7.29494 10.1267V4.5488C7.29494 4.36388 7.36828 4.1865 7.49904 4.05575C7.62979 3.92499 7.80726 3.85156 7.99218 3.85156H9.28894C9.47386 3.85156 9.65132 3.92499 9.78208 4.05575C9.91284 4.1865 9.98618 4.36388 9.98618 4.5488V10.1267C10.4735 10.4142 10.8529 10.8539 11.0657 11.3782C11.2786 11.9025 11.3131 12.4821 11.1641 13.028C11.0151 13.5738 10.6907 14.0556 10.241 14.399C9.7913 14.7424 9.24128 14.9285 8.67545 14.9285C8.10963 14.9285 7.55944 14.7424 7.10973 14.399C6.66003 14.0556 6.33579 13.5738 6.18678 13.028C6.03777 12.4821 6.07232 11.9025 6.28517 11.3782C6.49801 10.8539 6.87722 10.4142 7.36456 10.1267H7.29494Z" stroke="#E5E5E5" stroke-width="0.75" stroke-linejoin="round"/>
<path d="M8.86512 3.58984H8.07617C7.52389 3.58984 7.07617 4.03756 7.07617 4.58984V6.77327C7.07617 7.32555 7.52389 7.77327 8.07617 7.77327H8.86512C9.41741 7.77327 9.86512 7.32555 9.86512 6.77327V4.58984C9.86512 4.03756 9.41741 3.58984 8.86512 3.58984Z" fill="#E5E5E5"/>
<path d="M9.86512 6.37891H7.07617V7.77338H9.86512V6.37891Z" fill="#E5E5E5"/>
<path d="M5.79591 6.77876H2.25406C2.15104 6.76964 2.05427 6.72503 1.98051 6.65253C1.90675 6.58004 1.86052 6.48421 1.84961 6.38137V2.26765C1.86028 2.16404 1.90635 2.06724 1.98 1.99359C2.05365 1.91993 2.15045 1.87395 2.25406 1.86328H8.31999C8.42361 1.87395 8.5204 1.91993 8.59406 1.99359C8.66771 2.06724 8.71361 2.16404 8.72428 2.26765V2.51864" stroke="#E5E5E5" stroke-width="0.75" stroke-miterlimit="10"/>
</svg>
