<svg width="16" height="16" viewBox="0 0 16 16" fill="none" xmlns="http://www.w3.org/2000/svg">
<path d="M12 2.6665H14.6667V5.33317" stroke="#AAAAAA" stroke-width="0.75" stroke-miterlimit="10" stroke-linejoin="round"/>
<path d="M3.9987 2.6665H1.33203V5.33317" stroke="#AAAAAA" stroke-width="0.75" stroke-miterlimit="10" stroke-linejoin="round"/>
<path d="M12 13.3332H14.6667V10.6665" stroke="#AAAAAA" stroke-width="0.75" stroke-miterlimit="10" stroke-linejoin="round"/>
<path d="M3.9987 13.3332H1.33203V10.6665" stroke="#AAAAAA" stroke-width="0.75" stroke-miterlimit="10" stroke-linejoin="round"/>
<path d="M6.96214 4.3457C5.12374 4.3457 3.6371 5.83144 3.61719 7.67029H10.3004C10.2805 5.82478 8.79389 4.3457 6.96214 4.3457Z" stroke="#AAAAAA" stroke-width="0.75" stroke-miterlimit="10"/>
<path d="M8.97658 11.0615C10.8216 11.0615 12.3215 9.55572 12.3215 7.70355C12.3215 7.69022 12.3149 7.6769 12.3149 7.66357H5.63164C5.63164 7.6769 5.625 7.69022 5.625 7.70355C5.63164 9.55572 7.12492 11.0615 8.97658 11.0615Z" stroke="#AAAAAA" stroke-width="0.75" stroke-miterlimit="10"/>
</svg>
