<svg width="16" height="16" viewBox="0 0 16 16" fill="none" xmlns="http://www.w3.org/2000/svg">
<path d="M12 2.66797H14.6667V5.33464" stroke="#E5E5E5" stroke-width="0.75" stroke-miterlimit="10" stroke-linejoin="round"/>
<path d="M3.9987 2.66797H1.33203V5.33464" stroke="#E5E5E5" stroke-width="0.75" stroke-miterlimit="10" stroke-linejoin="round"/>
<path d="M12 13.3346H14.6667V10.668" stroke="#E5E5E5" stroke-width="0.75" stroke-miterlimit="10" stroke-linejoin="round"/>
<path d="M3.9987 13.3346H1.33203V10.668" stroke="#E5E5E5" stroke-width="0.75" stroke-miterlimit="10" stroke-linejoin="round"/>
<path d="M6.96214 4.34375C5.12374 4.34375 3.6371 5.82949 3.61719 7.66834H10.3004C10.2805 5.82283 8.79389 4.34375 6.96214 4.34375Z" stroke="#E5E5E5" stroke-width="0.75" stroke-miterlimit="10"/>
<path d="M8.97658 11.0619C10.8216 11.0619 12.3215 9.55621 12.3215 7.70404C12.3215 7.69071 12.3149 7.67739 12.3149 7.66406H5.63164C5.63164 7.67739 5.625 7.69071 5.625 7.70404C5.63164 9.55621 7.12492 11.0619 8.97658 11.0619Z" stroke="#E5E5E5" stroke-width="0.75" stroke-miterlimit="10"/>
</svg>
