<svg width="16" height="17" viewBox="0 0 16 17" fill="none" xmlns="http://www.w3.org/2000/svg">
<path d="M11.6539 9.56696L12.7285 8.49244C14.0299 7.191 14.0366 5.082 12.7418 3.78723C11.447 2.49246 9.34471 2.49914 8.0366 3.80058L6.96875 4.8751" stroke="#E5E5E5" stroke-width="0.75" stroke-miterlimit="10"/>
<path d="M10.3069 8.23438L8.625 9.90956" stroke="#E5E5E5" stroke-width="0.75" stroke-miterlimit="10"/>
<path d="M8.03005 5.92969L6.00781 7.86516" stroke="#E5E5E5" stroke-width="0.75" stroke-miterlimit="10"/>
<path d="M14.0024 2.5L12.7344 3.76807" stroke="#E5E5E5" stroke-width="0.75" stroke-miterlimit="10"/>
<path d="M12.6407 10.5525L6 3.89844" stroke="#E5E5E5" stroke-width="0.75" stroke-miterlimit="10"/>
<path d="M3.5951 12.9688L2 14.5638" stroke="#E5E5E5" stroke-width="0.75" stroke-miterlimit="10"/>
<path d="M9.96995 13.2243L3.33594 6.57031" stroke="#E5E5E5" stroke-width="0.75" stroke-miterlimit="10"/>
<path d="M4.31984 7.55469L2.67135 9.20318C1.89048 9.98404 1.87714 11.2454 2.65133 12.013L4.51339 13.875C5.2809 14.6425 6.5423 14.6359 7.32316 13.855L8.97165 12.2199" stroke="#E5E5E5" stroke-width="0.75" stroke-miterlimit="10"/>
</svg>
