<svg width="16" height="16" viewBox="0 0 16 16" fill="none" xmlns="http://www.w3.org/2000/svg">
<path d="M12.2109 2.39941H14.6657V4.87526" stroke="#AAAAAA" stroke-width="0.75" stroke-miterlimit="10" stroke-linejoin="round"/>
<path d="M3.79545 2.39941H1.34766V4.87526" stroke="#AAAAAA" stroke-width="0.75" stroke-miterlimit="10" stroke-linejoin="round"/>
<path d="M12.2109 12.9411H14.6657V10.4863" stroke="#AAAAAA" stroke-width="0.75" stroke-miterlimit="10" stroke-linejoin="round"/>
<path d="M3.79545 12.941H1.34766V10.4932" stroke="#AAAAAA" stroke-width="0.75" stroke-miterlimit="10" stroke-linejoin="round"/>
<path d="M12.2383 11.5311C12.2383 11.5311 12.0279 11.2295 9.85363 10.1283C9.79752 10.1003 9.78349 9.13239 9.78349 9.13239C9.78349 9.13239 10.4358 8.55025 10.4989 8.05929C10.4989 8.05929 11.046 7.54729 11.0249 7.05633C11.0039 6.57238 10.8636 6.2778 10.7093 6.13753C10.7093 6.13753 10.7163 3.18475 8.0511 3.10059C5.30172 3.17072 5.3929 6.13753 5.3929 6.13753C5.2386 6.2778 4.94402 6.5303 4.94402 7.05633C4.94402 7.72965 5.60331 8.05228 5.60331 8.05228C5.66643 8.54324 6.31871 9.12538 6.31871 9.12538C6.31871 9.12538 6.3117 10.0933 6.24857 10.1213C4.03925 11.0682 3.80078 11.5241 3.80078 11.5241H12.2383V11.5311Z" stroke="#AAAAAA" stroke-width="0.75" stroke-miterlimit="10" stroke-linejoin="round"/>
</svg>
