<svg width="16" height="16" viewBox="0 0 16 16" fill="none" xmlns="http://www.w3.org/2000/svg">
<path d="M12 11.9975C12 11.9975 11.8009 11.7114 9.74281 10.6668C9.6952 10.3542 9.67294 10.0383 9.67636 9.72209C9.98571 9.44941 10.2152 9.09749 10.3403 8.70408C10.6155 8.45766 10.7924 8.11971 10.8382 7.75267C10.8536 7.43452 10.7467 7.12252 10.5395 6.88102C10.5395 6.88102 10.5394 4.07984 8.02326 4C5.42742 4.05988 5.51371 6.88102 5.51371 6.88102C5.38061 6.98363 5.27313 7.11561 5.19942 7.26682C5.12572 7.41802 5.08785 7.58439 5.08888 7.75267C5.10165 7.95188 5.16587 8.14433 5.27528 8.31114C5.38469 8.47795 5.53549 8.61334 5.71291 8.70408C5.83577 9.09852 6.06563 9.45099 6.37681 9.72209C6.38254 10.0381 6.3625 10.3541 6.317 10.6668C4.22572 11.5651 4 11.9975 4 11.9975H12Z" stroke="#E5E5E5" stroke-width="0.75" stroke-linejoin="round"/>
<path d="M2 8.58594H14" stroke="#E5E5E5" stroke-width="0.75" stroke-miterlimit="10"/>
<path d="M12.2109 2.67188H14.6684V5.24025" stroke="#E5E5E5" stroke-width="0.75" stroke-miterlimit="10" stroke-linejoin="round"/>
<path d="M3.78637 2.67188H1.33594V5.24025" stroke="#E5E5E5" stroke-width="0.75" stroke-miterlimit="10" stroke-linejoin="round"/>
<path d="M12.2109 13.6397H14.6684V11.0859" stroke="#E5E5E5" stroke-width="0.75" stroke-miterlimit="10" stroke-linejoin="round"/>
<path d="M3.78637 13.6397H1.33594V11.0859" stroke="#E5E5E5" stroke-width="0.75" stroke-miterlimit="10" stroke-linejoin="round"/>
</svg>
