<svg width="16" height="16" viewBox="0 0 16 16" fill="none" xmlns="http://www.w3.org/2000/svg">
<g clip-path="url(#clip0_2521_42200)">
<path d="M10.726 10.1953C9.94444 10.8179 8.9773 11.1616 7.9781 11.1717C6.9789 11.1818 6.00496 10.8578 5.21094 10.2511" stroke="#E5E5E5" stroke-width="0.75" stroke-miterlimit="10"/>
<path d="M6.53539 5.85156H5.17578V7.21118H6.53539V5.85156Z" fill="#E5E5E5"/>
<path d="M10.7073 5.85156H9.34766V7.21118H10.7073V5.85156Z" fill="#E5E5E5"/>
<path d="M14 8.00001C14 9.1867 13.6481 10.3468 12.9888 11.3335C12.3295 12.3202 11.3924 13.0891 10.2961 13.5433C9.19969 13.9974 7.99339 14.1162 6.82951 13.8847C5.66562 13.6532 4.59646 13.0818 3.75734 12.2427C2.91822 11.4035 2.3468 10.3344 2.11529 9.1705C1.88378 8.00661 2.0026 6.80031 2.45673 5.70395C2.91086 4.60759 3.6798 3.67048 4.6665 3.01119C5.6532 2.3519 6.8133 2 7.99999 2C9.5913 2 11.1174 2.63213 12.2426 3.75735C13.3679 4.88257 14 6.4087 14 8.00001Z" stroke="#E5E5E5" stroke-width="0.75" stroke-linejoin="round"/>
<path d="M10.726 10.1953C9.94444 10.8179 8.9773 11.1616 7.9781 11.1717C6.9789 11.1818 6.00496 10.8578 5.21094 10.2511" stroke="#E5E5E5" stroke-width="0.75" stroke-miterlimit="10"/>
<path d="M6.53539 5.85156H5.17578V7.21118H6.53539V5.85156Z" fill="#E5E5E5"/>
<path d="M10.7073 5.85156H9.34766V7.21118H10.7073V5.85156Z" fill="#E5E5E5"/>
</g>
<defs>
<clipPath id="clip0_2521_42200">
<rect width="13.9238" height="13.9238" fill="white" transform="translate(1 1)"/>
</clipPath>
</defs>
</svg>
