<svg width="16" height="16" viewBox="0 0 16 16" fill="none" xmlns="http://www.w3.org/2000/svg">
<path d="M15.5 15H7.5L11.5 8.5L15.5 15Z" stroke="#E5E5E5" stroke-width="0.75" stroke-linejoin="round"/>
<mask id="path-2-inside-1_2809_168911" fill="white">
<path fill-rule="evenodd" clip-rule="evenodd" d="M11 13.7142C11 13.5828 11.0522 13.4568 11.1452 13.3639C11.2381 13.271 11.3641 13.2188 11.4955 13.2188C11.6278 13.2187 11.7546 13.2707 11.849 13.3633C11.9434 13.456 11.9976 13.5819 12 13.7142C12 13.848 11.9468 13.9763 11.8522 14.0709C11.7575 14.1656 11.6294 14.2188 11.4955 14.2188C11.3633 14.2163 11.2374 14.162 11.1447 14.0677C11.052 13.9733 11 13.8464 11 13.7142Z"/>
</mask>
<path fill-rule="evenodd" clip-rule="evenodd" d="M11 13.7142C11 13.5828 11.0522 13.4568 11.1452 13.3639C11.2381 13.271 11.3641 13.2188 11.4955 13.2188C11.6278 13.2187 11.7546 13.2707 11.849 13.3633C11.9434 13.456 11.9976 13.5819 12 13.7142C12 13.848 11.9468 13.9763 11.8522 14.0709C11.7575 14.1656 11.6294 14.2188 11.4955 14.2188C11.3633 14.2163 11.2374 14.162 11.1447 14.0677C11.052 13.9733 11 13.8464 11 13.7142Z" fill="#E5E5E5"/>
<path d="M11.4955 13.2188V13.9688H11.4956L11.4955 13.2188ZM12 13.7142H12.7501L12.7499 13.7005L12 13.7142ZM11.4955 14.2188L11.4819 14.9688H11.4955V14.2188ZM11.75 13.7142C11.75 13.7819 11.7231 13.8466 11.6754 13.8943L10.6149 12.8335C10.3814 13.0669 10.25 13.3837 10.25 13.7142H11.75ZM11.6754 13.8943C11.6278 13.9419 11.5631 13.9688 11.4955 13.9688V12.4688C11.1651 12.4688 10.8484 12.6001 10.6149 12.8335L11.6754 13.8943ZM11.4956 13.9688C11.431 13.9688 11.3692 13.9433 11.3236 13.8986L12.3744 12.8281C12.14 12.598 11.8246 12.4687 11.4954 12.4688L11.4956 13.9688ZM11.3236 13.8986C11.2777 13.8534 11.2513 13.7921 11.2501 13.7278L12.7499 13.7005C12.7439 13.3718 12.6091 13.0585 12.3744 12.8281L11.3236 13.8986ZM11.25 13.7142C11.25 13.6489 11.2759 13.5865 11.3219 13.5405L12.3824 14.6013C12.6176 14.3662 12.75 14.0471 12.75 13.7142H11.25ZM11.3219 13.5405C11.3676 13.4949 11.43 13.4687 11.4955 13.4687V14.9688C11.8287 14.9688 12.1475 14.8362 12.3824 14.6013L11.3219 13.5405ZM11.5092 13.4689C11.5739 13.4701 11.6351 13.4967 11.6798 13.5422L10.6096 14.5932C10.8396 14.8274 11.1526 14.9626 11.4819 14.9686L11.5092 13.4689ZM11.6798 13.5422C11.7244 13.5876 11.75 13.6492 11.75 13.7143L10.25 13.714C10.2499 14.0436 10.3797 14.3591 10.6096 14.5932L11.6798 13.5422Z" fill="#E5E5E5" mask="url(#path-2-inside-1_2809_168911)"/>
<path d="M11.5 12.7V11" stroke="#E5E5E5" stroke-width="0.75" stroke-linejoin="round"/>
<path d="M5.80341 14C5.59967 13.8381 5.43925 13.6251 5.33711 13.3811C5.23497 13.1371 5.19429 12.87 5.21948 12.6053C5.24468 12.3406 5.33489 12.0869 5.48107 11.8682C5.62725 11.6495 5.75597 11.5815 6.05517 11.3555C6.32112 11.1546 6.54002 10.8942 6.69562 10.5938C6.85123 10.2933 6.93955 9.96041 6.95406 9.61977C6.62967 9.51869 6.33532 9.33419 6.09836 9.08344C3.84035 10.6404 1.24432 10.3647 1.02139 7.98094C0.755322 5.0012 3.04214 4.68086 3.94102 6.19308C4.13941 6.46793 4.39479 6.69301 4.68858 6.85163C4.98236 7.01024 5.30691 7.0983 5.63803 7.10933C5.73173 6.77583 5.91041 6.47477 6.15559 6.23782C4.65265 3.89872 4.91887 1.20949 7.21284 1.02326C10.0893 0.740183 10.3984 3.11648 8.95303 4.04766C8.6846 4.24891 8.4644 4.51155 8.30976 4.81514C8.15512 5.11874 8.07038 5.4551 8.06151 5.79824C8.37964 5.9003 8.66854 6.08201 8.90282 6.32721C11.1608 4.76284 13.7784 5.03845 13.9942 7.4297C14.0309 7.83713 13.8859 8.15 13.7776 8.58333M9.36279 8.29385C9.26269 8.62484 9.08766 8.92617 8.85225 9.17282" stroke="#E5E5E5" stroke-width="0.75" stroke-miterlimit="10"/>
<mask id="path-6-inside-2_2809_168911" fill="white">
<path d="M7.4406 7.01925C7.31426 7.03433 7.19502 7.08767 7.09774 7.17248C7.00046 7.25728 6.92952 7.36978 6.89364 7.49611C6.85776 7.62244 6.8583 7.75693 6.89575 7.88277C6.93321 8.0086 7.00573 8.12027 7.10406 8.20377C7.2024 8.28726 7.32252 8.33888 7.44903 8.35226C7.57554 8.36564 7.70281 8.34015 7.81542 8.27897C7.92803 8.21779 8.02078 8.12365 8.08204 8.00826C8.1433 7.89286 8.1705 7.76138 8.16003 7.63015C8.15193 7.54096 8.12688 7.45426 8.08626 7.37517C8.04563 7.29608 7.99016 7.22618 7.92326 7.16938C7.85636 7.11258 7.77919 7.07002 7.69633 7.04426C7.61347 7.0185 7.52665 7.01 7.4406 7.01925Z"/>
</mask>
<path d="M7.4406 7.01925C7.31426 7.03433 7.19502 7.08767 7.09774 7.17248C7.00046 7.25728 6.92952 7.36978 6.89364 7.49611C6.85776 7.62244 6.8583 7.75693 6.89575 7.88277C6.93321 8.0086 7.00573 8.12027 7.10406 8.20377C7.2024 8.28726 7.32252 8.33888 7.44903 8.35226C7.57554 8.36564 7.70281 8.34015 7.81542 8.27897C7.92803 8.21779 8.02078 8.12365 8.08204 8.00826C8.1433 7.89286 8.1705 7.76138 8.16003 7.63015C8.15193 7.54096 8.12688 7.45426 8.08626 7.37517C8.04563 7.29608 7.99016 7.22618 7.92326 7.16938C7.85636 7.11258 7.77919 7.07002 7.69633 7.04426C7.61347 7.0185 7.52665 7.01 7.4406 7.01925Z" fill="#E5E5E5"/>
<path d="M8.16003 7.63015L8.9077 7.57051L8.90696 7.56237L8.16003 7.63015ZM7.35171 6.27454C7.07319 6.30778 6.81379 6.42504 6.60491 6.60713L7.59057 7.73782C7.57626 7.7503 7.55534 7.76088 7.52948 7.76397L7.35171 6.27454ZM6.60491 6.60713C6.39603 6.78922 6.24699 7.0278 6.17218 7.2912L7.61511 7.70103C7.61206 7.71176 7.60489 7.72535 7.59057 7.73782L6.60491 6.60713ZM6.17218 7.2912C6.09772 7.55334 6.09846 7.83314 6.17692 8.09673L7.61458 7.6688C7.61813 7.68072 7.6178 7.69154 7.61511 7.70103L6.17218 7.2912ZM6.17692 8.09673C6.25515 8.35956 6.4076 8.5963 6.61864 8.77548L7.58949 7.63205C7.60385 7.64424 7.61126 7.65765 7.61458 7.6688L6.17692 8.09673ZM6.61864 8.77548C6.83057 8.95543 7.09196 9.06867 7.37013 9.0981L7.52793 7.60642C7.55307 7.60908 7.57423 7.61909 7.58949 7.63205L6.61864 8.77548ZM7.37013 9.0981C7.64914 9.12762 7.92862 9.071 8.17345 8.93799L7.45739 7.61994C7.477 7.60929 7.50193 7.60367 7.52793 7.60642L7.37013 9.0981ZM8.17345 8.93799C8.41802 8.80513 8.61549 8.60291 8.74449 8.35992L7.4196 7.65659C7.42608 7.64439 7.43804 7.63045 7.45739 7.61994L8.17345 8.93799ZM8.74449 8.35992C8.87306 8.11772 8.92943 7.84346 8.90765 7.57052L7.4124 7.68978C7.41157 7.6793 7.41354 7.668 7.4196 7.65659L8.74449 8.35992ZM8.90696 7.56237C8.89025 7.37827 8.83848 7.19812 8.75339 7.03248L7.41913 7.71786C7.41529 7.7104 7.41362 7.70365 7.4131 7.69793L8.90696 7.56237ZM8.75339 7.03248C8.66806 6.86637 8.55102 6.71852 8.40869 6.59767L7.43783 7.7411C7.4293 7.73385 7.4232 7.72579 7.41913 7.71786L8.75339 7.03248ZM8.40869 6.59767C8.2658 6.47634 8.09949 6.38418 7.91898 6.32807L7.47368 7.76045C7.45889 7.75585 7.44693 7.74882 7.43783 7.7411L8.40869 6.59767ZM7.91898 6.32807C7.7386 6.27199 7.54873 6.2533 7.36042 6.27355L7.52078 7.76495C7.50457 7.7667 7.48834 7.765 7.47368 7.76045L7.91898 6.32807Z" fill="#E5E5E5" mask="url(#path-6-inside-2_2809_168911)"/>
</svg>
