<svg width="16" height="17" viewBox="0 0 16 17" fill="none" xmlns="http://www.w3.org/2000/svg">
<path d="M8 2V3.8" stroke="#E5E5E5" stroke-width="0.75" stroke-miterlimit="10" stroke-linejoin="round"/>
<path d="M10.5938 2V3.8" stroke="#E5E5E5" stroke-width="0.75" stroke-miterlimit="10" stroke-linejoin="round"/>
<path d="M5.39844 2V3.8" stroke="#E5E5E5" stroke-width="0.75" stroke-miterlimit="10" stroke-linejoin="round"/>
<path d="M8 13.4531V15.0118" stroke="#E5E5E5" stroke-width="0.75" stroke-miterlimit="10" stroke-linejoin="round"/>
<path d="M10.5938 13.4531V15.0118" stroke="#E5E5E5" stroke-width="0.75" stroke-miterlimit="10" stroke-linejoin="round"/>
<path d="M5.39844 13.4531V15.0118" stroke="#E5E5E5" stroke-width="0.75" stroke-miterlimit="10" stroke-linejoin="round"/>
<path d="M12.675 12.4452C12.675 12.8356 12.3526 13.1516 11.962 13.1516H4.088C3.6912 13.1516 3.375 12.8356 3.375 12.4452V4.55789C3.375 4.16755 3.6974 3.85156 4.088 3.85156H11.9558C12.3526 3.85156 12.6688 4.16755 12.6688 4.55789V12.4452H12.675Z" stroke="#E5E5E5" stroke-width="0.75" stroke-miterlimit="10"/>
<path d="M10.2361 8.80405L8.04769 5.99219L5.82812 8.80405H7.11248V11.2917H8.99537V8.80405H10.2361Z" stroke="#E5E5E5" stroke-width="0.75" stroke-miterlimit="10" stroke-linecap="round"/>
<path d="M1.5 8.5H3.3" stroke="#E5E5E5" stroke-width="0.75" stroke-miterlimit="10" stroke-linejoin="round"/>
<path d="M1.5 5.90625H3.3" stroke="#E5E5E5" stroke-width="0.75" stroke-miterlimit="10" stroke-linejoin="round"/>
<path d="M1.5 11.1016H3.3" stroke="#E5E5E5" stroke-width="0.75" stroke-miterlimit="10" stroke-linejoin="round"/>
<path d="M12.9531 8.5H14.5118" stroke="#E5E5E5" stroke-width="0.75" stroke-miterlimit="10" stroke-linejoin="round"/>
<path d="M12.9531 5.90625H14.5118" stroke="#E5E5E5" stroke-width="0.75" stroke-miterlimit="10" stroke-linejoin="round"/>
<path d="M12.9531 11.1016H14.5118" stroke="#E5E5E5" stroke-width="0.75" stroke-miterlimit="10" stroke-linejoin="round"/>
</svg>
