<svg width="16" height="16" viewBox="0 0 16 16" fill="none" xmlns="http://www.w3.org/2000/svg">
<path d="M13.8979 2.34766H2.04489C1.65982 2.34766 1.34766 2.65982 1.34766 3.04489V12.109C1.34766 12.4941 1.65982 12.8062 2.04489 12.8062H13.8979C14.283 12.8062 14.5952 12.4941 14.5952 12.109V3.04489C14.5952 2.65982 14.283 2.34766 13.8979 2.34766Z" stroke="#E5E5E5" stroke-width="0.75" stroke-linecap="round" stroke-linejoin="round"/>
<path d="M5.26727 9.71744H3.38477V9.22242L3.88676 8.99228V6.31483L3.38477 6.08486V5.58984H5.26727V6.08486L4.7583 6.31483V8.99228L5.26727 9.22242V9.71744Z" fill="#E5E5E5"/>
<path d="M8.32789 5.58984H9.2134L7.81892 9.71744H6.83588L5.44141 5.58984H6.32691L7.10773 8.04396C7.14956 8.19038 7.19153 8.36485 7.24033 8.5531C7.28914 8.74136 7.31694 8.88069 7.32391 8.95739C7.37498 8.64834 7.44724 8.34312 7.5401 8.04396L8.32789 5.58984Z" fill="#E5E5E5"/>
<path d="M12.2599 9.71858L11.9601 8.73554H10.454L10.1542 9.71858H9.21289L10.6702 5.53516H11.716L13.1803 9.71858H12.2599ZM11.7509 8.0034C11.472 7.11094 11.3185 6.60881 11.2837 6.49028C11.2488 6.37175 11.221 6.28118 11.2071 6.21146C11.1443 6.45549 10.97 7.05516 10.6772 8.0034H11.7509Z" fill="#E5E5E5"/>
</svg>
