<svg width="16" height="16" viewBox="0 0 16 16" fill="none" xmlns="http://www.w3.org/2000/svg">
<path d="M5.47266 8.89062H10.5226" stroke="#D2D2D2" stroke-width="0.75" stroke-miterlimit="10" stroke-linejoin="round"/>
<path d="M5.47266 6.33984H10.5226" stroke="#D2D2D2" stroke-width="0.75" stroke-miterlimit="10" stroke-linejoin="round"/>
<path d="M3.19886 10.1381C2.12939 9.90397 1.33203 8.99271 1.33203 7.90425C1.33203 6.80314 2.1547 5.87922 3.24948 5.66406" stroke="#D2D2D2" stroke-width="0.75" stroke-miterlimit="10"/>
<path d="M12.7461 5.66406C13.8409 5.87922 14.6635 6.80314 14.6635 7.90425C14.6635 8.99271 13.8662 9.90397 12.7967 10.1318" stroke="#D2D2D2" stroke-width="0.75" stroke-miterlimit="10"/>
<path d="M12.7801 5.97433C12.6473 4.77197 12.6409 3.81641 7.99601 3.81641C3.34477 3.81641 3.34477 4.77197 3.21188 5.968C3.21188 5.98699 3.19922 6.1705 3.19922 6.1705C3.19922 6.1705 3.19922 9.79025 3.19922 9.8029C3.19922 11.0622 3.19922 12.0811 7.99601 12.0811C12.3625 12.0811 12.7928 11.0622 12.7928 9.8029C12.7928 9.78392 12.7928 6.1705 12.7928 6.1705C12.7928 6.1705 12.7865 5.99331 12.7801 5.97433Z" stroke="#D2D2D2" stroke-width="0.75" stroke-miterlimit="10"/>
</svg>
