<svg width="16" height="16" viewBox="0 0 16 16" fill="none" xmlns="http://www.w3.org/2000/svg">
<path d="M12.207 3.06396H14.6646V5.52443" stroke="#AAAAAA" stroke-width="0.75" stroke-miterlimit="10" stroke-linejoin="round"/>
<path d="M3.78256 3.06396H1.33203V5.52443" stroke="#AAAAAA" stroke-width="0.75" stroke-miterlimit="10" stroke-linejoin="round"/>
<path d="M12.207 13.5471H14.6646V11.1006" stroke="#AAAAAA" stroke-width="0.75" stroke-miterlimit="10" stroke-linejoin="round"/>
<path d="M3.78256 13.547H1.33203V11.1074" stroke="#AAAAAA" stroke-width="0.75" stroke-miterlimit="10" stroke-linejoin="round"/>
<path d="M9.45782 3.36352C10.0055 3.36352 10.4479 3.79567 10.4479 4.33237C10.4479 4.86907 10.0055 5.30122 9.45782 5.30122C8.91014 5.30122 8.46778 4.86907 8.46778 4.33237C8.46778 3.79567 8.91014 3.36352 9.45782 3.36352ZM9.45782 2.6665C8.52395 2.6665 7.76562 3.41231 7.76562 4.33237C7.76562 5.25243 8.52395 5.99823 9.45782 5.99823C10.3917 5.99823 11.15 5.25243 11.15 4.33237C11.15 3.41231 10.3917 2.6665 9.45782 2.6665Z" fill="#AAAAAA"/>
<path d="M7.01352 5.71264C7.84206 5.71264 9.18318 5.96356 10.2645 7.35062H11.1914C11.5003 7.35062 11.7531 7.60155 11.7531 7.90126C11.7531 8.20098 11.5003 8.4519 11.1914 8.4519H10.2645C10.1522 8.4519 10.0398 8.41705 9.95555 8.36129L9.02169 7.75489L8.39677 8.85617L10.2154 12.3482C10.3558 12.6131 10.2505 12.9476 9.97662 13.087C9.89236 13.1289 9.8081 13.1498 9.72384 13.1498C9.52022 13.1498 9.32361 13.0383 9.22531 12.8501L7.45587 9.49743L7.42077 9.4556L7.15395 11.0657C7.15395 11.3654 6.90117 11.6163 6.59222 11.6163H4.47873C4.16978 11.6163 3.917 11.3654 3.917 11.0657C3.917 10.766 4.16978 10.5151 4.47873 10.5151H6.09369L6.44477 8.50767L7.09075 7.11364L6.51498 7.17637L5.77772 8.08946C5.66537 8.22189 5.50388 8.29856 5.34238 8.29856C5.22301 8.29856 5.09663 8.25674 4.99832 8.18007C4.75959 7.99187 4.71746 7.64337 4.90704 7.41335L6.17093 5.85204C6.17093 5.85204 6.21306 5.81719 6.24816 5.80325C6.24114 5.78931 6.55009 5.71264 7.01352 5.71264ZM7.01352 5.01562C6.46583 5.01562 6.10071 5.10624 6.05858 5.12018C6.01645 5.12715 5.97432 5.14806 5.93921 5.162C5.84091 5.21079 5.75665 5.27352 5.72155 5.3014C5.68644 5.33625 5.65133 5.3711 5.61622 5.40595L4.35234 6.97423C4.14169 7.23213 4.05041 7.55276 4.08552 7.88732C4.12063 8.22189 4.28914 8.51464 4.55596 8.72374C4.78065 8.89799 5.0545 8.99558 5.33536 8.99558C5.44068 8.99558 5.55303 8.98164 5.65133 8.95375L5.49686 9.81805H4.47873C3.78359 9.81805 3.21484 10.3757 3.21484 11.0657C3.21484 11.7558 3.78359 12.3134 4.47873 12.3134H6.59222C7.1048 12.3134 7.55418 12.0067 7.74376 11.5676L8.59337 13.1846C8.81104 13.5959 9.23935 13.8538 9.71682 13.8538C9.91342 13.8538 10.11 13.805 10.2926 13.7144C10.5945 13.561 10.8192 13.3031 10.9175 12.9825C11.0228 12.6619 10.9877 12.3273 10.8333 12.0346L9.1902 8.87011L9.26744 8.73768L9.54128 8.91193C9.5483 8.9189 9.55533 8.92587 9.56235 8.92587C9.77299 9.06528 10.0117 9.13498 10.2575 9.13498H11.1843C11.8795 9.13498 12.4412 8.57737 12.4412 7.88732C12.4412 7.19728 11.8724 6.63967 11.1843 6.63967H10.6015C9.33766 5.2317 7.83504 5.01562 7.01352 5.01562Z" fill="#AAAAAA"/>
</svg>
