<svg width="16" height="17" viewBox="0 0 16 17" fill="none" xmlns="http://www.w3.org/2000/svg">
<path d="M13.177 10.9102H13.9625C14.1498 10.9102 14.3294 10.8378 14.4619 10.7087C14.5943 10.5796 14.6688 10.4045 14.6688 10.222V7.70006C14.6688 7.60941 14.6503 7.51978 14.6143 7.4362C14.5783 7.35261 14.5257 7.27682 14.4593 7.21333C14.3929 7.14984 14.3141 7.09982 14.2277 7.06632C14.1413 7.03282 14.0488 7.01655 13.9559 7.01826H11.923L9.53345 4.50923C9.35586 4.2888 9.12802 4.11185 8.8679 3.99235C8.60779 3.87285 8.32256 3.81406 8.03508 3.82084H3.71162C3.13736 3.82084 2.93941 4.28407 2.78759 4.50923L1.52692 6.70948C1.38882 6.93692 1.3201 7.19797 1.32887 7.46211V10.222C1.32887 10.4045 1.40334 10.5796 1.53579 10.7087C1.66824 10.8378 1.84787 10.9102 2.03519 10.9102H2.61597" stroke="#E5E5E5" stroke-width="0.75" stroke-miterlimit="10"/>
<path d="M5.89844 10.9141H9.86544" stroke="#E5E5E5" stroke-width="0.75" stroke-miterlimit="10"/>
<path d="M4.24391 12.1775C5.15528 12.1775 5.89408 11.4575 5.89408 10.5692C5.89408 9.68099 5.15528 8.96094 4.24391 8.96094C3.33255 8.96094 2.59375 9.68099 2.59375 10.5692C2.59375 11.4575 3.33255 12.1775 4.24391 12.1775Z" stroke="#E5E5E5" stroke-width="0.75" stroke-linecap="round" stroke-linejoin="round"/>
<path d="M11.5252 12.1775C12.4365 12.1775 13.1753 11.4575 13.1753 10.5692C13.1753 9.68099 12.4365 8.96094 11.5252 8.96094C10.6138 8.96094 9.875 9.68099 9.875 10.5692C9.875 11.4575 10.6138 12.1775 11.5252 12.1775Z" stroke="#E5E5E5" stroke-width="0.75" stroke-linecap="round" stroke-linejoin="round"/>
<path d="M1.4375 7.01562H13.5959" stroke="#E5E5E5" stroke-width="0.75" stroke-miterlimit="10"/>
<path d="M5.16406 3.84375V7.0153" stroke="#E5E5E5" stroke-width="0.75" stroke-miterlimit="10"/>
</svg>
