<svg width="16" height="17" viewBox="0 0 16 17" fill="none" xmlns="http://www.w3.org/2000/svg">
<g clip-path="url(#clip0_4390_123946)">
<path d="M4.79856 9.85338L4.56144 9.03766H3.40409L3.16696 9.85338H2.41406L3.57142 6.36719H4.42203L5.58636 9.85338H4.79856ZM4.39411 8.41703L4.02455 7.15532C4.00079 7.07998 3.98227 7.00305 3.96889 6.92518C3.92008 7.12738 3.77359 7.62217 3.5435 8.41703H4.39411Z" fill="#E5E5E5"/>
<path d="M5.99219 6.40382H7.01013C7.36008 6.37722 7.71059 6.44957 8.02126 6.61286C8.13159 6.68996 8.21897 6.79549 8.27421 6.91824C8.32945 7.04099 8.35045 7.17638 8.33498 7.31009C8.34422 7.48715 8.29777 7.66281 8.20238 7.81225C8.1607 7.876 8.10643 7.93029 8.04288 7.97226C7.97932 8.01423 7.90798 8.04272 7.83299 8.05602C8.01241 8.0877 8.17374 8.18463 8.28613 8.32803C8.38304 8.48969 8.42915 8.67673 8.41856 8.86492C8.42083 8.99775 8.39322 9.12927 8.3377 9.24997C8.28218 9.37066 8.2002 9.47744 8.09786 9.56216C7.84593 9.75231 7.53438 9.84619 7.21933 9.82703H5.99219V6.40382ZM6.68943 7.7983H7.0869C7.23009 7.81122 7.37383 7.7793 7.49833 7.7074C7.54203 7.67137 7.57621 7.6255 7.59808 7.57326C7.61995 7.52102 7.62879 7.46421 7.62378 7.4078C7.6297 7.35187 7.61968 7.29528 7.59502 7.24473C7.57036 7.19418 7.53209 7.1516 7.48437 7.12183C7.35077 7.05408 7.20157 7.02289 7.052 7.03127H6.68943V7.7983ZM6.68943 8.38387V9.28333H7.13575C7.28702 9.29479 7.43743 9.2529 7.56097 9.16485C7.60949 9.1199 7.6473 9.06437 7.67145 9.0028C7.69559 8.94123 7.70541 8.87503 7.70039 8.80909C7.70039 8.52322 7.50527 8.38387 7.11481 8.38387H6.68943Z" fill="#E5E5E5"/>
<path d="M10.4933 9.84956H9.79606V7.85555C9.79606 7.81372 9.79606 7.76494 9.79606 7.70916V7.5277C9.79954 7.465 9.79954 7.40214 9.79606 7.33944C9.7994 7.28138 9.7994 7.22318 9.79606 7.16513V7.21415C9.77177 7.23139 9.75066 7.2525 9.73342 7.27679L9.66363 7.33944L9.59384 7.40923L9.21747 7.72312L8.88281 7.28394L9.93565 6.39844H10.5073L10.4933 9.84956Z" fill="#E5E5E5"/>
<path d="M13.5775 9.8518H11.3742V9.34998L12.1482 8.47129L12.413 8.16454C12.4871 8.07904 12.5547 7.98805 12.6153 7.89252C12.669 7.80935 12.7134 7.72058 12.7477 7.62766C12.7824 7.53161 12.799 7.43016 12.7966 7.32806C12.7992 7.27897 12.7913 7.22978 12.7732 7.18405C12.7552 7.13833 12.7275 7.09689 12.692 7.06285C12.6577 7.02826 12.6161 7.00175 12.5703 6.98489C12.5246 6.96803 12.4756 6.96147 12.427 6.96548C12.3072 6.96585 12.1896 6.99699 12.0854 7.05604C11.9614 7.12779 11.8467 7.21451 11.7437 7.3141L11.3672 6.84667L11.5764 6.66555C11.6522 6.60417 11.7341 6.55047 11.8205 6.5052C11.9129 6.45558 12.0113 6.41798 12.1133 6.39353C12.2295 6.36436 12.349 6.35026 12.4689 6.35166C12.6112 6.35153 12.7527 6.37516 12.8873 6.42145C13.0065 6.46379 13.1156 6.53044 13.208 6.61687C13.2995 6.70105 13.3689 6.80635 13.4102 6.92361C13.4623 7.052 13.4883 7.18951 13.4868 7.32806C13.4852 7.45889 13.4617 7.58837 13.4172 7.71141C13.3699 7.84189 13.3067 7.96586 13.2289 8.08079C13.149 8.20316 13.0604 8.31966 12.9639 8.42941L12.6362 8.79199L12.2387 9.2104H13.5775V9.8518Z" fill="#E5E5E5"/>
<path d="M13.9716 3.85156H1.97908C1.63251 3.85156 1.35156 4.13251 1.35156 4.47908V12.2881C1.35156 12.6347 1.63251 12.9157 1.97908 12.9157H13.9716C14.3181 12.9157 14.5991 12.6347 14.5991 12.2881V4.47908C14.5991 4.13251 14.3181 3.85156 13.9716 3.85156Z" stroke="#E5E5E5" stroke-width="0.75" stroke-linecap="round" stroke-linejoin="round"/>
</g>
<defs>
<clipPath id="clip0_4390_123946">
<rect width="15" height="11" fill="white" transform="translate(0 2.5)"/>
</clipPath>
</defs>
</svg>
