<svg width="16" height="17" viewBox="0 0 16 17" fill="none" xmlns="http://www.w3.org/2000/svg">
<g clip-path="url(#clip0_4390_123940)">
<path d="M4.74457 12.0253C3.16881 11.593 3.35009 10.4635 3.35009 10.4635C3.35184 10.3118 3.38661 10.1622 3.45189 10.0253C3.51717 9.8884 3.61142 9.76741 3.72816 9.67057C3.8449 9.57373 3.98123 9.50346 4.12785 9.4646C4.27446 9.42573 4.42785 9.41923 4.57724 9.44553" stroke="#E5E5E5" stroke-width="0.75" stroke-linecap="round" stroke-linejoin="round"/>
<path d="M11.933 9.44553C12.0823 9.41923 12.2356 9.42573 12.3822 9.4646C12.5288 9.50346 12.6653 9.57373 12.782 9.67057C12.8988 9.76741 12.993 9.8884 13.0583 10.0253C13.1236 10.1622 13.1584 10.3118 13.1601 10.4635C13.1601 10.4635 13.3623 11.593 11.7656 12.0253" stroke="#E5E5E5" stroke-width="0.75" stroke-linecap="round" stroke-linejoin="round"/>
<path d="M4.5867 9.4428L4.67726 11.4717C4.68623 11.9254 4.80748 12.3698 5.03013 12.7652C5.25279 13.1607 5.56996 13.4948 5.95326 13.7377L6.90157 14.3652C7.30237 14.6248 7.76966 14.763 8.2472 14.763C8.72473 14.763 9.19202 14.6248 9.59282 14.3652L10.5411 13.7377C10.9244 13.4948 11.2416 13.1607 11.4643 12.7652C11.6869 12.3698 11.808 11.9254 11.817 11.4717L11.9773 8.14586C11.9773 6.32607 9.73932 5.79617 9.68355 5.87984C8.37274 8.12495 5.50007 9.17785 4.57972 9.4428H4.22412C3.60078 8.28428 3.33846 6.96555 3.47105 5.65668C3.57251 5.02234 3.86091 4.43279 4.29936 3.96329C4.73781 3.49379 5.3064 3.16583 5.93232 3.02127C6.66114 2.75412 7.46464 2.77647 8.1774 3.08391C8.22695 3.09076 8.27332 3.11273 8.31001 3.14672C8.34337 3.11198 8.38765 3.08976 8.43546 3.08391C9.14838 2.77717 9.95161 2.75483 10.6805 3.02127C11.3073 3.16547 11.8769 3.49316 12.3166 3.96261C12.7562 4.43205 13.046 5.02179 13.1488 5.65668C13.241 6.97603 12.9479 8.29389 12.3052 9.44978" stroke="#E5E5E5" stroke-width="0.75" stroke-linejoin="round"/>
</g>
<defs>
<clipPath id="clip0_4390_123940">
<rect width="10.5353" height="12.613" fill="white" transform="translate(3 2.5)"/>
</clipPath>
</defs>
</svg>
