<svg width="16" height="17" viewBox="0 0 16 17" fill="none" xmlns="http://www.w3.org/2000/svg">
<g clip-path="url(#clip0_4390_123932)">
<path d="M9.71274 3.59466C9.71274 3.93941 9.61047 4.27641 9.41894 4.56306C9.2274 4.84971 8.95526 5.07304 8.63676 5.20498C8.31825 5.33691 7.96767 5.37147 7.62954 5.30422C7.29141 5.23696 6.98083 5.07085 6.73706 4.82708C6.49328 4.5833 6.32735 4.27272 6.26009 3.93459C6.19283 3.59647 6.22723 3.24606 6.35916 2.92755C6.49109 2.60904 6.71459 2.33673 7.00124 2.1452C7.28789 1.95367 7.6249 1.85156 7.96965 1.85156C8.43195 1.85156 8.87535 2.03517 9.20224 2.36206C9.52913 2.68896 9.71274 3.13236 9.71274 3.59466V3.59466Z" stroke="#E5E5E5" stroke-width="0.75" stroke-linejoin="round"/>
<path d="M11.0094 6.70688C11.0105 6.51075 10.9701 6.31663 10.8911 6.13714C10.812 5.95765 10.696 5.79671 10.5506 5.66511C10.4052 5.53351 10.2336 5.43414 10.0471 5.37334C9.86064 5.31255 9.66339 5.29181 9.46834 5.3124H6.35869C5.96774 5.30993 5.59072 5.45747 5.30535 5.72469C5.01997 5.99191 4.848 6.35832 4.8248 6.74858L4.34375 10.1791C4.34375 10.364 4.41709 10.5413 4.54785 10.6721C4.67861 10.8028 4.85607 10.8763 5.04099 10.8763H5.84274L6.03799 14.3625C6.03799 14.5475 6.1115 14.7247 6.24226 14.8555C6.37302 14.9863 6.55031 15.0598 6.73523 15.0598H9.09896C9.28388 15.0598 9.46117 14.9863 9.59193 14.8555C9.72268 14.7247 9.7962 14.5475 9.7962 14.3625L9.99127 10.8763H10.8002C10.9851 10.8763 11.1624 10.8028 11.2931 10.6721C11.4239 10.5413 11.4974 10.364 11.4974 10.1791L11.0094 6.70688Z" stroke="#E5E5E5" stroke-width="0.75" stroke-linejoin="round"/>
</g>
<defs>
<clipPath id="clip0_4390_123932">
<rect width="7.8509" height="13.9238" fill="white" transform="translate(4 1.5)"/>
</clipPath>
</defs>
</svg>
