<svg width="16" height="16" viewBox="0 0 16 16" fill="none" xmlns="http://www.w3.org/2000/svg">
<path d="M13.177 10.4102H13.9625C14.1498 10.4102 14.3294 10.3378 14.4619 10.2087C14.5943 10.0796 14.6688 9.90453 14.6688 9.72197V7.20006C14.6688 7.10941 14.6503 7.01978 14.6143 6.9362C14.5783 6.85261 14.5257 6.77682 14.4593 6.71333C14.3929 6.64984 14.3141 6.59982 14.2277 6.56632C14.1413 6.53282 14.0488 6.51655 13.9559 6.51826H11.923L9.53345 4.00923C9.35586 3.7888 9.12802 3.61185 8.8679 3.49235C8.60779 3.37285 8.32256 3.31406 8.03508 3.32084H3.71162C3.13736 3.32084 2.93941 3.78407 2.78759 4.00923L1.52692 6.20948C1.38882 6.43692 1.3201 6.69797 1.32887 6.96211V9.72197C1.32887 9.90453 1.40334 10.0796 1.53579 10.2087C1.66824 10.3378 1.84787 10.4102 2.03519 10.4102H2.61597" stroke="#E5E5E5" stroke-width="0.75" stroke-miterlimit="10"/>
<path d="M5.89844 10.4102H9.86544" stroke="#E5E5E5" stroke-width="0.75" stroke-miterlimit="10"/>
<path d="M4.24001 11.6775C5.15137 11.6775 5.89017 10.9575 5.89017 10.0692C5.89017 9.18099 5.15137 8.46094 4.24001 8.46094C3.32865 8.46094 2.58984 9.18099 2.58984 10.0692C2.58984 10.9575 3.32865 11.6775 4.24001 11.6775Z" stroke="#E5E5E5" stroke-width="0.75" stroke-linecap="round" stroke-linejoin="round"/>
<path d="M11.5291 11.6775C12.4404 11.6775 13.1792 10.9575 13.1792 10.0692C13.1792 9.18099 12.4404 8.46094 11.5291 8.46094C10.6177 8.46094 9.87891 9.18099 9.87891 10.0692C9.87891 10.9575 10.6177 11.6775 11.5291 11.6775Z" stroke="#E5E5E5" stroke-width="0.75" stroke-linecap="round" stroke-linejoin="round"/>
<path d="M1.4375 6.51172H13.5959" stroke="#E5E5E5" stroke-width="0.75" stroke-miterlimit="10"/>
<path d="M5.16406 3.33984V6.51139" stroke="#E5E5E5" stroke-width="0.75" stroke-miterlimit="10"/>
</svg>
