<svg width="16" height="16" viewBox="0 0 16 16" fill="none" xmlns="http://www.w3.org/2000/svg">
<g clip-path="url(#clip0_2521_42402)">
<path d="M9.70884 3.09075C9.70884 3.4355 9.60656 3.7725 9.41503 4.05915C9.2235 4.3458 8.95136 4.56914 8.63285 4.70107C8.31434 4.833 7.96376 4.86757 7.62563 4.80031C7.28751 4.73305 6.97693 4.56695 6.73315 4.32317C6.48937 4.0794 6.32344 3.76881 6.25618 3.43069C6.18892 3.09256 6.22332 2.74215 6.35525 2.42364C6.48718 2.10513 6.71069 1.83283 6.99734 1.64129C7.28399 1.44976 7.62099 1.34766 7.96574 1.34766C8.42804 1.34766 8.87144 1.53126 9.19833 1.85816C9.52523 2.18505 9.70884 2.62845 9.70884 3.09075V3.09075Z" stroke="#E5E5E5" stroke-width="0.75" stroke-linejoin="round"/>
<path d="M11.0094 6.20688C11.0105 6.01075 10.9701 5.81663 10.8911 5.63714C10.812 5.45765 10.696 5.29671 10.5506 5.16511C10.4052 5.03351 10.2336 4.93414 10.0471 4.87334C9.86064 4.81255 9.66339 4.79181 9.46834 4.8124H6.35869C5.96774 4.80993 5.59072 4.95747 5.30535 5.22469C5.01997 5.49191 4.848 5.85832 4.8248 6.24858L4.34375 9.67911C4.34375 9.86403 4.41709 10.0413 4.54785 10.1721C4.67861 10.3028 4.85607 10.3763 5.04099 10.3763H5.84274L6.03799 13.8625C6.03799 14.0475 6.1115 14.2247 6.24226 14.3555C6.37302 14.4863 6.55031 14.5598 6.73523 14.5598H9.09896C9.28388 14.5598 9.46117 14.4863 9.59193 14.3555C9.72268 14.2247 9.7962 14.0475 9.7962 13.8625L9.99127 10.3763H10.8002C10.9851 10.3763 11.1624 10.3028 11.2931 10.1721C11.4239 10.0413 11.4974 9.86403 11.4974 9.67911L11.0094 6.20688Z" stroke="#E5E5E5" stroke-width="0.75" stroke-linejoin="round"/>
</g>
<defs>
<clipPath id="clip0_2521_42402">
<rect width="7.8509" height="13.9238" fill="white" transform="translate(4 1)"/>
</clipPath>
</defs>
</svg>
