<svg width="16" height="16" viewBox="0 0 16 16" fill="none" xmlns="http://www.w3.org/2000/svg">
<path d="M4.80051 9.35338L4.56339 8.53766H3.40604L3.16892 9.35338H2.41602L3.57337 5.86719H4.42398L5.58831 9.35338H4.80051ZM4.39606 7.91703L4.02651 6.65532C4.00274 6.57998 3.98422 6.50305 3.97084 6.42518C3.92204 6.62738 3.77554 7.12217 3.54545 7.91703H4.39606Z" fill="#E5E5E5"/>
<path d="M5.99219 5.89991H7.01013C7.36008 5.87331 7.71059 5.94567 8.02126 6.10895C8.13159 6.18605 8.21897 6.29158 8.27421 6.41433C8.32945 6.53708 8.35045 6.67247 8.33498 6.80619C8.34422 6.98324 8.29777 7.15891 8.20238 7.30835C8.1607 7.3721 8.10643 7.42639 8.04288 7.46836C7.97932 7.51033 7.90798 7.53882 7.83299 7.55211C8.01241 7.58379 8.17374 7.68072 8.28613 7.82413C8.38304 7.98578 8.42915 8.17283 8.41856 8.36101C8.42083 8.49385 8.39322 8.62536 8.3377 8.74606C8.28218 8.86676 8.2002 8.97354 8.09786 9.05825C7.84593 9.2484 7.53438 9.34228 7.21933 9.32312H5.99219V5.89991ZM6.68943 7.29439H7.0869C7.23009 7.30731 7.37383 7.27539 7.49833 7.20349C7.54203 7.16747 7.57621 7.12159 7.59808 7.06935C7.61995 7.01712 7.62879 6.9603 7.62378 6.9039C7.6297 6.84796 7.61968 6.79137 7.59502 6.74082C7.57036 6.69027 7.53209 6.64769 7.48437 6.61792C7.35077 6.55017 7.20157 6.51898 7.052 6.52736H6.68943V7.29439ZM6.68943 7.87996V8.77942H7.13575C7.28702 8.79088 7.43743 8.74899 7.56097 8.66095C7.60949 8.616 7.6473 8.56047 7.67145 8.49889C7.69559 8.43732 7.70541 8.37112 7.70039 8.30518C7.70039 8.01931 7.50527 7.87996 7.11481 7.87996H6.68943Z" fill="#E5E5E5"/>
<path d="M10.4972 9.35347H9.79997V7.35946C9.79997 7.31763 9.79997 7.26885 9.79997 7.21307V7.03161C9.80344 6.96891 9.80344 6.90605 9.79997 6.84334C9.8033 6.78529 9.8033 6.72709 9.79997 6.66903V6.71806C9.77567 6.7353 9.75457 6.7564 9.73733 6.7807L9.66754 6.84334L9.59774 6.91313L9.22138 7.22703L8.88672 6.78785L9.93955 5.90234H10.5112L10.4972 9.35347Z" fill="#E5E5E5"/>
<path d="M13.5775 9.3518H11.3742V8.84998L12.1482 7.97129L12.413 7.66454C12.4871 7.57904 12.5547 7.48805 12.6153 7.39252C12.669 7.30935 12.7134 7.22058 12.7477 7.12766C12.7824 7.03161 12.799 6.93016 12.7966 6.82806C12.7992 6.77897 12.7913 6.72978 12.7732 6.68405C12.7552 6.63833 12.7275 6.59689 12.692 6.56285C12.6577 6.52826 12.6161 6.50175 12.5703 6.48489C12.5246 6.46803 12.4756 6.46147 12.427 6.46548C12.3072 6.46585 12.1896 6.49699 12.0854 6.55604C11.9614 6.62779 11.8467 6.71451 11.7437 6.8141L11.3672 6.34667L11.5764 6.16555C11.6522 6.10417 11.7341 6.05047 11.8205 6.0052C11.9129 5.95558 12.0113 5.91798 12.1133 5.89353C12.2295 5.86436 12.349 5.85026 12.4689 5.85166C12.6112 5.85153 12.7527 5.87516 12.8873 5.92145C13.0065 5.96379 13.1156 6.03044 13.208 6.11687C13.2995 6.20105 13.3689 6.30635 13.4102 6.42361C13.4623 6.552 13.4883 6.68951 13.4868 6.82806C13.4852 6.95889 13.4617 7.08837 13.4172 7.21141C13.3699 7.34189 13.3067 7.46586 13.2289 7.58079C13.149 7.70316 13.0604 7.81966 12.9639 7.92941L12.6362 8.29199L12.2387 8.7104H13.5775V9.3518Z" fill="#E5E5E5"/>
<path d="M13.9677 3.34766H1.97517C1.6286 3.34766 1.34766 3.6286 1.34766 3.97517V11.7842C1.34766 12.1308 1.6286 12.4117 1.97517 12.4117H13.9677C14.3142 12.4117 14.5952 12.1308 14.5952 11.7842V3.97517C14.5952 3.6286 14.3142 3.34766 13.9677 3.34766Z" stroke="#E5E5E5" stroke-width="0.75" stroke-linecap="round" stroke-linejoin="round"/>
</svg>
