<svg width="16" height="16" viewBox="0 0 16 16" fill="none" xmlns="http://www.w3.org/2000/svg">
<g clip-path="url(#clip0_2521_42427)">
<path d="M4.74457 11.5253C3.16881 11.093 3.35009 9.96347 3.35009 9.96347C3.35184 9.8118 3.38661 9.66223 3.45189 9.52532C3.51717 9.3884 3.61142 9.26741 3.72816 9.17057C3.8449 9.07373 3.98123 9.00346 4.12785 8.9646C4.27446 8.92573 4.42785 8.91923 4.57724 8.94553" stroke="#E5E5E5" stroke-width="0.75" stroke-linecap="round" stroke-linejoin="round"/>
<path d="M11.933 8.94553C12.0823 8.91923 12.2356 8.92573 12.3822 8.9646C12.5288 9.00346 12.6653 9.07373 12.782 9.17057C12.8988 9.26741 12.993 9.3884 13.0583 9.52532C13.1236 9.66223 13.1584 9.8118 13.1601 9.96347C13.1601 9.96347 13.3623 11.093 11.7656 11.5253" stroke="#E5E5E5" stroke-width="0.75" stroke-linecap="round" stroke-linejoin="round"/>
<path d="M4.5906 8.9428L4.68116 10.9717C4.69013 11.4254 4.81138 11.8698 5.03404 12.2652C5.25669 12.6607 5.57387 12.9948 5.95716 13.2377L6.90548 13.8652C7.30628 14.1248 7.77357 14.263 8.2511 14.263C8.72864 14.263 9.19593 14.1248 9.59672 13.8652L10.545 13.2377C10.9283 12.9948 11.2455 12.6607 11.4682 12.2652C11.6908 11.8698 11.8119 11.4254 11.8209 10.9717L11.9812 7.64586C11.9812 5.82607 9.74323 5.29617 9.68745 5.37984C8.37665 7.62495 5.50398 8.67785 4.58363 8.9428H4.22803C3.60468 7.78428 3.34237 6.46555 3.47496 5.15668C3.57641 4.52234 3.86481 3.93279 4.30327 3.46329C4.74172 2.99379 5.3103 2.66583 5.93623 2.52127C6.66505 2.25412 7.46855 2.27647 8.18131 2.58391C8.23086 2.59076 8.27723 2.61273 8.31391 2.64672C8.34728 2.61198 8.39156 2.58976 8.43937 2.58391C9.15229 2.27717 9.95551 2.25483 10.6845 2.52127C11.3112 2.66547 11.8808 2.99316 12.3205 3.46261C12.7601 3.93205 13.0499 4.52179 13.1527 5.15668C13.2449 6.47603 12.9518 7.79389 12.3091 8.94978" stroke="#E5E5E5" stroke-width="0.75" stroke-linejoin="round"/>
</g>
<defs>
<clipPath id="clip0_2521_42427">
<rect width="10.5353" height="12.613" fill="white" transform="translate(3 2)"/>
</clipPath>
</defs>
</svg>
