<svg width="16" height="17" viewBox="0 0 16 17" fill="none" xmlns="http://www.w3.org/2000/svg">
<path d="M7.50195 9.18395H1.88031C1.56849 9.18395 1.32031 8.93577 1.32031 8.63031V3.37395C1.32031 3.06849 1.56849 2.82031 1.88031 2.82031H9.63758C9.9494 2.82031 10.1976 3.06849 10.1976 3.37395V5.68395" stroke="#E5E5E5" stroke-width="0.75" stroke-miterlimit="10" stroke-linejoin="round"/>
<path d="M1 12.1016H5.5" stroke="#E5E5E5" stroke-width="0.75" stroke-miterlimit="10"/>
<path d="M5.75781 9.20312V10.8577" stroke="#E5E5E5" stroke-width="0.75" stroke-miterlimit="10"/>
<path d="M5.67597 11L5.5 11.338V11H5.67597Z" fill="#E5E5E5" stroke="#E5E5E5"/>
<path d="M14.7969 13.7969H6.79688L10.7969 7.29688L14.7969 13.7969Z" stroke="#E5E5E5" stroke-width="0.75" stroke-linejoin="round"/>
<path fill-rule="evenodd" clip-rule="evenodd" d="M10.2969 12.511C10.2969 12.3797 10.3491 12.2537 10.442 12.1608C10.535 12.0679 10.661 12.0156 10.7924 12.0156C10.9247 12.0156 11.0515 12.0675 11.1459 12.1602C11.2403 12.2528 11.2945 12.3788 11.2969 12.511C11.2969 12.6448 11.2437 12.7732 11.149 12.8678C11.0544 12.9624 10.9262 13.0156 10.7924 13.0156C10.6601 13.0132 10.5343 12.9589 10.4416 12.8646C10.3489 12.7702 10.2969 12.6433 10.2969 12.511Z" fill="#E5E5E5"/>
<path d="M10.7969 11.4969V9.79688" stroke="#E5E5E5" stroke-width="0.75" stroke-linejoin="round"/>
</svg>
