<svg width="16" height="16" viewBox="0 0 16 16" fill="none" xmlns="http://www.w3.org/2000/svg">
<path d="M8.5 13.5H3.14976C2.97742 13.5 2.81207 13.4292 2.6902 13.3032C2.56834 13.1773 2.5 13.0066 2.5 12.8284L2.82488 11.1716C2.82488 10.9934 2.8934 10.8227 3.01526 10.6968C3.13713 10.5708 3.3023 10.5 3.47465 10.5H6.83945" stroke="#E5E5E5" stroke-width="0.75" stroke-miterlimit="10"/>
<path d="M3.5 10.501V6.94469C3.5 5.75549 3.9749 4.61508 4.82033 3.77419C5.66575 2.93329 6.8125 2.46094 8.00812 2.46094C9.1455 2.46193 10.2405 2.89053 11.0736 3.66078C11.9066 4.43103 12.4161 5.48591 12.5 6.61412" stroke="#E5E5E5" stroke-width="0.75" stroke-linejoin="round"/>
<path d="M12.003 8L12.9279 9.97684L15 10.2926L13.5045 11.8274L13.8529 14L12.003 12.9768L10.1471 14L10.5015 11.8274L9 10.2926L11.0721 9.97684L12.003 8Z" stroke="#E5E5E5" stroke-width="0.75" stroke-linejoin="round"/>
</svg>
