<svg width="16" height="16" viewBox="0 0 16 16" fill="none" xmlns="http://www.w3.org/2000/svg">
<path d="M7.34375 2.14867C7.54757 2.00479 7.78038 1.90728 8.02591 1.86303C8.27144 1.81879 8.52377 1.82881 8.76499 1.89249C9.00621 1.95616 9.23054 2.07183 9.42224 2.23149C9.61394 2.39115 9.76825 2.59087 9.87451 2.81659C9.98077 3.04231 10.0363 3.2886 10.0372 3.53808C10.0381 3.78756 9.98447 4.03428 9.87984 4.26076C9.77521 4.48724 9.62228 4.68798 9.43173 4.84902C9.24118 5.01006 9.01761 5.12755 8.77685 5.19297" stroke="#E5E5E5" stroke-width="0.75" stroke-linejoin="round"/>
<path d="M7.13281 14.8112H9.45661C9.63559 14.8112 9.80726 14.7407 9.93457 14.6149C10.0619 14.4891 10.1345 14.3181 10.1366 14.1391L10.3309 10.7062H11.1406C11.3195 10.7062 11.4914 10.6357 11.6187 10.5099C11.746 10.3841 11.8186 10.2133 11.8207 10.0343L11.343 6.59329C11.3406 6.40346 11.2987 6.21614 11.22 6.04338C11.1413 5.87061 11.0276 5.71614 10.886 5.58973C10.7443 5.46331 10.5779 5.36765 10.3973 5.30904C10.2167 5.25042 10.026 5.23003 9.83712 5.24914H8.76833" stroke="#E5E5E5" stroke-width="0.75" stroke-linejoin="round"/>
<path d="M7.62786 2.81361C7.62946 3.17426 7.52383 3.52741 7.32463 3.82805C7.12544 4.12869 6.84158 4.36337 6.50885 4.5025C6.17612 4.64162 5.80958 4.67881 5.45567 4.60944C5.10176 4.54006 4.77648 4.36734 4.5209 4.11289C4.26531 3.85845 4.09095 3.53369 4.02 3.18009C3.94905 2.82649 3.98456 2.45986 4.1222 2.12652C4.25984 1.79317 4.49333 1.50811 4.79309 1.30757C5.09284 1.10704 5.44549 1 5.80614 1C6.28789 0.999995 6.74998 1.19085 7.09138 1.53074C7.43279 1.87063 7.62572 2.33187 7.62786 2.81361Z" stroke="#E5E5E5" stroke-width="0.75" stroke-linejoin="round"/>
<path d="M8.9793 6.06684C8.97605 5.86377 8.93042 5.66376 8.84528 5.47937C8.76014 5.29498 8.6374 5.13044 8.48493 4.99627C8.33246 4.8621 8.15364 4.76117 7.95992 4.70016C7.7662 4.63915 7.56183 4.61926 7.35999 4.64185H4.12138C3.71085 4.64084 3.31526 4.79596 3.01464 5.07553C2.71401 5.35511 2.53082 5.73836 2.50208 6.14789L2 9.72649C2.00106 9.82112 2.02092 9.91462 2.05811 10.0016C2.09531 10.0887 2.14918 10.1675 2.21684 10.2337C2.28451 10.2999 2.36463 10.3521 2.45246 10.3873C2.5403 10.4225 2.63417 10.4402 2.72881 10.4391H3.53846L3.74087 14.0906C3.743 14.2825 3.8207 14.4657 3.95712 14.6006C4.09355 14.7355 4.27761 14.8111 4.46948 14.8111H6.89844C7.0903 14.8111 7.27457 14.7355 7.41099 14.6006C7.54742 14.4657 7.62511 14.2825 7.62724 14.0906L7.82966 10.4391H8.63931C8.73394 10.4402 8.82781 10.4225 8.91565 10.3873C9.00348 10.3521 9.08341 10.2999 9.15107 10.2337C9.21874 10.1675 9.27281 10.0887 9.31 10.0016C9.34719 9.91462 9.36686 9.82112 9.36792 9.72649L8.9793 6.06684Z" stroke="#E5E5E5" stroke-width="0.75" stroke-linejoin="round"/>
<path d="M9.82031 2.96764C10.0946 2.77259 10.4228 2.66779 10.7594 2.66797C11.1328 2.69413 11.4855 2.84875 11.7577 3.10561C12.0298 3.36246 12.2047 3.70578 12.2524 4.07695C12.3001 4.44813 12.2177 4.82427 12.0194 5.1416C11.821 5.45893 11.5188 5.69791 11.1643 5.81763" stroke="#E5E5E5" stroke-width="0.75" stroke-linejoin="round"/>
<path d="M9.625 14.8141H11.7948C11.9631 14.8141 12.1246 14.7479 12.2443 14.6297C12.364 14.5115 12.4323 14.3508 12.4345 14.1825L12.6126 10.9439H13.3574C13.4403 10.945 13.5227 10.9298 13.5997 10.8991C13.6768 10.8683 13.7469 10.8225 13.8063 10.7647C13.8657 10.7068 13.9131 10.6379 13.9458 10.5616C13.9786 10.4854 13.996 10.4034 13.997 10.3205L13.5436 7.08188C13.5411 6.90446 13.5019 6.72954 13.4282 6.56814C13.3544 6.40674 13.2479 6.26236 13.1154 6.14434C12.9829 6.02631 12.8274 5.93727 12.6586 5.88262C12.4898 5.82797 12.3113 5.80889 12.1348 5.82688H11.1389" stroke="#E5E5E5" stroke-width="0.75" stroke-linejoin="round"/>
</svg>
