<svg width="16" height="16" viewBox="0 0 16 16" fill="none" xmlns="http://www.w3.org/2000/svg">
<path d="M4.71245 8.64746H4.04146V10.1439H3.19922V6.05615H4.71807C5.20096 6.05615 5.57342 6.16377 5.83545 6.37901C6.09748 6.59425 6.2285 6.8984 6.2285 7.29144C6.2285 7.57032 6.16767 7.80334 6.04601 7.99051C5.92622 8.1758 5.74374 8.32366 5.49855 8.43409L6.38291 10.1045V10.1439H5.4789L4.71245 8.64746ZM4.04146 7.96524H4.72088C4.93237 7.96524 5.09614 7.9119 5.21219 7.80521C5.32823 7.69666 5.38625 7.54786 5.38625 7.35882C5.38625 7.16604 5.33104 7.01444 5.22061 6.90401C5.11205 6.79358 4.94454 6.73837 4.71807 6.73837H4.04146V7.96524Z" fill="#E5E5E5"/>
<path d="M9.33077 8.37233H7.71366V9.46725H9.61152V10.1439H6.87141V6.05615H9.6059V6.73837H7.71366V7.71257H9.33077V8.37233Z" fill="#E5E5E5"/>
<path d="M13.3146 8.78222C13.2828 9.22206 13.1199 9.56832 12.8261 9.82099C12.5341 10.0737 12.1486 10.2 11.6694 10.2C11.1453 10.2 10.7326 10.0241 10.4313 9.67219C10.1318 9.31845 9.98211 8.83369 9.98211 8.21791V7.96805C9.98211 7.575 10.0514 7.22874 10.1899 6.92928C10.3284 6.62981 10.5258 6.40053 10.7822 6.24144C11.0405 6.08048 11.34 6 11.6806 6C12.1523 6 12.5322 6.12634 12.8205 6.37901C13.1087 6.63168 13.2753 6.98636 13.3202 7.44305H12.478C12.4574 7.17914 12.3834 6.98824 12.2562 6.87032C12.1308 6.75053 11.9389 6.69064 11.6806 6.69064C11.3999 6.69064 11.1893 6.79171 11.049 6.99385C10.9104 7.19412 10.8393 7.50575 10.8356 7.92874V8.23757C10.8356 8.67928 10.902 9.00214 11.0349 9.20615C11.1697 9.41016 11.3812 9.51217 11.6694 9.51217C11.9296 9.51217 12.1233 9.45321 12.2506 9.33529C12.3797 9.21551 12.4536 9.03115 12.4723 8.78222H13.3146Z" fill="#E5E5E5"/>
<path d="M6.3332 14.2839C2.86568 13.3548 0.807889 9.79057 1.73701 6.32304C2.46948 3.58945 4.83959 1.73198 7.50897 1.52336" stroke="#E5E5E5" stroke-width="0.75"/>
<path d="M6.19106 0.384595L7.72834 1.53659L6.57634 3.07387" stroke="#E5E5E5" stroke-width="0.75"/>
<path d="M9.6668 1.7044C13.1343 2.63352 15.1921 6.19771 14.263 9.66524C13.5305 12.3988 11.1604 14.2563 8.49103 14.4649" stroke="#E5E5E5" stroke-width="0.75"/>
<path d="M9.80894 15.6076L8.27166 14.4556L9.42366 12.9183" stroke="#E5E5E5" stroke-width="0.75"/>
</svg>
