<svg width="16" height="16" viewBox="0 0 16 16" fill="none" xmlns="http://www.w3.org/2000/svg">
<circle cx="8" cy="8" r="7" stroke="#E5E5E5" stroke-width="0.75"/>
<path d="M4.5791 8.7627H3.87891V10.3242H3V6.05859H4.58496C5.08887 6.05859 5.47754 6.1709 5.75098 6.39551C6.02441 6.62012 6.16113 6.9375 6.16113 7.34766C6.16113 7.63867 6.09766 7.88184 5.9707 8.07715C5.8457 8.27051 5.65527 8.4248 5.39941 8.54004L6.32227 10.2832V10.3242H5.37891L4.5791 8.7627ZM3.87891 8.05078H4.58789C4.80859 8.05078 4.97949 7.99512 5.10059 7.88379C5.22168 7.77051 5.28223 7.61523 5.28223 7.41797C5.28223 7.2168 5.22461 7.05859 5.10938 6.94336C4.99609 6.82812 4.82129 6.77051 4.58496 6.77051H3.87891V8.05078Z" fill="#E5E5E5"/>
<path d="M9.39844 8.47559H7.71094V9.61816H9.69141V10.3242H6.83203V6.05859H9.68555V6.77051H7.71094V7.78711H9.39844V8.47559Z" fill="#E5E5E5"/>
<path d="M13.5557 8.90332C13.5225 9.3623 13.3525 9.72363 13.0459 9.9873C12.7412 10.251 12.3389 10.3828 11.8389 10.3828C11.292 10.3828 10.8613 10.1992 10.5469 9.83203C10.2344 9.46289 10.0781 8.95703 10.0781 8.31445V8.05371C10.0781 7.64355 10.1504 7.28223 10.2949 6.96973C10.4395 6.65723 10.6455 6.41797 10.9131 6.25195C11.1826 6.08398 11.4951 6 11.8506 6C12.3428 6 12.7393 6.13184 13.04 6.39551C13.3408 6.65918 13.5146 7.0293 13.5615 7.50586H12.6826C12.6611 7.23047 12.584 7.03125 12.4512 6.9082C12.3203 6.7832 12.1201 6.7207 11.8506 6.7207C11.5576 6.7207 11.3379 6.82617 11.1914 7.03711C11.0469 7.24609 10.9727 7.57129 10.9688 8.0127V8.33496C10.9688 8.7959 11.0381 9.13281 11.1768 9.3457C11.3174 9.55859 11.5381 9.66504 11.8389 9.66504C12.1104 9.66504 12.3125 9.60352 12.4453 9.48047C12.5801 9.35547 12.6572 9.16309 12.6768 8.90332H13.5557Z" fill="#E5E5E5"/>
</svg>
