<svg width="16" height="16" viewBox="0 0 16 16" fill="none" xmlns="http://www.w3.org/2000/svg">
<path d="M15.5 15H7.5L11.5 8.5L15.5 15Z" stroke="#E5E5E5" stroke-width="0.75" stroke-linejoin="round"/>
<mask id="path-2-inside-1_2921_185931" fill="white">
<path fill-rule="evenodd" clip-rule="evenodd" d="M11 13.7142C11 13.5828 11.0522 13.4568 11.1452 13.3639C11.2381 13.271 11.3641 13.2188 11.4955 13.2188C11.6278 13.2187 11.7546 13.2707 11.849 13.3633C11.9434 13.456 11.9976 13.5819 12 13.7142C12 13.848 11.9468 13.9763 11.8522 14.0709C11.7575 14.1656 11.6294 14.2188 11.4955 14.2188C11.3633 14.2163 11.2374 14.162 11.1447 14.0677C11.052 13.9733 11 13.8464 11 13.7142Z"/>
</mask>
<path fill-rule="evenodd" clip-rule="evenodd" d="M11 13.7142C11 13.5828 11.0522 13.4568 11.1452 13.3639C11.2381 13.271 11.3641 13.2188 11.4955 13.2188C11.6278 13.2187 11.7546 13.2707 11.849 13.3633C11.9434 13.456 11.9976 13.5819 12 13.7142C12 13.848 11.9468 13.9763 11.8522 14.0709C11.7575 14.1656 11.6294 14.2188 11.4955 14.2188C11.3633 14.2163 11.2374 14.162 11.1447 14.0677C11.052 13.9733 11 13.8464 11 13.7142Z" fill="#E5E5E5"/>
<path d="M11.4955 13.2188V13.9688H11.4956L11.4955 13.2188ZM12 13.7142H12.7501L12.7499 13.7005L12 13.7142ZM11.4955 14.2188L11.4819 14.9688H11.4955V14.2188ZM11.75 13.7142C11.75 13.7819 11.7231 13.8466 11.6754 13.8943L10.6149 12.8335C10.3814 13.0669 10.25 13.3837 10.25 13.7142H11.75ZM11.6754 13.8943C11.6278 13.9419 11.5631 13.9688 11.4955 13.9688V12.4688C11.1651 12.4688 10.8484 12.6001 10.6149 12.8335L11.6754 13.8943ZM11.4956 13.9688C11.431 13.9688 11.3692 13.9433 11.3236 13.8986L12.3744 12.8281C12.14 12.598 11.8246 12.4687 11.4954 12.4688L11.4956 13.9688ZM11.3236 13.8986C11.2777 13.8534 11.2513 13.7921 11.2501 13.7278L12.7499 13.7005C12.7439 13.3718 12.6091 13.0585 12.3744 12.8281L11.3236 13.8986ZM11.25 13.7142C11.25 13.6489 11.2759 13.5865 11.3219 13.5405L12.3824 14.6013C12.6176 14.3662 12.75 14.0471 12.75 13.7142H11.25ZM11.3219 13.5405C11.3676 13.4949 11.43 13.4687 11.4955 13.4687V14.9688C11.8287 14.9688 12.1475 14.8362 12.3824 14.6013L11.3219 13.5405ZM11.5092 13.4689C11.5739 13.4701 11.6351 13.4967 11.6798 13.5422L10.6096 14.5932C10.8396 14.8274 11.1526 14.9626 11.4819 14.9686L11.5092 13.4689ZM11.6798 13.5422C11.7244 13.5876 11.75 13.6492 11.75 13.7143L10.25 13.714C10.2499 14.0436 10.3797 14.3591 10.6096 14.5932L11.6798 13.5422Z" fill="#E5E5E5" mask="url(#path-2-inside-1_2921_185931)"/>
<path d="M11.5 12.7V11" stroke="#E5E5E5" stroke-width="0.75" stroke-linejoin="round"/>
<path d="M6.28659 13.3576C5.20714 13.0367 4.23965 12.4187 3.49469 11.5742C2.74973 10.7296 2.25721 9.69251 2.07348 8.58144C1.88975 7.47037 2.02225 6.33006 2.45568 5.29066C2.8891 4.25125 3.60591 3.35475 4.52457 2.70337C5.44323 2.05199 6.52663 1.67203 7.65091 1.60694C8.77518 1.54185 9.89518 1.79425 10.8829 2.33526C11.8706 2.87628 12.6862 3.68417 13.2366 4.66662C13.7871 5.64907 14.0501 6.76649 13.9958 7.89134" stroke="#E5E5E5" stroke-width="0.75" stroke-linejoin="round"/>
<path fill-rule="evenodd" clip-rule="evenodd" d="M9.93609 8.90098C9.84815 8.75006 9.89609 8.84098 9.84815 8.75006C9.7198 8.47912 9.65296 8.1645 9.64761 7.80621V7.44258C9.64761 7.07537 9.71267 6.75185 9.8428 6.47199C9.97292 6.19213 10.1592 5.97644 10.4016 5.82493C10.6458 5.67341 10.9275 5.59766 11.2465 5.59766C11.6761 5.59766 12.0219 5.71441 12.284 5.94792C12.546 6.18144 12.6984 6.5112 12.7412 6.93723H12.0674C12.0353 6.65737 11.9533 6.45595 11.8214 6.33295C11.6913 6.20817 11.4997 6.14578 11.2465 6.14578C10.9524 6.14578 10.726 6.25363 10.5674 6.46931C10.4105 6.68322 10.3303 6.99783 10.3268 7.41316V7.86426C10.3268 7.9541 10.3461 8.07863 10.3761 8.18098L9.93609 8.90098ZM4.37178 8.04418H5.12579L5.90654 9.54418H6.63114V9.50942L5.75681 7.88643C5.98141 7.79195 6.1561 7.65737 6.28087 7.48268C6.40743 7.30621 6.47071 7.08785 6.47071 6.8276C6.47071 6.44614 6.34861 6.1547 6.1044 5.95327C5.8602 5.75185 5.51349 5.65113 5.0643 5.65113H3.69531V9.54418H4.37178V8.04418ZM5.06697 7.5014H4.37178V6.19659H5.08569C5.32098 6.20015 5.49745 6.25898 5.6151 6.37306C5.73453 6.48714 5.79424 6.64846 5.79424 6.85701C5.79424 7.05666 5.73007 7.21441 5.60173 7.33028C5.47339 7.44436 5.29513 7.5014 5.06697 7.5014ZM7.56986 7.80621H9.16879V7.27145H7.56986V6.19659H9.42013V5.65113H6.89339V9.54418H9.43884V9.00407H7.56986V7.80621Z" fill="#E5E5E5"/>
</svg>
