<svg width="16" height="16" viewBox="0 0 16 16" fill="none" xmlns="http://www.w3.org/2000/svg">
<path d="M8.98993 6.54671V2.36328L4.95987 4.83153H2.12905C2.02316 4.83061 1.91818 4.85071 1.82009 4.8906C1.722 4.93048 1.6328 4.98934 1.5576 5.06389C1.48241 5.13843 1.42266 5.22727 1.38193 5.32501C1.3412 5.42275 1.32031 5.52757 1.32031 5.63346V8.9244C1.32215 9.13769 1.40817 9.34158 1.55965 9.49175C1.71113 9.64193 1.91574 9.72616 2.12905 9.72615H4.95289L6.57053 10.7301" stroke="#E5E5E5" stroke-width="0.75" stroke-linejoin="round"/>
<path d="M7.98047 11.0779H8.85202L9.57714 8.25409L10.8531 13.1626L12.0942 5.5L13.0494 11.0779L13.8512 9.6904H14.925" stroke="#E5E5E5" stroke-width="0.75" stroke-linejoin="round"/>
</svg>
