<svg width="16" height="16" viewBox="0 0 16 16" fill="none" xmlns="http://www.w3.org/2000/svg">
<path d="M14 13.1667H2L8 2.5L14 13.1667Z" stroke="#D2D2D2" stroke-width="0.75" stroke-linejoin="round"/>
<path d="M7.82328 11.4267C7.77744 11.3809 7.75129 11.3192 7.75005 11.2548C7.75258 11.1883 7.78024 11.1247 7.82767 11.0773C7.87486 11.0301 7.93799 11.0026 8.0048 11C8.06924 11.0013 8.13088 11.0274 8.17672 11.0733C8.2237 11.1203 8.25 11.1838 8.25 11.25C8.25 11.3162 8.2237 11.3797 8.17672 11.4267C8.12974 11.4737 8.06617 11.5 8 11.5C7.93383 11.5 7.87026 11.4737 7.82328 11.4267Z" fill="white" stroke="#D2D2D2"/>
<path d="M8 9.3V6" stroke="#D2D2D2" stroke-linejoin="round"/>
</svg>
