<svg width="16" height="16" viewBox="0 0 16 16" fill="none" xmlns="http://www.w3.org/2000/svg">
<path d="M11.8861 1.76882C12.0449 2.09971 11.8993 2.49678 11.5684 2.65561C11.2375 2.81443 10.8405 2.66884 10.6816 2.33795C10.5228 2.00706 10.6684 1.60999 10.9993 1.45116C11.3302 1.29234 11.7272 1.43793 11.8861 1.76882Z" fill="#AAAAAA"/>
<path d="M9.26748 3.05025C9.42748 3.38258 9.28082 3.78136 8.94748 3.94087C8.61415 4.08709 8.21415 3.95417 8.06748 3.62185C7.90748 3.28953 8.04082 2.89074 8.37415 2.73123C8.70748 2.57171 9.10748 2.71793 9.26748 3.05025Z" fill="#AAAAAA"/>
<path d="M11.9599 4.47536C12.1197 4.80625 11.9732 5.20332 11.6403 5.36215C11.3074 5.52098 10.9079 5.37538 10.7481 5.04449C10.6016 4.7136 10.7481 4.31653 11.081 4.15771C11.4139 3.99888 11.8134 4.14447 11.9599 4.47536Z" fill="#AAAAAA"/>
<path d="M14.6322 3.06354C14.791 3.39586 14.6454 3.79464 14.3145 3.95416C13.9836 4.11367 13.5866 3.96745 13.4277 3.63513C13.2689 3.30281 13.4145 2.90402 13.7454 2.74451C14.0763 2.59829 14.4733 2.73122 14.6322 3.06354Z" fill="#AAAAAA"/>
<path d="M14.5892 5.82419C14.748 6.1571 14.6024 6.54327 14.2715 6.70307C13.9407 6.86286 13.5436 6.71638 13.3848 6.38348C13.2259 6.05057 13.3715 5.65108 13.7024 5.49129C14.0333 5.34481 14.4304 5.49129 14.5892 5.82419Z" fill="#AAAAAA"/>
<path d="M14.5775 0.382101C14.7363 0.712991 14.5907 1.11006 14.2598 1.26889C13.9289 1.42772 13.5319 1.28212 13.373 0.951233C13.2142 0.620342 13.3598 0.223273 13.6907 0.0644454C14.0216 -0.0943822 14.4187 0.0512097 14.5775 0.382101Z" fill="#AAAAAA"/>
<path d="M6.51722 5.3335H2.81351C1.99129 5.3335 1.33203 5.91052 1.33203 6.70392V13.9456C1.33203 14.3423 1.66536 14.6668 2.07277 14.6668H7.25796C7.66536 14.6668 7.9987 14.3423 7.9987 13.9456V6.70392C7.9987 5.90331 7.33203 5.3335 6.51722 5.3335Z" stroke="#AAAAAA" stroke-width="0.75" stroke-miterlimit="10"/>
<path d="M5.9987 1.3335H3.33203V3.3335H5.9987V1.3335Z" stroke="#AAAAAA" stroke-width="0.75" stroke-miterlimit="10" stroke-linejoin="round"/>
<path d="M4.66406 3.3335V5.3335" stroke="#AAAAAA" stroke-width="0.75" stroke-miterlimit="10" stroke-linejoin="round"/>
<path d="M1.33203 8H7.9987" stroke="#AAAAAA" stroke-width="0.75" stroke-miterlimit="10"/>
</svg>
