<svg width="16" height="16" viewBox="0 0 16 16" fill="none" xmlns="http://www.w3.org/2000/svg">
<path d="M11.8861 1.76882C12.0449 2.09971 11.8993 2.49678 11.5684 2.65561C11.2375 2.81443 10.8405 2.66884 10.6816 2.33795C10.5228 2.00706 10.6684 1.60999 10.9993 1.45116C11.3302 1.29234 11.7272 1.43793 11.8861 1.76882Z" fill="#E5E5E5"/>
<path d="M9.26748 3.05172C9.42748 3.38404 9.28082 3.78282 8.94748 3.94234C8.61415 4.08856 8.21415 3.95563 8.06748 3.62331C7.90748 3.29099 8.04082 2.89221 8.37415 2.73269C8.70748 2.57318 9.10748 2.7194 9.26748 3.05172Z" fill="#E5E5E5"/>
<path d="M11.9599 4.47585C12.1197 4.80674 11.9732 5.20381 11.6403 5.36264C11.3074 5.52147 10.9079 5.37587 10.7481 5.04498C10.6016 4.71409 10.7481 4.31702 11.081 4.1582C11.4139 3.99937 11.8134 4.14496 11.9599 4.47585Z" fill="#E5E5E5"/>
<path d="M14.6322 3.06549C14.791 3.39781 14.6454 3.7966 14.3145 3.95611C13.9836 4.11562 13.5866 3.9694 13.4277 3.63708C13.2689 3.30476 13.4145 2.90598 13.7454 2.74646C14.0763 2.60024 14.4733 2.73317 14.6322 3.06549Z" fill="#E5E5E5"/>
<path d="M14.5892 5.82322C14.748 6.15612 14.6024 6.54229 14.2715 6.70209C13.9407 6.86188 13.5436 6.71541 13.3848 6.3825C13.2259 6.04959 13.3715 5.65011 13.7024 5.49031C14.0333 5.34383 14.4304 5.49031 14.5892 5.82322Z" fill="#E5E5E5"/>
<path d="M14.5775 0.382101C14.7363 0.712991 14.5907 1.11006 14.2598 1.26889C13.9289 1.42772 13.5319 1.28212 13.373 0.951233C13.2142 0.620342 13.3598 0.223273 13.6907 0.0644454C14.0216 -0.0943822 14.4187 0.0512097 14.5775 0.382101Z" fill="#E5E5E5"/>
<path d="M6.51722 5.33203H2.81351C1.99129 5.33203 1.33203 5.90905 1.33203 6.70246V13.9441C1.33203 14.3408 1.66536 14.6654 2.07277 14.6654H7.25796C7.66536 14.6654 7.9987 14.3408 7.9987 13.9441V6.70246C7.9987 5.90184 7.33203 5.33203 6.51722 5.33203Z" stroke="#E5E5E5" stroke-width="0.75" stroke-miterlimit="10"/>
<path d="M5.9987 1.33203H3.33203V3.33203H5.9987V1.33203Z" stroke="#E5E5E5" stroke-width="0.75" stroke-miterlimit="10" stroke-linejoin="round"/>
<path d="M4.66406 3.33203V5.33203" stroke="#E5E5E5" stroke-width="0.75" stroke-miterlimit="10" stroke-linejoin="round"/>
<path d="M1.33203 8H7.9987" stroke="#E5E5E5" stroke-width="0.75" stroke-miterlimit="10"/>
</svg>
