<svg width="16" height="16" viewBox="0 0 16 16" fill="none" xmlns="http://www.w3.org/2000/svg">
<path d="M14.3065 3.42578H11.0859" stroke="#E5E5E5" stroke-width="0.75" stroke-miterlimit="10" stroke-linejoin="round"/>
<path d="M14.3065 7.96875H11.0859" stroke="#E5E5E5" stroke-width="0.75" stroke-miterlimit="10" stroke-linejoin="round"/>
<path d="M14.3065 5.69531H11.0859" stroke="#E5E5E5" stroke-width="0.75" stroke-miterlimit="10" stroke-linejoin="round"/>
<path d="M6.64496 8.7969V2.72186C6.64496 2.32162 6.95108 2 7.33203 2H8.66536C9.04632 2 9.35244 2.32162 9.35244 2.72186V8.7969C10.1348 9.28291 10.6654 10.1763 10.6654 11.1983C10.6654 12.7421 9.46809 14 7.9987 14C6.52931 14 5.33203 12.7421 5.33203 11.1983C5.33203 10.1763 5.86264 9.29005 6.64496 8.7969Z" stroke="#E5E5E5" stroke-width="0.75" stroke-miterlimit="10" stroke-linejoin="round"/>
<path d="M9 2H7V7H9V2Z" fill="#E5E5E5"/>
<path d="M1.33203 8.07031L2.70573 9.51173L4.0718 8.07031" stroke="#E5E5E5" stroke-width="0.75" stroke-miterlimit="10" stroke-linejoin="round"/>
<path d="M2.71094 6.54297V9.45801" stroke="#E5E5E5" stroke-width="0.75" stroke-miterlimit="10" stroke-linejoin="round"/>
<path d="M1.33203 3.45704L2.70573 2.01562L4.0718 3.45704" stroke="#E5E5E5" stroke-width="0.75" stroke-miterlimit="10" stroke-linejoin="round"/>
<path d="M2.71094 4.98926V2.07422" stroke="#E5E5E5" stroke-width="0.75" stroke-miterlimit="10" stroke-linejoin="round"/>
</svg>
