<svg width="16" height="16" viewBox="0 0 16 16" fill="none" xmlns="http://www.w3.org/2000/svg">
<path d="M14.3085 3.42578H11.0879" stroke="#D2D2D2" stroke-width="0.75" stroke-miterlimit="10" stroke-linejoin="round"/>
<path d="M14.3085 7.96875H11.0879" stroke="#D2D2D2" stroke-width="0.75" stroke-miterlimit="10" stroke-linejoin="round"/>
<path d="M14.3085 5.69531H11.0879" stroke="#D2D2D2" stroke-width="0.75" stroke-miterlimit="10" stroke-linejoin="round"/>
<path d="M6.64691 8.7969V2.72186C6.64691 2.32162 6.95303 2 7.33398 2H8.66732C9.04827 2 9.35439 2.32162 9.35439 2.72186V8.7969C10.1367 9.28291 10.6673 10.1763 10.6673 11.1983C10.6673 12.7421 9.47004 14 8.00065 14C6.53126 14 5.33398 12.7421 5.33398 11.1983C5.33398 10.1763 5.8646 9.29005 6.64691 8.7969Z" stroke="#D2D2D2" stroke-width="0.75" stroke-miterlimit="10" stroke-linejoin="round"/>
<path d="M9.00195 2H7.00195V7H9.00195V2Z" fill="#D2D2D2"/>
<path d="M1.33398 8.07031L2.70769 9.51173L4.07376 8.07031" stroke="#D2D2D2" stroke-width="0.75" stroke-miterlimit="10" stroke-linejoin="round"/>
<path d="M2.71484 6.54297V9.45801" stroke="#D2D2D2" stroke-width="0.75" stroke-miterlimit="10" stroke-linejoin="round"/>
<path d="M1.33398 3.45704L2.70769 2.01562L4.07376 3.45704" stroke="#D2D2D2" stroke-width="0.75" stroke-miterlimit="10" stroke-linejoin="round"/>
<path d="M2.71484 4.98926V2.07422" stroke="#D2D2D2" stroke-width="0.75" stroke-miterlimit="10" stroke-linejoin="round"/>
</svg>
