<svg width="16" height="16" viewBox="0 0 16 16" fill="none" xmlns="http://www.w3.org/2000/svg">
<path d="M2 7.99998C2 6.81329 2.35192 5.6533 3.01121 4.66661C3.6705 3.67991 4.60739 2.91082 5.70375 2.45669C6.80011 2.00256 8.00646 1.88379 9.17035 2.1153C10.3342 2.34682 11.4034 2.9182 12.2425 3.75732C13.0816 4.59644 13.6532 5.6656 13.8847 6.82949C14.1162 7.99338 13.9974 9.19974 13.5433 10.2961C13.0892 11.3925 12.3201 12.3295 11.3334 12.9888C10.3467 13.6481 9.18671 14 8.00002 14C6.40871 14 4.88242 13.3679 3.7572 12.2426C2.63198 11.1174 2 9.59129 2 7.99998V7.99998Z" stroke="#E5E5E5" stroke-width="0.75" stroke-linecap="round" stroke-linejoin="round"/>
<path d="M3.79492 3.71094L12.2455 12.2373" stroke="#E5E5E5" stroke-width="0.75" stroke-linejoin="round"/>
</svg>
