<?xml version="1.0" encoding="utf-8"?>
<!-- Generator: Adobe Illustrator 26.2.1, SVG Export Plug-In . SVG Version: 6.00 Build 0)  -->
<svg version="1.1" id="레이어_1" xmlns="http://www.w3.org/2000/svg" xmlns:xlink="http://www.w3.org/1999/xlink" x="0px"
	 y="0px" viewBox="0 0 550.9 177.3" style="enable-background:new 0 0 550.9 177.3;" xml:space="preserve">
<style type="text/css">
	.st0{fill:#C9CACA;}
	.st1{fill:#E36F0D;}
	.st2{fill:#E2700E;}
	.st3{fill:#040000;}
	.st4{clip-path:url(#SVGID_00000042705942867642687920000014579285879849737361_);fill:#E2700E;}
	.st5{fill-rule:evenodd;clip-rule:evenodd;fill:#FFFFFF;}
	.st6{fill:none;stroke:#E36F0D;stroke-width:0.72;stroke-miterlimit:10;}
	.st7{fill:none;stroke:#E36F0D;stroke-width:0.5102;stroke-miterlimit:10;}
	.st8{font-family:'NotoSansJP-Medium-90ms-RKSJ-H';}
	.st9{font-size:12px;}
</style>
<g>
	<rect x="317.1" y="9.3" class="st0" width="112" height="63"/>
	<path d="M317.5,72.3v-63h-0.7v63H317.5z M429.1,72h-112v0.7h112V72z M428.8,9.3v63h0.7v-63H428.8z M317.1,9.7h112V9h-112V9.7z
		 M317.1,72.3h-0.4v0.3h0.4V72.3z M429.1,72.3v0.3h0.4v-0.3H429.1z M429.1,9.3h0.4V9h-0.4V9.3z M317.1,9.3V9h-0.4v0.4H317.1z"/>
	<rect x="317.1" y="72.3" class="st0" width="112" height="63"/>
	<path d="M317.5,135.3v-63h-0.7v63H317.5z M429.1,135h-112v0.7h112V135z M428.8,72.3v63h0.7v-63H428.8z M317.1,72.7h112V72h-112
		V72.7z M317.1,135.3h-0.4v0.3h0.4V135.3z M429.1,135.3v0.3h0.4v-0.3H429.1z M429.1,72.3h0.4V72h-0.4V72.3z M317.1,72.3V72h-0.4v0.3
		H317.1z"/>
	<rect x="429.1" y="9.3" class="st0" width="112" height="63"/>
	<path d="M429.5,72.3v-63h-0.7v63H429.5z M541.1,72h-112v0.7h112V72z M540.8,9.3v63h0.7v-63H540.8z M429.1,9.7h112V9h-112V9.7z
		 M429.1,72.3h-0.4v0.3h0.4V72.3z M541.1,72.3v0.3h0.4v-0.3H541.1z M541.1,9.3h0.4V9h-0.4V9.3z M429.1,9.3V9h-0.4v0.4H429.1z"/>
	<rect x="429.1" y="72.3" class="st0" width="112" height="63"/>
	<path d="M429.5,135.3v-63h-0.7v63H429.5z M541.1,135h-112v0.7h112V135z M540.8,72.3v63h0.7v-63H540.8z M429.1,72.7h112V72h-112
		V72.7z M429.1,135.3h-0.4v0.3h0.4V135.3z M541.1,135.3v0.3h0.4v-0.3H541.1z M541.1,72.3h0.4V72h-0.4V72.3z M429.1,72.3V72h-0.4v0.3
		H429.1z"/>
	<path d="M374,45.7h-1.1v-5.6c0-0.2,0-0.4,0-0.6c0-0.2,0-0.4,0-0.6c0-0.2,0-0.4,0-0.6c0-0.2,0-0.3,0-0.5c-0.1,0.1-0.1,0.1-0.2,0.2
		c-0.1,0.1-0.1,0.1-0.2,0.2c-0.1,0-0.1,0.1-0.2,0.2c-0.1,0.1-0.1,0.1-0.2,0.2l-0.9,0.7l-0.6-0.8l2.4-1.8h0.9V45.7z"/>
	<path d="M375.6,101.9c0,0.3,0,0.6-0.1,0.8s-0.2,0.5-0.4,0.6c-0.2,0.2-0.4,0.3-0.6,0.4c-0.2,0.1-0.5,0.2-0.8,0.2v0
		c0.7,0.1,1.3,0.3,1.7,0.7c0.4,0.4,0.6,0.9,0.6,1.4c0,0.4-0.1,0.8-0.2,1.1c-0.1,0.3-0.3,0.6-0.6,0.8c-0.3,0.2-0.6,0.4-1,0.6
		c-0.4,0.1-0.9,0.2-1.5,0.2c-0.4,0-0.9,0-1.3-0.1c-0.4-0.1-0.8-0.2-1.1-0.4v-1c0.4,0.2,0.7,0.3,1.2,0.4c0.4,0.1,0.8,0.2,1.2,0.2
		c0.4,0,0.7,0,1-0.1s0.5-0.2,0.7-0.4c0.2-0.2,0.3-0.3,0.4-0.6c0.1-0.2,0.1-0.5,0.1-0.7c0-0.3-0.1-0.5-0.2-0.7
		c-0.1-0.2-0.3-0.4-0.5-0.5c-0.2-0.1-0.4-0.2-0.7-0.3c-0.3-0.1-0.6-0.1-1-0.1h-0.8v-0.9h0.8c0.3,0,0.6,0,0.9-0.1
		c0.3-0.1,0.5-0.2,0.6-0.4c0.2-0.2,0.3-0.3,0.4-0.5c0.1-0.2,0.1-0.4,0.1-0.7c0-0.2,0-0.4-0.1-0.6c-0.1-0.2-0.2-0.3-0.3-0.4
		c-0.1-0.1-0.3-0.2-0.5-0.3c-0.2-0.1-0.4-0.1-0.6-0.1c-0.4,0-0.8,0.1-1.2,0.2c-0.3,0.1-0.7,0.3-1,0.5l-0.6-0.8
		c0.2-0.1,0.3-0.2,0.5-0.4c0.2-0.1,0.4-0.2,0.6-0.3c0.2-0.1,0.5-0.2,0.7-0.2c0.3,0,0.5-0.1,0.8-0.1c0.4,0,0.8,0.1,1.2,0.2
		c0.3,0.1,0.6,0.3,0.8,0.5c0.2,0.2,0.4,0.4,0.5,0.7C375.5,101.2,375.6,101.5,375.6,101.9z"/>
	<path d="M487.3,105.7v-2.2c0-0.2,0-0.5,0-0.7c0-0.3,0-0.5,0-0.7c0-0.2,0-0.5,0-0.7c0-0.2,0-0.4,0-0.5h-0.1c0,0.1-0.1,0.2-0.1,0.3
		c0,0.1-0.1,0.2-0.1,0.3c0,0.1-0.1,0.2-0.2,0.3c-0.1,0.1-0.1,0.2-0.1,0.2l-2.5,3.7H487.3z M489.7,106.7h-1.3v2h-1.1v-2h-4.2v-1
		l4.1-6h1.2v6h1.3V106.7z"/>
	<path d="M489.2,45.7h-5.6v-1l2.2-2.3c0.3-0.3,0.6-0.6,0.8-0.9c0.2-0.3,0.4-0.5,0.6-0.8c0.2-0.3,0.3-0.5,0.4-0.8
		c0.1-0.3,0.1-0.6,0.1-0.9c0-0.2,0-0.5-0.1-0.6s-0.2-0.3-0.3-0.5c-0.1-0.1-0.3-0.2-0.5-0.3c-0.2-0.1-0.4-0.1-0.6-0.1
		c-0.4,0-0.7,0.1-1.1,0.2c-0.3,0.2-0.6,0.4-0.9,0.6l-0.6-0.7c0.2-0.1,0.3-0.3,0.5-0.4c0.2-0.1,0.4-0.2,0.6-0.3
		c0.2-0.1,0.4-0.2,0.7-0.2c0.2-0.1,0.5-0.1,0.8-0.1c0.4,0,0.7,0.1,1.1,0.2c0.3,0.1,0.6,0.3,0.8,0.5c0.2,0.2,0.4,0.5,0.5,0.8
		c0.1,0.3,0.2,0.6,0.2,1c0,0.3-0.1,0.7-0.2,1c-0.1,0.3-0.3,0.6-0.4,0.9c-0.2,0.3-0.4,0.6-0.7,0.9c-0.3,0.3-0.5,0.6-0.9,1l-1.7,1.8v0
		h4.2V45.7z"/>
</g>
<g>
	<path class="st1" d="M10.4,30.3v-21H9.7v21H10.4z M47.4,30H10.1v0.7h37.3V30z M47,9.3v21h0.7v-21H47z M10.1,9.7h37.3V9H10.1V9.7z
		 M10.1,30.3H9.7v0.4h0.4V30.3z M47.4,30.3v0.4h0.3v-0.4H47.4z M47.4,9.3h0.3V9h-0.3V9.3z M10.1,9.3V9H9.7v0.4H10.1z"/>
	<path class="st1" d="M10.4,51.3v-21H9.7v21H10.4z M47.4,51H10.1v0.7h37.3V51z M47,30.3v21h0.7v-21H47z M10.1,30.7h37.3V30H10.1
		V30.7z M10.1,51.3H9.7v0.4h0.4V51.3z M47.4,51.3v0.4h0.3v-0.4H47.4z M47.4,30.3h0.3V30h-0.3V30.3z M10.1,30.3V30H9.7v0.4H10.1z"/>
	<path class="st1" d="M47.7,30.3v-21H47v21H47.7z M84.7,30H47.4v0.7h37.3V30z M84.4,9.3v21h0.7v-21H84.4z M47.4,9.7h37.3V9H47.4V9.7
		z M47.4,30.3H47v0.4h0.4V30.3z M84.7,30.3v0.4h0.3v-0.4H84.7z M84.7,9.3h0.3V9h-0.3V9.3z M47.4,9.3V9H47v0.4H47.4z"/>
	<path class="st1" d="M47.7,51.3v-21H47v21H47.7z M84.7,51H47.4v0.7h37.3V51z M84.4,30.3v21h0.7v-21H84.4z M47.4,30.7h37.3V30H47.4
		V30.7z M47.4,51.3H47v0.4h0.4V51.3z M84.7,51.3v0.4h0.3v-0.4H84.7z M84.7,30.3h0.3V30h-0.3V30.3z M47.4,30.3V30H47v0.4H47.4z"/>
	<path class="st1" d="M10.4,72.3v-21H9.7v21H10.4z M47.4,72H10.1v0.7h37.3V72z M47,51.3v21h0.7v-21H47z M10.1,51.7h37.3V51H10.1
		V51.7z M10.1,72.3H9.7v0.3h0.4V72.3z M47.4,72.3v0.3h0.3v-0.3H47.4z M47.4,51.3h0.3V51h-0.3V51.3z M10.1,51.3V51H9.7v0.3H10.1z"/>
	<path class="st1" d="M10.4,93.3v-21H9.7v21H10.4z M47.4,93H10.1v0.7h37.3V93z M47,72.3v21h0.7v-21H47z M10.1,72.7h37.3V72H10.1
		V72.7z M10.1,93.3H9.7v0.3h0.4V93.3z M47.4,93.3v0.3h0.3v-0.3H47.4z M47.4,72.3h0.3V72h-0.3V72.3z M10.1,72.3V72H9.7v0.3H10.1z"/>
	<path class="st1" d="M47.7,72.3v-21H47v21H47.7z M84.7,72H47.4v0.7h37.3V72z M84.4,51.3v21h0.7v-21H84.4z M47.4,51.7h37.3V51H47.4
		V51.7z M47.4,72.3H47v0.3h0.4V72.3z M84.7,72.3v0.3h0.3v-0.3H84.7z M84.7,51.3h0.3V51h-0.3V51.3z M47.4,51.3V51H47v0.3H47.4z"/>
	<path class="st1" d="M47.7,93.3v-21H47v21H47.7z M84.7,93H47.4v0.7h37.3V93z M84.4,72.3v21h0.7v-21H84.4z M47.4,72.7h37.3V72H47.4
		V72.7z M47.4,93.3H47v0.3h0.4V93.3z M84.7,93.3v0.3h0.3v-0.3H84.7z M84.7,72.3h0.3V72h-0.3V72.3z M47.4,72.3V72H47v0.3H47.4z"/>
	<path class="st1" d="M10.4,114.3v-21H9.7v21H10.4z M47.4,114H10.1v0.7h37.3V114z M47,93.3v21h0.7v-21H47z M10.1,93.7h37.3V93H10.1
		V93.7z M10.1,114.3H9.7v0.3h0.4V114.3z M47.4,114.3v0.3h0.3v-0.3H47.4z M47.4,93.3h0.3V93h-0.3V93.3z M10.1,93.3V93H9.7v0.3H10.1z"
		/>
	<path class="st1" d="M10.4,135.3v-21H9.7v21H10.4z M47.4,135H10.1v0.7h37.3V135z M47,114.3v21h0.7v-21H47z M10.1,114.7h37.3V114
		H10.1V114.7z M10.1,135.3H9.7v0.3h0.4V135.3z M47.4,135.3v0.3h0.3v-0.3H47.4z M47.4,114.3h0.3V114h-0.3V114.3z M10.1,114.3V114H9.7
		v0.3H10.1z"/>
	<path class="st1" d="M47.7,114.3v-21H47v21H47.7z M84.7,114H47.4v0.7h37.3V114z M84.4,93.3v21h0.7v-21H84.4z M47.4,93.7h37.3V93
		H47.4V93.7z M47.4,114.3H47v0.3h0.4V114.3z M84.7,114.3v0.3h0.3v-0.3H84.7z M84.7,93.3h0.3V93h-0.3V93.3z M47.4,93.3V93H47v0.3
		H47.4z"/>
	<path class="st1" d="M47.7,135.3v-21H47v21H47.7z M84.7,135H47.4v0.7h37.3V135z M84.4,114.3v21h0.7v-21H84.4z M47.4,114.7h37.3V114
		H47.4V114.7z M47.4,135.3H47v0.3h0.4V135.3z M84.7,135.3v0.3h0.3v-0.3H84.7z M84.7,114.3h0.3V114h-0.3V114.3z M47.4,114.3V114H47
		v0.3H47.4z"/>
	<path class="st1" d="M85.1,30.3v-21h-0.7v21H85.1z M122.1,30H84.7v0.7h37.3V30z M121.7,9.3v21h0.7v-21H121.7z M84.7,9.7h37.3V9
		H84.7V9.7z M84.7,30.3h-0.3v0.4h0.3V30.3z M122.1,30.3v0.4h0.3v-0.4H122.1z M122.1,9.3h0.3V9h-0.3V9.3z M84.7,9.3V9h-0.3v0.4H84.7z
		"/>
	<path class="st1" d="M85.1,51.3v-21h-0.7v21H85.1z M122.1,51H84.7v0.7h37.3V51z M121.7,30.3v21h0.7v-21H121.7z M84.7,30.7h37.3V30
		H84.7V30.7z M84.7,51.3h-0.3v0.4h0.3V51.3z M122.1,51.3v0.4h0.3v-0.4H122.1z M122.1,30.3h0.3V30h-0.3V30.3z M84.7,30.3V30h-0.3v0.4
		H84.7z"/>
	<path class="st1" d="M122.4,30.3v-21h-0.7v21H122.4z M159.4,30h-37.3v0.7h37.3V30z M159,9.3v21h0.7v-21H159z M122.1,9.7h37.3V9
		h-37.3V9.7z M122.1,30.3h-0.3v0.4h0.3V30.3z M159.4,30.3v0.4h0.4v-0.4H159.4z M159.4,9.3h0.4V9h-0.4V9.3z M122.1,9.3V9h-0.3v0.4
		H122.1z"/>
	<path class="st1" d="M122.4,51.3v-21h-0.7v21H122.4z M159.4,51h-37.3v0.7h37.3V51z M159,30.3v21h0.7v-21H159z M122.1,30.7h37.3V30
		h-37.3V30.7z M122.1,51.3h-0.3v0.4h0.3V51.3z M159.4,51.3v0.4h0.4v-0.4H159.4z M159.4,30.3h0.4V30h-0.4V30.3z M122.1,30.3V30h-0.3
		v0.4H122.1z"/>
	<path class="st1" d="M85.1,114.3v-21h-0.7v21H85.1z M122.1,114H84.7v0.7h37.3V114z M121.7,93.3v21h0.7v-21H121.7z M84.7,93.7h37.3
		V93H84.7V93.7z M84.7,114.3h-0.3v0.3h0.3V114.3z M122.1,114.3v0.3h0.3v-0.3H122.1z M122.1,93.3h0.3V93h-0.3V93.3z M84.7,93.3V93
		h-0.3v0.3H84.7z"/>
	<path class="st1" d="M85.1,135.3v-21h-0.7v21H85.1z M122.1,135H84.7v0.7h37.3V135z M121.7,114.3v21h0.7v-21H121.7z M84.7,114.7
		h37.3V114H84.7V114.7z M84.7,135.3h-0.3v0.3h0.3V135.3z M122.1,135.3v0.3h0.3v-0.3H122.1z M122.1,114.3h0.3V114h-0.3V114.3z
		 M84.7,114.3V114h-0.3v0.3H84.7z"/>
	<path class="st1" d="M122.4,114.3v-21h-0.7v21H122.4z M159.4,114h-37.3v0.7h37.3V114z M159,93.3v21h0.7v-21H159z M122.1,93.7h37.3
		V93h-37.3V93.7z M122.1,114.3h-0.3v0.3h0.3V114.3z M159.4,114.3v0.3h0.4v-0.3H159.4z M159.4,93.3h0.4V93h-0.4V93.3z M122.1,93.3V93
		h-0.3v0.3H122.1z"/>
	<path class="st1" d="M122.4,135.3v-21h-0.7v21H122.4z M159.4,135h-37.3v0.7h37.3V135z M159,114.3v21h0.7v-21H159z M122.1,114.7
		h37.3V114h-37.3V114.7z M122.1,135.3h-0.3v0.3h0.3V135.3z M159.4,135.3v0.3h0.4v-0.3H159.4z M159.4,114.3h0.4V114h-0.4V114.3z
		 M122.1,114.3V114h-0.3v0.3H122.1z"/>
	<path class="st1" d="M159.7,30.3v-21H159v21H159.7z M196.7,30h-37.3v0.7h37.3V30z M196.4,9.3v21h0.7v-21H196.4z M159.4,9.7h37.3V9
		h-37.3V9.7z M159.4,30.3H159v0.4h0.3V30.3z M196.7,30.3v0.4h0.3v-0.4H196.7z M196.7,9.3h0.3V9h-0.3V9.3z M159.4,9.3V9H159v0.4
		H159.4z"/>
	<path class="st2" d="M159.7,51.3v-21H159v21H159.7z M196.7,51h-37.3v0.7h37.3V51z M196.4,30.3v21h0.7v-21H196.4z M159.4,30.7h37.3
		V30h-37.3V30.7z M159.4,51.3H159v0.4h0.3V51.3z M196.7,51.3v0.4h0.3v-0.4H196.7z M196.7,30.3h0.3V30h-0.3V30.3z M159.4,30.3V30H159
		v0.4H159.4z"/>
	<path class="st2" d="M197.1,30.3v-21h-0.7v21H197.1z M234.1,30h-37.3v0.7h37.3V30z M233.7,9.3v21h0.7v-21H233.7z M196.7,9.7h37.3V9
		h-37.3V9.7z M196.7,30.3h-0.4v0.4h0.4V30.3z M234.1,30.3v0.4h0.3v-0.4H234.1z M234.1,9.3h0.3V9h-0.3V9.3z M196.7,9.3V9h-0.4v0.4
		H196.7z"/>
	<path class="st1" d="M197.1,51.3v-21h-0.7v21H197.1z M234.1,51h-37.3v0.7h37.3V51z M233.7,30.3v21h0.7v-21H233.7z M196.7,30.7h37.3
		V30h-37.3V30.7z M196.7,51.3h-0.4v0.4h0.4V51.3z M234.1,51.3v0.4h0.3v-0.4H234.1z M234.1,30.3h0.3V30h-0.3V30.3z M196.7,30.3V30
		h-0.4v0.4H196.7z"/>
	<path class="st1" d="M159.7,72.3v-21H159v21H159.7z M196.7,72h-37.3v0.7h37.3V72z M196.4,51.3v21h0.7v-21H196.4z M159.4,51.7h37.3
		V51h-37.3V51.7z M159.4,72.3H159v0.3h0.3V72.3z M196.7,72.3v0.3h0.3v-0.3H196.7z M196.7,51.3h0.3V51h-0.3V51.3z M159.4,51.3V51H159
		v0.3H159.4z"/>
	<path class="st1" d="M159.7,93.3v-21H159v21H159.7z M196.7,93h-37.3v0.7h37.3V93z M196.4,72.3v21h0.7v-21H196.4z M159.4,72.7h37.3
		V72h-37.3V72.7z M159.4,93.3H159v0.3h0.3V93.3z M196.7,93.3v0.3h0.3v-0.3H196.7z M196.7,72.3h0.3V72h-0.3V72.3z M159.4,72.3V72H159
		v0.3H159.4z"/>
	<path class="st1" d="M197.1,72.3v-21h-0.7v21H197.1z M234.1,72h-37.3v0.7h37.3V72z M233.7,51.3v21h0.7v-21H233.7z M196.7,51.7h37.3
		V51h-37.3V51.7z M196.7,72.3h-0.4v0.3h0.4V72.3z M234.1,72.3v0.3h0.3v-0.3H234.1z M234.1,51.3h0.3V51h-0.3V51.3z M196.7,51.3V51
		h-0.4v0.3H196.7z"/>
	<path class="st1" d="M197.1,93.3v-21h-0.7v21H197.1z M234.1,93h-37.3v0.7h37.3V93z M233.7,72.3v21h0.7v-21H233.7z M196.7,72.7h37.3
		V72h-37.3V72.7z M196.7,93.3h-0.4v0.3h0.4V93.3z M234.1,93.3v0.3h0.3v-0.3H234.1z M234.1,72.3h0.3V72h-0.3V72.3z M196.7,72.3V72
		h-0.4v0.3H196.7z"/>
	<path class="st1" d="M159.7,114.3v-21H159v21H159.7z M196.7,114h-37.3v0.7h37.3V114z M196.4,93.3v21h0.7v-21H196.4z M159.4,93.7
		h37.3V93h-37.3V93.7z M159.4,114.3H159v0.3h0.3V114.3z M196.7,114.3v0.3h0.3v-0.3H196.7z M196.7,93.3h0.3V93h-0.3V93.3z
		 M159.4,93.3V93H159v0.3H159.4z"/>
	<path class="st1" d="M159.7,135.3v-21H159v21H159.7z M196.7,135h-37.3v0.7h37.3V135z M196.4,114.3v21h0.7v-21H196.4z M159.4,114.7
		h37.3V114h-37.3V114.7z M159.4,135.3H159v0.3h0.3V135.3z M196.7,135.3v0.3h0.3v-0.3H196.7z M196.7,114.3h0.3V114h-0.3V114.3z
		 M159.4,114.3V114H159v0.3H159.4z"/>
	<path class="st1" d="M197.1,114.3v-21h-0.7v21H197.1z M234.1,114h-37.3v0.7h37.3V114z M233.7,93.3v21h0.7v-21H233.7z M196.7,93.7
		h37.3V93h-37.3V93.7z M196.7,114.3h-0.4v0.3h0.4V114.3z M234.1,114.3v0.3h0.3v-0.3H234.1z M234.1,93.3h0.3V93h-0.3V93.3z
		 M196.7,93.3V93h-0.4v0.3H196.7z"/>
	<path class="st1" d="M197.1,135.3v-21h-0.7v21H197.1z M234.1,135h-37.3v0.7h37.3V135z M233.7,114.3v21h0.7v-21H233.7z M196.7,114.7
		h37.3V114h-37.3V114.7z M196.7,135.3h-0.4v0.3h0.4V135.3z M234.1,135.3v0.3h0.3v-0.3H234.1z M234.1,114.3h0.3V114h-0.3V114.3z
		 M196.7,114.3V114h-0.4v0.3H196.7z"/>
	<rect x="84.7" y="51.3" class="st0" width="37.3" height="21"/>
	<path class="st3" d="M85.1,72.3v-21h-0.7v21H85.1z M122.1,72H84.7v0.7h37.3V72z M121.7,51.3v21h0.7v-21H121.7z M84.7,51.7h37.3V51
		H84.7V51.7z M84.7,72.3h-0.3v0.3h0.3V72.3z M122.1,72.3v0.3h0.3v-0.3H122.1z M122.1,51.3h0.3V51h-0.3V51.3z M84.7,51.3V51h-0.3v0.3
		H84.7z"/>
	<rect x="84.7" y="72.3" class="st0" width="37.3" height="21"/>
	<path class="st3" d="M85.1,93.3v-21h-0.7v21H85.1z M122.1,93H84.7v0.7h37.3V93z M121.7,72.3v21h0.7v-21H121.7z M84.7,72.7h37.3V72
		H84.7V72.7z M84.7,93.3h-0.3v0.3h0.3V93.3z M122.1,93.3v0.3h0.3v-0.3H122.1z M122.1,72.3h0.3V72h-0.3V72.3z M84.7,72.3V72h-0.3v0.3
		H84.7z"/>
	<rect x="122.1" y="51.3" class="st0" width="37.3" height="21"/>
	<path class="st3" d="M122.4,72.3v-21h-0.7v21H122.4z M159.4,72h-37.3v0.7h37.3V72z M159,51.3v21h0.7v-21H159z M122.1,51.7h37.3V51
		h-37.3V51.7z M122.1,72.3h-0.3v0.3h0.3V72.3z M159.4,72.3v0.3h0.4v-0.3H159.4z M159.4,51.3h0.4V51h-0.4V51.3z M122.1,51.3V51h-0.3
		v0.3H122.1z"/>
	<rect x="122.1" y="72.3" class="st0" width="37.3" height="21"/>
	<path class="st3" d="M122.4,93.3v-21h-0.7v21H122.4z M159.4,93h-37.3v0.7h37.3V93z M159,72.3v21h0.7v-21H159z M122.1,72.7h37.3V72
		h-37.3V72.7z M122.1,93.3h-0.3v0.3h0.3V93.3z M159.4,93.3v0.3h0.4v-0.3H159.4z M159.4,72.3h0.4V72h-0.4V72.3z M122.1,72.3V72h-0.3
		v0.3H122.1z"/>
	<path d="M104.3,66.5h-1.1v-5.6c0-0.2,0-0.4,0-0.6c0-0.2,0-0.4,0-0.6c0-0.2,0-0.4,0-0.6c0-0.2,0-0.3,0-0.5c-0.1,0.1-0.1,0.1-0.2,0.2
		c-0.1,0.1-0.1,0.1-0.2,0.2c-0.1,0-0.1,0.1-0.2,0.2c-0.1,0.1-0.1,0.1-0.2,0.2l-0.9,0.7l-0.6-0.8l2.4-1.8h0.9V66.5z"/>
	<path d="M105.8,80.6c0,0.3,0,0.6-0.1,0.8s-0.2,0.5-0.4,0.6c-0.2,0.2-0.4,0.3-0.6,0.4c-0.2,0.1-0.5,0.2-0.8,0.2v0
		c0.7,0.1,1.3,0.3,1.7,0.7c0.4,0.4,0.6,0.9,0.6,1.4c0,0.4-0.1,0.8-0.2,1.1c-0.1,0.3-0.3,0.6-0.6,0.8c-0.3,0.2-0.6,0.4-1,0.6
		c-0.4,0.1-0.9,0.2-1.5,0.2c-0.4,0-0.9,0-1.3-0.1c-0.4-0.1-0.8-0.2-1.1-0.4v-1c0.4,0.2,0.7,0.3,1.2,0.4c0.4,0.1,0.8,0.2,1.2,0.2
		c0.4,0,0.7,0,1-0.1c0.3-0.1,0.5-0.2,0.7-0.4c0.2-0.2,0.3-0.3,0.4-0.6c0.1-0.2,0.1-0.5,0.1-0.7c0-0.3-0.1-0.5-0.2-0.7
		c-0.1-0.2-0.3-0.4-0.5-0.5c-0.2-0.1-0.4-0.2-0.7-0.3c-0.3-0.1-0.6-0.1-1-0.1h-0.8v-0.9h0.8c0.3,0,0.6,0,0.9-0.1
		c0.3-0.1,0.5-0.2,0.6-0.4c0.2-0.2,0.3-0.3,0.4-0.5c0.1-0.2,0.1-0.4,0.1-0.7c0-0.2,0-0.4-0.1-0.6c-0.1-0.2-0.2-0.3-0.3-0.4
		c-0.1-0.1-0.3-0.2-0.5-0.3c-0.2-0.1-0.4-0.1-0.6-0.1c-0.4,0-0.8,0.1-1.2,0.2c-0.3,0.1-0.7,0.3-1,0.5l-0.6-0.8
		c0.2-0.1,0.3-0.2,0.5-0.4c0.2-0.1,0.4-0.2,0.6-0.3c0.2-0.1,0.5-0.2,0.7-0.2c0.3,0,0.5-0.1,0.8-0.1c0.4,0,0.8,0.1,1.2,0.2
		c0.3,0.1,0.6,0.3,0.8,0.5c0.2,0.2,0.4,0.4,0.5,0.7C105.8,80,105.8,80.3,105.8,80.6z"/>
	<path d="M142,84.5v-2.2c0-0.2,0-0.5,0-0.7c0-0.3,0-0.5,0-0.7c0-0.2,0-0.5,0-0.7c0-0.2,0-0.4,0-0.5H142c0,0.1-0.1,0.2-0.1,0.3
		c0,0.1-0.1,0.2-0.1,0.3c0,0.1-0.1,0.2-0.2,0.3c-0.1,0.1-0.1,0.2-0.1,0.2l-2.5,3.7H142z M144.4,85.5h-1.3v2H142v-2h-4.2v-1l4.1-6
		h1.2v6h1.3V85.5z"/>
	<path d="M143.9,66.5h-5.6v-1l2.2-2.3c0.3-0.3,0.6-0.6,0.8-0.9c0.2-0.3,0.4-0.5,0.6-0.8c0.2-0.3,0.3-0.5,0.4-0.8
		c0.1-0.3,0.1-0.6,0.1-0.9c0-0.2,0-0.5-0.1-0.6s-0.2-0.3-0.3-0.5c-0.1-0.1-0.3-0.2-0.5-0.3c-0.2-0.1-0.4-0.1-0.6-0.1
		c-0.4,0-0.7,0.1-1.1,0.2c-0.3,0.2-0.6,0.4-0.9,0.6l-0.6-0.7c0.2-0.1,0.3-0.3,0.5-0.4c0.2-0.1,0.4-0.2,0.6-0.3
		c0.2-0.1,0.4-0.2,0.7-0.2c0.2-0.1,0.5-0.1,0.8-0.1c0.4,0,0.7,0.1,1.1,0.2c0.3,0.1,0.6,0.3,0.8,0.5c0.2,0.2,0.4,0.5,0.5,0.8
		c0.1,0.3,0.2,0.6,0.2,1c0,0.3-0.1,0.7-0.2,1c-0.1,0.3-0.3,0.6-0.4,0.9c-0.2,0.3-0.4,0.6-0.7,0.9c-0.3,0.3-0.5,0.6-0.9,1l-1.7,1.8v0
		h4.2V66.5z"/>
	<path d="M10.4,135.3V9.3H9.7v126H10.4z M234.1,135h-224v0.7h224V135z M233.7,9.3v126h0.7V9.3H233.7z M10.1,9.7h224V9h-224V9.7z
		 M10.1,135.3H9.7v0.3h0.4V135.3z M234.1,135.3v0.3h0.3v-0.3H234.1z M234.1,9.3h0.3V9h-0.3V9.3z M10.1,9.3V9H9.7v0.4H10.1z"/>
	<rect x="176.5" y="12.1" width="54" height="14"/>
	<g>
		<defs>
			<rect id="SVGID_1_" x="176.5" y="12.1" width="54" height="14"/>
		</defs>
		<clipPath id="SVGID_00000147179485712843358790000018077990823955248560_">
			<use xlink:href="#SVGID_1_"  style="overflow:visible;"/>
		</clipPath>
		<path style="clip-path:url(#SVGID_00000147179485712843358790000018077990823955248560_);fill:#E2700E;" d="M177.3,26.1v-14h-1.7
			v14H177.3z M230.5,25.4h-54v1.4h54V25.4z M229.6,12.1v14h1.7v-14H229.6z M176.5,12.8h54v-1.4h-54V12.8z M176.5,26.1h-0.9v0.7h0.9
			V26.1z M230.5,26.1v0.7h0.9v-0.7H230.5z M230.5,12.1h0.9v-0.7h-0.9V12.1z M176.5,12.1v-0.7h-0.9v0.7H176.5z"/>
	</g>
	<path class="st1" d="M223.1,21.5c0.1,0,0.2,0,0.3,0c0.1,0,0.2,0,0.3-0.1v0.5c-0.1,0-0.2,0.1-0.3,0.1c-0.1,0-0.3,0-0.4,0
		c-0.8,0-1.2-0.4-1.2-1.3v-2.4h-0.6v-0.3l0.6-0.3l0.3-0.9h0.4v0.9h1.2v0.5h-1.2v2.3c0,0.2,0.1,0.4,0.2,0.5
		C222.7,21.4,222.9,21.5,223.1,21.5z M219.7,16.8c0-0.1,0-0.3,0.1-0.3c0.1-0.1,0.2-0.1,0.3-0.1c0.1,0,0.2,0,0.3,0.1
		c0.1,0.1,0.1,0.2,0.1,0.3c0,0.1,0,0.3-0.1,0.3c-0.1,0.1-0.2,0.1-0.3,0.1c-0.1,0-0.2,0-0.3-0.1C219.8,17,219.7,16.9,219.7,16.8z
		 M220.5,21.9h-0.7v-4.1h0.7V21.9z M219.1,18.4h-1v3.5h-0.7v-3.5h-0.7v-0.3l0.7-0.2v-0.2c0-0.5,0.1-0.9,0.3-1.1
		c0.2-0.2,0.6-0.4,1-0.4c0.3,0,0.5,0,0.8,0.1l-0.2,0.5c-0.2-0.1-0.4-0.1-0.6-0.1c-0.2,0-0.4,0.1-0.5,0.2s-0.2,0.4-0.2,0.7v0.3h1
		V18.4z M213.1,19.9c0,0.5,0.1,0.9,0.3,1.2c0.2,0.3,0.5,0.4,0.9,0.4c0.4,0,0.7-0.1,0.9-0.4c0.2-0.3,0.3-0.7,0.3-1.2
		c0-0.5-0.1-0.9-0.3-1.2c-0.2-0.3-0.5-0.4-0.9-0.4C213.4,18.4,213.1,18.9,213.1,19.9z M216.1,19.9c0,0.7-0.2,1.2-0.5,1.6
		c-0.3,0.4-0.8,0.6-1.4,0.6c-0.4,0-0.7-0.1-1-0.3c-0.3-0.2-0.5-0.4-0.7-0.7c-0.2-0.3-0.2-0.7-0.2-1.1c0-0.7,0.2-1.2,0.5-1.5
		c0.3-0.4,0.8-0.6,1.4-0.6c0.6,0,1,0.2,1.4,0.6C216,18.7,216.1,19.2,216.1,19.9z M211.2,21.5c0.1,0,0.2,0,0.3,0c0.1,0,0.2,0,0.3-0.1
		v0.5c-0.1,0-0.2,0.1-0.3,0.1c-0.1,0-0.3,0-0.4,0c-0.8,0-1.2-0.4-1.2-1.3v-2.4h-0.6v-0.3l0.6-0.3l0.3-0.9h0.4v0.9h1.2v0.5h-1.2v2.3
		c0,0.2,0.1,0.4,0.2,0.5C210.9,21.4,211,21.5,211.2,21.5z M205.8,17.9v2.6c0,0.3,0.1,0.6,0.2,0.7c0.1,0.2,0.4,0.2,0.7,0.2
		c0.4,0,0.7-0.1,0.9-0.3c0.2-0.2,0.3-0.6,0.3-1.1v-2.1h0.7v4.1H208l-0.1-0.5h0c-0.1,0.2-0.3,0.3-0.5,0.5c-0.2,0.1-0.5,0.2-0.8,0.2
		c-0.5,0-0.9-0.1-1.1-0.4c-0.2-0.2-0.4-0.6-0.4-1.1v-2.7H205.8z M202.9,19.7l-0.6-1.6l-0.3-0.8c-0.1,0.3-0.2,0.6-0.2,0.8l-0.6,1.6
		H202.9z M203.8,21.9l-0.7-1.7H201l-0.6,1.7h-0.7l2.1-5.4h0.6l2.1,5.4H203.8z"/>
	<g>
		<defs>
			<rect id="SVGID_00000041275944196528920780000013701701739255003540_" x="153.7" y="87.9" width="13.7" height="13.7"/>
		</defs>
		<clipPath id="SVGID_00000048464118428128732430000010808098097596216509_">
			<use xlink:href="#SVGID_00000041275944196528920780000013701701739255003540_"  style="overflow:visible;"/>
		</clipPath>
		<g transform="matrix(1 0 0 1 0 0)" style="clip-path:url(#SVGID_00000048464118428128732430000010808098097596216509_);">
			
				<image style="overflow:visible;" width="39" height="39" xlink:href="17A35934.png"  transform="matrix(0.3519 0 0 0.352 153.7044 87.8817)">
			</image>
		</g>
	</g>
	<path d="M162.6,95.1l3.6,3.6l-1,1l-3.6-3.6c-0.7,0.5-1.5,0.8-2.4,0.8c-2.3,0-4.2-1.9-4.2-4.2c0-2.3,1.9-4.2,4.2-4.2
		c2.3,0,4.2,1.9,4.2,4.2C163.4,93.5,163.1,94.4,162.6,95.1z"/>
	<circle class="st5" cx="159.2" cy="92.6" r="3.5"/>
	<rect x="157.1" y="92" width="4.2" height="1.4"/>
	<g>
		<rect x="183.3" y="15.9" class="st6" width="8.1" height="6.6"/>
		<polyline class="st7" points="184.3,17.4 184.8,17.4 184.8,16.8 		"/>
		<polyline class="st7" points="184.3,20.8 184.8,20.8 184.8,21.4 		"/>
		<polyline class="st7" points="190.4,20.8 189.8,20.8 189.8,21.4 		"/>
		<polyline class="st7" points="190.4,17.4 189.8,17.4 189.8,16.8 		"/>
	</g>
</g>
<text transform="matrix(1 0 0 1 89.2705 162.3076)" class="st8 st9">ズームアウト</text>
<text transform="matrix(1 0 0 1 398.3104 163.3076)" class="st8 st9">Autofit実行</text>
</svg>
