<svg width="18" height="18" viewBox="0 0 18 18" fill="none" xmlns="http://www.w3.org/2000/svg">
<path d="M11.5984 6.42188H6.39844V11.6219H11.5984V6.42188Z" stroke="#F3E87E" stroke-width="0.75" stroke-linecap="round" stroke-linejoin="round"/>
<path d="M6.39844 1.39844V3.19844" stroke="#F3E87E" stroke-width="0.75" stroke-linecap="square" stroke-linejoin="round"/>
<path d="M11.5977 1.39844V3.19844" stroke="#F3E87E" stroke-width="0.75" stroke-linecap="square" stroke-linejoin="round"/>
<path d="M6.39844 14.7969V16.5969" stroke="#F3E87E" stroke-width="0.75" stroke-linecap="square" stroke-linejoin="round"/>
<path d="M11.5977 14.7969V16.5969" stroke="#F3E87E" stroke-width="0.75" stroke-linecap="square" stroke-linejoin="round"/>
<path d="M3.79688 3.42188C3.58977 3.42188 3.42188 3.58977 3.42188 3.79688V14.1961C3.42188 14.4032 3.58977 14.5711 3.79688 14.5711H14.1961C14.4032 14.5711 14.5711 14.4032 14.5711 14.1961V3.79688C14.5711 3.58977 14.4032 3.42188 14.1961 3.42188H3.79688Z" stroke="#F3E87E" stroke-width="0.75" stroke-linejoin="round"/>
<path d="M1.39844 11.5938L3.19844 11.5937" stroke="#F3E87E" stroke-width="0.75" stroke-linecap="square" stroke-linejoin="round"/>
<path d="M1.39844 6.39844L3.19844 6.39844" stroke="#F3E87E" stroke-width="0.75" stroke-linecap="square" stroke-linejoin="round"/>
<path d="M14.7969 11.5938L16.5969 11.5937" stroke="#F3E87E" stroke-width="0.75" stroke-linecap="square" stroke-linejoin="round"/>
<path d="M14.7969 6.39844L16.5969 6.39844" stroke="#F3E87E" stroke-width="0.75" stroke-linecap="square" stroke-linejoin="round"/>
</svg>
