<svg width="18" height="18" viewBox="0 0 18 18" fill="none" xmlns="http://www.w3.org/2000/svg">
<path d="M4.39844 3V4.19844" stroke="#FFE91F" stroke-width="0.75" stroke-linecap="square" stroke-linejoin="round"/>
<path d="M10.5977 3V4.19844" stroke="#FFE91F" stroke-width="0.75" stroke-linecap="square" stroke-linejoin="round"/>
<path d="M7.39844 3V4.19844" stroke="#FFE91F" stroke-width="0.75" stroke-linecap="square" stroke-linejoin="round"/>
<path d="M13.5977 3V4.19844" stroke="#FFE91F" stroke-width="0.75" stroke-linecap="square" stroke-linejoin="round"/>
<path d="M4.39844 13.7969V14.9961" stroke="#FFE91F" stroke-width="0.75" stroke-linecap="square" stroke-linejoin="round"/>
<path d="M10.5977 13.7969V14.9961" stroke="#FFE91F" stroke-width="0.75" stroke-linecap="square" stroke-linejoin="round"/>
<path d="M7.39844 13.7969V14.9961" stroke="#FFE91F" stroke-width="0.75" stroke-linecap="square" stroke-linejoin="round"/>
<path d="M13.5977 13.7969V14.9961" stroke="#FFE91F" stroke-width="0.75" stroke-linecap="square" stroke-linejoin="round"/>
<path d="M2.74219 4.625C2.53508 4.625 2.36719 4.79289 2.36719 5V13C2.36719 13.2071 2.53508 13.375 2.74219 13.375H15.2722C15.4793 13.375 15.6472 13.2071 15.6472 13V5C15.6472 4.79289 15.4793 4.625 15.2722 4.625H2.74219Z" stroke="#FFE91F" stroke-width="0.75" stroke-linejoin="round"/>
<path d="M6.39805 7.39844H4.39844V10.6H6.39805V7.39844Z" stroke="#FFE91F" stroke-width="0.75" stroke-linecap="round" stroke-linejoin="round"/>
<path d="M9.89805 7.39844H7.89844V10.6H9.89805V7.39844Z" stroke="#FFE91F" stroke-width="0.75" stroke-linecap="round" stroke-linejoin="round"/>
<path d="M13.6488 7.39844H11.4492V10.6H13.6488V7.39844Z" stroke="#FFE91F" stroke-width="0.75" stroke-linecap="round" stroke-linejoin="round"/>
</svg>
