<svg width="18" height="18" viewBox="0 0 18 18" fill="none" xmlns="http://www.w3.org/2000/svg">
<path d="M8.19245 12.6559L7.70378 14.4809C7.64817 14.6947 7.50983 14.8782 7.31889 14.9911C7.12796 15.104 6.89987 15.1373 6.68428 15.0839L5.21825 14.6567C5.11034 14.6269 5.00951 14.5761 4.92163 14.5071C4.83376 14.438 4.7606 14.3523 4.70647 14.2548C4.65234 14.1574 4.61832 14.0503 4.60637 13.9396C4.59442 13.8289 4.60479 13.7168 4.63689 13.6101L5.12558 11.7852" stroke="white" stroke-miterlimit="10" stroke-linecap="round"/>
<path d="M15.4727 8.25391H18.0003" stroke="white" stroke-miterlimit="10"/>
<path d="M15.4727 5.43124L17.2589 3.65625" stroke="white" stroke-miterlimit="10"/>
<path d="M15.4727 11.209L17.1578 12.8835" stroke="white" stroke-miterlimit="10"/>
<path d="M2.84315 5.39825C2.59038 5.45686 2.42188 5.5994 2.42188 5.82546V10.7149C2.42368 10.8056 2.45631 10.8931 2.51444 10.9631C2.57257 11.033 2.65278 11.0811 2.74205 11.1L13.3666 14.1396V2.41797L2.84315 5.39825Z" stroke="white" stroke-linejoin="round"/>
</svg>
