<svg width="18" height="18" viewBox="0 0 18 18" fill="none" xmlns="http://www.w3.org/2000/svg">
<path d="M14.2095 9.72195L14.2333 9.51356C14.2533 9.33807 14.2638 9.16164 14.2648 8.98502C14.2647 8.8292 14.2549 8.66327 14.236 8.48016L14.2146 8.27422L14.3775 8.14645L15.6909 7.1164C15.6909 7.11637 15.6909 7.11634 15.691 7.11631C15.6939 7.114 15.6958 7.11074 15.6965 7.10711C15.6972 7.10344 15.6965 7.09963 15.6947 7.0964L15.6944 7.09602L14.0115 4.20768L14.0112 4.20719C14.0097 4.20455 14.0075 4.20245 14.0035 4.20107C13.9992 4.19958 13.9957 4.19997 13.9931 4.20096C13.9931 4.20097 13.9931 4.20097 13.9931 4.20097L12.4408 4.8108L12.2501 4.88574L12.084 4.76567C11.7942 4.55615 11.4836 4.37701 11.1571 4.23108L10.9692 4.14709L10.9392 3.94348L10.6988 2.31522L10.6988 2.31468C10.6983 2.31135 10.6966 2.30831 10.6941 2.30612C10.6915 2.30393 10.6883 2.30272 10.6849 2.30273L10.6839 2.30274L7.31812 2.30273H7.31789C7.31454 2.30273 7.3113 2.30394 7.30876 2.30613C7.30622 2.30832 7.30456 2.31136 7.30407 2.31468L7.30394 2.31559L7.06209 3.94308L7.03181 4.14683L6.84361 4.23057C6.51745 4.37569 6.20718 4.55381 5.9155 4.76431L5.74952 4.8841L5.55899 4.80929L4.0099 4.20104C4.00987 4.20103 4.00985 4.20102 4.00982 4.20101C4.0064 4.1997 4.00264 4.19963 3.99918 4.20083C3.99573 4.20203 3.99281 4.20441 3.99094 4.20755C3.99092 4.20758 3.99091 4.20761 3.99089 4.20764L2.30719 7.09468C2.30717 7.09472 2.30714 7.09477 2.30712 7.09481C2.30521 7.09817 2.30456 7.1021 2.30528 7.1059C2.30601 7.10971 2.30808 7.11313 2.3111 7.11555C2.31113 7.11558 2.31116 7.1156 2.3112 7.11563L3.62374 8.14489L3.78803 8.27373L3.76506 8.48125C3.74648 8.64905 3.73696 8.81772 3.73653 8.98655C3.73655 9.15404 3.74644 9.32915 3.76674 9.51835L3.78893 9.72525L3.62511 9.85357L2.3109 10.8829C2.31087 10.883 2.31084 10.883 2.3108 10.883C2.30777 10.8854 2.3057 10.8889 2.30498 10.8927C2.30424 10.8965 2.30492 10.9005 2.30688 10.9039C2.30689 10.9039 2.30689 10.9039 2.3069 10.9039L3.99084 13.7914C3.99086 13.7914 3.99087 13.7914 3.99089 13.7915C3.99433 13.7972 4.00202 13.8003 4.00937 13.7975L14.2095 9.72195ZM14.2095 9.72195L14.3747 9.85127L15.6916 10.8827C15.6917 10.8827 15.6917 10.8828 15.6918 10.8828C15.6946 10.8851 15.6966 10.8884 15.6973 10.892C15.698 10.8957 15.6973 10.8995 15.6954 10.9027L15.6952 10.9031L14.0123 13.7914L14.0117 13.7924C14.0104 13.7947 14.0083 13.7967 14.0045 13.7981C14.0006 13.7994 13.9979 13.799 13.996 13.7982L13.9942 13.7975L12.4199 13.1798L12.2307 13.1055L12.0652 13.2235C11.782 13.4255 11.4795 13.5989 11.1621 13.7413L10.9749 13.8252L10.9446 14.0281L10.6982 15.6818L10.698 15.683C10.6975 15.6865 10.6957 15.6897 10.693 15.692C10.6904 15.6943 10.687 15.6956 10.6834 15.6956H7.31812C7.31502 15.6956 7.31198 15.6946 7.30894 15.692C7.30601 15.6895 7.30463 15.6867 7.30415 15.6834L7.30394 15.682L7.05824 14.0276L7.02813 13.8248L6.84123 13.7407C6.53233 13.6016 6.23049 13.4282 5.93876 13.2219L5.77357 13.1051L5.58523 13.179L4.00944 13.7975L14.2095 9.72195Z" stroke="#919191" stroke-width="0.75"/>
<path d="M7.60102 7.59859C7.97259 7.22715 8.47629 7.01821 9.00168 7.01758C9.52706 7.01821 10.0308 7.22715 10.4023 7.59859C10.7739 7.97002 10.983 8.47361 10.9838 8.99896C10.9834 9.52461 10.7744 10.0286 10.4028 10.4004C10.0312 10.7721 9.52729 10.9812 9.00168 10.9819C8.47606 10.9812 7.97216 10.7721 7.60055 10.4004C7.22894 10.0286 7.01999 9.52467 7.01953 8.99906C7.02033 8.47368 7.22944 7.97004 7.60102 7.59859Z" stroke="#919191" stroke-width="0.75"/>
</svg>
