<svg width="18" height="18" viewBox="0 0 18 18" fill="none" xmlns="http://www.w3.org/2000/svg">
<path d="M12.5742 1.9375C13.766 2.61778 14.7611 3.59531 15.4623 4.77494C16.1634 5.95457 16.5468 7.296 16.5749 8.668C16.6029 10.04 16.2748 11.3958 15.6224 12.6031C14.9701 13.8104 14.0159 14.8279 12.8529 15.5564" stroke="#919191" stroke-width="0.75" stroke-linejoin="round"/>
<path d="M10.2031 6.04883C10.675 6.31677 11.0695 6.7024 11.348 7.16814C11.6265 7.63388 11.7796 8.164 11.7923 8.70652C11.8051 9.24904 11.6771 9.78555 11.4208 10.2639C11.1644 10.7422 10.7885 11.1459 10.3297 11.4357" stroke="#919191" stroke-width="0.75" stroke-linejoin="round"/>
<path d="M11.3672 4.03906C12.1887 4.51117 12.8741 5.18756 13.3571 6.0027C13.8401 6.81784 14.1042 7.74403 14.1237 8.69131C14.1433 9.6386 13.9176 10.5748 13.4686 11.4092C13.0197 12.2436 12.3627 12.9476 11.5614 13.4532" stroke="#919191" stroke-width="0.75" stroke-linejoin="round"/>
<path d="M8.16087 3.25391L3.74505 5.8881H2.25058C2.02665 5.8881 1.81185 5.97712 1.65351 6.13546C1.49517 6.2938 1.40625 6.5085 1.40625 6.73243V10.8021C1.40625 11.0261 1.49517 11.2408 1.65351 11.3991C1.81185 11.5575 2.02665 11.6465 2.25058 11.6465H3.7366L8.16087 14.2553V3.25391Z" stroke="#919191" stroke-width="0.75" stroke-linejoin="round"/>
</svg>
