<svg width="18" height="18" viewBox="0 0 18 18" fill="none" xmlns="http://www.w3.org/2000/svg">
<path d="M12.5742 2.36328C13.766 3.04356 14.7611 4.02109 15.4623 5.20072C16.1634 6.38036 16.5468 7.72178 16.5749 9.09378C16.6029 10.4658 16.2748 11.8216 15.6224 13.0289C14.9701 14.2362 14.0159 15.2537 12.8529 15.9822" stroke="white" stroke-width="0.75" stroke-linejoin="round"/>
<path d="M10.2031 6.47461C10.675 6.74255 11.0695 7.12818 11.348 7.59392C11.6265 8.05966 11.7796 8.58978 11.7923 9.1323C11.8051 9.67482 11.6771 10.2113 11.4208 10.6896C11.1644 11.168 10.7885 11.5717 10.3297 11.8615" stroke="white" stroke-width="0.75" stroke-linejoin="round"/>
<path d="M11.3672 4.46484C12.1887 4.93695 12.8741 5.61334 13.3571 6.42848C13.8401 7.24362 14.1042 8.16981 14.1237 9.11709C14.1433 10.0644 13.9176 11.0006 13.4686 11.835C13.0197 12.6693 12.3627 13.3734 11.5614 13.879" stroke="white" stroke-width="0.75" stroke-linejoin="round"/>
<path d="M8.16087 3.67969L3.74505 6.31388H2.25058C2.02665 6.31388 1.81185 6.4029 1.65351 6.56124C1.49517 6.71958 1.40625 6.93428 1.40625 7.15821V11.2279C1.40625 11.4519 1.49517 11.6665 1.65351 11.8249C1.81185 11.9832 2.02665 12.0723 2.25058 12.0723H3.7366L8.16087 14.6811V3.67969Z" stroke="white" stroke-width="0.75" stroke-linejoin="round"/>
</svg>
