<svg width="18" height="18" viewBox="0 0 18 18" fill="none" xmlns="http://www.w3.org/2000/svg">
<path d="M11.466 6.90681C11.466 8.25984 10.3653 9.36049 9.01227 9.36049C7.65924 9.36049 6.55859 8.25984 6.55859 6.90681C6.55859 5.55378 7.65924 4.45312 9.01227 4.45312C10.3653 4.45312 11.466 5.54677 11.466 6.90681Z" stroke="#797979" stroke-width="0.75" stroke-miterlimit="10" stroke-linecap="round" stroke-linejoin="round"/>
<path d="M4.29297 13.7572C5.12021 11.9905 6.9149 10.7637 8.99703 10.7637C11.0932 10.7637 12.9019 12.0045 13.7151 13.7992" stroke="#797979" stroke-width="0.75" stroke-miterlimit="10"/>
<path d="M2.35156 9.00259C2.35156 5.32908 5.33103 2.34961 9.00454 2.34961C12.6781 2.34961 15.6575 5.32908 15.6575 9.00259C15.6575 12.6761 12.6781 15.6556 9.00454 15.6556C5.33103 15.6486 2.35156 12.6761 2.35156 9.00259Z" stroke="#797979" stroke-width="0.75" stroke-miterlimit="10" stroke-linecap="round" stroke-linejoin="round"/>
</svg>
