<svg width="80" height="20" viewBox="0 0 80 20" fill="none" xmlns="http://www.w3.org/2000/svg">
<path d="M56.0734 4.02091H54.9399C54.8962 4.01637 54.852 4.02177 54.8107 4.03673C54.7693 4.05169 54.7319 4.07583 54.7011 4.10731C54.6704 4.1388 54.6471 4.17683 54.6331 4.21858C54.6191 4.26033 54.6146 4.30472 54.6201 4.34843V12.7108L48.953 4.22996C48.9045 4.16181 48.841 4.10569 48.7675 4.06584C48.694 4.02599 48.6124 4.00347 48.5289 4H47.2495C47.02 4 46.9226 4.09756 46.9226 4.32753V15.5192C46.9195 15.563 46.9259 15.6069 46.9412 15.6481C46.9565 15.6892 46.9805 15.7266 47.0115 15.7576C47.0425 15.7887 47.0798 15.8127 47.1208 15.8281C47.1619 15.8434 47.2057 15.8498 47.2495 15.8467H48.3481C48.3918 15.8498 48.4357 15.8434 48.4767 15.8281C48.5178 15.8127 48.5551 15.7887 48.5861 15.7576C48.617 15.7266 48.641 15.6892 48.6563 15.6481C48.6717 15.6069 48.678 15.563 48.6749 15.5192V6.72472L54.6618 15.6376C54.7076 15.7101 54.7714 15.7695 54.847 15.8098C54.9226 15.8501 55.0073 15.87 55.0929 15.8676H56.0734C56.1168 15.8708 56.1604 15.8645 56.2012 15.8491C56.2419 15.8337 56.2788 15.8096 56.3093 15.7784C56.3397 15.7472 56.363 15.7097 56.3775 15.6685C56.392 15.6274 56.3974 15.5835 56.3932 15.5401V4.34843C56.3987 4.30472 56.3942 4.26033 56.3802 4.21858C56.3662 4.17683 56.3429 4.1388 56.3121 4.10731C56.2814 4.07583 56.244 4.05169 56.2026 4.03673C56.1613 4.02177 56.1171 4.01637 56.0734 4.02091Z" fill="white"/>
<path d="M77.2216 4.01953H68.5715C68.507 4.01953 68.4451 4.04523 68.3994 4.09097C68.3538 4.13671 68.3281 4.19873 68.3281 4.26342V5.35052C68.3281 5.38223 68.3345 5.41363 68.3468 5.44284C68.3591 5.47205 68.3771 5.4985 68.3998 5.52059C68.4225 5.54269 68.4494 5.55997 68.4789 5.57146C68.5084 5.58295 68.5399 5.58841 68.5715 5.58748H71.923V15.6153C71.923 15.6819 71.9494 15.7457 71.9964 15.7927C72.0433 15.8398 72.107 15.8662 72.1734 15.8662H73.4806C73.547 15.8662 73.6107 15.8398 73.6576 15.7927C73.7046 15.7457 73.7309 15.6819 73.7309 15.6153V5.62231H77.2077C77.271 5.62234 77.3319 5.59761 77.3773 5.55336C77.4228 5.50912 77.4492 5.44885 77.451 5.38538V4.29827C77.451 4.23359 77.4254 4.17154 77.3797 4.1258C77.3341 4.08006 77.2722 4.05437 77.2077 4.05437" fill="white"/>
<path d="M63.4881 4.03516H61.9374C60.7345 4.03516 57.9531 4.41844 57.9531 7.9585V11.9376C57.9531 15.4846 60.7345 15.8679 61.9374 15.8679H66.5198C66.604 15.8661 66.6844 15.8318 66.744 15.772C66.8036 15.7123 66.8378 15.6318 66.8396 15.5473V14.6832C66.8378 14.5994 66.8033 14.5197 66.7435 14.4611C66.6837 14.4025 66.6034 14.3696 66.5198 14.3696H61.9792C59.9349 14.3696 59.6984 12.9759 59.6984 11.9376V10.7529H67.1595C67.2425 10.7529 67.322 10.7199 67.3807 10.6611C67.4394 10.6023 67.4724 10.5225 67.4724 10.4393V7.9585C67.4724 4.41844 64.691 4.03516 63.4881 4.03516ZM65.7271 7.9585V9.26164H59.6984V7.9585C59.6984 6.92018 59.9349 5.52643 61.9792 5.52643H63.4463C65.4907 5.52643 65.7271 6.92018 65.7271 7.9585Z" fill="white"/>
<path d="M10.9769 9.01676L12.3189 14.7938C12.3944 15.1179 12.5831 15.4043 12.8509 15.6012C13.1187 15.798 13.448 15.8923 13.7792 15.8669H15.0586L12.4093 4.48017C12.3468 4.18748 12.2216 4.12477 12.006 4.1178H9.92001C9.70446 4.1178 9.58625 4.2502 9.54453 4.48017C9.46804 4.82163 7.63234 12.7798 7.61843 12.8425C7.60452 12.9053 7.56975 13.0446 7.46545 13.0446C7.36115 13.0446 7.33334 12.9749 7.30553 12.8425C7.27771 12.7101 5.72015 4.34081 5.72015 4.34081C5.65757 4.076 5.53936 4.02025 5.37248 4.02025H3.28645C3.24491 4.01721 3.20322 4.02379 3.16463 4.0395C3.12604 4.05521 3.09159 4.07962 3.06393 4.11083C3.03303 4.16012 3.01275 4.21534 3.00437 4.27294C2.99599 4.33054 2.9997 4.38925 3.01526 4.44533L4.94832 14.4035C4.96747 14.6144 5.02811 14.8193 5.12675 15.0065C5.22538 15.1938 5.36005 15.3595 5.52297 15.4943C5.68589 15.6291 5.87384 15.7302 6.07597 15.7917C6.27809 15.8533 6.49038 15.8741 6.70058 15.853H8.32072C9.09951 15.853 9.58625 15.4 9.774 14.5011L10.9769 9.01676Z" fill="white"/>
<path d="M20.3302 4.01562H22.5623C22.6434 4.01562 22.7213 4.04793 22.7786 4.10543C22.836 4.16293 22.8682 4.24092 22.8682 4.32225V15.5627C22.8682 15.644 22.836 15.722 22.7786 15.7795C22.7213 15.837 22.6434 15.8693 22.5623 15.8693H20.3302C20.2509 15.8693 20.1749 15.8377 20.1188 15.7815C20.0628 15.7253 20.0313 15.6491 20.0313 15.5696V4.32225C20.0312 4.24212 20.0625 4.16517 20.1184 4.10786C20.1743 4.05055 20.2503 4.01745 20.3302 4.01562V4.01562Z" fill="white"/>
<path d="M39.305 4.01393C35.7587 4.01393 35.0703 6.31358 35.0703 8.89198V10.9826C35.0703 12.1324 35.2511 15.8606 38.8252 15.8606H44.2349C44.3198 15.8606 44.4011 15.8268 44.4611 15.7667C44.5211 15.7066 44.5548 15.6251 44.5548 15.5401V13.8676C44.5548 13.7826 44.5211 13.701 44.4611 13.6409C44.4011 13.5808 44.3198 13.547 44.2349 13.547H39.8751C39.6268 13.5704 39.3764 13.5414 39.1399 13.4619C38.9035 13.3824 38.6862 13.2542 38.5022 13.0855C38.3181 12.9168 38.1714 12.7114 38.0713 12.4824C37.9713 12.2534 37.9201 12.006 37.9212 11.7561V10.9895H44.5131C44.972 10.9895 45.0693 10.9408 45.0693 10.4808V8.87805C45.0693 5.78397 43.9359 4 40.8973 4L39.305 4.01393ZM42.2254 8.85714H37.9212V8.16028C37.8909 7.91656 37.9156 7.66912 37.9936 7.43628C38.0716 7.20344 38.2008 6.99117 38.3718 6.81517C38.5427 6.63917 38.751 6.50396 38.9811 6.41954C39.2112 6.33513 39.4574 6.30368 39.7013 6.32752H40.4384C40.6828 6.30256 40.9298 6.33317 41.1608 6.41708C41.3918 6.50099 41.601 6.63603 41.7727 6.81217C41.9445 6.9883 42.0744 7.20098 42.1527 7.43439C42.2311 7.66779 42.2559 7.91592 42.2254 8.16028V8.85714Z" fill="white"/>
<path d="M28.3613 8.23862C28.1662 8.16412 27.9988 8.03114 27.8818 7.8578C27.7648 7.68446 27.704 7.47919 27.7077 7.26997C27.709 7.13595 27.7381 7.00367 27.7931 6.88149C27.8481 6.75931 27.9278 6.64989 28.0271 6.56015C28.1264 6.47042 28.2433 6.40231 28.3702 6.36016C28.4972 6.31801 28.6315 6.30273 28.7646 6.31527H32.9784C33.0614 6.31527 33.141 6.28223 33.1997 6.22342C33.2583 6.16461 33.2913 6.08486 33.2913 6.00169V4.32922C33.2913 4.24605 33.2583 4.16628 33.1997 4.10748C33.141 4.04867 33.0614 4.01563 32.9784 4.01562H28.3127C26.6508 4.01562 24.8359 5.21424 24.8359 7.13758C24.8359 9.06093 25.5313 9.92504 27.2975 10.6219L30.3778 11.7996C30.5654 11.8605 30.7287 11.9799 30.8438 12.1404C30.9588 12.3009 31.0197 12.494 31.0175 12.6916C31.0177 12.8102 30.9937 12.9276 30.947 13.0366C30.9003 13.1456 30.8319 13.2439 30.746 13.3254C30.6601 13.407 30.5584 13.4701 30.4473 13.5109C30.3361 13.5517 30.2179 13.5693 30.0997 13.5627H25.3018C25.2182 13.5645 25.1386 13.5991 25.0801 13.659C25.0216 13.7189 24.9889 13.7994 24.9889 13.8832V15.5487C24.9889 15.6325 25.0216 15.7131 25.0801 15.773C25.1386 15.8329 25.2182 15.8675 25.3018 15.8693H31.0871C32.7559 15.8693 33.9241 14.5731 33.9241 12.6428C33.9912 11.9692 33.8187 11.2936 33.437 10.7351C33.0553 10.1766 32.489 9.77121 31.838 9.59054C31.2609 9.37451 28.6395 8.34315 28.3613 8.23862Z" fill="white"/>
<path d="M18.2182 4.39604L16.2225 11.6016L14.5746 4.39604C14.5611 4.34982 14.5589 4.30104 14.5682 4.25379C14.5775 4.20654 14.598 4.16224 14.628 4.12464C14.658 4.08703 14.6967 4.05721 14.7406 4.03774C14.7846 4.01827 14.8326 4.00971 14.8805 4.01277H17.9331C17.9809 4.00865 18.0289 4.01668 18.0728 4.03612C18.1167 4.05557 18.155 4.0858 18.1841 4.12402C18.2132 4.16224 18.2323 4.20722 18.2394 4.25477C18.2466 4.30232 18.2417 4.35091 18.2251 4.39604" fill="#F37321"/>
</svg>
