<svg width="20" height="20" viewBox="0 0 20 20" fill="none" xmlns="http://www.w3.org/2000/svg">
<path d="M2 4.5H17" stroke="#E5E5E5" stroke-miterlimit="10"/>
<path d="M7.5 7V13" stroke="#E5E5E5" stroke-miterlimit="10" stroke-linejoin="round"/>
<path d="M11.5 7V10" stroke="#E5E5E5" stroke-miterlimit="10" stroke-linejoin="round"/>
<path d="M6.5 5V3.5C6.5 2.99074 6.91713 2.5 7.43437 2.5H11.5656C12.0829 2.5 12.5 2.99074 12.5 3.5V5" stroke="#E5E5E5" stroke-miterlimit="10"/>
<path d="M14.4983 4.50017V7.50008V10M7.99805 15.4346H5.49788C4.94784 15.4346 4.50781 15.0143 4.50781 14.5007V4.5" stroke="#E5E5E5" stroke-miterlimit="10" stroke-linejoin="round"/>
<path d="M11.904 18L11.584 16.472H10.328L10.016 18H9L10.344 12.288H11.536L12.904 18H11.904ZM11.096 13.992C11.0747 13.8747 11.0533 13.7627 11.032 13.656C11.016 13.544 11.0027 13.4373 10.992 13.336C10.9813 13.2347 10.968 13.1387 10.952 13.048C10.9467 13.1333 10.9333 13.2267 10.912 13.328C10.896 13.4293 10.88 13.536 10.864 13.648C10.848 13.76 10.8267 13.872 10.8 13.984L10.472 15.64H11.432L11.096 13.992ZM13.4183 18V12.288H14.3623V17.176H15.8503V18H13.4183ZM16.4808 18V12.288H17.4248V17.176H18.9128V18H16.4808Z" fill="#E5E5E5"/>
</svg>
