<svg width="30" height="30" viewBox="0 0 30 30" fill="none" xmlns="http://www.w3.org/2000/svg">
<circle cx="15" cy="15" r="15" fill="#F37321"/>
<path d="M17.5439 17.7585V21.7114C17.5439 21.9454 17.4496 22.17 17.2817 22.3355C17.1139 22.5009 16.8863 22.5938 16.6489 22.5938H9.48877C9.2514 22.5938 9.02359 22.5009 8.85574 22.3355C8.6879 22.17 8.59375 21.9454 8.59375 21.7114V8.4761C8.59375 8.24209 8.6879 8.01773 8.85574 7.85225C9.02359 7.68678 9.2514 7.59375 9.48877 7.59375H16.6489C16.8863 7.59375 17.1139 7.68678 17.2817 7.85225C17.4496 8.01773 17.5439 8.24209 17.5439 8.4761V13.3114" stroke="white" stroke-miterlimit="10"/>
<path d="M14.991 18.5224L11.9824 15.5224L14.991 12.5312" stroke="white" stroke-linejoin="round"/>
<path d="M23.9662 15.5234H12.0918" stroke="white" stroke-linejoin="round"/>
</svg>
