<svg width="31" height="30" viewBox="0 0 31 30" fill="none" xmlns="http://www.w3.org/2000/svg">
<circle cx="15.9688" cy="15" r="15" fill="#F37321"/>
<path d="M18.4189 17.6647V21.6176C18.4189 21.8517 18.3246 22.0762 18.1567 22.2417C17.9889 22.4072 17.7613 22.5 17.5239 22.5H10.3638C10.1264 22.5 9.89859 22.4072 9.73074 22.2417C9.5629 22.0762 9.46875 21.8517 9.46875 21.6176V8.38235C9.46875 8.14834 9.5629 7.92398 9.73074 7.7585C9.89859 7.59303 10.1264 7.5 10.3638 7.5H17.5239C17.7613 7.5 17.9889 7.59303 18.1567 7.7585C18.3246 7.92398 18.4189 8.14834 18.4189 8.38235V13.2176" stroke="white" stroke-miterlimit="10"/>
<path d="M21.8352 12.5244L24.8438 15.5244L21.8352 18.5156" stroke="white" stroke-linejoin="round"/>
<path d="M24.8432 15.5156H12.9688" stroke="white" stroke-linejoin="round"/>
</svg>
