<svg width="31" height="30" viewBox="0 0 31 30" fill="none" xmlns="http://www.w3.org/2000/svg">
<circle cx="15.6445" cy="15" r="15" fill="#909090"/>
<circle cx="17.3555" cy="10.625" r="1.375" stroke="white"/>
<path d="M18.9562 13.7732C17.4206 11.6214 14.7105 11.3747 13.2975 11.5384C13.1076 11.5604 12.9387 11.6624 12.8178 11.8105L11.106 13.9069C10.7343 14.3621 10.7797 15.0276 11.2098 15.4281C11.6704 15.8571 12.3945 15.82 12.8089 15.3462L13.9022 14.0962L13.1102 15.6106L12.7041 17.7107L10.9658 17.7107C10.3212 17.7107 9.80409 18.2432 9.82296 18.8875C9.84107 19.5057 10.3474 19.9974 10.9658 19.9974L13.4338 19.9974C13.9095 19.9974 14.332 19.6929 14.4824 19.2415L14.8555 18.1224L16.655 21.2538C16.9701 21.802 17.6555 22.0131 18.2244 21.7372C18.7763 21.4695 18.9962 20.7974 18.7092 20.2552L16.5116 16.1044L16.7344 14.9973L18.5373 16.1042C18.5724 16.1258 18.613 16.1369 18.6542 16.1364L19.6789 16.1216C20.3293 16.1122 20.8461 15.5723 20.8271 14.9221C20.809 14.3029 20.3096 13.8061 19.6904 13.791L18.9562 13.7732Z" stroke="white" stroke-linejoin="round"/>
<path d="M10.2077 8.5H7.14453V11.5756" stroke="white" stroke-miterlimit="10" stroke-linejoin="round"/>
<path d="M21.0547 8.5H24.1266V11.5756" stroke="white" stroke-miterlimit="10" stroke-linejoin="round"/>
<path d="M21.0547 22.5581H24.1266V19.5" stroke="white" stroke-miterlimit="10" stroke-linejoin="round"/>
<path d="M10.2077 22.5573H7.14453V19.5078" stroke="white" stroke-miterlimit="10" stroke-linejoin="round"/>
</svg>
