<svg width="31" height="30" viewBox="0 0 31 30" fill="none" xmlns="http://www.w3.org/2000/svg">
<circle cx="15.4453" cy="15" r="15" fill="#F37321"/>
<path d="M17.6219 8.70941C17.6219 9.14948 17.4913 9.57966 17.2468 9.94556C17.0024 10.3115 16.655 10.5965 16.2484 10.765C15.8418 10.9334 15.3943 10.9775 14.9627 10.8916C14.5311 10.8058 14.1347 10.5938 13.8235 10.2826C13.5123 9.9714 13.3005 9.57495 13.2147 9.14333C13.1288 8.71172 13.1727 8.26443 13.3411 7.85786C13.5095 7.45128 13.7948 7.10369 14.1607 6.8592C14.5266 6.61471 14.9568 6.48438 15.3969 6.48438C15.987 6.48438 16.553 6.71875 16.9702 7.13602C17.3875 7.5533 17.6219 8.11929 17.6219 8.70941V8.70941Z" stroke="white" stroke-linejoin="round"/>
<path d="M19.2998 12.7235C19.3012 12.4702 19.2495 12.2193 19.1483 11.9875C19.0471 11.7556 18.8986 11.5476 18.7124 11.3776C18.5262 11.2076 18.3065 11.0792 18.0678 11.0006C17.829 10.9221 17.6091 10.9221 17.3268 10.9219H15.3361H13.3454C12.8449 10.9187 12.3622 11.1093 11.9968 11.4546C11.6314 11.7998 11.4112 12.2732 11.3815 12.7774L10.7656 17.2096C10.7656 17.4485 10.8595 17.6775 11.0269 17.8465C11.1943 18.0154 11.4216 18.1104 11.6583 18.1104H12.6848L12.9348 22.6144C12.9348 22.8534 13.0289 23.0824 13.1963 23.2513C13.3637 23.4203 13.5907 23.5153 13.8275 23.5153H16.8538C17.0906 23.5153 17.3176 23.4203 17.485 23.2513C17.6524 23.0824 17.7465 22.8534 17.7465 22.6144L17.9963 18.1104H19.0319C19.2687 18.1104 19.4957 18.0154 19.6631 17.8465C19.8305 17.6775 19.9246 17.4485 19.9246 17.2096L19.2998 12.7235Z" stroke="white" stroke-linejoin="round"/>
</svg>
