<svg width="31" height="30" viewBox="0 0 31 30" fill="none" xmlns="http://www.w3.org/2000/svg">
<circle cx="15.5547" cy="15" r="15" fill="#909090"/>
<path d="M13.5457 18.375H9.89169V11.949H13.5457V12.912H11.0437V14.55H13.3837V15.513H11.0437V17.403H13.5457V18.375ZM16.6922 17.556C16.8302 17.556 16.9652 17.544 17.0972 17.52C17.2352 17.49 17.3612 17.457 17.4752 17.421V18.267C17.3552 18.327 17.1992 18.375 17.0072 18.411C16.8152 18.447 16.6142 18.465 16.4042 18.465C16.1222 18.465 15.8672 18.42 15.6392 18.33C15.4172 18.24 15.2402 18.081 15.1082 17.853C14.9762 17.625 14.9102 17.304 14.9102 16.89V14.352H14.2532V13.857L14.9732 13.461L15.3332 12.426H16.0442V13.497H17.4302V14.352H16.0442V16.881C16.0442 17.109 16.1042 17.28 16.2242 17.394C16.3502 17.502 16.5062 17.556 16.6922 17.556ZM20.4295 18.465C19.7335 18.465 19.1815 18.264 18.7735 17.862C18.3715 17.46 18.1705 16.827 18.1705 15.963C18.1705 15.363 18.2695 14.877 18.4675 14.505C18.6715 14.127 18.9505 13.851 19.3045 13.677C19.6585 13.497 20.0635 13.407 20.5195 13.407C20.8195 13.407 21.0895 13.437 21.3295 13.497C21.5755 13.557 21.7825 13.629 21.9505 13.713L21.6175 14.604C21.4255 14.532 21.2365 14.472 21.0505 14.424C20.8645 14.37 20.6875 14.343 20.5195 14.343C19.7275 14.343 19.3315 14.88 19.3315 15.954C19.3315 16.476 19.4305 16.869 19.6285 17.133C19.8325 17.397 20.1235 17.529 20.5015 17.529C20.7715 17.529 21.0115 17.496 21.2215 17.43C21.4375 17.364 21.6385 17.274 21.8245 17.16V18.141C21.6385 18.255 21.4375 18.336 21.2215 18.384C21.0055 18.438 20.7415 18.465 20.4295 18.465Z" fill="white"/>
<path d="M22.7126 8.5H8.39679C7.93171 8.5 7.55469 8.88914 7.55469 9.36917V20.6684C7.55469 21.1484 7.93171 21.5375 8.39679 21.5375H22.7126C23.1777 21.5375 23.5547 21.1484 23.5547 20.6684V9.36917C23.5547 8.88914 23.1777 8.5 22.7126 8.5Z" stroke="white" stroke-linecap="round" stroke-linejoin="round"/>
</svg>
