<svg width="31" height="30" viewBox="0 0 31 30" fill="none" xmlns="http://www.w3.org/2000/svg">
<circle cx="15.4453" cy="15" r="15" fill="#F37321"/>
<g clip-path="url(#clip0_5239_211704)">
<path d="M12.6484 19.5H17.6072" stroke="white" stroke-miterlimit="10"/>
<path d="M10.5861 21.4348C11.7253 21.4348 12.6488 20.5347 12.6488 19.4244C12.6488 18.3141 11.7253 17.4141 10.5861 17.4141C9.44694 17.4141 8.52344 18.3141 8.52344 19.4244C8.52344 20.5347 9.44694 21.4348 10.5861 21.4348Z" stroke="white" stroke-linecap="round" stroke-linejoin="round"/>
<path d="M19.6955 21.4348C20.8347 21.4348 21.7582 20.5347 21.7582 19.4244C21.7582 18.3141 20.8347 17.4141 19.6955 17.4141C18.5563 17.4141 17.6328 18.3141 17.6328 19.4244C17.6328 20.5347 18.5563 21.4348 19.6955 21.4348Z" stroke="white" stroke-linecap="round" stroke-linejoin="round"/>
<path d="M21.9054 19.4988H24.0096C24.2575 19.4988 24.4952 19.3806 24.6705 19.1869C24.8458 18.9932 24.9444 18.7305 24.9444 18.4566V15.4581C24.9444 15.3221 24.9093 15.2333 24.8616 15.1079C24.814 14.9825 24.755 14.897 24.6671 14.8017C24.5793 14.7064 24.475 14.6314 24.3606 14.5811C24.2463 14.5309 24.1239 14.5065 24.0008 14.509H20.9672L17.8047 10.5883C17.5697 10.2576 17.2682 9.99209 16.9239 9.8128C16.5797 9.63351 16.2022 9.5453 15.8217 9.55548H10.0998C9.33977 9.55548 9.07778 10.2505 8.87686 10.5883L7.20841 13.8895C7.02564 14.2307 6.93469 14.6224 6.9463 15.0187V18.5405C6.9463 18.8144 7.04485 19.0771 7.22014 19.2708C7.39544 19.4645 7.63318 19.5089 7.88108 19.5089H8.64972" stroke="white" stroke-miterlimit="10"/>
<path d="M7.08789 14.5H23.239" stroke="white" stroke-miterlimit="10"/>
<path d="M12.043 9.57812V14.2355" stroke="white" stroke-miterlimit="10"/>
</g>
<defs>
<clipPath id="clip0_5239_211704">
<rect width="20" height="13.75" fill="white" transform="translate(5.44531 8.5)"/>
</clipPath>
</defs>
</svg>
