<svg width="30" height="30" viewBox="0 0 30 30" fill="none" xmlns="http://www.w3.org/2000/svg">
<path d="M10.4849 13.9998C10.4849 14.1321 10.4587 14.2632 10.4078 14.3852C10.357 14.5072 10.2825 14.6177 10.1886 14.7107C10.0947 14.8037 9.98331 14.8771 9.8609 14.9267C9.73848 14.9763 9.60702 15.0014 9.47496 14.9999C9.21008 14.9999 8.95646 14.8945 8.76916 14.707C8.58186 14.5195 8.47656 14.265 8.47656 13.9998C8.47656 13.7346 8.58186 13.4805 8.76916 13.2929C8.95646 13.1054 9.21008 13 9.47496 13C9.74084 13 9.99647 13.1049 10.1855 13.2922C10.3745 13.4794 10.4821 13.7337 10.4849 13.9998Z" fill="#5C5C5C"/>
<ellipse cx="21.5286" cy="19" rx="5.02083" ry="5" stroke="#5C5C5C"/>
<path d="M21.5312 16V22" stroke="#5C5C5C"/>
<path d="M24.5391 19L18.5141 19" stroke="#5C5C5C"/>
<path d="M14.4984 20H6.46094C5.90865 20 5.46094 19.5523 5.46094 19V11C5.46094 10.4477 5.90865 10 6.46094 10H24.5443C25.0966 10 25.5443 10.4477 25.5443 11V13" stroke="#5C5C5C"/>
</svg>
