<svg width="30" height="30" viewBox="0 0 30 30" fill="none" xmlns="http://www.w3.org/2000/svg">
<path d="M10.481 13.9998C10.481 14.1321 10.4548 14.2632 10.4039 14.3852C10.353 14.5072 10.2786 14.6177 10.1847 14.7107C10.0908 14.8037 9.9794 14.8771 9.85699 14.9267C9.73458 14.9763 9.60311 15.0014 9.47105 14.9999C9.20617 14.9999 8.95255 14.8945 8.76525 14.707C8.57796 14.5195 8.47266 14.265 8.47266 13.9998C8.47266 13.7346 8.57796 13.4805 8.76525 13.2929C8.95255 13.1054 9.20617 13 9.47105 13C9.73693 13 9.99257 13.1049 10.1816 13.2922C10.3706 13.4794 10.4782 13.7337 10.481 13.9998V13.9998Z" fill="white"/>
<ellipse cx="21.5247" cy="19" rx="5.02083" ry="5" stroke="white"/>
<path d="M21.5254 16V22" stroke="white"/>
<path d="M24.5371 19L18.5121 19" stroke="white"/>
<path d="M14.4965 20H6.45898C5.9067 20 5.45898 19.5523 5.45898 19V11C5.45898 10.4477 5.9067 10 6.45898 10H24.5423C25.0946 10 25.5423 10.4477 25.5423 11V13" stroke="white"/>
</svg>
