<svg width="30" height="30" viewBox="0 0 30 30" fill="none" xmlns="http://www.w3.org/2000/svg">
<path d="M24.0471 14.3966C24.0471 16.6172 22.2506 18.4026 20.0412 18.4026C17.8317 18.4026 16.0352 16.6061 16.0352 14.3966C16.0352 12.1872 17.8317 10.3906 20.0412 10.3906C22.2506 10.3906 24.0471 12.1872 24.0471 14.3966Z" stroke="#5C5C5C" stroke-miterlimit="10" stroke-linejoin="round"/>
<path d="M19.2497 7.6781C17.9888 6.03776 16.0583 5 13.9047 5C10.1442 5 7.09785 8.15793 7.05321 12.0747L5 15.6789L7.57767 16.3038L8.00171 20.4326L11.1485 20.466C11.1485 20.466 11.5167 20.3991 11.5167 20.9012V24.0592H18.357L18.3905 20.7227" stroke="#5C5C5C" stroke-miterlimit="10" stroke-linejoin="round"/>
<path d="M22.7422 17.0977L26.0005 20.356" stroke="#5C5C5C" stroke-miterlimit="10" stroke-linejoin="round"/>
</svg>
