<svg width="30" height="30" viewBox="0 0 30 30" fill="none" xmlns="http://www.w3.org/2000/svg">
<path d="M23.8641 15V15.5H24.8641V15H23.8641ZM12.8161 22.5H13.3161V21.5H12.8161V22.5ZM12.8161 21.5H12.0195V22.5H12.8161V21.5ZM10.8246 21.5H9.2314V22.5H10.8246V21.5ZM8.03649 21.5H7.23988V22.5H8.03649V21.5ZM7.23988 21.5C7.18301 21.5 7.12466 21.4832 7.06578 21.4445L6.51649 22.2801C6.72494 22.4171 6.97217 22.5 7.23988 22.5V21.5ZM6.83937 21.1335C6.80774 21.045 6.78906 20.944 6.78906 20.8346H5.78906C5.78906 21.0576 5.82711 21.2725 5.89771 21.4701L6.83937 21.1335ZM6.78906 20.8346V19.7233H5.78906V20.8346H6.78906ZM6.78906 18.0562V15.8335H5.78906V18.0562H6.78906ZM6.78906 14.1665V11.9438H5.78906V14.1665H6.78906ZM6.78906 10.2767V9.16537H5.78906V10.2767H6.78906ZM6.78906 9.16537C6.78906 9.05604 6.80774 8.95498 6.83937 8.86649L5.89771 8.52994C5.82711 8.72747 5.78906 8.94244 5.78906 9.16537H6.78906ZM7.06578 8.55551C7.12466 8.51681 7.18301 8.5 7.23988 8.5V7.5C6.97217 7.5 6.72493 7.58286 6.51649 7.71988L7.06578 8.55551ZM7.23988 8.5H8.16407V7.5H7.23988V8.5ZM9.55036 8.5H11.3987V7.5H9.55036V8.5ZM12.785 8.5H14.6334V7.5H12.785V8.5ZM16.0197 8.5H17.8681V7.5H16.0197V8.5ZM19.2544 8.5H21.1028V7.5H19.2544V8.5ZM22.4891 8.5H23.4132V7.5H22.4891V8.5ZM23.4132 8.5C23.4701 8.5 23.5285 8.51681 23.5873 8.55551L24.1366 7.71988C23.9282 7.58286 23.681 7.5 23.4132 7.5V8.5ZM23.8138 8.86649C23.8454 8.95498 23.8641 9.05604 23.8641 9.16537H24.8641C24.8641 8.94244 24.826 8.72747 24.7554 8.52994L23.8138 8.86649ZM23.8641 9.16537V9.99889H24.8641V9.16537H23.8641ZM23.8641 11.2492V12.9162H24.8641V11.2492H23.8641ZM23.8641 14.1665V15H24.8641V14.1665H23.8641Z" fill="white"/>
<path d="M18.6177 21.8413H16.6899L16.2866 23H15.3877L17.2676 18.0234H18.0435L19.9268 23H19.0244L18.6177 21.8413ZM16.9326 21.144H18.375L17.6538 19.0796L16.9326 21.144ZM21.3589 22.3096H23.6182V23H20.4941V18.0234H21.3589V22.3096ZM25.146 22.3096H27.4053V23H24.2812V18.0234H25.146V22.3096Z" fill="white"/>
</svg>
