<svg width="30" height="30" viewBox="0 0 30 30" fill="none" xmlns="http://www.w3.org/2000/svg">
<path d="M21.2462 11.6245C20.172 7.97945 16.7315 5.38524 12.7611 5.54026C8.07023 5.72339 4.41601 9.67454 4.59914 14.3654C4.75693 18.407 7.71197 21.6792 11.5273 22.3903" stroke="#F37321"/>
<path d="M21.2344 24.3945L21.2349 17.6859C21.2349 17.2939 21.5682 16.9766 21.9799 16.9766H23.7706C24.1823 16.9766 24.5156 17.2939 24.5156 17.6859V24.3945" stroke="#F37321" stroke-miterlimit="10" stroke-linejoin="round"/>
<path d="M17.7676 24.4639V15.1938C17.7676 14.8017 18.1282 14.4844 18.572 14.4844H20.4375C20.8813 14.4844 21.2419 14.8017 21.2419 15.1938V24.4017" stroke="#F37321" stroke-miterlimit="10" stroke-linejoin="round"/>
<path d="M14.5312 24.4344V20.1781C14.5312 19.7861 14.8549 19.4688 15.2562 19.4688H17.0426C17.4439 19.4688 17.7676 19.7861 17.7676 20.1781V24.4157" stroke="#F37321" stroke-miterlimit="10" stroke-linejoin="round"/>
<path d="M26.079 24.5L13 24.5" stroke="#F37321" stroke-miterlimit="10" stroke-linejoin="round"/>
<path d="M8.96094 6.59375L13.2344 13.9707H16.0448" stroke="#F37321"/>
</svg>
