<svg width="15" height="30" viewBox="0 0 15 30" fill="none" xmlns="http://www.w3.org/2000/svg">
<path d="M7.5 14.5C8.05386 14.5 8.5 14.9461 8.5 15.5C8.5 16.0539 8.05386 16.5 7.5 16.5C6.94614 16.5 6.5 16.0539 6.5 15.5C6.5 14.9461 6.94614 14.5 7.5 14.5Z" stroke="#E5E5E5" stroke-miterlimit="10"/>
<path d="M7.5 8.5C8.05386 8.5 8.5 8.94614 8.5 9.5C8.5 10.0539 8.05386 10.5 7.5 10.5C6.94614 10.5 6.5 10.0539 6.5 9.5C6.5 8.94614 6.94614 8.5 7.5 8.5Z" stroke="#E5E5E5" stroke-miterlimit="10" stroke-linecap="square"/>
<path d="M7.5 20.5C8.05386 20.5 8.5 20.9461 8.5 21.5C8.5 22.0539 8.05386 22.5 7.5 22.5C6.94614 22.5 6.5 22.0539 6.5 21.5C6.5 20.9461 6.94614 20.5 7.5 20.5Z" stroke="#E5E5E5" stroke-miterlimit="10"/>
</svg>
