<svg width="30" height="30" viewBox="0 0 30 30" fill="none" xmlns="http://www.w3.org/2000/svg">
<path d="M15.143 23.5H7.2086C6.60188 23.5 6.10547 23.0408 6.10547 22.4796L6.65704 19.5204C6.65704 18.9592 7.15345 18.5 7.76017 18.5H14.2643" stroke="#E5E5E5" stroke-miterlimit="10"/>
<path d="M8.11328 18V12.5318C8.11328 8.91973 11.2554 6 15.1424 6C19.0186 6 22.1713 8.91998 22.1716 12.5318V13" stroke="#E5E5E5" stroke-miterlimit="10" stroke-linejoin="round"/>
<path d="M24.9329 19.4062C24.9329 20.2714 24.6751 21.1172 24.1924 21.8366C23.7096 22.5561 23.0238 23.1167 22.221 23.4478C21.4183 23.779 20.5348 23.866 19.6826 23.6972C18.8304 23.5284 18.0476 23.1117 17.4332 22.4999C16.8188 21.8881 16.4004 21.1082 16.2309 20.2596C16.0613 19.4109 16.1485 18.5313 16.481 17.7319C16.8135 16.9325 17.3765 16.2495 18.099 15.7688C18.8214 15.288 19.6709 15.0312 20.5398 15.0312C21.7049 15.0312 22.8223 15.492 23.6462 16.3124C24.47 17.1329 24.9329 18.2459 24.9329 19.4062Z" stroke="#E5E5E5" stroke-linejoin="round"/>
<path d="M23.2812 22.9023L26.0841 26.0975" stroke="#E5E5E5" stroke-linejoin="round"/>
</svg>
