<svg width="30" height="30" viewBox="0 0 30 30" fill="none" xmlns="http://www.w3.org/2000/svg">
<path d="M15.1391 23.5H7.2047C6.59797 23.5 6.10156 23.0408 6.10156 22.4796L6.65313 19.5204C6.65313 18.9592 7.14954 18.5 7.75626 18.5H14.2604" stroke="#5C5C5C" stroke-miterlimit="10"/>
<path d="M8.10938 18V12.5318C8.10938 8.91973 11.2514 6 15.1385 6C19.0146 6 22.1674 8.91998 22.1677 12.5318V13" stroke="#5C5C5C" stroke-miterlimit="10" stroke-linejoin="round"/>
<path d="M24.9271 19.4062C24.9271 20.2714 24.6692 21.1172 24.1865 21.8366C23.7038 22.5561 23.0179 23.1167 22.2152 23.4478C21.4124 23.779 20.5289 23.866 19.6767 23.6972C18.8245 23.5284 18.0417 23.1117 17.4273 22.4999C16.8129 21.8881 16.3945 21.1082 16.225 20.2596C16.0555 19.4109 16.1427 18.5313 16.4752 17.7319C16.8077 16.9325 17.3707 16.2495 18.0931 15.7688C18.8155 15.288 19.6651 15.0312 20.5339 15.0312C21.6991 15.0312 22.8164 15.492 23.6403 16.3124C24.4642 17.1329 24.9271 18.2459 24.9271 19.4062Z" stroke="#5C5C5C" stroke-linejoin="round"/>
<path d="M23.2734 22.9023L26.0763 26.0975" stroke="#5C5C5C" stroke-linejoin="round"/>
</svg>
