<svg width="30" height="30" viewBox="0 0 30 30" fill="none" xmlns="http://www.w3.org/2000/svg">
<path d="M14.7344 4V6" stroke="white" stroke-linejoin="round"/>
<path d="M4.14844 14.0273H6.15677" stroke="white" stroke-linejoin="round"/>
<path d="M6.6582 6.5L8.07831 7.91421" stroke="white" stroke-linejoin="round"/>
<path d="M23.2266 14H25.2349" stroke="white" stroke-linejoin="round"/>
<path d="M21.2188 8L22.6389 6.58579" stroke="white" stroke-linejoin="round"/>
<path d="M20.7153 14.7454C20.7409 13.249 20.221 11.7945 19.2529 10.6535C18.2848 9.51263 16.9347 8.76343 15.4546 8.5457C14.61 8.44066 13.7526 8.51717 12.94 8.77031C12.1273 9.02345 11.378 9.44738 10.7423 10.0136C10.1065 10.5797 9.59902 11.275 9.2536 12.0533C8.90817 12.8315 8.73288 13.6746 8.73938 14.5261V18.9216L8.20132 20.3021L7.66326 21.6826C7.4959 22.1217 7.66327 23 8.73938 23H15.1945" stroke="white" stroke-linejoin="round"/>
<path d="M8.66797 19.5H15.6971" stroke="white" stroke-linejoin="round"/>
<path d="M17.7873 19.6971V21.8246L16.9199 23.0988V23.9481H24.7336V23.0988L23.8624 21.8246V19.6971C23.8748 19.3034 23.8048 18.9113 23.6567 18.5451C23.5085 18.1789 23.2854 17.8461 23.001 17.5676C22.7166 17.289 22.377 17.0705 22.003 16.9254C21.6291 16.7804 21.2288 16.7118 20.8268 16.724C19.5219 16.724 17.7873 17.937 17.7873 19.6971Z" stroke="white" stroke-linecap="round" stroke-linejoin="round"/>
<path d="M20.8272 25.8016C21.4437 25.8016 21.9434 25.3039 21.9434 24.69C21.9434 24.3905 21.8245 24.1491 21.6311 23.9492H20.0232C19.8299 24.1491 19.7109 24.3905 19.7109 24.69C19.7109 25.3039 20.2107 25.8016 20.8272 25.8016Z" stroke="white"/>
</svg>
