<svg width="30" height="30" viewBox="0 0 30 30" fill="none" xmlns="http://www.w3.org/2000/svg">
<path d="M14.7344 4V6" stroke="#F37321" stroke-linejoin="round"/>
<path d="M4.14844 14.0273H6.15677" stroke="#F37321" stroke-linejoin="round"/>
<path d="M6.65625 6.5L8.07636 7.91421" stroke="#F37321" stroke-linejoin="round"/>
<path d="M23.2266 14H25.2349" stroke="#F37321" stroke-linejoin="round"/>
<path d="M21.2188 8L22.6389 6.58579" stroke="#F37321" stroke-linejoin="round"/>
<path d="M20.7172 14.7454C20.7428 13.249 20.223 11.7945 19.2549 10.6535C18.2868 9.51263 16.9366 8.76343 15.4566 8.5457C14.6119 8.44066 13.7546 8.51717 12.9419 8.77031C12.1293 9.02345 11.3799 9.44738 10.7442 10.0136C10.1085 10.5797 9.60097 11.275 9.25555 12.0533C8.91013 12.8315 8.73483 13.6746 8.74133 14.5261V18.9216L8.20327 20.3021L7.66522 21.6826C7.49785 22.1217 7.66522 23 8.74134 23H15.1965" stroke="#F37321" stroke-linejoin="round"/>
<path d="M8.66406 19.5H15.6932" stroke="#F37321" stroke-linejoin="round"/>
<path d="M17.7892 19.6971V21.8246L16.9219 23.0988V23.9481H24.7355V23.0988L23.8643 21.8246V19.6971C23.8768 19.3034 23.8068 18.9113 23.6586 18.5451C23.5105 18.1789 23.2873 17.8461 23.0029 17.5676C22.7185 17.289 22.3789 17.0705 22.005 16.9254C21.631 16.7804 21.2307 16.7118 20.8287 16.724C19.5238 16.724 17.7892 17.937 17.7892 19.6971Z" stroke="#F37321" stroke-linecap="round" stroke-linejoin="round"/>
<path d="M20.8272 25.8016C21.4437 25.8016 21.9434 25.3039 21.9434 24.69C21.9434 24.3905 21.8245 24.1491 21.6311 23.9492H20.0232C19.8299 24.1491 19.7109 24.3905 19.7109 24.69C19.7109 25.3039 20.2107 25.8016 20.8272 25.8016Z" stroke="#F37321"/>
</svg>
