<svg width="30" height="30" viewBox="0 0 30 30" fill="none" xmlns="http://www.w3.org/2000/svg">
<path d="M22.5329 14.9833C22.5317 15.2257 22.5172 15.4679 22.4896 15.7087L24.1739 17.0223C24.2684 17.0965 24.3329 17.2023 24.3553 17.3201C24.3778 17.438 24.3567 17.5599 24.2959 17.6634L22.1451 21.3395C22.022 21.5513 21.7602 21.6414 21.5328 21.5513L19.5208 20.7651C19.1331 21.0404 18.7189 21.2768 18.2844 21.4709L17.9695 23.5755C17.9522 23.6933 17.893 23.801 17.8026 23.8789C17.7123 23.9569 17.5968 23.9998 17.4773 24H13.1756C12.9295 24 12.7189 23.8196 12.6835 23.5755L12.3695 21.4699C11.9452 21.2797 11.5327 21.0435 11.1361 20.7641L9.12206 21.5513C8.89369 21.6405 8.63382 21.5513 8.50979 21.3405L6.357 17.6644C6.2963 17.5606 6.27532 17.4385 6.29793 17.3205C6.32054 17.2025 6.38522 17.0966 6.48005 17.0223L8.16034 15.7117C8.13278 15.4558 8.119 15.2157 8.119 14.9833C8.11957 14.7511 8.13271 14.5191 8.15837 14.2883L6.48005 12.9777C6.38547 12.9035 6.32095 12.7978 6.29835 12.68C6.27574 12.5622 6.29657 12.4403 6.357 12.3366L8.50979 8.6605C8.56983 8.5584 8.66448 8.48099 8.77671 8.44218C8.88894 8.40336 9.0114 8.4057 9.12206 8.44876L11.1026 9.22318C11.5022 8.93596 11.9275 8.69285 12.3744 8.49483L12.6835 6.42349C12.7007 6.30579 12.76 6.19822 12.8503 6.12045C12.9407 6.04269 13.0562 5.99993 13.1756 6H17.4773C17.5969 5.99969 17.7126 6.04235 17.8032 6.12013C17.8938 6.19792 17.9531 6.30562 17.9704 6.42349L18.2776 8.49581C18.7248 8.6949 19.1503 8.9393 19.5474 9.22514L21.5318 8.44876C21.7582 8.36053 22.0201 8.44876 22.1441 8.66148L24.2949 12.3375C24.3557 12.4411 24.3768 12.563 24.3543 12.6808C24.3319 12.7987 24.2675 12.9044 24.1729 12.9787L22.4936 14.2903C22.5191 14.5363 22.5329 14.7647 22.5329 14.9833Z" stroke="#5C5C5C"/>
<path d="M13.5488 13.2336C14.0197 12.7648 14.6584 12.5008 15.325 12.5C15.9916 12.5008 16.6303 12.7648 17.1012 13.2336C17.572 13.7022 17.8365 14.3373 17.8375 14.9993C17.8369 15.6615 17.5725 16.2969 17.1018 16.7659C16.6309 17.2349 15.9919 17.4992 15.325 17.5C14.6581 17.4992 14.0191 17.2349 13.5482 16.7659C13.0774 16.2968 12.8131 15.6614 12.8125 14.9992C12.8135 14.3372 13.0781 13.7022 13.5488 13.2336Z" stroke="#5C5C5C"/>
</svg>
