<svg width="30" height="30" viewBox="0 0 30 30" fill="none" xmlns="http://www.w3.org/2000/svg">
<path d="M7.21875 10.9844H4.21875V13.9844H7.21875V10.9844Z" fill="#E5E5E5"/>
<path d="M25.25 10.9844H22.25V13.9844H25.25V10.9844Z" fill="#E5E5E5"/>
<path d="M13.4681 22.5039H9.53719L6.34961 12.696L14.697 6.64062L23.0618 12.495" stroke="#E5E5E5" stroke-miterlimit="10" stroke-linejoin="round"/>
<path d="M16.2187 5H13.2188V8H16.2187V5Z" fill="#E5E5E5"/>
<path d="M11.2187 21H8.21875V24H11.2187V21Z" fill="#E5E5E5"/>
<path d="M23.5052 19.4062C23.5052 20.2714 23.2473 21.1172 22.7646 21.8366C22.2819 22.5561 21.596 23.1167 20.7933 23.4478C19.9905 23.779 19.107 23.866 18.2548 23.6972C17.4026 23.5284 16.6198 23.1117 16.0054 22.4999C15.391 21.8881 14.9726 21.1082 14.8031 20.2596C14.6336 19.4109 14.7208 18.5313 15.0533 17.7319C15.3858 16.9325 15.9488 16.2495 16.6712 15.7688C17.3937 15.288 18.2432 15.0312 19.1121 15.0312C20.2772 15.0312 21.3945 15.492 22.2184 16.3124C23.0423 17.1329 23.5052 18.2459 23.5052 19.4062Z" stroke="#E5E5E5" stroke-linejoin="round"/>
<path d="M21.8535 22.9062L24.6564 26.1014" stroke="#E5E5E5" stroke-linejoin="round"/>
</svg>
