<svg width="30" height="30" viewBox="0 0 30 30" fill="none" xmlns="http://www.w3.org/2000/svg">
<path d="M25.5 18.9812C25.5 19.8675 25.2359 20.7338 24.7414 21.4708C24.247 22.2077 23.5444 22.782 22.7222 23.1211C21.8999 23.4603 20.9949 23.5495 20.122 23.3766C19.2491 23.2037 18.4473 22.7769 17.818 22.1502C17.1886 21.5234 16.76 20.7247 16.5864 19.8554C16.4128 18.9861 16.5021 18.0852 16.8427 17.2663C17.1833 16.4475 17.7599 15.7478 18.4999 15.2554C19.2399 14.763 20.1101 14.5 21.0001 14.5C22.1935 14.5 23.338 14.9719 24.1819 15.8123C25.0258 16.6527 25.5 17.7927 25.5 18.9812Z" stroke="white" stroke-linejoin="round"/>
<path d="M23.6328 22.3711L26.4356 25.5663" stroke="white" stroke-linejoin="round"/>
<rect x="5" y="5" width="15" height="1.5" fill="white"/>
<rect x="12" y="5" width="1.5" height="18" fill="white"/>
</svg>
