<svg width="30" height="30" viewBox="0 0 30 30" fill="none" xmlns="http://www.w3.org/2000/svg">
<path d="M23.575 13V13.5H24.575V13H23.575ZM13.8325 22.5H14.3325V21.5H13.8325V22.5ZM6.95082 8.5H23.1242V7.5H6.95082V8.5ZM23.1242 8.5C23.2829 8.5 23.575 8.69799 23.575 9.16537H24.575C24.575 8.34552 24.0157 7.5 23.1242 7.5V8.5ZM23.575 9.16537V13H24.575V9.16537H23.575ZM6.95082 21.5C6.79213 21.5 6.5 21.302 6.5 20.8346H5.5C5.5 21.6545 6.05926 22.5 6.95082 22.5V21.5ZM6.5 20.8346V9.16537H5.5V20.8346H6.5ZM6.5 9.16537C6.5 8.69799 6.79213 8.5 6.95082 8.5V7.5C6.05926 7.5 5.5 8.34552 5.5 9.16537H6.5ZM13.8325 21.5H6.95082V22.5H13.8325V21.5Z" fill="#E5E5E5"/>
<ellipse cx="22.0677" cy="21" rx="5.02083" ry="5" stroke="#E5E5E5"/>
<path d="M22.0664 18V19" stroke="#E5E5E5"/>
<path d="M22.0664 20V23.5" stroke="#E5E5E5"/>
</svg>
