<svg width="30" height="30" viewBox="0 0 30 30" fill="none" xmlns="http://www.w3.org/2000/svg">
<path d="M19.8848 7C21.3835 7.8519 22.6347 9.07604 23.5165 10.5533C24.3982 12.0305 24.8803 13.7103 24.9156 15.4284C24.9509 17.1466 24.5382 18.8444 23.7179 20.3563C22.8976 21.8682 21.6977 23.1424 20.2352 24.0546" stroke="#F37321" stroke-linejoin="round"/>
<path d="M16.9004 12.1484C17.4938 12.484 17.9898 12.9669 18.3401 13.5501C18.6903 14.1334 18.8828 14.7972 18.8988 15.4766C18.9148 16.156 18.7539 16.8278 18.4316 17.4268C18.1092 18.0258 17.6365 18.5314 17.0595 18.8943" stroke="#F37321" stroke-linejoin="round"/>
<path d="M18.3652 9.63281C19.3982 10.224 20.2602 11.0711 20.8675 12.0918C21.4749 13.1126 21.807 14.2725 21.8316 15.4587C21.8561 16.645 21.5723 17.8174 21.0078 18.8623C20.4432 19.9071 19.6171 20.7888 18.6094 21.4219" stroke="#F37321" stroke-linejoin="round"/>
<path d="M14.3318 8.64844L8.77892 11.9472H6.89963C6.61804 11.9472 6.34793 12.0587 6.14882 12.2569C5.9497 12.4552 5.83789 12.7241 5.83789 13.0045V18.1009C5.83789 18.3813 5.9497 18.6502 6.14882 18.8485C6.34793 19.0468 6.61804 19.1582 6.89963 19.1582H8.76829L14.3318 22.4252V8.64844Z" stroke="#F37321" stroke-linejoin="round"/>
</svg>
