<svg width="30" height="30" viewBox="0 0 30 30" fill="none" xmlns="http://www.w3.org/2000/svg">
<path d="M19.8828 7C21.3815 7.8519 22.6328 9.07604 23.5145 10.5533C24.3962 12.0305 24.8783 13.7103 24.9136 15.4284C24.9489 17.1466 24.5362 18.8444 23.7159 20.3563C22.8956 21.8682 21.6957 23.1424 20.2333 24.0546" stroke="#5C5C5C" stroke-linejoin="round"/>
<path d="M16.8984 12.1484C17.4919 12.484 17.9879 12.9669 18.3381 13.5501C18.6883 14.1334 18.8808 14.7972 18.8968 15.4766C18.9129 16.156 18.7519 16.8278 18.4296 17.4268C18.1073 18.0258 17.6345 18.5314 17.0576 18.8943" stroke="#5C5C5C" stroke-linejoin="round"/>
<path d="M18.3633 9.63281C19.3963 10.224 20.2582 11.0711 20.8656 12.0918C21.4729 13.1126 21.805 14.2725 21.8296 15.4587C21.8542 16.645 21.5704 17.8174 21.0058 18.8623C20.4413 19.9071 19.6151 20.7888 18.6075 21.4219" stroke="#5C5C5C" stroke-linejoin="round"/>
<path d="M14.3298 8.64844L8.77697 11.9472H6.89767C6.61608 11.9472 6.34598 12.0587 6.14686 12.2569C5.94775 12.4552 5.83594 12.7241 5.83594 13.0045V18.1009C5.83594 18.3813 5.94775 18.6502 6.14686 18.8485C6.34598 19.0468 6.61608 19.1582 6.89767 19.1582H8.76634L14.3298 22.4252V8.64844Z" stroke="#5C5C5C" stroke-linejoin="round"/>
</svg>
