<svg width="30" height="30" viewBox="0 0 30 30" fill="none" xmlns="http://www.w3.org/2000/svg">
<path d="M16.8994 12.0234C17.4928 12.359 17.9888 12.8419 18.3391 13.4251C18.6893 14.0084 18.8818 14.6722 18.8978 15.3516C18.9139 16.031 18.7529 16.7028 18.4306 17.3018C18.1083 17.9008 17.6355 18.4064 17.0586 18.7693" stroke="#F37321" stroke-linejoin="round"/>
<path d="M14.3298 8.52344L8.77697 11.8222H6.89767C6.61608 11.8222 6.34598 11.9337 6.14686 12.1319C5.94775 12.3302 5.83594 12.5991 5.83594 12.8795V17.9759C5.83594 18.2563 5.94775 18.5252 6.14686 18.7235C6.34598 18.9218 6.61608 19.0332 6.89767 19.0332H8.76634L14.3298 22.3002V8.52344Z" stroke="#F37321" stroke-linejoin="round"/>
</svg>
