<svg width="16" height="16" viewBox="0 0 16 16" fill="none" xmlns="http://www.w3.org/2000/svg">
<g clip-path="url(#clip0_2715_47497)">
<path d="M8.47511 1.34766L6.45312 4.70834L9.27694 5.56594L7.15734 7.97141L8.32172 9.24039" stroke="#E5E5E5" stroke-width="0.75" stroke-linejoin="round"/>
<path d="M11.3396 14.5664H4.36719" stroke="#E5E5E5" stroke-width="0.75" stroke-linejoin="round"/>
<path d="M12.4567 7.18366C12.4567 7.02329 12.4566 6.856 12.4009 6.70261C12.2056 5.13382 11.7036 1.97548 11.7036 1.97548C11.6959 1.87614 11.6672 1.77947 11.619 1.69223C11.5709 1.60499 11.5046 1.52904 11.4246 1.46958C11.3447 1.41011 11.2529 1.36871 11.1555 1.3477C11.0581 1.32669 10.9573 1.32682 10.86 1.34804H4.94045C4.74753 1.33195 4.55532 1.38672 4.39999 1.50226C4.24466 1.6178 4.13691 1.78609 4.09682 1.97548C4.09682 1.97548 3.60875 5.13382 3.39958 6.70261C3.36686 6.86101 3.34814 7.02196 3.34375 7.18366C3.34375 7.31613 3.34375 7.42083 3.34375 7.46963C3.42212 8.62654 3.937 9.71061 4.78419 10.5023C5.63137 11.2941 6.74756 11.7344 7.90712 11.7344C9.06667 11.7344 10.183 11.2941 11.0302 10.5023C11.8774 9.71061 12.3923 8.62654 12.4707 7.46963C12.4776 7.42083 12.4706 7.31613 12.4567 7.18366Z" stroke="#E5E5E5" stroke-width="0.75" stroke-linejoin="round"/>
<path d="M7.91016 11.7852V14.5671" stroke="#E5E5E5" stroke-width="0.75" stroke-linejoin="round"/>
</g>
<defs>
<clipPath id="clip0_2715_47497">
<rect width="9.82408" height="13.9169" fill="white" transform="translate(3 1)"/>
</clipPath>
</defs>
</svg>
