<svg width="16" height="16" viewBox="0 0 16 16" fill="none" xmlns="http://www.w3.org/2000/svg">
<path d="M7.4969 1.14062L9.42809 5.43538C9.42809 5.43538 9.90233 6.67665 7.81062 6.67665C6.82751 6.67665 7.17602 6.63472 7.00171 6.75325V8.33599C7.00171 8.33599 5.85835 8.08484 5.37029 8.00814C4.05251 7.81292 3.2786 8.12689 3.13218 9.97457C2.89512 12.5753 5.10532 12.4915 6.91813 11.9546C6.91813 11.9546 7.61536 14.4787 5.68401 14.4787C2.89506 14.4787 1.01953 14.3742 1.01953 14.3742" stroke="#E5E5E5" stroke-width="0.75" stroke-linejoin="round"/>
<path d="M10.7461 10.3516H13.542" stroke="#E5E5E5" stroke-width="0.75" stroke-linejoin="round"/>
<path d="M8.71094 11.4102L11.472 12.7907" stroke="#E5E5E5" stroke-width="0.75" stroke-linejoin="round"/>
<path d="M11.4011 7.92969L8.66797 9.28233" stroke="#E5E5E5" stroke-width="0.75" stroke-linejoin="round"/>
</svg>
