<svg width="16" height="16" viewBox="0 0 16 16" fill="none" xmlns="http://www.w3.org/2000/svg">
<path d="M9.90837 6.93359C9.90837 6.93359 9.85961 8.67685 8.73008 9.36712C7.97859 9.66841 7.16221 9.77143 6.35938 9.66671" stroke="#E5E5E5" stroke-width="0.75" stroke-linejoin="round"/>
<path d="M6.62109 7.23047C6.62109 7.23047 7.38799 8.05315 7.94578 8.56911" stroke="#E5E5E5" stroke-width="0.75" stroke-linejoin="round"/>
<path d="M12.992 6.93194H7.8812C7.54593 6.92789 7.22048 7.04475 6.96437 7.26116C6.70827 7.47756 6.53867 7.77899 6.48672 8.11023L5.88719 11.5964C5.84855 11.839 5.72353 12.0595 5.53517 12.2171C5.34681 12.3747 5.10783 12.4588 4.86228 12.454H2.35215C2.14644 12.447 1.9474 12.3792 1.78037 12.2589C1.58917 12.099 1.45325 11.8829 1.39192 11.6414C1.33058 11.3998 1.34696 11.1449 1.43873 10.9131C1.5991 10.453 2.22661 9.02372 2.83321 7.69897C3.22366 6.85531 1.51556 5.21687 2.27555 4.45689C2.53583 4.09409 2.88615 3.80525 3.29213 3.61938C3.69811 3.43351 4.14556 3.35704 4.59026 3.39707H14.2261C14.3463 3.41205 14.4573 3.4688 14.5399 3.55742C14.6136 3.63635 14.6638 3.73436 14.6847 3.84033C14.7057 3.9463 14.6967 4.0559 14.6585 4.15695C14.5609 4.58227 14.1773 5.50277 13.8705 6.40221C13.8775 6.3534 13.7799 6.93194 12.992 6.93194Z" stroke="#E5E5E5" stroke-width="0.75" stroke-linejoin="round"/>
</svg>
