<svg width="16" height="16" viewBox="0 0 16 16" fill="none" xmlns="http://www.w3.org/2000/svg">
<g clip-path="url(#clip0_2715_47244)">
<path fill-rule="evenodd" clip-rule="evenodd" d="M9.2128 8.14351C9.2128 8.35036 9.15154 8.5525 9.03662 8.72449C8.9217 8.89648 8.75825 9.03055 8.56714 9.1097C8.37604 9.18886 8.16572 9.20964 7.96285 9.16928C7.75997 9.12893 7.57359 9.02923 7.42732 8.88297C7.28105 8.7367 7.18153 8.55049 7.14117 8.34761C7.10082 8.14473 7.12159 7.93442 7.20075 7.74332C7.27991 7.55221 7.41398 7.38876 7.58597 7.27384C7.75796 7.15892 7.96009 7.09766 8.16694 7.09766C8.44432 7.09766 8.71026 7.20792 8.9064 7.40406C9.10253 7.6002 9.2128 7.86613 9.2128 8.14351Z" fill="#E5E5E5"/>
<path d="M8.10156 1.5V4.98619" stroke="#E5E5E5" stroke-width="0.75" stroke-miterlimit="10"/>
<path d="M11.2617 8.125H14.7479" stroke="#E5E5E5" stroke-width="0.75" stroke-miterlimit="10"/>
<path d="M1.5 8.125H4.98619" stroke="#E5E5E5" stroke-width="0.75" stroke-miterlimit="10"/>
<path d="M8.51388 13.0269H8.19318C7.22788 13.0269 6.28413 12.7407 5.48151 12.2044C4.67889 11.6681 4.05335 10.9058 3.68394 10.014C3.31454 9.12213 3.21799 8.14078 3.40631 7.19403C3.59463 6.24727 4.05948 5.37771 4.74206 4.69514C5.42463 4.01256 6.29419 3.54771 7.24095 3.35939C8.1877 3.17107 9.16905 3.26779 10.0609 3.6372C10.9527 4.0066 11.715 4.63214 12.2513 5.43476C12.7876 6.23738 13.0738 7.18096 13.0738 8.14626" stroke="#E5E5E5" stroke-width="0.75" stroke-miterlimit="10"/>
<path d="M13.0393 14.0518L12.7116 12.985H11.08L10.7523 14.0518H9.73438L11.3101 9.55469H12.4745L14.0642 14.0518H13.0393ZM12.4884 12.1903C12.1886 11.2281 12.0143 10.6772 11.9795 10.5517L11.8959 10.2519C11.8331 10.5169 11.6378 11.1584 11.3171 12.1903H12.4884Z" fill="#E5E5E5"/>
</g>
<defs>
<clipPath id="clip0_2715_47244">
<rect width="13.2475" height="12.5503" fill="white" transform="translate(1.5 1.5)"/>
</clipPath>
</defs>
</svg>
