<svg width="16" height="16" viewBox="0 0 16 16" fill="none" xmlns="http://www.w3.org/2000/svg">
<path d="M7.14157 12.8928H1.9751C1.80867 12.8928 1.64901 12.8266 1.53133 12.7089C1.41365 12.5912 1.34766 12.4317 1.34766 12.2653L1.66138 10.7173C1.66138 10.5509 1.72754 10.3914 1.84522 10.2737C1.9629 10.156 2.1224 10.0898 2.28882 10.0898H5.53806" stroke="#E5E5E5" stroke-width="0.75" stroke-miterlimit="10"/>
<path d="M2.67578 10.1014V6.19682C2.67578 5.16867 3.08416 4.18272 3.81118 3.45571C4.53819 2.7287 5.52431 2.32031 6.55246 2.32031V2.32031C7.53054 2.32117 8.47219 2.69173 9.18855 3.35766C9.90491 4.02359 10.3431 4.9356 10.4152 5.91102" stroke="#E5E5E5" stroke-width="0.75" stroke-linejoin="round"/>
<path d="M10.7948 7.64844L11.8685 9.83079L14.274 10.1794L12.5379 11.8737L12.9423 14.2722L10.7948 13.1427L8.64032 14.2722L9.05169 11.8737L7.30859 10.1794L9.71406 9.83079L10.7948 7.64844Z" stroke="#E5E5E5" stroke-width="0.75" stroke-linejoin="round"/>
</svg>
