<svg width="16" height="16" viewBox="0 0 16 16" fill="none" xmlns="http://www.w3.org/2000/svg">
<path d="M12.2109 2.39844H14.6657V4.87428" stroke="#E5E5E5" stroke-width="0.75" stroke-miterlimit="10" stroke-linejoin="round"/>
<path d="M3.79545 2.39844H1.34766V4.87428" stroke="#E5E5E5" stroke-width="0.75" stroke-miterlimit="10" stroke-linejoin="round"/>
<path d="M12.2109 12.9392H14.6657V10.4844" stroke="#E5E5E5" stroke-width="0.75" stroke-miterlimit="10" stroke-linejoin="round"/>
<path d="M3.79545 12.94H1.34766V10.4922" stroke="#E5E5E5" stroke-width="0.75" stroke-miterlimit="10" stroke-linejoin="round"/>
<path d="M12.2383 11.5321C12.2383 11.5321 12.0279 11.2305 9.85363 10.1293C9.79752 10.1013 9.78349 9.13337 9.78349 9.13337C9.78349 9.13337 10.4358 8.55123 10.4989 8.06027C10.4989 8.06027 11.046 7.54826 11.0249 7.0573C11.0039 6.57336 10.8636 6.27878 10.7093 6.13851C10.7093 6.13851 10.7163 3.18573 8.0511 3.10156C5.30172 3.1717 5.3929 6.13851 5.3929 6.13851C5.2386 6.27878 4.94402 6.53127 4.94402 7.0573C4.94402 7.73062 5.60331 8.05325 5.60331 8.05325C5.66643 8.54421 6.31871 9.12635 6.31871 9.12635C6.31871 9.12635 6.3117 10.0942 6.24857 10.1223C4.03925 11.0692 3.80078 11.525 3.80078 11.525H12.2383V11.5321Z" stroke="#E5E5E5" stroke-width="0.75" stroke-miterlimit="10" stroke-linejoin="round"/>
</svg>
