<svg width="16" height="16" viewBox="0 0 16 16" fill="none" xmlns="http://www.w3.org/2000/svg">
<circle cx="9.5" cy="4.5" r="1.125" stroke="#E5E5E5" stroke-width="0.75"/>
<path d="M10.7806 7.0209C9.55212 5.29948 7.38406 5.10214 6.25364 5.23307C6.10173 5.25067 5.96656 5.3323 5.86985 5.45075L4.50042 7.12788C4.2031 7.49202 4.23941 8.0244 4.58343 8.3448C4.95192 8.68798 5.53127 8.65832 5.86278 8.27928L6.73739 7.27929L6.10379 8.49078L5.77891 10.1709L4.38827 10.1709C3.87262 10.1709 3.4589 10.5969 3.474 11.1124C3.48848 11.6069 3.89354 12.0002 4.38827 12.0002L6.36263 12.0002C6.74326 12.0002 7.08119 11.7567 7.20156 11.3956L7.5 10.5002L8.93966 13.0054C9.19169 13.444 9.74002 13.6128 10.1951 13.3921C10.6367 13.1779 10.8126 12.6402 10.583 12.2065L8.8249 8.8859L9.00316 8.00018L10.4455 8.88572C10.4736 8.90299 10.506 8.9119 10.539 8.91142L11.3587 8.8996C11.8791 8.8921 12.2925 8.46015 12.2773 7.94C12.2628 7.44466 11.8633 7.0472 11.3679 7.03517L10.7806 7.0209Z" stroke="#E5E5E5" stroke-width="0.75" stroke-linejoin="round"/>
<path d="M12.207 3.0625H14.6646V5.52296" stroke="#E5E5E5" stroke-width="0.75" stroke-miterlimit="10" stroke-linejoin="round"/>
<path d="M3.78256 3.0625H1.33203V5.52296" stroke="#E5E5E5" stroke-width="0.75" stroke-miterlimit="10" stroke-linejoin="round"/>
<path d="M12.207 13.5442H14.6646V11.0977" stroke="#E5E5E5" stroke-width="0.75" stroke-miterlimit="10" stroke-linejoin="round"/>
<path d="M3.78256 13.545H1.33203V11.1055" stroke="#E5E5E5" stroke-width="0.75" stroke-miterlimit="10" stroke-linejoin="round"/>
</svg>
