<svg width="16" height="16" viewBox="0 0 16 16" fill="none" xmlns="http://www.w3.org/2000/svg">
<path d="M9.52313 3.15244C9.54198 3.19082 9.55312 3.23254 9.55581 3.27522C9.5585 3.3179 9.55272 3.36073 9.53884 3.40117C9.52495 3.44162 9.50324 3.47892 9.47491 3.51095C9.44657 3.54297 9.41215 3.56901 9.3737 3.58772C9.29513 3.62359 9.20565 3.62748 9.12433 3.59835C9.04302 3.56922 8.97619 3.50939 8.93826 3.43179C8.91963 3.39301 8.90893 3.35102 8.90669 3.30806C8.90446 3.2651 8.91074 3.22213 8.92525 3.18163C8.93976 3.14113 8.96224 3.10378 8.99124 3.07201C9.02025 3.04024 9.05534 3.01463 9.09435 2.99651C9.13265 2.978 9.17418 2.96741 9.21666 2.96525C9.25914 2.9631 9.30168 2.96944 9.34166 2.98397C9.38163 2.99851 9.41819 3.02087 9.44937 3.04981C9.48054 3.07874 9.50567 3.11365 9.52313 3.15244Z" fill="#E5E5E5"/>
<path d="M8.2433 3.77533C8.27094 3.83354 8.28067 3.89861 8.27122 3.96236C8.26176 4.0261 8.23352 4.08569 8.19015 4.13336C8.14679 4.18104 8.09028 4.21469 8.02772 4.23013C7.96515 4.24557 7.89935 4.242 7.83879 4.21998C7.77822 4.19795 7.72564 4.15842 7.68761 4.1064C7.64958 4.05437 7.62788 3.99232 7.62527 3.92793C7.62266 3.86354 7.63916 3.79981 7.67286 3.74487C7.70655 3.68994 7.75578 3.64625 7.81436 3.6194C7.89199 3.58381 7.98061 3.58022 8.06087 3.6094C8.14113 3.63859 8.20666 3.69819 8.2433 3.77533Z" fill="#E5E5E5"/>
<path d="M9.56414 4.46854C9.60119 4.54695 9.60544 4.6369 9.5762 4.71855C9.54695 4.80019 9.48662 4.86678 9.40821 4.90383C9.3298 4.94088 9.23985 4.94529 9.1582 4.91604C9.07656 4.8868 9.00981 4.8263 8.97276 4.74789C8.93571 4.66948 8.93131 4.57953 8.96055 4.49789C8.98979 4.41625 9.05029 4.34966 9.1287 4.31261C9.20711 4.27556 9.29706 4.27115 9.3787 4.30039C9.46034 4.32964 9.52709 4.39013 9.56414 4.46854Z" fill="#E5E5E5"/>
<path d="M10.8613 3.78041C10.88 3.81918 10.8907 3.86134 10.8929 3.9043C10.8951 3.94726 10.8889 3.99023 10.8743 4.03073C10.8598 4.07123 10.8374 4.10841 10.8084 4.14018C10.7794 4.17195 10.7444 4.19757 10.7054 4.21569C10.6289 4.24572 10.5439 4.24581 10.4675 4.21569C10.391 4.18557 10.3289 4.12753 10.2934 4.05341C10.258 3.97929 10.252 3.89448 10.2766 3.8161C10.3012 3.73772 10.3545 3.67159 10.4259 3.63098C10.4643 3.61213 10.506 3.60099 10.5487 3.5983C10.5914 3.59561 10.6342 3.60139 10.6746 3.61527C10.7151 3.62916 10.7524 3.65087 10.7844 3.6792C10.8164 3.70753 10.8426 3.74196 10.8613 3.78041Z" fill="#E5E5E5"/>
<path d="M12.1417 3.14463C12.1694 3.20284 12.1791 3.26791 12.1697 3.33165C12.1602 3.3954 12.132 3.45499 12.0886 3.50266C12.0452 3.55033 11.9887 3.58398 11.9262 3.59942C11.8636 3.61487 11.7978 3.61129 11.7372 3.58927C11.6767 3.56725 11.6241 3.52771 11.586 3.47569C11.548 3.42367 11.5263 3.36162 11.5237 3.29723C11.5211 3.23284 11.5376 3.1691 11.5713 3.11417C11.605 3.05924 11.6542 3.01555 11.7128 2.98869C11.7511 2.97018 11.7928 2.9596 11.8353 2.95744C11.8777 2.95529 11.9203 2.96162 11.9603 2.97616C12.0002 2.9907 12.0368 3.01305 12.068 3.04199C12.0991 3.07093 12.1243 3.10584 12.1417 3.14463Z" fill="#E5E5E5"/>
<path d="M10.841 5.12525C10.8686 5.18346 10.8783 5.24853 10.8689 5.31227C10.8594 5.37602 10.8312 5.43545 10.7878 5.48312C10.7445 5.53079 10.6879 5.5646 10.6254 5.58004C10.5628 5.59549 10.497 5.59191 10.4364 5.56989C10.3759 5.54787 10.3233 5.50833 10.2853 5.45631C10.2472 5.40429 10.2255 5.34208 10.2229 5.27769C10.2203 5.2133 10.2368 5.14972 10.2705 5.09479C10.3042 5.03986 10.3534 4.99617 10.412 4.96931C10.4503 4.95081 10.492 4.94006 10.5345 4.9379C10.577 4.93575 10.6195 4.94224 10.6595 4.95678C10.6995 4.97132 10.736 4.99367 10.7672 5.02261C10.7984 5.05155 10.8235 5.08646 10.841 5.12525Z" fill="#E5E5E5"/>
<path d="M12.1429 4.42588C12.1616 4.46378 12.1724 4.50504 12.1751 4.54723C12.1777 4.58942 12.1718 4.63168 12.1579 4.6716C12.144 4.71152 12.1224 4.74835 12.0942 4.77978C12.0659 4.81122 12.0316 4.8366 11.9934 4.85466C11.9546 4.87672 11.9117 4.89068 11.8673 4.89543C11.8229 4.90017 11.7781 4.89561 11.7355 4.88226C11.6929 4.86891 11.6536 4.84693 11.6198 4.8177C11.5861 4.78846 11.5588 4.75262 11.5396 4.71237C11.5203 4.67211 11.5096 4.62831 11.508 4.58372C11.5064 4.53912 11.5142 4.49467 11.5305 4.45316C11.5469 4.41165 11.5716 4.37397 11.6032 4.34244C11.6348 4.31091 11.6724 4.28625 11.7139 4.26994C11.7522 4.25143 11.7939 4.24085 11.8364 4.23869C11.8789 4.23654 11.9214 4.24287 11.9614 4.25741C12.0014 4.27195 12.0379 4.2943 12.0691 4.32324C12.1003 4.35218 12.1254 4.38709 12.1429 4.42588Z" fill="#E5E5E5"/>
<path d="M12.1415 5.72537C12.1602 5.76414 12.1709 5.8063 12.1731 5.84926C12.1753 5.89222 12.1691 5.93519 12.1546 5.97569C12.14 6.01618 12.1176 6.05337 12.0886 6.08514C12.0596 6.11691 12.0246 6.14252 11.9856 6.16065C11.91 6.18567 11.8279 6.18218 11.7548 6.15066C11.6817 6.11913 11.6227 6.06178 11.589 5.98965C11.5554 5.91751 11.5494 5.83558 11.5722 5.75931C11.595 5.68304 11.6449 5.61778 11.7126 5.57593C11.7505 5.55722 11.7918 5.54618 11.834 5.54357C11.8761 5.54097 11.9186 5.5468 11.9585 5.56071C11.9984 5.57462 12.0351 5.59637 12.0665 5.62463C12.0979 5.6529 12.1235 5.68714 12.1415 5.72537Z" fill="#E5E5E5"/>
<path d="M10.8375 2.4731C10.8561 2.51187 10.8668 2.55403 10.8691 2.59699C10.8713 2.63995 10.865 2.68292 10.8505 2.72342C10.836 2.76392 10.8135 2.8011 10.7845 2.83287C10.7555 2.86465 10.7206 2.89026 10.6816 2.90838C10.6031 2.94543 10.5132 2.94984 10.4315 2.9206C10.3499 2.89135 10.2832 2.83086 10.2461 2.75245C10.2091 2.67404 10.2048 2.58425 10.2341 2.5026C10.2633 2.42096 10.3236 2.35421 10.402 2.31716C10.4408 2.29853 10.483 2.28783 10.5259 2.2856C10.5689 2.28336 10.6119 2.28965 10.6524 2.30416C10.6929 2.31866 10.73 2.34114 10.7618 2.37015C10.7936 2.39915 10.8194 2.43409 10.8375 2.4731Z" fill="#E5E5E5"/>
<path d="M12.1148 1.83638C12.1334 1.87515 12.1441 1.91731 12.1463 1.96027C12.1486 2.00323 12.1423 2.0462 12.1278 2.0867C12.1133 2.1272 12.0908 2.16439 12.0618 2.19616C12.0328 2.22793 11.9978 2.25354 11.9588 2.27166C11.8804 2.30871 11.7905 2.31312 11.7088 2.28388C11.6272 2.25463 11.5606 2.19414 11.5235 2.11573C11.4865 2.03732 11.4821 1.94753 11.5113 1.86589C11.5406 1.78424 11.6011 1.7175 11.6795 1.68045C11.7183 1.66181 11.7603 1.65111 11.8032 1.64888C11.8462 1.64664 11.8891 1.65293 11.9296 1.66744C11.9701 1.68194 12.0073 1.70427 12.0391 1.73327C12.0709 1.76227 12.0966 1.79737 12.1148 1.83638Z" fill="#E5E5E5"/>
<path d="M13.3968 2.49517C13.4269 2.57163 13.4268 2.65669 13.3967 2.73312C13.3666 2.80954 13.3087 2.87172 13.2346 2.90713C13.1604 2.94255 13.0756 2.94853 12.9972 2.92395C12.9189 2.89936 12.8527 2.84592 12.8121 2.77452C12.7901 2.73574 12.7761 2.69293 12.7714 2.64856C12.7666 2.6042 12.7712 2.55931 12.7845 2.51674C12.7979 2.47417 12.8198 2.4348 12.8491 2.4011C12.8783 2.36739 12.9142 2.34007 12.9544 2.32083C12.9947 2.3016 13.0385 2.29083 13.0831 2.28926C13.1277 2.2877 13.1721 2.29527 13.2136 2.31163C13.2551 2.32799 13.2928 2.35272 13.3243 2.38428C13.3559 2.41585 13.3805 2.45364 13.3968 2.49517Z" fill="#E5E5E5"/>
<path d="M13.3969 3.77388C13.4239 3.83199 13.4331 3.89678 13.4234 3.96011C13.4137 4.02344 13.3854 4.08253 13.3422 4.12985C13.299 4.17717 13.2427 4.21069 13.1805 4.22614C13.1184 4.24158 13.053 4.23823 12.9927 4.21662C12.9324 4.19501 12.8798 4.15604 12.8416 4.10463C12.8033 4.05321 12.7811 3.99158 12.7778 3.92759C12.7745 3.86361 12.7901 3.80012 12.8228 3.74501C12.8555 3.6899 12.9039 3.6457 12.9616 3.61795C13.0004 3.59931 13.0424 3.58861 13.0854 3.58638C13.1283 3.58414 13.1713 3.59043 13.2118 3.60494C13.2523 3.61944 13.2896 3.64192 13.3214 3.67093C13.3532 3.69993 13.3788 3.73487 13.3969 3.77388Z" fill="#E5E5E5"/>
<path d="M13.3965 5.07338C13.4151 5.11215 13.4258 5.15431 13.4281 5.19727C13.4303 5.24023 13.424 5.2832 13.4095 5.3237C13.395 5.3642 13.3727 5.40138 13.3437 5.43315C13.3147 5.46492 13.2796 5.49053 13.2406 5.50866C13.1641 5.53869 13.079 5.53878 13.0026 5.50866C12.9262 5.47854 12.864 5.4205 12.8286 5.34638C12.7932 5.27226 12.7872 5.18745 12.8118 5.10907C12.8364 5.03069 12.8898 4.96456 12.9612 4.92394C12.9996 4.90509 13.0413 4.89396 13.084 4.89127C13.1267 4.88858 13.1693 4.89436 13.2098 4.90824C13.2502 4.92212 13.2877 4.94384 13.3197 4.97217C13.3517 5.0005 13.3778 5.03493 13.3965 5.07338Z" fill="#E5E5E5"/>
<path d="M13.396 6.39107C13.4146 6.42984 13.4253 6.472 13.4276 6.51496C13.4298 6.55792 13.4235 6.60089 13.409 6.64139C13.3945 6.68189 13.3722 6.71907 13.3432 6.75084C13.3142 6.78261 13.2791 6.80823 13.2401 6.82635C13.1617 6.8634 13.0717 6.86781 12.9901 6.83857C12.9084 6.80932 12.8418 6.74883 12.8048 6.67042C12.7677 6.59201 12.7633 6.50221 12.7926 6.42057C12.8218 6.33893 12.8823 6.27218 12.9607 6.23513C12.9995 6.2165 13.0415 6.2058 13.0845 6.20357C13.1274 6.20133 13.1704 6.20762 13.2109 6.22213C13.2514 6.23663 13.2887 6.25895 13.3205 6.28796C13.3523 6.31696 13.3779 6.35205 13.396 6.39107Z" fill="#E5E5E5"/>
<path d="M13.3628 1.1876C13.3817 1.22598 13.3928 1.2677 13.3955 1.31038C13.3982 1.35305 13.3924 1.39588 13.3785 1.43633C13.3646 1.47678 13.3429 1.51408 13.3146 1.5461C13.2863 1.57813 13.2518 1.60417 13.2134 1.62288C13.1348 1.65875 13.0453 1.66264 12.964 1.63351C12.8827 1.60438 12.816 1.54455 12.7781 1.46695C12.7595 1.42817 12.7488 1.38617 12.7465 1.34321C12.7443 1.30025 12.7506 1.25728 12.7651 1.21678C12.7796 1.17629 12.8019 1.1391 12.8309 1.10733C12.8599 1.07556 12.895 1.04979 12.934 1.03166C12.9723 1.01315 13.0139 1.00257 13.0563 1.00041C13.0988 0.998255 13.1414 1.00459 13.1813 1.01913C13.2213 1.03367 13.258 1.05602 13.2892 1.08496C13.3204 1.1139 13.3454 1.14881 13.3628 1.1876Z" fill="#E5E5E5"/>
<path d="M7.27484 5.95031H4.02607C3.85923 5.94423 3.69284 5.9715 3.53669 6.03057C3.38054 6.08965 3.23768 6.17923 3.11664 6.29422C2.9956 6.40921 2.89874 6.54724 2.83174 6.70016C2.76473 6.85307 2.72905 7.01784 2.72656 7.18478V13.7018C2.72656 13.8742 2.79491 14.0394 2.91676 14.1612C3.03861 14.2831 3.20399 14.3516 3.37632 14.3516H7.9246C8.09692 14.3516 8.26214 14.2831 8.38399 14.1612C8.50584 14.0394 8.57435 13.8742 8.57435 13.7018V7.20429C8.57538 7.03545 8.542 6.86814 8.47647 6.71253C8.41095 6.55692 8.31466 6.41622 8.19316 6.29898C8.07166 6.18173 7.92762 6.09036 7.76977 6.03041C7.61193 5.97047 7.44354 5.94327 7.27484 5.95031Z" stroke="#E5E5E5" stroke-width="0.75" stroke-miterlimit="10"/>
<path d="M6.60694 3.23438H4.72266V4.62485H6.60694V3.23438Z" stroke="#E5E5E5" stroke-width="0.75" stroke-linejoin="round"/>
<path d="M5.66406 4.63281V5.95831" stroke="#E5E5E5" stroke-linejoin="round"/>
<path d="M2.75391 7.82812H8.60169" stroke="#E5E5E5" stroke-width="0.75" stroke-miterlimit="10"/>
</svg>
