<svg width="16" height="16" viewBox="0 0 16 16" fill="none" xmlns="http://www.w3.org/2000/svg">
<path d="M9.3344 4.16531C9.02198 4.16255 8.71738 4.06751 8.45894 3.89193C8.2005 3.71635 7.99971 3.46813 7.88205 3.17869C7.76439 2.88925 7.73515 2.57153 7.79779 2.26544C7.86043 1.95934 8.01218 1.67853 8.23407 1.45858C8.45597 1.23862 8.73805 1.08939 9.04468 1.02944C9.35131 0.969492 9.66886 1.00151 9.95725 1.1217C10.2456 1.24189 10.4919 1.44475 10.6652 1.70472C10.8385 1.96469 10.9311 2.27013 10.9311 2.58256C10.9274 3.00361 10.7576 3.40621 10.4586 3.70264C10.1595 3.99906 9.75546 4.16532 9.3344 4.16531V4.16531Z" stroke="#E5E5E5" stroke-width="0.75"/>
<path d="M9.66961 14.15C9.47595 14.1516 9.28552 14.0997 9.11945 14.0001C8.95338 13.9004 8.81805 13.7568 8.72827 13.5852L6.94348 10.1549L6.76917 11.2007C6.75829 11.4695 6.6428 11.7234 6.44744 11.9084C6.25208 12.0933 5.9923 12.1946 5.72331 12.1908H3.04586C2.76848 12.1908 2.50237 12.0807 2.30623 11.8845C2.1101 11.6884 2 11.4223 2 11.1449C2 10.8675 2.1101 10.6016 2.30623 10.4054C2.50237 10.2093 2.76848 10.099 3.04586 10.099H4.79593L5.20038 7.78434L5.74408 6.5989L4.96326 7.57513C4.86371 7.69947 4.73735 7.79979 4.5937 7.8686C4.45006 7.9374 4.29286 7.97296 4.13359 7.9726C3.8969 7.97011 3.6671 7.89187 3.47806 7.74944C3.26007 7.57547 3.12013 7.32201 3.08875 7.04488C3.05738 6.76775 3.13715 6.48952 3.31073 6.27121L4.94232 4.22836C4.99242 4.18328 5.04878 4.14576 5.10965 4.11686C5.47767 4.01718 5.85805 3.97009 6.23926 3.97728C7.06335 3.98073 7.87589 4.1708 8.6161 4.53306C9.35631 4.89531 10.0049 5.42036 10.5132 6.06899H11.5242C11.8016 6.06899 12.0677 6.17926 12.2638 6.37539C12.46 6.57153 12.5701 6.83747 12.5701 7.11484C12.5701 7.39222 12.46 7.65833 12.2638 7.85447C12.0677 8.0506 11.8016 8.1607 11.5242 8.1607H10.3459C10.138 8.15976 9.93473 8.09927 9.76017 7.98639L8.89561 7.42874L8.37966 8.34199L10.59 12.6231C10.7082 12.87 10.7264 13.153 10.6406 13.413C10.5548 13.6729 10.3717 13.8896 10.1297 14.0176C9.98757 14.0941 9.83071 14.1393 9.66961 14.15V14.15Z" stroke="#E5E5E5" stroke-width="0.75"/>
<path fill-rule="evenodd" clip-rule="evenodd" d="M9.9989 12.0035L13.9167 9.57497L13.5216 8.9375L9.62963 11.3499C9.82471 11.511 9.96039 11.7414 9.9989 12.0035ZM8.36658 13.0152C8.15781 12.8696 8.00465 12.6498 7.94535 12.394L4.88281 14.2923L5.27795 14.9298L8.36658 13.0152Z" fill="#E5E5E5"/>
</svg>
