<svg width="16" height="16" viewBox="0 0 16 16" fill="none" xmlns="http://www.w3.org/2000/svg">
<path d="M7.55469 1.66141L7.70808 1.34766L7.86147 1.66141" stroke="#E5E5E5" stroke-width="0.75" stroke-linejoin="round"/>
<path d="M8.27344 2.48438L9.2914 4.55517" stroke="#E5E5E5" stroke-width="0.75" stroke-linejoin="round" stroke-dasharray="0.66 1.32 0.66 1.32"/>
<path d="M9.49219 4.96875L9.64558 5.28251L9.9942 5.33131" stroke="#E5E5E5" stroke-width="0.75" stroke-linejoin="round"/>
<path d="M10.9062 5.46094L13.1862 5.79561" stroke="#E5E5E5" stroke-width="0.75" stroke-linejoin="round" stroke-dasharray="0.66 1.32 0.66 1.32"/>
<path d="M13.6406 5.85938L13.9892 5.90818L13.7382 6.15221" stroke="#E5E5E5" stroke-width="0.75" stroke-linejoin="round"/>
<path d="M13.0752 6.80078L11.4297 8.40443" stroke="#E5E5E5" stroke-width="0.75" stroke-linejoin="round" stroke-dasharray="0.66 1.32 0.66 1.32"/>
<path d="M11.0956 8.73047L10.8516 8.9745L10.9073 9.31615" stroke="#E5E5E5" stroke-width="0.75" stroke-linejoin="round"/>
<path d="M11.0625 10.2227L11.453 12.4957" stroke="#E5E5E5" stroke-width="0.75" stroke-linejoin="round" stroke-dasharray="0.66 1.32 0.66 1.32"/>
<path d="M11.5283 12.9492L11.5911 13.2909L11.2773 13.1305" stroke="#E5E5E5" stroke-width="0.75" stroke-linejoin="round"/>
<path d="M10.4617 12.7066L8.42578 11.6328" stroke="#E5E5E5" stroke-width="0.75" stroke-linejoin="round" stroke-dasharray="0.66 1.32 0.66 1.32"/>
<path d="M8.01591 11.4182L7.70913 11.2578L7.40234 11.4182" stroke="#E5E5E5" stroke-width="0.75" stroke-linejoin="round"/>
<path d="M6.58587 11.8477L4.54297 12.9144" stroke="#E5E5E5" stroke-width="0.75" stroke-linejoin="round" stroke-dasharray="0.66 1.32 0.66 1.32"/>
<path d="M4.13798 13.1305L3.82422 13.2909L3.88697 12.9492" stroke="#E5E5E5" stroke-width="0.75" stroke-linejoin="round"/>
<path d="M4.03906 12.0425L4.42952 9.76953" stroke="#E5E5E5" stroke-width="0.75" stroke-linejoin="round" stroke-dasharray="0.66 1.32 0.66 1.32"/>
<path d="M4.50466 9.31615L4.56741 8.9745L4.31641 8.73047" stroke="#E5E5E5" stroke-width="0.75" stroke-linejoin="round"/>
<path d="M3.65636 8.08411L2.00391 6.48047" stroke="#E5E5E5" stroke-width="0.75" stroke-linejoin="round" stroke-dasharray="0.66 1.32 0.66 1.32"/>
<path d="M1.67679 6.15221L1.42578 5.90818L1.7744 5.85938" stroke="#E5E5E5" stroke-width="0.75" stroke-linejoin="round"/>
<path d="M2.6875 5.72614L4.96747 5.39844" stroke="#E5E5E5" stroke-width="0.75" stroke-linejoin="round" stroke-dasharray="0.66 1.32 0.66 1.32"/>
<path d="M5.42188 5.33131L5.77049 5.28251L5.92389 4.96875" stroke="#E5E5E5" stroke-width="0.75" stroke-linejoin="round"/>
<path d="M6.32812 4.14501L7.35306 2.07422" stroke="#E5E5E5" stroke-width="0.75" stroke-linejoin="round" stroke-dasharray="0.66 1.32 0.66 1.32"/>
<path d="M3.52344 2.37891L4.36012 3.49449" stroke="#E5E5E5" stroke-width="0.75" stroke-linejoin="round"/>
<path d="M1.11328 10.2188L2.43106 9.76562" stroke="#E5E5E5" stroke-width="0.75" stroke-linejoin="round"/>
<path d="M11.8992 2.37891L11.0625 3.49449" stroke="#E5E5E5" stroke-width="0.75" stroke-linejoin="round"/>
<path d="M14.31 10.2188L12.9922 9.76562" stroke="#E5E5E5" stroke-width="0.75" stroke-linejoin="round"/>
<path d="M7.69922 13.5781V14.9726" stroke="#E5E5E5" stroke-width="0.75" stroke-linejoin="round"/>
</svg>
