<svg width="16" height="16" viewBox="0 0 16 16" fill="none" xmlns="http://www.w3.org/2000/svg">
<path d="M9.32003 10.3798V13.5035C9.32003 13.6884 9.24652 13.8658 9.11576 13.9966C8.985 14.1274 8.80771 14.2007 8.62279 14.2007H3.04489C2.85997 14.2007 2.68251 14.1274 2.55175 13.9966C2.421 13.8658 2.34766 13.6884 2.34766 13.5035V3.04489C2.34766 2.85997 2.421 2.68268 2.55175 2.55193C2.68251 2.42117 2.85997 2.34766 3.04489 2.34766H8.62279C8.80771 2.34766 8.985 2.42117 9.11576 2.55193C9.24652 2.68268 9.32003 2.85997 9.32003 3.04489V6.86574" stroke="#E5E5E5" stroke-width="0.75" stroke-miterlimit="10"/>
<path d="M7.45739 10.9881L5.09375 8.61754L7.45739 6.25391" stroke="#E5E5E5" stroke-width="0.75" stroke-linejoin="round"/>
<path d="M14.5087 8.61719H5.17969" stroke="#E5E5E5" stroke-width="0.75" stroke-linejoin="round"/>
</svg>
