<svg width="16" height="16" viewBox="0 0 16 16" fill="none" xmlns="http://www.w3.org/2000/svg">
<path d="M7.27372 6.67951C6.96493 6.26461 6.56296 5.92794 6.10037 5.69664C5.63777 5.46534 5.12742 5.34577 4.61023 5.34768C3.77809 5.34768 2.9801 5.67831 2.3917 6.26672C1.80329 6.85513 1.47266 7.65311 1.47266 8.48525C1.47266 9.31738 1.80329 10.1155 2.3917 10.7039C2.9801 11.2924 3.77809 11.6228 4.61023 11.6228C5.00074 11.5909 5.37929 11.4723 5.71821 11.2757C6.05714 11.0791 6.34795 10.8096 6.5695 10.4864L9.62332 6.30298C9.81096 6.02041 10.0645 5.78774 10.3621 5.62497C10.6597 5.46221 10.9924 5.37417 11.3315 5.36862C12.1637 5.36862 12.9618 5.69925 13.5502 6.28766C14.1386 6.87606 14.4691 7.67405 14.4691 8.50619C14.4691 9.33832 14.1386 10.1363 13.5502 10.7247C12.9618 11.3131 12.1637 11.6438 11.3315 11.6438C10.8307 11.6469 10.3359 11.5362 9.88411 11.32C9.43236 11.1038 9.03554 10.7877 8.72386 10.3957" stroke="#E5E5E5" stroke-width="0.75" stroke-miterlimit="10"/>
</svg>
