<svg width="16" height="16" viewBox="0 0 16 16" fill="none" xmlns="http://www.w3.org/2000/svg">
<path d="M12.2109 6.26172L14.5815 8.62535L12.2109 10.989" stroke="#E5E5E5" stroke-width="0.75" stroke-linejoin="round"/>
<path d="M10.7617 8.63672H14.485" stroke="#E5E5E5" stroke-width="0.75" stroke-linejoin="round"/>
<path d="M1 8.63672H3.44033" stroke="#E5E5E5" stroke-width="0.75" stroke-linejoin="round"/>
<path d="M4.48438 8.625H5.87885" stroke="#E5E5E5" stroke-width="0.75" stroke-linejoin="round"/>
<path d="M7.27344 8.625H8.66791" stroke="#E5E5E5" stroke-width="0.75" stroke-linejoin="round"/>
<path d="M10.4138 13.5317C10.4143 13.6294 10.3942 13.7261 10.3549 13.8156C10.3156 13.9051 10.2578 13.9853 10.1855 14.051C10.1132 14.1168 10.0279 14.1666 9.93511 14.1973C9.8423 14.2279 9.744 14.2387 9.64675 14.2289H4.21524C4.02032 14.2384 3.82965 14.1704 3.68466 14.0398C3.53966 13.9092 3.45222 13.7265 3.44141 13.5317V3.07312C3.45222 2.87826 3.53966 2.69562 3.68466 2.565C3.82965 2.43437 4.02032 2.36637 4.21524 2.37588H9.64675C9.74292 2.37119 9.83904 2.38557 9.92966 2.41809C10.0203 2.45061 10.1035 2.50057 10.1748 2.56534C10.246 2.6301 10.3039 2.70836 10.3448 2.79548C10.3858 2.8826 10.4093 2.97694 10.4138 3.07312V13.5317Z" stroke="#E5E5E5" stroke-width="0.75" stroke-miterlimit="10"/>
</svg>
