<svg width="16" height="16" viewBox="0 0 16 16" fill="none" xmlns="http://www.w3.org/2000/svg">
<path d="M9.34347 6.17632V3.05271C9.34347 2.86779 9.26996 2.69049 9.1392 2.55974C9.00844 2.42898 8.83115 2.35547 8.64623 2.35547H3.06833C2.88341 2.35547 2.70612 2.42898 2.57536 2.55974C2.44461 2.69049 2.37109 2.86779 2.37109 3.05271V13.5113C2.37109 13.6962 2.44461 13.8737 2.57536 14.0044C2.70612 14.1352 2.88341 14.2085 3.06833 14.2085H8.64623C8.83115 14.2085 9.00844 14.1352 9.1392 14.0044C9.26996 13.8737 9.34347 13.6962 9.34347 13.5113V9.72532" stroke="#E5E5E5" stroke-width="0.75" stroke-miterlimit="10"/>
<path d="M11.9297 5.52734L14.2933 7.89098L11.9297 10.2546" stroke="#E5E5E5" stroke-width="0.75" stroke-linejoin="round"/>
<path d="M14.1998 7.92578H5.48438" stroke="#E5E5E5" stroke-width="0.75" stroke-linejoin="round"/>
</svg>
