<svg width="20" height="20" viewBox="0 0 20 20" fill="none" xmlns="http://www.w3.org/2000/svg">
<path d="M6.60039 5.79844C6.60039 6.23844 6.24039 6.59844 5.80039 6.59844H4.20039C3.76039 6.59844 3.40039 6.23844 3.40039 5.79844V4.19844C3.40039 3.75844 3.76039 3.39844 4.20039 3.39844H5.80039C6.24039 3.39844 6.60039 3.75844 6.60039 4.19844V5.79844Z" stroke="#E5E5E5" stroke-width="0.75" stroke-miterlimit="10"/>
<path d="M6.60039 10.7984C6.60039 11.2384 6.24039 11.5984 5.80039 11.5984H4.20039C3.76039 11.5984 3.40039 11.2384 3.40039 10.7984V9.19844C3.40039 8.75844 3.76039 8.39844 4.20039 8.39844H5.80039C6.24039 8.39844 6.60039 8.75844 6.60039 9.19844V10.7984Z" stroke="#E5E5E5" stroke-width="0.75" stroke-miterlimit="10"/>
<path d="M6.60039 15.7984C6.60039 16.2384 6.24039 16.5984 5.80039 16.5984H4.20039C3.76039 16.5984 3.40039 16.2384 3.40039 15.7984V14.1984C3.40039 13.7584 3.76039 13.3984 4.20039 13.3984H5.80039C6.24039 13.3984 6.60039 13.7584 6.60039 14.1984V15.7984Z" stroke="#E5E5E5" stroke-width="0.75" stroke-miterlimit="10"/>
<path d="M8 10H16.9209" stroke="#E5E5E5" stroke-width="0.75" stroke-miterlimit="10"/>
<path d="M8 4.5H16.9209" stroke="#E5E5E5" stroke-width="0.75" stroke-miterlimit="10"/>
<path d="M8 15.5H16.9209" stroke="#E5E5E5" stroke-width="0.75" stroke-miterlimit="10"/>
</svg>
