<svg width="12" height="12" viewBox="0 0 12 12" fill="none" xmlns="http://www.w3.org/2000/svg">
<path d="M8.5 6.53125C8.5 6.11625 8.835 5.78125 9.25 5.78125C9.665 5.78125 10 6.11625 10 6.53125C10 6.94625 9.665 7.28125 9.25 7.28125C8.835 7.28125 8.5 6.94625 8.5 6.53125Z" fill="#E5E5E5"/>
<path d="M5.25 6.53125C5.25 6.11625 5.585 5.78125 6 5.78125C6.415 5.78125 6.75 6.11625 6.75 6.53125C6.75 6.94625 6.415 7.28125 6 7.28125C5.585 7.28125 5.25 6.94625 5.25 6.53125Z" fill="#E5E5E5"/>
<path d="M2 6.53125C2 6.11625 2.335 5.78125 2.75 5.78125C3.165 5.78125 3.5 6.11625 3.5 6.53125C3.5 6.94625 3.165 7.28125 2.75 7.28125C2.335 7.28125 2 6.94625 2 6.53125Z" fill="#E5E5E5"/>
</svg>
