<svg width="20" height="20" viewBox="0 0 20 20" fill="none" xmlns="http://www.w3.org/2000/svg">
<path d="M8.64961 8.00944C8.64961 8.38801 8.34675 8.69844 7.96818 8.69844H4.03104C3.65247 8.69844 3.34961 8.38801 3.34961 8.00944V4.08744C3.34961 3.70887 3.65247 3.39844 4.03104 3.39844H7.96818C8.34675 3.39844 8.64961 3.70887 8.64961 4.08744V8.00944Z" stroke="#F37321" stroke-width="0.75" stroke-miterlimit="10"/>
<path d="M16.5998 8.00944C16.5998 8.38801 16.2969 8.69844 15.9184 8.69844H11.9812C11.6027 8.69844 11.2998 8.38801 11.2998 8.00944V4.08744C11.2998 3.70887 11.6027 3.39844 11.9812 3.39844H15.9184C16.2969 3.39844 16.5998 3.70887 16.5998 4.08744V8.00944Z" stroke="#F37321" stroke-width="0.75" stroke-miterlimit="10"/>
<path d="M8.64961 15.9079C8.64961 16.2864 8.34675 16.5969 7.96818 16.5969H4.03104C3.65247 16.5969 3.34961 16.2864 3.34961 15.9079V11.9859C3.34961 11.6073 3.65247 11.2969 4.03104 11.2969H7.96818C8.34675 11.2969 8.64961 11.6073 8.64961 11.9859V15.9079Z" stroke="#F37321" stroke-width="0.75" stroke-miterlimit="10"/>
<path d="M16.5998 15.9079C16.5998 16.2864 16.2969 16.5969 15.9184 16.5969H11.9812C11.6027 16.5969 11.2998 16.2864 11.2998 15.9079V11.9859C11.2998 11.6073 11.6027 11.2969 11.9812 11.2969H15.9184C16.2969 11.2969 16.5998 11.6073 16.5998 11.9859V15.9079Z" stroke="#F37321" stroke-width="0.75" stroke-miterlimit="10"/>
</svg>
