<svg width="20" height="20" viewBox="0 0 20 20" fill="none" xmlns="http://www.w3.org/2000/svg">
<path d="M6.60039 5.79844C6.60039 6.23844 6.24039 6.59844 5.80039 6.59844H4.20039C3.76039 6.59844 3.40039 6.23844 3.40039 5.79844V4.19844C3.40039 3.75844 3.76039 3.39844 4.20039 3.39844H5.80039C6.24039 3.39844 6.60039 3.75844 6.60039 4.19844V5.79844Z" stroke="#E5E5E5" stroke-width="0.75" stroke-miterlimit="10"/>
<path d="M6.60039 10.7984C6.60039 11.2384 6.24039 11.5984 5.80039 11.5984H4.20039C3.76039 11.5984 3.40039 11.2384 3.40039 10.7984V9.19844C3.40039 8.75844 3.76039 8.39844 4.20039 8.39844H5.80039C6.24039 8.39844 6.60039 8.75844 6.60039 9.19844V10.7984Z" stroke="#E5E5E5" stroke-width="0.75" stroke-miterlimit="10"/>
<path d="M6.60039 15.7984C6.60039 16.2384 6.24039 16.5984 5.80039 16.5984H4.20039C3.76039 16.5984 3.40039 16.2384 3.40039 15.7984V14.1984C3.40039 13.7584 3.76039 13.3984 4.20039 13.3984H5.80039C6.24039 13.3984 6.60039 13.7584 6.60039 14.1984V15.7984Z" stroke="#E5E5E5" stroke-width="0.75" stroke-miterlimit="10"/>
<path d="M11.6004 5.79844C11.6004 6.23844 11.2404 6.59844 10.8004 6.59844H9.20039C8.76039 6.59844 8.40039 6.23844 8.40039 5.79844V4.19844C8.40039 3.75844 8.76039 3.39844 9.20039 3.39844H10.8004C11.2404 3.39844 11.6004 3.75844 11.6004 4.19844V5.79844Z" stroke="#E5E5E5" stroke-width="0.75" stroke-miterlimit="10"/>
<path d="M11.6004 10.7984C11.6004 11.2384 11.2404 11.5984 10.8004 11.5984H9.20039C8.76039 11.5984 8.40039 11.2384 8.40039 10.7984V9.19844C8.40039 8.75844 8.76039 8.39844 9.20039 8.39844H10.8004C11.2404 8.39844 11.6004 8.75844 11.6004 9.19844V10.7984Z" stroke="#E5E5E5" stroke-width="0.75" stroke-miterlimit="10"/>
<path d="M11.6004 15.7984C11.6004 16.2384 11.2404 16.5984 10.8004 16.5984H9.20039C8.76039 16.5984 8.40039 16.2384 8.40039 15.7984V14.1984C8.40039 13.7584 8.76039 13.3984 9.20039 13.3984H10.8004C11.2404 13.3984 11.6004 13.7584 11.6004 14.1984V15.7984Z" stroke="#E5E5E5" stroke-width="0.75" stroke-miterlimit="10"/>
<path d="M16.6004 5.79844C16.6004 6.23844 16.2404 6.59844 15.8004 6.59844H14.2004C13.7604 6.59844 13.4004 6.23844 13.4004 5.79844V4.19844C13.4004 3.75844 13.7604 3.39844 14.2004 3.39844H15.8004C16.2404 3.39844 16.6004 3.75844 16.6004 4.19844V5.79844Z" stroke="#E5E5E5" stroke-width="0.75" stroke-miterlimit="10"/>
<path d="M16.6004 10.7984C16.6004 11.2384 16.2404 11.5984 15.8004 11.5984H14.2004C13.7604 11.5984 13.4004 11.2384 13.4004 10.7984V9.19844C13.4004 8.75844 13.7604 8.39844 14.2004 8.39844H15.8004C16.2404 8.39844 16.6004 8.75844 16.6004 9.19844V10.7984Z" stroke="#E5E5E5" stroke-width="0.75" stroke-miterlimit="10"/>
<path d="M16.6004 15.7984C16.6004 16.2384 16.2404 16.5984 15.8004 16.5984H14.2004C13.7604 16.5984 13.4004 16.2384 13.4004 15.7984V14.1984C13.4004 13.7584 13.7604 13.3984 14.2004 13.3984H15.8004C16.2404 13.3984 16.6004 13.7584 16.6004 14.1984V15.7984Z" stroke="#E5E5E5" stroke-width="0.75" stroke-miterlimit="10"/>
</svg>
