<svg width="18" height="18" viewBox="0 0 18 18" fill="none" xmlns="http://www.w3.org/2000/svg">
<path d="M8.144 10.428C8.144 10.012 8.22 9.664 8.372 9.384C8.532 9.104 8.812 8.808 9.212 8.496C9.484 8.296 9.696 8.12 9.848 7.968C10.008 7.816 10.124 7.668 10.196 7.524C10.268 7.372 10.304 7.196 10.304 6.996C10.304 6.692 10.196 6.46 9.98 6.3C9.772 6.14 9.472 6.06 9.08 6.06C8.728 6.06 8.392 6.112 8.072 6.216C7.752 6.32 7.432 6.452 7.112 6.612L6.572 5.484C6.94 5.292 7.336 5.132 7.76 5.004C8.192 4.876 8.672 4.812 9.2 4.812C10 4.812 10.62 5.008 11.06 5.4C11.508 5.792 11.732 6.3 11.732 6.924C11.732 7.268 11.676 7.564 11.564 7.812C11.46 8.052 11.304 8.276 11.096 8.484C10.888 8.692 10.632 8.912 10.328 9.144C10.08 9.336 9.888 9.5 9.752 9.636C9.624 9.772 9.536 9.908 9.488 10.044C9.448 10.18 9.428 10.34 9.428 10.524V10.824H8.144V10.428ZM7.916 12.732C7.916 12.396 8.004 12.16 8.18 12.024C8.364 11.88 8.584 11.808 8.84 11.808C9.088 11.808 9.3 11.88 9.476 12.024C9.66 12.16 9.752 12.396 9.752 12.732C9.752 13.06 9.66 13.296 9.476 13.44C9.3 13.584 9.088 13.656 8.84 13.656C8.584 13.656 8.364 13.584 8.18 13.44C8.004 13.296 7.916 13.06 7.916 12.732Z" fill="#909090"/>
<path d="M2 9C2 5.13158 5.13158 2 9 2C12.8684 2 16 5.13158 16 9C16 12.8611 12.8684 16 9 16C5.13158 16 2 12.8611 2 9Z" stroke="#909090" stroke-width="0.75" stroke-miterlimit="10"/>
</svg>
