<svg width="100" height="28" viewBox="0 0 100 28" fill="none" xmlns="http://www.w3.org/2000/svg">
<rect x="0.5" y="0.5" width="99" height="27" rx="1.5" fill="#5C5C5C" stroke="#E5E5E5"/>
<path d="M48.9004 15.7734H45.3262L44.5234 18H43.3633L46.6211 9.46875H47.6055L50.8691 18H49.7148L48.9004 15.7734ZM45.666 14.8477H48.5664L47.1133 10.8574L45.666 14.8477ZM55.6914 17.373C55.2695 17.8691 54.6504 18.1172 53.834 18.1172C53.1582 18.1172 52.6426 17.9219 52.2871 17.5312C51.9355 17.1367 51.7578 16.5547 51.7539 15.7852V11.6602H52.8379V15.7559C52.8379 16.7168 53.2285 17.1973 54.0098 17.1973C54.8379 17.1973 55.3887 16.8887 55.6621 16.2715V11.6602H56.7461V18H55.7148L55.6914 17.373ZM59.8691 10.125V11.6602H61.0527V12.498H59.8691V16.4297C59.8691 16.6836 59.9219 16.875 60.0273 17.0039C60.1328 17.1289 60.3125 17.1914 60.5664 17.1914C60.6914 17.1914 60.8633 17.168 61.082 17.1211V18C60.7969 18.0781 60.5195 18.1172 60.25 18.1172C59.7656 18.1172 59.4004 17.9707 59.1543 17.6777C58.9082 17.3848 58.7852 16.9688 58.7852 16.4297V12.498H57.6309V11.6602H58.7852V10.125H59.8691ZM61.9199 14.7715C61.9199 14.1504 62.041 13.5918 62.2832 13.0957C62.5293 12.5996 62.8691 12.2168 63.3027 11.9473C63.7402 11.6777 64.2383 11.543 64.7969 11.543C65.6602 11.543 66.3574 11.8418 66.8887 12.4395C67.4238 13.0371 67.6914 13.832 67.6914 14.8242V14.9004C67.6914 15.5176 67.5723 16.0723 67.334 16.5645C67.0996 17.0527 66.7617 17.4336 66.3203 17.707C65.8828 17.9805 65.3789 18.1172 64.8086 18.1172C63.9492 18.1172 63.252 17.8184 62.7168 17.2207C62.1855 16.623 61.9199 15.832 61.9199 14.8477V14.7715ZM63.0098 14.9004C63.0098 15.6035 63.1719 16.168 63.4961 16.5938C63.8242 17.0195 64.2617 17.2324 64.8086 17.2324C65.3594 17.2324 65.7969 17.0176 66.1211 16.5879C66.4453 16.1543 66.6074 15.5488 66.6074 14.7715C66.6074 14.0762 66.4414 13.5137 66.1094 13.084C65.7812 12.6504 65.3438 12.4336 64.7969 12.4336C64.2617 12.4336 63.8301 12.6465 63.502 13.0723C63.1738 13.498 63.0098 14.1074 63.0098 14.9004ZM69.4141 18V12.498H68.4121V11.6602H69.4141V11.1211C69.4141 10.4141 69.6152 9.86328 70.0176 9.46875C70.4238 9.07422 70.9961 8.87695 71.7344 8.87695C72.1719 8.87695 72.7246 8.99609 73.3926 9.23438L73.2109 10.1484C72.7227 9.95312 72.2578 9.85547 71.8164 9.85547C71.3516 9.85547 71.0156 9.96094 70.8086 10.1719C70.6055 10.3789 70.5039 10.6914 70.5039 11.1094V11.6602H71.7988V12.498H70.5039V18H69.4141ZM73.9316 18H72.8418V11.6602H73.9316V18ZM77.166 10.125V11.6602H78.3496V12.498H77.166V16.4297C77.166 16.6836 77.2188 16.875 77.3242 17.0039C77.4297 17.1289 77.6094 17.1914 77.8633 17.1914C77.9883 17.1914 78.1602 17.168 78.3789 17.1211V18C78.0938 18.0781 77.8164 18.1172 77.5469 18.1172C77.0625 18.1172 76.6973 17.9707 76.4512 17.6777C76.2051 17.3848 76.082 16.9688 76.082 16.4297V12.498H74.9277V11.6602H76.082V10.125H77.166Z" fill="white"/>
<path d="M26.3404 7.5H12.7063C12.2634 7.5 11.9043 7.88802 11.9043 8.36667V19.6333C11.9043 20.112 12.2634 20.5 12.7063 20.5H26.3404C26.7833 20.5 27.1424 20.112 27.1424 19.6333V8.36667C27.1424 7.88802 26.7833 7.5 26.3404 7.5Z" stroke="white" stroke-width="0.75" stroke-linejoin="round"/>
<path fill-rule="evenodd" clip-rule="evenodd" d="M16.1895 9.5H13.8086V12L16.1895 9.5Z" fill="white"/>
<path fill-rule="evenodd" clip-rule="evenodd" d="M16.1895 18.5H13.8086V16L16.1895 18.5Z" fill="white"/>
<path fill-rule="evenodd" clip-rule="evenodd" d="M22.8574 9.5H25.2384V12L22.8574 9.5Z" fill="white"/>
<path fill-rule="evenodd" clip-rule="evenodd" d="M22.8574 18.5H25.2384V16L22.8574 18.5Z" fill="white"/>
</svg>
