<svg width="20" height="20" viewBox="0 0 20 20" fill="none" xmlns="http://www.w3.org/2000/svg">
<path d="M18.5523 4.96567C18.4103 4.81809 18.2406 4.69982 18.0522 4.61935C17.8645 4.53916 17.6628 4.49843 17.4588 4.50005H6.31895C6.11502 4.49843 5.91328 4.53916 5.72558 4.61935C5.53721 4.69982 5.36745 4.81809 5.22548 4.96567C5.08334 5.11344 4.97204 5.28754 4.89584 5.47737C4.81962 5.66727 4.77957 5.87062 4.7778 6.0758L4.77778 6.0758V6.08012V7.06446L1.81094 4.70844C1.66068 4.58912 1.45539 4.56631 1.2826 4.64974C1.10981 4.73317 1 4.90812 1 5.1V16.1C1 16.2911 1.10897 16.4656 1.28076 16.5494C1.45254 16.6332 1.65708 16.6117 1.80773 16.4941L4.77778 14.1748V14.9199H4.77776L4.7778 14.9242C4.77957 15.1294 4.81962 15.3327 4.89584 15.5226C4.97204 15.7125 5.08334 15.8866 5.22548 16.0343C5.36745 16.1819 5.53721 16.3002 5.72558 16.3807C5.91328 16.4608 6.11502 16.5016 6.31895 16.5H17.4588C17.6628 16.5016 17.8645 16.4608 18.0522 16.3807C18.2406 16.3002 18.4103 16.1819 18.5523 16.0343C18.6944 15.8866 18.8057 15.7125 18.8819 15.5226C18.9582 15.3327 18.9982 15.1294 19 14.9242H19V14.9199L19 6.08012L19 6.0758C18.9982 5.87062 18.9582 5.66728 18.8819 5.47737C18.8057 5.28754 18.6944 5.11344 18.5523 4.96567ZM18.5523 4.96567L18.1922 5.31203L18.5523 4.96567C18.5523 4.96567 18.5523 4.96567 18.5523 4.96567Z" stroke="#E5E5E5" stroke-linecap="round" stroke-linejoin="round"/>
<path d="M12.7349 12.0103H10.2563L9.73779 13.5H8.58203L10.999 7.10156H11.9966L14.418 13.5H13.2578L12.7349 12.0103ZM10.5684 11.1138H12.4229L11.4956 8.45947L10.5684 11.1138Z" fill="#E5E5E5"/>
</svg>
