<svg width="206" height="33" viewBox="0 0 206 33" fill="none" xmlns="http://www.w3.org/2000/svg">
<path d="M146.589 0.0579853H143.458C143.337 0.0453986 143.215 0.0603746 143.101 0.101872C142.987 0.14337 142.883 0.210322 142.798 0.297654C142.713 0.384986 142.649 0.490477 142.61 0.60628C142.572 0.722083 142.559 0.845211 142.574 0.966461V24.1615L126.921 0.637839C126.787 0.448833 126.611 0.293163 126.408 0.182627C126.205 0.0720914 125.98 0.00962967 125.749 0H122.215C121.581 0 121.312 0.270612 121.312 0.908476V31.9512C121.304 32.0727 121.321 32.1947 121.364 32.3088C121.406 32.4229 121.472 32.5266 121.558 32.6127C121.643 32.6988 121.746 32.7655 121.86 32.8081C121.973 32.8507 122.094 32.8683 122.215 32.8597H125.25C125.371 32.8683 125.492 32.8507 125.605 32.8081C125.718 32.7655 125.821 32.6988 125.907 32.6127C125.993 32.5266 126.059 32.4229 126.101 32.3088C126.144 32.1947 126.161 32.0727 126.152 31.9512V7.55768L142.69 32.2798C142.816 32.4809 142.992 32.6455 143.201 32.7573C143.41 32.8691 143.644 32.9244 143.88 32.9177H146.589C146.709 32.9267 146.829 32.9092 146.942 32.8664C147.054 32.8237 147.156 32.7567 147.24 32.6702C147.324 32.5836 147.389 32.4797 147.429 32.3655C147.469 32.2513 147.484 32.1297 147.472 32.0092V0.966461C147.487 0.845211 147.475 0.722083 147.436 0.60628C147.397 0.490477 147.333 0.384986 147.248 0.297654C147.163 0.210322 147.06 0.14337 146.946 0.101872C146.831 0.0603746 146.709 0.0453986 146.589 0.0579853Z" fill="#313131"/>
<path d="M205.014 0.0597208H181.121C180.943 0.0597208 180.772 0.130989 180.646 0.257862C180.52 0.384735 180.449 0.556772 180.449 0.736197V3.75155C180.449 3.83951 180.466 3.9266 180.5 4.00762C180.534 4.08864 180.584 4.16199 180.647 4.22328C180.71 4.28457 180.784 4.33251 180.865 4.36438C180.947 4.39625 181.034 4.41138 181.121 4.4088H190.379V32.2235C190.379 32.4081 190.452 32.585 190.581 32.7155C190.711 32.846 190.887 32.9194 191.07 32.9194H194.681C194.864 32.9194 195.04 32.846 195.17 32.7155C195.3 32.585 195.373 32.4081 195.373 32.2235V4.50542H204.976C205.151 4.50549 205.319 4.4369 205.445 4.31418C205.57 4.19146 205.643 4.02429 205.648 3.84823V0.832878C205.648 0.653453 205.577 0.481357 205.451 0.354484C205.325 0.227612 205.154 0.156343 204.976 0.156343" fill="#313131"/>
<path d="M167.081 0.0976205H162.798C159.475 0.0976205 151.792 1.16074 151.792 10.98V22.017C151.792 31.8555 159.475 32.9187 162.798 32.9187H175.455C175.688 32.9137 175.91 32.8184 176.074 32.6528C176.239 32.4871 176.334 32.2638 176.339 32.0295V29.6327C176.334 29.4002 176.238 29.179 176.073 29.0164C175.908 28.8538 175.686 28.7628 175.455 28.7628H162.913C157.266 28.7628 156.613 24.897 156.613 22.017V18.731H177.222C177.451 18.731 177.671 18.6394 177.833 18.4763C177.995 18.3131 178.086 18.0919 178.086 17.8612V10.98C178.086 1.16074 170.404 0.0976205 167.081 0.0976205ZM173.265 10.98V14.5945H156.613V10.98C156.613 8.09993 157.266 4.23404 162.913 4.23404H166.966C172.612 4.23404 173.265 8.09993 173.265 10.98Z" fill="#313131"/>
<path d="M22.034 13.9185L25.7409 29.9424C25.9493 30.8415 26.4705 31.6359 27.2103 32.1819C27.9501 32.7279 28.8596 32.9894 29.7744 32.9191H33.3084L25.9906 1.3351C25.8178 0.523277 25.472 0.349335 24.8766 0.330006H19.1146C18.5191 0.330006 18.1926 0.69724 18.0774 1.3351C17.8661 2.28224 12.7955 24.3562 12.7571 24.5302C12.7187 24.7041 12.6226 25.0907 12.3345 25.0907C12.0464 25.0907 11.9696 24.8974 11.8928 24.5302C11.816 24.1629 7.51363 0.948555 7.51363 0.948555C7.34077 0.214044 7.01425 0.0594271 6.55328 0.0594271H0.791227C0.676485 0.0509991 0.561337 0.0692343 0.454749 0.112811C0.348162 0.156388 0.252986 0.224086 0.176593 0.310657C0.0912442 0.44737 0.0352135 0.600558 0.0120619 0.760324C-0.0110897 0.920089 -0.000836989 1.08293 0.0421605 1.23848L5.38166 28.86C5.43457 29.4448 5.60208 30.0133 5.87453 30.5326C6.14697 31.0519 6.51895 31.5117 6.96898 31.8855C7.41901 32.2593 7.93817 32.5398 8.49648 32.7105C9.05479 32.8813 9.64119 32.939 10.2218 32.8804H14.697C16.8481 32.8804 18.1926 31.624 18.7112 29.1305L22.034 13.9185Z" fill="#313131"/>
<path d="M47.8687 0.0378997H54.0341C54.2582 0.0378997 54.4732 0.127504 54.6316 0.287001C54.7901 0.446498 54.8792 0.662823 54.8792 0.888386V32.0664C54.8792 32.292 54.7901 32.5083 54.6316 32.6678C54.4732 32.8273 54.2582 32.9169 54.0341 32.9169H47.8687C47.6496 32.9169 47.4396 32.8293 47.2847 32.6735C47.1298 32.5176 47.0428 32.3062 47.0428 32.0858V0.888386C47.0427 0.666132 47.1291 0.452686 47.2835 0.293733C47.4378 0.13478 47.6479 0.0429509 47.8687 0.0378997Z" fill="#313131"/>
<path d="M100.284 0.0386372C90.4881 0.0386372 88.5866 6.41728 88.5866 13.5691V19.3679C88.5866 22.5572 89.086 32.8983 98.9584 32.8983H113.901C114.136 32.8983 114.36 32.8046 114.526 32.6379C114.692 32.4711 114.785 32.245 114.785 32.0092V27.3701C114.785 27.1343 114.692 26.9082 114.526 26.7414C114.36 26.5747 114.136 26.481 113.901 26.481H101.859C101.173 26.5458 100.481 26.4653 99.8278 26.2448C99.1746 26.0243 98.5746 25.6687 98.0662 25.2008C97.5578 24.7329 97.1524 24.1631 96.876 23.528C96.5997 22.8929 96.4584 22.2067 96.4615 21.5134V19.3872H114.67C115.937 19.3872 116.206 19.2519 116.206 17.9762V13.5305C116.206 4.94828 113.075 0 104.682 0L100.284 0.0386372ZM108.351 13.4725H96.4615V11.5396C96.3776 10.8635 96.4459 10.1772 96.6613 9.53136C96.8767 8.88552 97.2338 8.29673 97.7059 7.80855C98.1781 7.32038 98.7533 6.94533 99.389 6.7112C100.025 6.47706 100.705 6.38983 101.378 6.45596H103.414C104.09 6.38671 104.772 6.47161 105.41 6.70435C106.048 6.9371 106.626 7.31168 107.1 7.80024C107.574 8.28879 107.933 8.87871 108.15 9.52611C108.366 10.1735 108.435 10.8618 108.351 11.5396V13.4725Z" fill="#313131"/>
<path d="M70.0522 11.7514C69.5132 11.5448 69.0507 11.1759 68.7276 10.6951C68.4045 10.2143 68.2366 9.64494 68.2467 9.06462C68.2504 8.69287 68.3307 8.32598 68.4826 7.98708C68.6345 7.64818 68.8545 7.34467 69.129 7.09577C69.4034 6.84687 69.7261 6.65796 70.0768 6.54105C70.4275 6.42413 70.7984 6.38173 71.1662 6.41652H82.8055C83.0348 6.41652 83.2546 6.32487 83.4167 6.16175C83.5788 5.99863 83.6699 5.77743 83.6699 5.54674V0.907739C83.6699 0.677049 83.5788 0.455791 83.4167 0.292669C83.2546 0.129547 83.0348 0.0378997 82.8055 0.0378997H69.9177C65.3273 0.0378997 60.3143 3.36255 60.3143 8.69742C60.3143 14.0323 62.235 16.4291 67.1135 18.362L75.6222 21.6286C76.1403 21.7976 76.5913 22.1288 76.9092 22.5739C77.2271 23.019 77.3953 23.5547 77.3892 24.1028C77.3897 24.4318 77.3234 24.7575 77.1945 25.0598C77.0655 25.3621 76.8765 25.6347 76.6392 25.861C76.4018 26.0872 76.121 26.2622 75.814 26.3753C75.507 26.4885 75.1803 26.5374 74.8539 26.519H61.6012C61.3702 26.524 61.1504 26.6199 60.9888 26.7861C60.8272 26.9523 60.7368 27.1756 60.7369 27.4081V32.0277C60.7368 32.2603 60.8272 32.4836 60.9888 32.6498C61.1504 32.816 61.3702 32.9119 61.6012 32.9169H77.5813C82.1909 32.9169 85.4177 29.3217 85.4177 23.9675C85.6031 22.0992 85.1266 20.225 84.0723 18.6759C83.018 17.1268 81.4537 16.0024 79.6556 15.5013C78.0615 14.9021 70.8205 12.0413 70.0522 11.7514Z" fill="#313131"/>
<path d="M42.0253 1.10161L36.5129 21.088L31.9609 1.10161C31.9236 0.973417 31.9175 0.838093 31.9432 0.707041C31.9689 0.575989 32.0257 0.453116 32.1086 0.348806C32.1915 0.244497 32.2982 0.161788 32.4196 0.107781C32.541 0.0537733 32.6735 0.0300363 32.806 0.0385287H41.2378C41.3699 0.027078 41.5027 0.0493533 41.6239 0.103298C41.7451 0.157242 41.8508 0.241082 41.9313 0.347096C42.0117 0.453109 42.0643 0.577861 42.0841 0.709755C42.1039 0.841648 42.0903 0.976421 42.0445 1.10161" fill="#313131"/>
</svg>
