<svg width="20" height="20" viewBox="0 0 20 20" fill="none" xmlns="http://www.w3.org/2000/svg">
<path d="M2 5.5H18" stroke="white"/>
<path d="M2 10.5H9" stroke="white"/>
<path d="M2 15.5H6.5" stroke="white"/>
<path d="M4 3.5V7.5" stroke="white"/>
<path d="M7 8.5V12.5" stroke="white"/>
<path d="M14.5 8V10.2" stroke="white"/>
<path d="M14.5 16.8008V19.0008" stroke="white"/>
<path d="M20 13.5L17.8 13.5" stroke="white"/>
<path d="M11.1992 13.5L8.99922 13.5" stroke="white"/>
<path d="M18.3906 9.60938L16.835 11.165" stroke="white"/>
<path d="M12.168 15.832L10.6123 17.3877" stroke="white"/>
<path d="M18.3906 17.3906L16.835 15.835" stroke="white"/>
<path d="M12.168 11.168L10.6123 9.61233" stroke="white"/>
<path d="M18 13.5C18 14.1924 17.7946 14.8693 17.4098 15.445C17.025 16.0206 16.4782 16.4692 15.8383 16.734C15.1985 16.9988 14.4946 17.0678 13.8155 16.9324C13.1364 16.797 12.5128 16.4632 12.0235 15.9732C11.5342 15.4833 11.2012 14.8592 11.0667 14.18C10.9322 13.5007 11.0022 12.7969 11.2678 12.1574C11.5334 11.5179 11.9827 10.9716 12.5589 10.5876C13.1351 10.2035 13.8122 9.99908 14.5047 10C14.9641 10 15.419 10.0905 15.8433 10.2665C16.2677 10.4424 16.6533 10.7003 16.9779 11.0254C17.3025 11.3505 17.5599 11.7363 17.7353 12.1609C17.9107 12.5855 18.0006 13.0406 18 13.5Z" stroke="white" stroke-linejoin="round"/>
</svg>
