<svg width="90" height="90" viewBox="0 0 90 90" fill="none" xmlns="http://www.w3.org/2000/svg">
<path fill-rule="evenodd" clip-rule="evenodd" d="M72.4818 21.1861C73.7833 22.7649 74.8157 24.5537 75.5323 26.4805C76.4507 28.9499 76.8303 31.5883 76.6441 34.2177C76.4579 36.8472 75.7099 39.4056 74.4526 41.7199C73.2183 43.992 71.5201 45.977 69.4698 47.5458L65.8118 51.2173L68.9685 54.3947L66.1309 57.2139L56.913 47.9357L51.58 53.2452L48.7578 50.4105L54.0938 45.0981L45.6561 36.605L38.7591 43.2293L35.9883 40.3445L42.8365 33.767L33.6348 24.505L36.4724 21.6858L40.1422 25.3796L43.7519 21.7572C45.3152 19.6997 47.2944 17.9959 49.5595 16.7568C51.8675 15.4941 54.4186 14.7435 57.0417 14.5565C59.6644 14.3694 62.2973 14.7498 64.7607 15.6725C66.5123 16.3285 68.149 17.2477 69.6166 18.3945L73.9957 14L76.8291 16.8235L72.4818 21.1861ZM66.8341 44.5239L62.9926 48.3796L59.7477 45.1135L59.8511 45.0106L57.029 42.1759L56.9285 42.2759L48.5414 33.8338L48.6649 33.7152L45.894 30.8303L45.7218 30.9958L42.9614 28.2173L46.7829 24.3823L46.868 24.2685C48.1015 22.618 49.6745 21.2533 51.4793 20.2659C53.2837 19.2787 55.2772 18.6925 57.3262 18.5463C59.3756 18.4002 61.4329 18.6974 63.3577 19.4183C65.2825 20.1393 67.0311 21.2674 68.485 22.7264C69.9389 24.1855 71.064 25.9411 71.7832 27.8749C72.5026 29.8092 72.7999 31.8759 72.6541 33.9351C72.5082 35.9942 71.9225 37.9979 70.9378 39.8105C69.9534 41.6225 68.5924 43.2006 66.9478 44.4384L66.8341 44.5239ZM20.5138 66.7687L14 73.2782L16.8275 76.1075L23.3423 69.597L26.576 72.8304L26.5843 72.8387C28.7926 75.0211 31.7692 76.2459 34.8718 76.2459C37.9744 76.2459 40.951 75.0211 43.1593 72.8387L43.1643 72.8337L49.7608 66.2683L53.0137 69.5424L55.8513 66.7232L23.3552 34.0143L20.5176 36.8335L24.0812 40.4204L17.4468 47.0775L17.4414 47.083C15.2667 49.2991 14.0498 52.2829 14.0498 55.3897C14.0498 58.4965 15.2667 61.4803 17.4414 63.6964L17.448 63.7032L20.5138 66.7687ZM26.9004 43.2581L20.2912 49.8899C18.8554 51.3557 18.0498 53.3306 18.0498 55.3897C18.0498 57.4483 18.855 59.4226 20.2901 60.8884L29.3999 69.9975C30.8608 71.4391 32.826 72.2459 34.8718 72.2459C36.9183 72.2459 38.8842 71.4386 40.3452 69.996L40.3476 69.9936L46.9417 63.4306L26.9004 43.2581Z" fill="#AAAAAA"/>
</svg>
