<svg width="20" height="20" viewBox="0 0 20 20" fill="none" xmlns="http://www.w3.org/2000/svg">
<path d="M13.6588 8.00973C13.2736 7.66991 12.6506 7.5 11.8237 7.5H10V13.9H11.0648V11.5099H11.6878C12.3221 11.5099 12.8205 11.408 13.1943 11.2154C13.5681 11.0228 13.84 10.7623 13.9986 10.4451C14.1572 10.128 14.2365 9.78814 14.2365 9.43699C14.2365 8.83664 14.0439 8.34956 13.6588 8.00973ZM11.0648 8.41752H11.7444C12.2315 8.41752 12.5827 8.50814 12.8092 8.67805C13.0244 8.84796 13.1377 9.11982 13.1377 9.47097C13.1377 9.87876 13.0131 10.1733 12.7526 10.3319C12.5034 10.5131 12.1069 10.6037 11.5858 10.6037H11.0648V8.41752Z" fill="#E5E5E5"/>
<path d="M18.5523 4.96567C18.4103 4.81809 18.2406 4.69982 18.0522 4.61935C17.8645 4.53916 17.6628 4.49843 17.4588 4.50005H6.31895C6.11502 4.49843 5.91328 4.53916 5.72558 4.61935C5.53721 4.69982 5.36745 4.81809 5.22548 4.96567C5.08334 5.11344 4.97204 5.28754 4.89584 5.47737C4.81962 5.66727 4.77957 5.87062 4.7778 6.0758L4.77778 6.0758V6.08012V7.06446L1.81094 4.70844C1.66068 4.58912 1.45539 4.56631 1.2826 4.64974C1.10981 4.73317 1 4.90812 1 5.1V16.1C1 16.2911 1.10897 16.4656 1.28076 16.5494C1.45254 16.6332 1.65708 16.6117 1.80773 16.4941L4.77778 14.1748V14.9199H4.77776L4.7778 14.9242C4.77957 15.1294 4.81962 15.3327 4.89584 15.5226C4.97204 15.7125 5.08334 15.8866 5.22548 16.0343C5.36745 16.1819 5.53721 16.3002 5.72558 16.3807C5.91328 16.4608 6.11502 16.5016 6.31895 16.5H17.4588C17.6628 16.5016 17.8645 16.4608 18.0522 16.3807C18.2406 16.3002 18.4103 16.1819 18.5523 16.0343C18.6944 15.8866 18.8057 15.7125 18.8819 15.5226C18.9582 15.3327 18.9982 15.1294 19 14.9242H19V14.9199L19 6.08012L19 6.0758C18.9982 5.87062 18.9582 5.66728 18.8819 5.47737C18.8057 5.28754 18.6944 5.11344 18.5523 4.96567ZM18.5523 4.96567L18.1922 5.31203L18.5523 4.96567C18.5523 4.96567 18.5523 4.96567 18.5523 4.96567Z" stroke="white" stroke-linecap="round" stroke-linejoin="round"/>
</svg>
