<svg width="20" height="21" viewBox="0 0 20 21" fill="none" xmlns="http://www.w3.org/2000/svg">
<path d="M18 10.715C18 12.2972 17.531 13.8436 16.6519 15.1592C15.7729 16.4748 14.5234 17.5002 13.0616 18.1057C11.5998 18.7112 9.99108 18.8698 8.43923 18.5611C6.88739 18.2524 5.46209 17.4906 4.34327 16.3718C3.22445 15.253 2.46242 13.8273 2.15374 12.2754C1.84506 10.7236 2.00341 9.1153 2.60892 7.65349C3.21442 6.19168 4.23982 4.9422 5.55542 4.06314C6.87101 3.18409 8.41782 2.71484 10.0001 2.71484C12.1218 2.71484 14.1566 3.55747 15.6569 5.05776C17.1572 6.55806 18 8.59325 18 10.715V10.715Z" stroke="white" stroke-miterlimit="10"/>
<path d="M8.28906 7.77344H17.4368" stroke="white" stroke-miterlimit="10"/>
<path d="M6.58203 10.7413L11.1644 2.80078" stroke="white" stroke-miterlimit="10"/>
<path d="M8.2671 13.631L3.71875 5.75" stroke="white" stroke-miterlimit="10"/>
<path d="M11.7272 13.6484H2.5625" stroke="white" stroke-miterlimit="10"/>
<path d="M13.402 10.707L8.82812 18.6475" stroke="white" stroke-miterlimit="10"/>
<path d="M11.7344 7.83203L16.2657 15.679" stroke="white" stroke-miterlimit="10"/>
</svg>
