<svg width="20" height="21" viewBox="0 0 20 21" fill="none" xmlns="http://www.w3.org/2000/svg">
<path d="M18 10.5724C18 12.1547 17.531 13.701 16.6519 15.0166C15.7729 16.3322 14.5234 17.3576 13.0616 17.9631C11.5998 18.5686 9.99108 18.7272 8.43923 18.4185C6.88739 18.1098 5.46209 17.348 4.34327 16.2292C3.22445 15.1104 2.46242 13.6847 2.15374 12.1328C1.84506 10.581 2.00341 8.97272 2.60892 7.51091C3.21442 6.0491 4.23982 4.79962 5.55542 3.92057C6.87101 3.04151 8.41782 2.57227 10.0001 2.57227C12.1218 2.57227 14.1566 3.41489 15.6569 4.91519C17.1572 6.41548 18 8.45067 18 10.5724V10.5724Z" stroke="#D2D2D2" stroke-miterlimit="10"/>
<path d="M8.28906 7.63086H17.4368" stroke="#D2D2D2" stroke-miterlimit="10"/>
<path d="M6.58203 10.5967L11.1644 2.65625" stroke="#D2D2D2" stroke-miterlimit="10"/>
<path d="M8.2671 13.4884L3.71875 5.60742" stroke="#D2D2D2" stroke-miterlimit="10"/>
<path d="M11.7272 13.5059H2.5625" stroke="#D2D2D2" stroke-miterlimit="10"/>
<path d="M13.402 10.5645L8.82812 18.5049" stroke="#D2D2D2" stroke-miterlimit="10"/>
<path d="M11.7344 7.68945L16.2657 15.5364" stroke="#D2D2D2" stroke-miterlimit="10"/>
</svg>
