<svg width="20" height="21" viewBox="0 0 20 21" fill="none" xmlns="http://www.w3.org/2000/svg">
<path d="M18 10.715C18 12.2973 17.531 13.8437 16.6519 15.1593C15.7729 16.4749 14.5234 17.5003 13.0616 18.1058C11.5998 18.7113 9.99108 18.8698 8.43923 18.5612C6.88739 18.2525 5.46209 17.4906 4.34327 16.3718C3.22445 15.253 2.46242 13.8273 2.15374 12.2754C1.84506 10.7236 2.00341 9.11532 2.60892 7.65351C3.21442 6.19169 4.23982 4.9422 5.55542 4.06315C6.87101 3.18409 8.41782 2.71484 10.0001 2.71484C12.1218 2.71484 14.1566 3.55789 15.6569 5.05819C17.1572 6.55848 18 8.59327 18 10.715V10.715Z" stroke="white" stroke-miterlimit="10"/>
<path d="M7.39844 6.08984H16.5121" stroke="white" stroke-miterlimit="10"/>
<path d="M4.72266 10.7499L9.33052 2.77539" stroke="white" stroke-miterlimit="10"/>
<path d="M7.36568 15.2812L2.75781 7.30664" stroke="white" stroke-miterlimit="10"/>
<path d="M12.7945 15.3066H3.42578" stroke="white" stroke-miterlimit="10"/>
<path d="M15.4314 10.6992L10.832 18.6652" stroke="white" stroke-miterlimit="10"/>
<path d="M12.7539 6.13281L17.3023 13.9798" stroke="white" stroke-miterlimit="10"/>
</svg>
