<svg width="20" height="21" viewBox="0 0 20 21" fill="none" xmlns="http://www.w3.org/2000/svg">
<path d="M18 10.8576C18 12.4398 17.531 13.9862 16.6519 15.3018C15.7729 16.6174 14.5234 17.6428 13.0616 18.2483C11.5998 18.8538 9.99108 19.0124 8.43923 18.7037C6.88739 18.395 5.46209 17.6332 4.34327 16.5144C3.22445 15.3955 2.46242 13.9698 2.15374 12.418C1.84506 10.8661 2.00341 9.25788 2.60892 7.79607C3.21442 6.33426 4.23982 5.08477 5.55542 4.20572C6.87101 3.32667 8.41782 2.85742 10.0001 2.85742C12.1218 2.85742 14.1566 3.70005 15.6569 5.20034C17.1572 6.70063 18 8.73582 18 10.8576V10.8576Z" stroke="#797979" stroke-miterlimit="10"/>
<path d="M8.28906 7.91602H17.4368" stroke="#797979" stroke-miterlimit="10"/>
<path d="M6.58203 10.8819L11.1644 2.94141" stroke="#797979" stroke-miterlimit="10"/>
<path d="M8.2671 13.7736L3.71875 5.89258" stroke="#797979" stroke-miterlimit="10"/>
<path d="M11.7272 13.791H2.5625" stroke="#797979" stroke-miterlimit="10"/>
<path d="M13.402 10.8496L8.82812 18.7901" stroke="#797979" stroke-miterlimit="10"/>
<path d="M11.7344 7.97461L16.2657 15.8216" stroke="#797979" stroke-miterlimit="10"/>
</svg>
