<svg width="20" height="21" viewBox="0 0 20 21" fill="none" xmlns="http://www.w3.org/2000/svg">
<path d="M18 10.5724C18 12.1547 17.531 13.701 16.6519 15.0166C15.7729 16.3322 14.5234 17.3576 13.0616 17.9631C11.5998 18.5686 9.99108 18.7272 8.43923 18.4185C6.88739 18.1098 5.46209 17.348 4.34327 16.2292C3.22445 15.1104 2.46242 13.6847 2.15374 12.1328C1.84506 10.581 2.00341 8.97272 2.60892 7.51091C3.21442 6.0491 4.23982 4.79962 5.55542 3.92057C6.87101 3.04151 8.41782 2.57227 10.0001 2.57227C12.1218 2.57227 14.1566 3.41531 15.6569 4.9156C17.1572 6.41589 18 8.45067 18 10.5724V10.5724Z" stroke="#D2D2D2" stroke-miterlimit="10"/>
<path d="M7.39844 5.94727H16.5121" stroke="#D2D2D2" stroke-miterlimit="10"/>
<path d="M4.72266 10.6073L9.33052 2.63281" stroke="#D2D2D2" stroke-miterlimit="10"/>
<path d="M7.36568 15.1386L2.75781 7.16406" stroke="#D2D2D2" stroke-miterlimit="10"/>
<path d="M12.7945 15.1641H3.42578" stroke="#D2D2D2" stroke-miterlimit="10"/>
<path d="M15.4314 10.5566L10.832 18.5226" stroke="#D2D2D2" stroke-miterlimit="10"/>
<path d="M12.7539 5.99023L17.3023 13.8372" stroke="#D2D2D2" stroke-miterlimit="10"/>
</svg>
