<svg width="20" height="21" viewBox="0 0 20 21" fill="none" xmlns="http://www.w3.org/2000/svg">
<path d="M18 10.8576C18 12.4398 17.531 13.9862 16.6519 15.3018C15.7729 16.6174 14.5234 17.6428 13.0616 18.2484C11.5998 18.8539 9.99108 19.0124 8.43923 18.7037C6.88739 18.3951 5.46209 17.6332 4.34327 16.5144C3.22445 15.3956 2.46242 13.9699 2.15374 12.418C1.84506 10.8662 2.00341 9.2579 2.60892 7.79609C3.21442 6.33427 4.23982 5.08478 5.55542 4.20573C6.87101 3.32667 8.41782 2.85742 10.0001 2.85742C12.1218 2.85742 14.1566 3.70047 15.6569 5.20077C17.1572 6.70106 18 8.73584 18 10.8576V10.8576Z" stroke="#797979" stroke-miterlimit="10"/>
<path d="M7.39844 6.23242H16.5121" stroke="#797979" stroke-miterlimit="10"/>
<path d="M4.72266 10.8925L9.33052 2.91797" stroke="#797979" stroke-miterlimit="10"/>
<path d="M7.36568 15.4237L2.75781 7.44922" stroke="#797979" stroke-miterlimit="10"/>
<path d="M12.7945 15.4492H3.42578" stroke="#797979" stroke-miterlimit="10"/>
<path d="M15.4314 10.8418L10.832 18.8078" stroke="#797979" stroke-miterlimit="10"/>
<path d="M12.7539 6.27539L17.3023 14.1224" stroke="#797979" stroke-miterlimit="10"/>
</svg>
