<svg width="640" height="360" viewBox="0 0 640 360" fill="none" xmlns="http://www.w3.org/2000/svg">
<path d="M363.899 163.058H360.761C360.64 163.045 360.518 163.061 360.404 163.102C360.289 163.144 360.185 163.211 360.1 163.298C360.015 163.386 359.951 163.492 359.912 163.608C359.873 163.724 359.861 163.847 359.876 163.969V187.213L344.189 163.639C344.055 163.45 343.879 163.294 343.676 163.183C343.472 163.072 343.246 163.01 343.015 163H339.474C338.838 163 338.569 163.271 338.569 163.91V195.019C338.56 195.141 338.578 195.263 338.62 195.377C338.663 195.492 338.729 195.595 338.815 195.682C338.901 195.768 339.004 195.835 339.118 195.877C339.231 195.92 339.353 195.938 339.474 195.929H342.515C342.636 195.938 342.757 195.92 342.871 195.877C342.984 195.835 343.088 195.768 343.173 195.682C343.259 195.595 343.326 195.492 343.368 195.377C343.41 195.263 343.428 195.141 343.419 195.019V170.574L359.991 195.348C360.118 195.55 360.295 195.715 360.504 195.827C360.713 195.939 360.948 195.994 361.185 195.987H363.899C364.019 195.996 364.14 195.979 364.252 195.936C364.365 195.893 364.467 195.826 364.552 195.739C364.636 195.653 364.701 195.548 364.741 195.434C364.781 195.32 364.796 195.198 364.784 195.077V163.969C364.799 163.847 364.787 163.724 364.748 163.608C364.709 163.492 364.645 163.386 364.56 163.298C364.475 163.211 364.371 163.144 364.256 163.102C364.142 163.061 364.02 163.045 363.899 163.058Z" fill="#5C5C5C"/>
<path d="M422.448 163.06H398.504C398.326 163.06 398.154 163.131 398.028 163.258C397.902 163.386 397.831 163.558 397.831 163.738V166.759C397.831 166.848 397.848 166.935 397.882 167.016C397.916 167.097 397.966 167.171 398.029 167.232C398.092 167.294 398.166 167.342 398.248 167.374C398.329 167.406 398.417 167.421 398.504 167.418H407.782V195.292C407.782 195.477 407.855 195.654 407.984 195.785C408.114 195.916 408.291 195.989 408.474 195.989H412.093C412.277 195.989 412.453 195.916 412.583 195.785C412.713 195.654 412.786 195.477 412.786 195.292V167.515H422.41C422.585 167.515 422.753 167.446 422.879 167.323C423.005 167.2 423.078 167.033 423.083 166.856V163.835C423.083 163.655 423.012 163.482 422.886 163.355C422.76 163.228 422.588 163.157 422.41 163.157" fill="#5C5C5C"/>
<path d="M384.434 163.098H380.142C376.812 163.098 369.113 164.163 369.113 174.003V185.064C369.113 194.923 376.812 195.988 380.142 195.988H392.826C393.06 195.983 393.282 195.888 393.447 195.722C393.612 195.556 393.707 195.332 393.712 195.097V192.695C393.707 192.462 393.611 192.241 393.446 192.078C393.28 191.915 393.058 191.824 392.826 191.824H380.258C374.599 191.824 373.944 187.95 373.944 185.064V181.771H394.597C394.827 181.771 395.047 181.679 395.209 181.515C395.372 181.352 395.463 181.13 395.463 180.899V174.003C395.463 164.163 387.764 163.098 384.434 163.098ZM390.632 174.003V177.625H373.944V174.003C373.944 171.117 374.599 167.243 380.258 167.243H384.319C389.978 167.243 390.632 171.117 390.632 174.003Z" fill="#5C5C5C"/>
<path d="M239.081 176.948L242.795 193.006C243.004 193.907 243.526 194.703 244.268 195.25C245.009 195.797 245.921 196.059 246.837 195.989H250.379L243.046 164.338C242.872 163.524 242.526 163.35 241.929 163.331H236.155C235.558 163.331 235.231 163.699 235.116 164.338C234.904 165.287 229.823 187.408 229.784 187.582C229.746 187.756 229.649 188.144 229.361 188.144C229.072 188.144 228.995 187.95 228.918 187.582C228.841 187.214 224.53 163.951 224.53 163.951C224.356 163.214 224.029 163.06 223.567 163.06H217.793C217.678 163.051 217.563 163.069 217.456 163.113C217.349 163.157 217.254 163.225 217.177 163.311C217.091 163.448 217.035 163.602 217.012 163.762C216.989 163.922 216.999 164.085 217.042 164.241L222.393 191.921C222.446 192.507 222.614 193.077 222.887 193.597C223.16 194.118 223.533 194.578 223.984 194.953C224.435 195.328 224.955 195.609 225.514 195.78C226.074 195.951 226.662 196.009 227.243 195.95H231.728C233.884 195.95 235.231 194.691 235.751 192.192L239.081 176.948Z" fill="#5C5C5C"/>
<path d="M264.97 163.038H271.148C271.373 163.038 271.588 163.128 271.747 163.288C271.906 163.447 271.995 163.664 271.995 163.89V195.134C271.995 195.36 271.906 195.577 271.747 195.737C271.588 195.897 271.373 195.987 271.148 195.987H264.97C264.75 195.987 264.54 195.899 264.385 195.743C264.229 195.586 264.142 195.375 264.142 195.154V163.89C264.142 163.668 264.229 163.454 264.383 163.294C264.538 163.135 264.749 163.043 264.97 163.038Z" fill="#5C5C5C"/>
<path d="M317.496 163.039C307.68 163.039 305.774 169.431 305.774 176.598V182.409C305.774 185.605 306.274 195.968 316.168 195.968H331.142C331.377 195.968 331.602 195.874 331.768 195.707C331.934 195.54 332.028 195.313 332.028 195.077V190.428C332.028 190.192 331.934 189.965 331.768 189.798C331.602 189.631 331.377 189.537 331.142 189.537H319.074C318.387 189.602 317.693 189.521 317.039 189.3C316.384 189.079 315.783 188.723 315.274 188.254C314.764 187.785 314.358 187.214 314.081 186.578C313.804 185.941 313.662 185.254 313.666 184.559V182.428H331.912C333.182 182.428 333.452 182.293 333.452 181.014V176.559C333.452 167.959 330.315 163 321.903 163L317.496 163.039ZM325.58 176.501H313.666V174.564C313.581 173.887 313.65 173.199 313.866 172.552C314.082 171.904 314.439 171.314 314.913 170.825C315.386 170.336 315.962 169.96 316.599 169.725C317.236 169.491 317.918 169.403 318.593 169.47H320.633C321.31 169.4 321.993 169.485 322.633 169.719C323.272 169.952 323.851 170.327 324.327 170.817C324.802 171.306 325.162 171.897 325.379 172.546C325.596 173.195 325.664 173.885 325.58 174.564V176.501Z" fill="#5C5C5C"/>
<path d="M287.2 174.776C286.66 174.569 286.197 174.2 285.873 173.718C285.549 173.236 285.381 172.665 285.391 172.084C285.395 171.711 285.475 171.344 285.627 171.004C285.78 170.664 286 170.36 286.275 170.111C286.55 169.861 286.874 169.672 287.225 169.555C287.576 169.438 287.948 169.395 288.317 169.43H299.981C300.21 169.43 300.431 169.338 300.593 169.175C300.756 169.011 300.847 168.79 300.847 168.558V163.91C300.847 163.678 300.756 163.457 300.593 163.293C300.431 163.13 300.21 163.038 299.981 163.038H287.066C282.465 163.038 277.442 166.37 277.442 171.716C277.442 177.062 279.367 179.464 284.256 181.401L292.782 184.674C293.301 184.844 293.753 185.176 294.072 185.622C294.39 186.068 294.559 186.605 294.553 187.154C294.553 187.484 294.487 187.81 294.358 188.113C294.229 188.416 294.039 188.689 293.801 188.916C293.563 189.142 293.282 189.318 292.974 189.431C292.667 189.545 292.339 189.594 292.012 189.575H278.731C278.5 189.58 278.28 189.676 278.118 189.843C277.956 190.009 277.865 190.233 277.865 190.466V195.096C277.865 195.329 277.956 195.552 278.118 195.719C278.28 195.885 278.5 195.982 278.731 195.987H294.745C299.365 195.987 302.598 192.384 302.598 187.018C302.784 185.146 302.307 183.268 301.25 181.715C300.194 180.163 298.626 179.036 296.824 178.534C295.227 177.934 287.97 175.067 287.2 174.776Z" fill="#5C5C5C"/>
<path d="M259.114 164.104L253.59 184.133L249.029 164.104C248.991 163.975 248.985 163.84 249.011 163.709C249.037 163.577 249.093 163.454 249.177 163.35C249.26 163.245 249.367 163.162 249.488 163.108C249.61 163.054 249.743 163.03 249.875 163.039H258.325C258.457 163.027 258.59 163.049 258.712 163.104C258.833 163.158 258.939 163.242 259.02 163.348C259.101 163.454 259.153 163.579 259.173 163.711C259.193 163.843 259.179 163.978 259.133 164.104" fill="#5C5C5C"/>
</svg>
