<svg width="600" height="450" viewBox="0 0 600 450" fill="none" xmlns="http://www.w3.org/2000/svg">
<path d="M343.896 208.058H340.759C340.638 208.045 340.516 208.061 340.401 208.102C340.287 208.144 340.183 208.211 340.098 208.298C340.013 208.386 339.949 208.492 339.91 208.608C339.871 208.724 339.859 208.847 339.874 208.969V232.213L324.187 208.639C324.053 208.45 323.877 208.294 323.674 208.183C323.47 208.072 323.244 208.01 323.013 208H319.472C318.837 208 318.567 208.271 318.567 208.91V240.019C318.558 240.141 318.576 240.263 318.618 240.377C318.661 240.492 318.727 240.595 318.813 240.682C318.899 240.768 319.002 240.835 319.116 240.877C319.229 240.92 319.351 240.938 319.472 240.929H322.513C322.634 240.938 322.755 240.92 322.869 240.877C322.982 240.835 323.086 240.768 323.171 240.682C323.257 240.595 323.324 240.492 323.366 240.377C323.408 240.263 323.426 240.141 323.417 240.019V215.574L339.989 240.348C340.116 240.55 340.293 240.715 340.502 240.827C340.711 240.939 340.946 240.994 341.182 240.987H343.896C344.017 240.996 344.137 240.979 344.25 240.936C344.363 240.893 344.465 240.826 344.549 240.739C344.634 240.653 344.698 240.548 344.738 240.434C344.778 240.32 344.793 240.198 344.782 240.077V208.969C344.797 208.847 344.785 208.724 344.746 208.608C344.707 208.492 344.642 208.386 344.557 208.298C344.472 208.211 344.369 208.144 344.254 208.102C344.14 208.061 344.017 208.045 343.896 208.058Z" fill="#5C5C5C"/>
<path d="M402.445 208.06H378.501C378.323 208.06 378.151 208.131 378.025 208.258C377.899 208.386 377.828 208.558 377.828 208.738V211.759C377.828 211.848 377.845 211.935 377.879 212.016C377.913 212.097 377.963 212.171 378.026 212.232C378.089 212.294 378.163 212.342 378.245 212.374C378.327 212.406 378.414 212.421 378.501 212.418H387.778V240.292C387.778 240.477 387.851 240.654 387.981 240.785C388.111 240.916 388.288 240.989 388.471 240.989H392.09C392.274 240.989 392.45 240.916 392.58 240.785C392.71 240.654 392.783 240.477 392.783 240.292V212.515H402.406C402.582 212.515 402.75 212.446 402.876 212.323C403.002 212.2 403.075 212.033 403.08 211.856V208.835C403.08 208.655 403.009 208.482 402.883 208.355C402.756 208.228 402.585 208.157 402.406 208.157" fill="#5C5C5C"/>
<path d="M364.432 208.098H360.139C356.81 208.098 349.111 209.163 349.111 219.003V230.064C349.111 239.923 356.81 240.988 360.139 240.988H372.823C373.057 240.983 373.279 240.888 373.444 240.722C373.609 240.556 373.704 240.332 373.709 240.097V237.695C373.704 237.462 373.608 237.241 373.443 237.078C373.277 236.915 373.055 236.824 372.823 236.824H360.255C354.596 236.824 353.942 232.95 353.942 230.064V226.771H374.594C374.824 226.771 375.044 226.679 375.207 226.515C375.369 226.352 375.46 226.13 375.46 225.899V219.003C375.46 209.163 367.761 208.098 364.432 208.098ZM370.629 219.003V222.625H353.942V219.003C353.942 216.117 354.596 212.243 360.255 212.243H364.316C369.975 212.243 370.629 216.117 370.629 219.003Z" fill="#5C5C5C"/>
<path d="M219.08 221.948L222.795 238.006C223.004 238.907 223.526 239.703 224.267 240.25C225.009 240.797 225.92 241.059 226.837 240.989H230.378L223.045 209.338C222.872 208.524 222.526 208.35 221.929 208.331H216.155C215.558 208.331 215.231 208.699 215.115 209.338C214.904 210.287 209.822 232.408 209.784 232.582C209.745 232.756 209.649 233.144 209.36 233.144C209.072 233.144 208.995 232.95 208.918 232.582C208.841 232.214 204.529 208.951 204.529 208.951C204.356 208.214 204.029 208.06 203.567 208.06H197.793C197.678 208.051 197.563 208.069 197.456 208.113C197.349 208.157 197.254 208.225 197.177 208.311C197.091 208.448 197.035 208.602 197.012 208.762C196.989 208.922 196.999 209.085 197.042 209.241L202.393 236.921C202.446 237.507 202.614 238.077 202.887 238.597C203.16 239.118 203.533 239.578 203.984 239.953C204.435 240.328 204.955 240.609 205.514 240.78C206.074 240.951 206.661 241.009 207.243 240.95H211.728C213.884 240.95 215.231 239.691 215.751 237.192L219.08 221.948Z" fill="#5C5C5C"/>
<path d="M244.969 208.038H251.148C251.372 208.038 251.588 208.128 251.746 208.288C251.905 208.447 251.994 208.664 251.994 208.89V240.134C251.994 240.36 251.905 240.577 251.746 240.737C251.588 240.897 251.372 240.987 251.148 240.987H244.969C244.75 240.987 244.539 240.899 244.384 240.743C244.229 240.586 244.142 240.375 244.142 240.154V208.89C244.141 208.668 244.228 208.454 244.383 208.294C244.537 208.135 244.748 208.043 244.969 208.038Z" fill="#5C5C5C"/>
<path d="M297.494 208.039C287.678 208.039 285.773 214.431 285.773 221.598V227.409C285.773 230.605 286.273 240.968 296.166 240.968H311.14C311.375 240.968 311.6 240.874 311.766 240.707C311.933 240.54 312.026 240.313 312.026 240.077V235.428C312.026 235.192 311.933 234.965 311.766 234.798C311.6 234.631 311.375 234.537 311.14 234.537H299.072C298.385 234.602 297.692 234.521 297.037 234.3C296.383 234.079 295.782 233.723 295.272 233.254C294.763 232.785 294.356 232.214 294.079 231.578C293.802 230.941 293.661 230.254 293.664 229.559V227.428H311.91C313.181 227.428 313.45 227.293 313.45 226.014V221.559C313.45 212.959 310.313 208 301.902 208L297.494 208.039ZM305.578 221.501H293.664V219.564C293.58 218.887 293.648 218.199 293.864 217.552C294.08 216.904 294.438 216.314 294.911 215.825C295.384 215.336 295.961 214.96 296.598 214.725C297.235 214.491 297.916 214.403 298.591 214.47H300.631C301.308 214.4 301.992 214.485 302.631 214.719C303.271 214.952 303.85 215.327 304.325 215.817C304.8 216.306 305.16 216.897 305.377 217.546C305.594 218.195 305.663 218.885 305.578 219.564V221.501Z" fill="#5C5C5C"/>
<path d="M267.199 219.776C266.659 219.569 266.196 219.2 265.872 218.718C265.548 218.236 265.38 217.665 265.39 217.084C265.394 216.711 265.474 216.344 265.626 216.004C265.779 215.664 265.999 215.36 266.274 215.111C266.549 214.861 266.872 214.672 267.224 214.555C267.575 214.438 267.947 214.395 268.316 214.43H279.979C280.209 214.43 280.429 214.338 280.592 214.175C280.754 214.011 280.846 213.79 280.846 213.558V208.91C280.846 208.678 280.754 208.457 280.592 208.293C280.429 208.13 280.209 208.038 279.979 208.038H267.065C262.464 208.038 257.441 211.37 257.441 216.716C257.441 222.062 259.366 224.464 264.254 226.401L272.781 229.674C273.3 229.844 273.752 230.176 274.071 230.622C274.389 231.068 274.558 231.605 274.552 232.154C274.552 232.484 274.486 232.81 274.357 233.113C274.227 233.416 274.038 233.689 273.8 233.916C273.562 234.142 273.281 234.318 272.973 234.431C272.666 234.545 272.338 234.594 272.011 234.575H258.731C258.499 234.58 258.279 234.676 258.117 234.843C257.955 235.009 257.864 235.233 257.864 235.466V240.096C257.864 240.329 257.955 240.552 258.117 240.719C258.279 240.885 258.499 240.982 258.731 240.987H274.744C279.363 240.987 282.597 237.384 282.597 232.018C282.783 230.146 282.305 228.268 281.249 226.715C280.192 225.163 278.625 224.036 276.823 223.534C275.225 222.934 267.969 220.067 267.199 219.776Z" fill="#5C5C5C"/>
<path d="M239.114 209.104L233.59 229.133L229.028 209.104C228.991 208.975 228.985 208.84 229.01 208.709C229.036 208.577 229.093 208.454 229.176 208.35C229.259 208.245 229.366 208.162 229.488 208.108C229.609 208.054 229.742 208.03 229.875 208.039H238.324C238.457 208.027 238.59 208.049 238.711 208.104C238.833 208.158 238.939 208.242 239.019 208.348C239.1 208.454 239.153 208.579 239.172 208.711C239.192 208.843 239.179 208.978 239.133 209.104" fill="#5C5C5C"/>
</svg>
