<svg width="20" height="20" viewBox="0 0 20 20" fill="none" xmlns="http://www.w3.org/2000/svg">
<path d="M18.5523 4.96567C18.4103 4.81809 18.2406 4.69982 18.0522 4.61935C17.8645 4.53916 17.6628 4.49843 17.4588 4.50005H6.31895C6.11502 4.49843 5.91328 4.53916 5.72558 4.61935C5.53721 4.69982 5.36745 4.81809 5.22548 4.96567C5.08334 5.11344 4.97204 5.28754 4.89584 5.47737C4.81962 5.66727 4.77957 5.87062 4.7778 6.0758L4.77778 6.0758V6.08012V7.06446L1.81094 4.70844C1.66068 4.58912 1.45539 4.56631 1.2826 4.64974C1.10981 4.73317 1 4.90812 1 5.1V16.1C1 16.2911 1.10897 16.4656 1.28076 16.5494C1.45254 16.6332 1.65708 16.6117 1.80773 16.4941L4.77778 14.1748V14.9199H4.77776L4.7778 14.9242C4.77957 15.1294 4.81962 15.3327 4.89584 15.5226C4.97204 15.7125 5.08334 15.8866 5.22548 16.0343C5.36745 16.1819 5.53721 16.3002 5.72558 16.3807C5.91328 16.4608 6.11502 16.5016 6.31895 16.5H17.4588C17.6628 16.5016 17.8645 16.4608 18.0522 16.3807C18.2406 16.3002 18.4103 16.1819 18.5523 16.0343C18.6944 15.8866 18.8057 15.7125 18.8819 15.5226C18.9582 15.3327 18.9982 15.1294 19 14.9242H19V14.9199L19 6.08012L19 6.0758C18.9982 5.87062 18.9582 5.66728 18.8819 5.47737C18.8057 5.28754 18.6944 5.11344 18.5523 4.96567ZM18.5523 4.96567L18.1922 5.31203L18.5523 4.96567C18.5523 4.96567 18.5523 4.96567 18.5523 4.96567Z" stroke="#E5E5E5" stroke-linecap="round" stroke-linejoin="round"/>
<g clip-path="url(#clip0_3856_62254)">
<path d="M13.5874 10.8373C13.4456 10.6136 13.2448 10.4234 12.9731 10.2668C12.7132 10.1102 12.3942 9.96472 12.0162 9.81928C11.6854 9.68503 11.4255 9.57315 11.2365 9.47246C11.0357 9.37177 10.894 9.2599 10.8113 9.13683C10.7286 9.01377 10.6813 8.85714 10.6813 8.67814C10.6813 8.45439 10.764 8.2642 10.9412 8.12995C11.1302 7.9957 11.3901 7.91738 11.7327 7.91738C12.0044 7.91738 12.2643 7.95095 12.5242 8.00688C12.7723 8.07401 13.0321 8.15232 13.2802 8.25301L13.3393 8.27539L13.6937 7.39157L13.6464 7.38038C13.3747 7.2685 13.0794 7.179 12.7723 7.11188C12.4533 7.03356 12.1225 7 11.7681 7C11.1184 7 10.5868 7.14544 10.1852 7.4475C9.78352 7.74957 9.57088 8.16351 9.57088 8.68933C9.57088 9.03614 9.64176 9.32702 9.79533 9.57315C9.93709 9.80809 10.1379 10.0095 10.3978 10.1773C10.6577 10.3339 10.9412 10.4682 11.2602 10.5912C11.6027 10.7143 11.8863 10.8373 12.0989 10.9492C12.3115 11.0611 12.4651 11.173 12.5478 11.296C12.6423 11.4191 12.6777 11.5645 12.6777 11.7435C12.6777 12.0009 12.5714 12.2022 12.3706 12.3477C12.1816 12.5043 11.8626 12.5826 11.4374 12.5826C11.0948 12.5826 10.764 12.5379 10.4451 12.4596C10.1143 12.3812 9.83077 12.2806 9.58269 12.1799L9.5 12.1463V13.1532L9.53544 13.1644C9.75989 13.2651 10.0316 13.3546 10.3505 13.4105C10.6695 13.4664 11.0121 13.5 11.3665 13.5C12.1107 13.5 12.7014 13.3434 13.1385 13.0189C13.5755 12.6945 13.8 12.247 13.8 11.6764C13.8 11.3408 13.7291 11.0611 13.5874 10.8373Z" fill="#E5E5E5"/>
</g>
<defs>
<clipPath id="clip0_3856_62254">
<rect width="4.3" height="6.5" fill="white" transform="translate(9.5 7)"/>
</clipPath>
</defs>
</svg>
