<svg width="21" height="21" viewBox="0 0 21 21" fill="none" xmlns="http://www.w3.org/2000/svg">
<path d="M10.9062 15.5V18.5" stroke="#F37321" stroke-miterlimit="10"/>
<path d="M6.90625 18.5H14.9063" stroke="#F37321" stroke-miterlimit="10"/>
<path d="M5.40625 9.5V10.25C5.40625 11.6424 5.98574 12.9777 7.01719 13.9623C8.04864 14.9468 9.44756 15.5 10.9062 15.5C12.3649 15.5 13.7639 14.9468 14.7953 13.9623C15.8268 12.9777 16.4062 11.6424 16.4062 10.25V9.5" stroke="#F37321" stroke-miterlimit="10"/>
<path d="M6.90625 8.5H14.9062" stroke="#F37321" stroke-miterlimit="10"/>
<path d="M14.4062 6.16667V9.83333C14.4062 10.8058 14.0375 11.7384 13.3811 12.426C12.7247 13.1136 11.8345 13.5 10.9062 13.5C9.97799 13.5 9.0877 13.1136 8.43132 12.426C7.77494 11.7384 7.40625 10.8058 7.40625 9.83333V6.16667C7.40625 5.19421 7.77494 4.26163 8.43132 3.57399C9.0877 2.88636 9.97799 2.5 10.9062 2.5C11.8345 2.5 12.7247 2.88636 13.3811 3.57399C14.0375 4.26163 14.4062 5.19421 14.4062 6.16667Z" stroke="#F37321" stroke-miterlimit="10"/>
</svg>
