<svg width="90" height="90" viewBox="0 0 90 90" fill="none" xmlns="http://www.w3.org/2000/svg">
<path fill-rule="evenodd" clip-rule="evenodd" d="M60.8133 18.0603C60.7063 18.018 60.5913 17.9975 60.4747 18.0002C60.459 18.0006 60.4433 18.0008 60.4276 18.0008H15.9596L15.9358 18.0007C15.6996 17.9978 15.4681 18.0887 15.2907 18.2619C15.1155 18.4329 15.0099 18.6682 15 18.9191V50.4817C15.0099 50.7332 15.116 50.9691 15.2907 51.1397C15.4681 51.3129 15.6996 51.4037 15.9358 51.4009L15.9596 51.4008H44.989V55.4008H15.97C14.6702 55.4127 13.424 54.9075 12.4963 54.0018C11.5665 53.0939 11.03 51.8553 11.0005 50.5558C11.0002 50.5407 11 50.5256 11 50.5105V18.8903C11 18.8752 11.0002 18.8601 11.0005 18.845C11.03 17.5449 11.5669 16.3072 12.4963 15.3998C13.424 14.4941 14.6702 13.9889 15.9699 14.0008H60.4071C61.047 13.9892 61.6843 14.1037 62.2822 14.3398C62.8876 14.5788 63.4381 14.9366 63.9024 15.3899C64.3696 15.846 64.7371 16.3881 64.9904 16.9817C65.2443 17.5772 65.3798 18.2178 65.3871 18.8678L65.3872 18.8903V31.1306H61.3872V18.9047C61.3848 18.7837 61.3591 18.6637 61.311 18.551C61.2612 18.4341 61.1915 18.3334 61.108 18.2519C61.0217 18.1676 60.921 18.1028 60.8133 18.0603Z" fill="#AAAAAA"/>
<path fill-rule="evenodd" clip-rule="evenodd" d="M44.956 69H18.0469V65H44.956V69Z" fill="#AAAAAA"/>
<path fill-rule="evenodd" clip-rule="evenodd" d="M37.9062 66.9984V53.3984H41.9062V66.9984H37.9062Z" fill="#AAAAAA"/>
<path fill-rule="evenodd" clip-rule="evenodd" d="M65.0653 41.6289C63.3726 41.6289 61.7453 42.3082 60.5416 43.5249C59.3371 44.7425 58.6562 46.3984 58.6562 48.1289V53.3991H54.6562V48.1289C54.6562 45.3507 55.7486 42.6822 57.6981 40.7117C59.6484 38.7403 62.2976 37.6289 65.0653 37.6289C67.8326 37.6289 70.4836 38.74 72.4343 40.7117C74.3844 42.6829 75.4744 45.3517 75.4744 48.1289V53.5012H71.4744V48.1289C71.4744 46.3974 70.7946 44.7418 69.5907 43.5249C68.3873 42.3085 66.7585 41.6289 65.0653 41.6289Z" fill="#AAAAAA"/>
<path fill-rule="evenodd" clip-rule="evenodd" d="M51.3125 53.3984C51.3125 52.2939 52.2079 51.3984 53.3125 51.3984H76.858C77.9625 51.3984 78.858 52.2939 78.858 53.3984V73.7984C78.858 74.903 77.9625 75.7984 76.858 75.7984H53.3125C52.2079 75.7984 51.3125 74.903 51.3125 73.7984V53.3984ZM55.3125 55.3984V71.7984H74.858V55.3984H55.3125Z" fill="#AAAAAA"/>
<path d="M67.8125 63.8008C67.8125 65.1815 66.6932 66.3008 65.3125 66.3008C63.9318 66.3008 62.8125 65.1815 62.8125 63.8008C62.8125 62.4201 63.9318 61.3008 65.3125 61.3008C66.6932 61.3008 67.8125 62.4201 67.8125 63.8008Z" fill="#AAAAAA"/>
</svg>
