<svg width="22" height="8" viewBox="0 0 22 8" fill="none" xmlns="http://www.w3.org/2000/svg">
<path d="M1.47586 5.18132V8H0V0H2.7943C3.33217 0 3.80445 0.10989 4.21113 0.32967C4.62109 0.549451 4.93594 0.862637 5.15568 1.26923C5.37542 1.67216 5.48529 2.13187 5.48529 2.64835C5.48529 3.43223 5.24423 4.05128 4.76212 4.50549C4.28328 4.95604 3.61914 5.18132 2.7697 5.18132H1.47586ZM1.47586 3.84615H2.7943C3.18458 3.84615 3.4814 3.74359 3.68474 3.53846C3.89136 3.33333 3.99467 3.04029 3.99467 2.65934C3.99467 2.2674 3.89136 1.95055 3.68474 1.70879C3.47812 1.46703 3.19278 1.34249 2.82874 1.33516H1.47586V3.84615Z" fill="black"/>
<path d="M7.27423 6.67582H10.408V8H5.79837V0H7.27423V6.67582Z" fill="black"/>
<path d="M15.1014 6.35165H12.5137L12.0218 8H10.4525L13.1188 0H14.4865L17.1676 8H15.5983L15.1014 6.35165ZM12.9122 5.01648H14.7029L13.8027 2.02198L12.9122 5.01648Z" fill="black"/>
<path d="M18.8958 3.6044L20.3864 0H22L19.6485 5.0989V8H18.148V5.0989L15.7965 0H17.415L18.8958 3.6044Z" fill="black"/>
</svg>
