<svg width="40" height="40" viewBox="0 0 40 40" fill="none" xmlns="http://www.w3.org/2000/svg">
<circle opacity="0.3" cx="20" cy="20" r="20" fill="#313131"/>
<mask id="path-2-outside-1_2638_32156" maskUnits="userSpaceOnUse" x="5" y="5" width="30" height="30" fill="black">
<path fill-rule="evenodd" clip-rule="evenodd" d="M20.5 19.5V6H19.5V19.5H6V20.5H19.5V34H20.5V20.5H34V19.5H20.5Z"/>
</mask>
<path fill-rule="evenodd" clip-rule="evenodd" d="M20.5 19.5V6H19.5V19.5H6V20.5H19.5V34H20.5V20.5H34V19.5H20.5Z" fill="white"/>
<path d="M20.5 6H21.5V5H20.5V6ZM20.5 19.5H19.5V20.5H20.5V19.5ZM19.5 6V5H18.5V6H19.5ZM19.5 19.5V20.5H20.5V19.5H19.5ZM6 19.5V18.5H5V19.5H6ZM6 20.5H5V21.5H6V20.5ZM19.5 20.5H20.5V19.5H19.5V20.5ZM19.5 34H18.5V35H19.5V34ZM20.5 34V35H21.5V34H20.5ZM20.5 20.5V19.5H19.5V20.5H20.5ZM34 20.5V21.5H35V20.5H34ZM34 19.5H35V18.5H34V19.5ZM19.5 6V19.5H21.5V6H19.5ZM19.5 7H20.5V5H19.5V7ZM20.5 19.5V6H18.5V19.5H20.5ZM6 20.5H19.5V18.5H6V20.5ZM7 20.5V19.5H5V20.5H7ZM19.5 19.5H6V21.5H19.5V19.5ZM20.5 34V20.5H18.5V34H20.5ZM20.5 33H19.5V35H20.5V33ZM19.5 20.5V34H21.5V20.5H19.5ZM34 19.5H20.5V21.5H34V19.5ZM33 19.5V20.5H35V19.5H33ZM20.5 20.5H34V18.5H20.5V20.5Z" fill="#313131" mask="url(#path-2-outside-1_2638_32156)"/>
</svg>
