<svg width="20" height="20" viewBox="0 0 20 20" fill="none" xmlns="http://www.w3.org/2000/svg">
<path d="M17.5 10C17.5 14.1421 14.1421 17.5 10 17.5C5.85786 17.5 2.5 14.1421 2.5 10C2.5 5.85786 5.85786 2.5 10 2.5C14.1421 2.5 17.5 5.85786 17.5 10Z" stroke="white"/>
<path d="M6.47266 10.3564H5.64648V12H4.90527V7.73438H6.40527C6.89746 7.73438 7.27734 7.84473 7.54492 8.06543C7.8125 8.28613 7.94629 8.60547 7.94629 9.02344C7.94629 9.30859 7.87695 9.54785 7.73828 9.74121C7.60156 9.93262 7.41016 10.0801 7.16406 10.1836L8.12207 11.9619V12H7.32812L6.47266 10.3564ZM5.64648 9.76172H6.4082C6.6582 9.76172 6.85352 9.69922 6.99414 9.57422C7.13477 9.44727 7.20508 9.27441 7.20508 9.05566C7.20508 8.82715 7.13965 8.65039 7.00879 8.52539C6.87988 8.40039 6.68652 8.33594 6.42871 8.33203H5.64648V9.76172ZM11.1426 10.0957H9.39062V11.4082H11.4385V12H8.64941V7.73438H11.418V8.33203H9.39062V9.50977H11.1426V10.0957ZM15.2969 10.6113C15.2539 11.0664 15.0859 11.4219 14.793 11.6777C14.5 11.9316 14.1104 12.0586 13.624 12.0586C13.2842 12.0586 12.9844 11.9785 12.7246 11.8184C12.4668 11.6562 12.2676 11.4268 12.127 11.1299C11.9863 10.833 11.9131 10.4883 11.9072 10.0957V9.69727C11.9072 9.29492 11.9785 8.94043 12.1211 8.63379C12.2637 8.32715 12.4678 8.09082 12.7334 7.9248C13.001 7.75879 13.3096 7.67578 13.6592 7.67578C14.1299 7.67578 14.5088 7.80371 14.7959 8.05957C15.083 8.31543 15.25 8.67676 15.2969 9.14355H14.5586C14.5234 8.83691 14.4336 8.61621 14.2891 8.48145C14.1465 8.34473 13.9365 8.27637 13.6592 8.27637C13.3369 8.27637 13.0889 8.39453 12.915 8.63086C12.7432 8.86523 12.6553 9.20996 12.6514 9.66504V10.043C12.6514 10.5039 12.7334 10.8555 12.8975 11.0977C13.0635 11.3398 13.3057 11.4609 13.624 11.4609C13.915 11.4609 14.1338 11.3955 14.2803 11.2646C14.4268 11.1338 14.5195 10.916 14.5586 10.6113H15.2969Z" fill="white"/>
</svg>
