<svg width="16" height="16" viewBox="0 0 16 16" fill="none" xmlns="http://www.w3.org/2000/svg">
<path d="M12 10.1774C11.3082 11.6828 9.9133 12.7895 8.22032 12.974C5.61616 13.2536 3.2876 11.2484 3.02325 8.49349C2.9895 8.14838 2.99513 7.80922 3.02325 7.48196C3.02325 7.48196 3.057 7.10115 3.07949 7" stroke="white" stroke-width="0.75" stroke-miterlimit="10" stroke-linejoin="round"/>
<path d="M1 8.94249L3.02917 7L5 9" stroke="white" stroke-width="0.75" stroke-miterlimit="10" stroke-linejoin="round"/>
<path d="M4 6.06584C4.69728 4.42427 6.08622 3.22863 7.77882 3.02828C10.3824 2.72452 12.7048 4.90252 12.9747 7.89484C13.0084 8.26969 13.0084 8.63808 12.9747 9" stroke="white" stroke-width="0.75" stroke-miterlimit="10" stroke-linejoin="round"/>
<path d="M15 7.05614L12.9679 9L11 7" stroke="white" stroke-width="0.75" stroke-miterlimit="10" stroke-linejoin="round"/>
</svg>
