<svg width="18" height="18" viewBox="0 0 18 18" fill="none" xmlns="http://www.w3.org/2000/svg">
<path d="M13.7793 9.46939L13.7555 9.67778L13.9206 9.80711L15.1201 10.7465L13.5874 13.3772L12.1536 12.8146L11.9644 12.7403L11.7989 12.8583C11.5402 13.0428 11.2638 13.2012 10.9739 13.3312L10.7867 13.4152L10.7565 13.6181L10.5319 15.125H7.46796L7.2441 13.6176L7.21399 13.4149L7.02709 13.3307C6.74501 13.2038 6.46925 13.0453 6.20261 12.8568L6.03741 12.7399L5.84907 12.8139L4.41354 13.3773L2.87965 10.7471L4.07711 9.80922L4.24093 9.6809L4.21873 9.474C4.20018 9.30105 4.19116 9.14118 4.19114 8.98844C4.19153 8.83436 4.20022 8.68042 4.21718 8.52727L4.24015 8.31975L4.07586 8.19092L2.87993 7.2531L4.41387 4.62285L5.82495 5.17691L6.01548 5.25172L6.18146 5.13193C6.44788 4.93967 6.73126 4.77698 7.02915 4.64444L7.21736 4.5607L7.24764 4.35694L7.46786 2.875H10.5327L10.7514 4.35728L10.7815 4.5609L10.9694 4.64488C11.2676 4.77818 11.5513 4.9418 11.816 5.13317L11.9821 5.25324L12.1728 5.1783L13.5863 4.62299L15.1194 7.25419L13.9233 8.19235L13.7603 8.32012L13.7817 8.52606C13.799 8.69355 13.808 8.84497 13.808 8.98692C13.8071 9.14814 13.7975 9.3092 13.7793 9.46939ZM10.5305 2.86006L10.5305 2.86014L10.5305 2.86006ZM13.5791 4.61052C13.5791 4.61051 13.5791 4.61049 13.5791 4.61048L13.5791 4.61052Z" stroke="#E5E5E5" stroke-width="0.75"/>
<path d="M7.73656 7.73222C8.07242 7.39647 8.52771 7.20761 9.00261 7.20703C9.4775 7.20761 9.93279 7.39647 10.2687 7.73222C10.6045 8.06798 10.7935 8.52321 10.7943 8.9981C10.7939 9.4732 10.605 9.92874 10.2691 10.2647C9.93318 10.6008 9.47771 10.7898 9.00261 10.7904C8.5275 10.7898 8.07203 10.6008 7.73613 10.2647C7.40023 9.92874 7.21136 9.4732 7.21094 8.9981C7.21167 8.52321 7.40069 8.06798 7.73656 7.73222Z" stroke="#E5E5E5" stroke-width="0.75"/>
</svg>
