<svg width="92" height="90" viewBox="0 0 92 90" fill="none" xmlns="http://www.w3.org/2000/svg">
<path fill-rule="evenodd" clip-rule="evenodd" d="M27.9297 14.8109C30.6571 14.7657 33.3558 15.3718 35.8075 16.5774L34.0425 20.1669C32.1587 19.2406 30.0886 18.7762 27.9988 18.8104C26.7352 18.8354 25.4883 19.1162 24.3298 19.637C23.1712 20.1579 22.125 20.909 21.2527 21.8482C20.3798 22.7879 19.6989 23.8958 19.2524 25.1074C18.8057 26.3198 18.6017 27.6118 18.653 28.9067L18.6551 28.959L18.6544 29.0113C18.631 30.8592 19.1052 32.6776 20.0232 34.2699C20.9409 35.8618 22.2666 37.1659 23.8549 38.0452L25.2702 38.8288L24.7998 40.3766C23.8313 43.5631 21.5086 44.9295 19.3823 45.938C18.9759 46.1307 18.5773 46.3117 18.1857 46.4896C16.464 47.2713 14.877 47.9919 13.3564 49.3812C12.9206 49.7879 12.4761 50.5386 12.0941 51.6575C11.7219 52.7476 11.468 54.0103 11.3 55.2478C11.1712 56.1967 11.0969 57.0995 11.0546 57.8517H24.3868V61.8517H7.03526L7.00153 59.886L9.00123 59.8517C7.00153 59.886 7.00154 59.8864 7.00153 59.886L7.00146 59.8816L7.00134 59.8739L7.00102 59.8487C7.00078 59.8276 7.0005 59.7981 7.0003 59.7606C6.99989 59.6857 6.99977 59.5787 7.00081 59.4434C7.00288 59.1729 7.00957 58.7883 7.02787 58.3195C7.06435 57.3852 7.14756 56.1002 7.33633 54.7097C7.52391 53.3279 7.82272 51.7882 8.30861 50.3651C8.78333 48.9746 9.50048 47.5023 10.6402 46.4448L10.6506 46.4352C12.6874 44.5717 14.9495 43.5542 16.6971 42.768C17.0428 42.6125 17.3684 42.4661 17.6681 42.3239C18.9112 41.7343 19.7546 41.2199 20.3152 40.5083C18.7955 39.3706 17.5155 37.9291 16.5577 36.2677C15.2886 34.0661 14.6312 31.5591 14.6542 29.0128C14.5896 27.2117 14.8764 25.4143 15.4992 23.7244C16.1282 22.0173 17.0884 20.454 18.3219 19.1259C19.556 17.7973 21.0403 16.7303 22.6897 15.9888C24.3385 15.2475 26.1176 14.8462 27.9239 14.8111L27.9297 14.8109Z" fill="#AAAAAA"/>
<path fill-rule="evenodd" clip-rule="evenodd" d="M63.2791 18.8103C61.175 18.7771 59.0915 19.2421 57.1922 20.1693L55.4375 16.5747C57.9015 15.3719 60.6092 14.767 63.3467 14.8108L63.3536 14.8109L63.3536 14.8109C65.1595 14.8461 66.9405 15.2472 68.5896 15.9886C70.239 16.7302 71.7233 17.7972 72.9574 19.1258C74.1919 20.4549 75.1497 22.0185 75.7783 23.7242C76.3952 25.3985 76.6825 27.1781 76.6249 28.9624C76.6636 29.6484 76.6616 30.3362 76.619 31.022L72.6267 30.7736C72.6611 30.2196 72.6611 29.664 72.6267 29.11L72.6204 29.0083L72.6244 28.9066C72.6757 27.6117 72.4718 26.3197 72.025 25.1073C71.578 23.8944 70.8985 22.7868 70.0266 21.8481C69.1543 20.9089 68.1081 20.1578 66.9495 19.6369C65.7915 19.1163 64.5429 18.8353 63.2791 18.8103Z" fill="#AAAAAA"/>
<path fill-rule="evenodd" clip-rule="evenodd" d="M34.7843 16.5963C37.6818 13.6567 41.6187 12 45.7289 12C49.839 12 53.7759 13.6567 56.6734 16.5963C59.5685 19.5333 61.1894 23.5098 61.1913 27.6503C61.2126 30.6233 60.4412 33.5483 58.9562 36.1163C57.4698 38.6869 55.3223 40.8054 52.74 42.2433L50.7941 38.7485C52.7406 37.6646 54.3659 36.064 55.4935 34.114C56.6212 32.1637 57.2087 29.938 57.1913 27.6729L57.1913 27.6652V27.6576C57.1913 24.5563 55.9774 21.5882 53.8247 19.4043C51.6729 17.2213 48.7596 16 45.7289 16C42.6981 16 39.7848 17.2213 37.633 19.4043C35.4803 21.5882 34.2664 24.5563 34.2664 27.6576V27.6651L34.2664 27.6727C34.2493 29.9348 34.8334 32.1583 35.9552 34.1084C37.0769 36.0583 38.6935 37.6615 40.6324 38.7531L42.0247 39.5369L41.5677 41.0679C40.5233 44.5669 38.2663 46.1991 36.0272 47.5275C35.6636 47.7433 35.3029 47.9507 34.9449 48.1566C33.1002 49.2173 31.3267 50.2371 29.5909 52.1436L29.5838 52.1514L29.5766 52.1591C28.0712 53.7781 27.1853 56.557 26.7168 59.2473C26.5453 60.232 26.4386 61.1497 26.3725 61.9089H37.9215V65.9089H22.2656V63.9089H24.2656C22.2656 63.9089 22.2656 63.9094 22.2656 63.9089L22.2656 63.9039L22.2657 63.8956L22.2658 63.8693C22.2659 63.8475 22.2662 63.8172 22.2668 63.7789C22.2678 63.7024 22.2699 63.5935 22.274 63.4559C22.2822 63.1808 22.2983 62.7895 22.3301 62.3095C22.3936 61.3522 22.5206 60.0281 22.7761 58.561C23.2687 55.7325 24.3043 51.9606 26.6399 49.4433C28.8305 47.0398 31.1894 45.692 33.0475 44.6303C33.3774 44.4417 33.6916 44.2622 33.9862 44.0874C35.4492 43.2195 36.4814 42.4617 37.1636 41.2783C35.2621 39.9142 33.6661 38.151 32.4879 36.1029C31.0118 33.5367 30.2454 30.6167 30.2664 27.65C30.2684 23.5096 31.8893 19.5332 34.7843 16.5963Z" fill="#AAAAAA"/>
<path fill-rule="evenodd" clip-rule="evenodd" d="M68.8125 54.3477V62.152H64.8125V54.3477H68.8125Z" fill="#AAAAAA"/>
<path fill-rule="evenodd" clip-rule="evenodd" d="M66.8128 34.2422C67.522 34.2422 68.1782 34.6178 68.5374 35.2293L91.6158 74.5242C91.979 75.1426 91.9833 75.9081 91.627 76.5306C91.2707 77.153 90.6084 77.537 89.8912 77.537H43.7344C43.0172 77.537 42.3549 77.153 41.9986 76.5306C41.6423 75.9081 41.6466 75.1426 42.0098 74.5242L65.0882 35.2293C65.4474 34.6178 66.1036 34.2422 66.8128 34.2422ZM66.8128 40.1914L47.2284 73.537H86.3972L66.8128 40.1914Z" fill="#AAAAAA"/>
<path d="M66.7734 68.8906C67.878 68.8906 68.7734 67.9952 68.7734 66.8906C68.7734 65.7861 67.878 64.8906 66.7734 64.8906C65.6689 64.8906 64.7734 65.7861 64.7734 66.8906C64.7734 67.9952 65.6689 68.8906 66.7734 68.8906Z" fill="#AAAAAA"/>
</svg>
