<svg width="90" height="90" viewBox="0 0 90 90" fill="none" xmlns="http://www.w3.org/2000/svg">
<path fill-rule="evenodd" clip-rule="evenodd" d="M34.6668 19.0551C39.6004 17.0115 45.029 16.4771 50.2665 17.5189C55.5041 18.5607 60.3154 21.132 64.0913 24.9079C67.8674 28.684 70.4393 33.4953 71.4811 38.7327C72.5229 43.9703 71.9885 49.3989 69.9449 54.3324C69.5032 55.3988 68.9953 56.4316 68.4256 57.4256L71.3425 60.3425C72.2249 58.9203 72.9943 57.423 73.6404 55.8632C75.9868 50.1986 76.6004 43.9657 75.4043 37.9524C74.2081 31.9389 71.2551 26.4149 66.9198 22.0795C62.5842 17.744 57.0602 14.7919 51.0469 13.5957C45.0335 12.3996 38.8007 13.0132 33.1361 15.3596C27.4714 17.706 22.6308 21.6797 19.2246 26.7775C15.8183 31.8754 14 37.8686 14 43.9999C14 52.2215 17.2652 60.1066 23.0789 65.9203C28.8926 71.734 36.7784 75 45.0001 75C46.3427 75 47.6786 74.9128 49 74.7409V70.7021C47.6813 70.8996 46.3445 71 45.0001 71C37.8391 71 30.9708 68.1554 25.9074 63.0919C20.844 58.0285 18 51.1609 18 43.9999C18 38.6599 19.5836 33.4399 22.5504 28.9997C23.219 27.9992 23.951 27.0483 24.7403 26.1522L54.3228 56H59.9546L27.5994 23.3547C29.709 21.5764 32.0901 20.1224 34.6668 19.0551ZM62.2305 73.6587H65.0361V64.6772H62.2305V73.6587ZM62.4961 61.3818C62.2083 61.6364 62.0645 61.9629 62.0645 62.3613C62.0645 62.7598 62.2083 63.0863 62.4961 63.3408C62.7839 63.5954 63.1574 63.7227 63.6167 63.7227C64.076 63.7227 64.4495 63.5954 64.7373 63.3408C65.0251 63.0863 65.1689 62.7598 65.1689 62.3613C65.1689 61.9629 65.0251 61.6364 64.7373 61.3818C64.4495 61.1273 64.076 61 63.6167 61C63.1574 61 62.7839 61.1273 62.4961 61.3818ZM60.9854 71.4175H55.9136V61.5728H53V73.6587H60.9854V71.4175ZM70.3486 70.3301L71.7681 64.6772H74.7148L71.7847 73.6587H68.9292L65.999 64.6772H68.9541L70.3486 70.3301ZM76.4331 72.5962C77.2853 73.4152 78.4004 73.8247 79.7783 73.8247C80.5143 73.8247 81.2005 73.6836 81.8369 73.4014C82.4788 73.1136 82.9741 72.729 83.3228 72.2476L82.0444 70.7368C81.5464 71.3566 80.8547 71.6665 79.9692 71.6665C79.4325 71.6665 78.9953 71.5226 78.6577 71.2349C78.3202 70.9471 78.1016 70.5514 78.002 70.0479H83.5635V68.9604C83.5635 67.5604 83.1982 66.4702 82.4678 65.6899C81.7373 64.9041 80.7412 64.5112 79.4795 64.5112C78.583 64.5112 77.8083 64.7049 77.1553 65.0923C76.5023 65.4741 76.0042 66.0164 75.6611 66.7192C75.3236 67.422 75.1548 68.2327 75.1548 69.1514V69.3838C75.1548 70.7008 75.5809 71.7716 76.4331 72.5962ZM78.002 68.2964C78.1569 67.2118 78.6439 66.6694 79.4629 66.6694C79.9056 66.6694 80.2459 66.7939 80.4839 67.043C80.7218 67.2865 80.8353 67.6323 80.8242 68.0806V68.2964H78.002Z" fill="#AAAAAA"/>
</svg>
