<svg width="90" height="90" viewBox="0 0 90 90" fill="none" xmlns="http://www.w3.org/2000/svg">
<path fill-rule="evenodd" clip-rule="evenodd" d="M34.6668 19.0551C39.6004 17.0115 45.029 16.4771 50.2665 17.5189C55.5041 18.5607 60.3154 21.132 64.0913 24.9079C67.8674 28.684 70.4393 33.4953 71.4811 38.7327C72.5229 43.9703 71.9885 49.3989 69.9449 54.3324C69.5032 55.3988 68.9953 56.4316 68.4256 57.4256L71.3425 60.3425C72.2249 58.9203 72.9943 57.423 73.6404 55.8632C75.9868 50.1986 76.6004 43.9657 75.4043 37.9524C74.2081 31.9389 71.2551 26.4149 66.9198 22.0795C62.5842 17.744 57.0602 14.7919 51.0469 13.5957C45.0335 12.3996 38.8007 13.0132 33.1361 15.3596C27.4714 17.706 22.6308 21.6797 19.2246 26.7775C15.8183 31.8754 14 37.8686 14 43.9999C14 52.2215 17.2652 60.1066 23.0789 65.9203C28.8926 71.734 36.7784 75 45.0001 75C46.3427 75 47.6786 74.9128 49 74.7409V70.7021C47.6813 70.8996 46.3445 71 45.0001 71C37.8391 71 30.9708 68.1554 25.9074 63.0919C20.844 58.0285 18 51.1609 18 43.9999C18 38.6599 19.5836 33.4399 22.5504 28.9997C23.219 27.9992 23.951 27.0483 24.7403 26.1522L54.3228 56H59.9546L27.5994 23.3547C29.709 21.5764 32.0901 20.1224 34.6668 19.0551ZM64.0898 73.75H66.8955V61H64.0898V73.75ZM55.9136 73.75V69.6494H57.7729C59.245 69.6494 60.4015 69.298 61.2427 68.5952C62.0894 67.8869 62.5127 66.9434 62.5127 65.7646C62.5127 64.9678 62.3162 64.2567 61.9233 63.6313C61.536 63.0005 60.9854 62.5163 60.2715 62.1787C59.5632 61.8356 58.7469 61.6641 57.8228 61.6641H53V73.75H55.9136ZM57.8228 67.3999H55.9136V63.9136H57.856C58.3817 63.9191 58.7967 64.0907 59.1011 64.4282C59.4054 64.7658 59.5576 65.2168 59.5576 65.7812C59.5576 66.2959 59.4082 66.6943 59.1094 66.9766C58.8161 67.2588 58.3872 67.3999 57.8228 67.3999ZM73.6855 73.75C73.5859 73.5674 73.4974 73.299 73.4199 72.9448C72.9053 73.5923 72.1859 73.916 71.2617 73.916C70.415 73.916 69.6956 73.6615 69.1035 73.1523C68.5114 72.6377 68.2153 71.993 68.2153 71.2183C68.2153 70.2443 68.575 69.5083 69.2944 69.0103C70.0138 68.5122 71.0597 68.2632 72.4321 68.2632H73.2954V67.79C73.2954 66.9655 72.9385 66.5532 72.2246 66.5532C71.5605 66.5532 71.2285 66.8797 71.2285 67.5327H68.4312C68.4312 66.6639 68.7992 65.9583 69.5352 65.416C70.2767 64.8737 71.2202 64.6025 72.3657 64.6025C73.5112 64.6025 74.416 64.882 75.0801 65.4409C75.7441 65.9998 76.0845 66.7663 76.1011 67.7402V71.7163C76.1121 72.5409 76.2394 73.1717 76.4829 73.6089V73.75H73.6855ZM71.9341 71.9238C72.2827 71.9238 72.5705 71.8491 72.7974 71.6997C73.0298 71.5503 73.1958 71.3815 73.2954 71.1934V69.7573H72.4819C71.508 69.7573 71.021 70.1945 71.021 71.0688C71.021 71.3234 71.1068 71.5309 71.2783 71.6914C71.4499 71.8464 71.6685 71.9238 71.9341 71.9238ZM82.6089 64.7686L81.1147 69.832L79.6953 64.7686H76.707L79.8281 73.833L79.604 74.4307C79.5044 74.724 79.3494 74.9259 79.1392 75.0366C78.9344 75.1528 78.6356 75.2109 78.2427 75.2109H77.8774V77.2114C78.2814 77.3221 78.666 77.3774 79.0312 77.3774C80.3483 77.3774 81.2669 76.7964 81.7871 75.6343L81.9448 75.2524L85.6055 64.7686H82.6089Z" fill="#AAAAAA"/>
</svg>
