<svg width="22" height="20" viewBox="0 0 22 20" fill="none" xmlns="http://www.w3.org/2000/svg">
<path fill-rule="evenodd" clip-rule="evenodd" d="M6.09769 4.62116C9.12567 1.40511 14.1859 1.24446 17.4032 4.27362C20.6193 7.30159 20.7799 12.3619 17.7508 15.5792L17.3867 15.2364L17.7512 15.5787C17.7511 15.5788 17.7509 15.579 17.7508 15.5792C15.578 17.8927 12.3606 18.6259 9.52967 17.7325L9.83065 16.7788C12.3077 17.5606 15.1214 16.9185 17.0223 14.8942L17.0227 14.8937C19.6721 12.0797 19.5329 7.65226 16.7177 5.00169C13.9041 2.35255 9.47714 2.49143 6.82649 5.30588C6.82675 5.30561 6.827 5.30534 6.82726 5.30507L6.46173 4.96391L6.82577 5.30666C6.82601 5.3064 6.82625 5.30614 6.82649 5.30588C5.55828 6.6651 4.92545 8.39265 4.93367 10.1198C4.93382 10.1502 4.9312 10.1805 4.92585 10.2104C4.92584 10.2104 4.92584 10.2104 4.92584 10.2104C4.92583 10.2104 4.92582 10.2105 4.92581 10.2106M3.93359 10.0857C3.93383 8.12278 4.6586 6.16304 6.0962 4.62275L6.09769 4.62116L6.09769 4.62116" fill="white"/>
<path d="M6.09769 4.62116C9.12567 1.40511 14.1859 1.24446 17.4032 4.27362C20.6193 7.30159 20.7799 12.3619 17.7508 15.5792M6.09769 4.62116L4.92581 10.2106C4.92582 10.2105 4.92583 10.2104 4.92584 10.2104C4.92584 10.2104 4.92584 10.2104 4.92585 10.2104C4.9312 10.1805 4.93382 10.1502 4.93367 10.1198C4.92545 8.39265 5.55828 6.6651 6.82649 5.30588M6.09769 4.62116L6.09769 4.62116L6.0962 4.62275C4.6586 6.16304 3.93383 8.12278 3.93359 10.0857L6.09769 4.62116ZM17.7508 15.5792L17.3867 15.2364L17.7512 15.5787C17.7511 15.5788 17.7509 15.579 17.7508 15.5792ZM17.7508 15.5792C15.578 17.8927 12.3606 18.6259 9.52967 17.7325L9.83065 16.7788C12.3077 17.5606 15.1214 16.9185 17.0223 14.8942L17.0227 14.8937C19.6721 12.0797 19.5329 7.65226 16.7177 5.00169C13.9041 2.35255 9.47714 2.49143 6.82649 5.30588M6.82649 5.30588C6.82675 5.30561 6.827 5.30534 6.82726 5.30507L6.46173 4.96391L6.82577 5.30666C6.82601 5.3064 6.82625 5.30614 6.82649 5.30588Z" stroke="#313131" stroke-width="3" stroke-miterlimit="10" stroke-linejoin="round"/>
<path fill-rule="evenodd" clip-rule="evenodd" d="M4.46925 10.4807L2.35765 8.30859L1.64062 9.00564L4.10074 11.5363C4.29322 11.7343 4.60977 11.7388 4.80777 11.5463L7.33843 9.08617L6.64138 8.36914L4.46925 10.4807Z" fill="white" stroke="#313131" stroke-width="3" stroke-miterlimit="10" stroke-linejoin="round"/>
<path d="M11.2121 13.854H10.0571V9.64C10.0571 9.45667 10.0571 9.288 10.0571 9.134C10.0644 8.97267 10.0718 8.81867 10.0791 8.672C10.0864 8.518 10.0938 8.37133 10.1011 8.232C10.0058 8.32733 9.90676 8.419 9.80409 8.507C9.70143 8.595 9.58409 8.69767 9.45209 8.815L9.094 9.008L8.5 8.26L10.2441 7H11.2121V13.854Z" fill="white" stroke="#313131" stroke-width="3" stroke-linejoin="round"/>
<path d="M14.074 11.8068L12.573 9.85156H13.3844L14.5041 11.359L15.6156 9.85156H16.4189L14.9179 11.8068L16.5 13.8516H15.6886L14.5041 12.2545L13.3032 13.8516H12.5L14.074 11.8068Z" fill="white" stroke="#313131" stroke-width="3" stroke-linejoin="round"/>
<path d="M9.6799 17.2556C12.334 18.0933 15.3496 17.4055 17.3865 15.2364C20.2258 12.2208 20.0759 7.47692 17.0602 4.63765C14.0446 1.79838 9.30074 1.94828 6.46147 4.9639C5.10356 6.41881 4.4246 8.27051 4.43342 10.1222C4.43342 10.1222 4.3717 10.4396 4.46869 11.1715" stroke="white" stroke-miterlimit="10" stroke-linejoin="round"/>
<path d="M6.99077 8.7307L4.46011 11.1908L2 8.66016" stroke="white" stroke-miterlimit="10" stroke-linejoin="round"/>
<path d="M11.2121 13.854H10.0571V9.64C10.0571 9.45667 10.0571 9.288 10.0571 9.134C10.0644 8.97267 10.0718 8.81867 10.0791 8.672C10.0864 8.518 10.0938 8.37133 10.1011 8.232C10.0058 8.32733 9.90676 8.419 9.80409 8.507C9.70143 8.595 9.58409 8.69767 9.45209 8.815L9.094 9.008L8.5 8.26L10.2441 7H11.2121V13.854Z" fill="white"/>
<path d="M14.074 11.8068L12.573 9.85156H13.3844L14.5041 11.359L15.6156 9.85156H16.4189L14.9179 11.8068L16.5 13.8516H15.6886L14.5041 12.2545L13.3032 13.8516H12.5L14.074 11.8068Z" fill="white"/>
</svg>
