<?xml version="1.0" ?><svg height="20" version="1.1" viewBox="0 0 20 20" width="20" xmlns="http://www.w3.org/2000/svg"><g id="layer1"><path d="M 3 0 L 3 3 L 4 3 L 4 0 L 3 0 z M 16 0 L 16 3 L 17 3 L 17 0 L 16 0 z M 0 1 L 0 20 L 20 20 L 20 1 L 18 1 L 18 2 L 19 2 L 19 5 L 1 5 L 1 2 L 2 2 L 2 1 L 0 1 z M 5 1 L 5 2 L 15 2 L 15 1 L 5 1 z M 1 6 L 19 6 L 19 19 L 1 19 L 1 6 z M 13.507812 9.9960938 C 13.378054 9.9996938 13.254782 10.053634 13.164062 10.146484 L 8.5175781 14.792969 L 6.8710938 13.146484 C 6.3998386 12.655678 5.6732557 13.382262 6.1640625 13.853516 L 8.1640625 15.853516 C 8.3593275 16.0487 8.6758285 16.0487 8.8710938 15.853516 L 13.871094 10.853516 C 14.196364 10.535513 13.962534 9.9836228 13.507812 9.9960938 z " style="fill:#222222; fill-opacity:1; stroke:none; stroke-width:0px;"/></g></svg>