<svg width="20" height="20" viewBox="0 0 20 20" fill="none" xmlns="http://www.w3.org/2000/svg">
<path fill-rule="evenodd" clip-rule="evenodd" d="M8.31306 10.4156V10.3827C8.82076 10.1811 9.1103 9.80425 9.1103 9.28283C9.1103 8.45575 8.48743 8 7.56772 8C7.00811 8 6.55312 8.22749 6.14112 8.59256L6.62287 9.17886C6.90592 8.91854 7.18248 8.75516 7.52311 8.74891C7.92782 8.75516 8.15896 8.97717 8.15896 9.35397C8.15896 9.78393 7.87591 10.0896 7.00243 10.0896V10.7799C8.03731 10.7799 8.31306 11.073 8.31306 11.5483C8.31306 11.9783 7.9854 12.219 7.50365 12.219C7.0738 12.219 6.72506 12.0041 6.44363 11.7242L6 12.3293C6.33414 12.7139 6.84185 13 7.59367 13C8.49959 13 9.2644 12.4864 9.2644 11.6007C9.2644 10.969 8.85239 10.5649 8.31306 10.4156ZM12.1079 8.09068H11.4071C11.1054 8.27986 10.777 8.40338 10.3017 8.49484V9.0874H11.163V12.1346H10.1411V12.9085H13V12.1346H12.1079V8.09068Z" fill="#F37321"/>
<path fill-rule="evenodd" clip-rule="evenodd" d="M16.1659 15.742C16.1659 15.9737 15.9776 16.162 15.7483 16.162H3.25167C3.14093 16.162 3.03472 16.1178 2.95641 16.039C2.8781 15.9602 2.83411 15.8534 2.83411 15.742V4.81307C2.83411 4.58141 3.02236 4.39307 3.25167 4.39307H4.49433V5.14544H5.32944V4.39307H13.7076V5.14544H14.5427V4.39307H15.7483C15.9776 4.39307 16.1649 4.58141 16.1649 4.81307V15.741L16.1659 15.742ZM15.7483 3.55409H14.5427V2H13.7076V3.55409H5.32944V2H4.49433V3.55409H3.25167C2.56075 3.55409 2 4.11811 2 4.81307V15.741C2 16.436 2.56075 17 3.25167 17H15.7483C16.4383 17 17 16.436 17 15.741V4.81407C17 4.11912 16.4383 3.55509 15.7483 3.55509V3.55409Z" fill="#F37321"/>
</svg>
