<svg width="18" height="18" viewBox="0 0 18 18" fill="none" xmlns="http://www.w3.org/2000/svg">
<path d="M2 4C2 3.44772 2.44772 3 3 3H14C14.5523 3 15 3.44772 15 4V5H2V4Z" fill="#F37321"/>
<path d="M16.1672 11.4395C16.1672 11.2974 16.1514 11.1553 16.1356 11.0132L17.0119 10.3263L16.0172 8.62105L14.983 9.02368C14.754 8.84211 14.5014 8.69211 14.2251 8.58947L14.0672 7.5H12.0777L11.9198 8.58947C11.6435 8.7 11.3909 8.85 11.1619 9.02368L10.1277 8.62105L9.11719 10.3263L9.9935 11.0132C9.97771 11.1553 9.96192 11.2895 9.96192 11.4395C9.96192 11.5895 9.97771 11.7316 9.9935 11.8816L9.11719 12.5684L10.1119 14.2737L11.1619 13.8632C11.3909 14.0368 11.6356 14.1868 11.904 14.2895L12.0698 15.3947H14.0593L14.2251 14.2895C14.4935 14.1789 14.7461 14.0368 14.9672 13.8632L16.0172 14.2737L17.0119 12.5684L16.1356 11.8737C16.1514 11.7316 16.1672 11.5895 16.1672 11.4395Z" stroke="#F37321" stroke-width="0.75" stroke-miterlimit="10" stroke-linejoin="round"/>
<circle cx="13.0629" cy="11.477" r="0.789474" fill="#F37321"/>
<path d="M15 6V4C15 3.44772 14.5523 3 14 3H3C2.44772 3 2 3.44772 2 4V12C2 12.5523 2.44772 13 3 13H7" stroke="#F37321" stroke-width="0.75"/>
</svg>
