<svg width="52" height="16" viewBox="0 0 52 16" fill="none" xmlns="http://www.w3.org/2000/svg">
<path d="M33.334 8.6543H31.0547V7.73438H33.334C33.7754 7.73438 34.1328 7.66406 34.4062 7.52344C34.6797 7.38281 34.8789 7.1875 35.0039 6.9375C35.1328 6.6875 35.1973 6.40234 35.1973 6.08203C35.1973 5.78906 35.1328 5.51367 35.0039 5.25586C34.8789 4.99805 34.6797 4.79102 34.4062 4.63477C34.1328 4.47461 33.7754 4.39453 33.334 4.39453H31.3184V12H30.1875V3.46875H33.334C33.9785 3.46875 34.5234 3.58008 34.9688 3.80273C35.4141 4.02539 35.752 4.33398 35.9824 4.72852C36.2129 5.11914 36.3281 5.56641 36.3281 6.07031C36.3281 6.61719 36.2129 7.08398 35.9824 7.4707C35.752 7.85742 35.4141 8.15234 34.9688 8.35547C34.5234 8.55469 33.9785 8.6543 33.334 8.6543ZM38.7715 3V12H37.6816V3H38.7715ZM44.25 10.916V7.65234C44.25 7.40234 44.1992 7.18555 44.0977 7.00195C44 6.81445 43.8516 6.66992 43.6523 6.56836C43.4531 6.4668 43.207 6.41602 42.9141 6.41602C42.6406 6.41602 42.4004 6.46289 42.1934 6.55664C41.9902 6.65039 41.8301 6.77344 41.7129 6.92578C41.5996 7.07812 41.543 7.24219 41.543 7.41797H40.459C40.459 7.19141 40.5176 6.9668 40.6348 6.74414C40.752 6.52148 40.9199 6.32031 41.1387 6.14062C41.3613 5.95703 41.627 5.8125 41.9355 5.70703C42.248 5.59766 42.5957 5.54297 42.9785 5.54297C43.4395 5.54297 43.8457 5.62109 44.1973 5.77734C44.5527 5.93359 44.8301 6.16992 45.0293 6.48633C45.2324 6.79883 45.334 7.19141 45.334 7.66406V10.6172C45.334 10.8281 45.3516 11.0527 45.3867 11.291C45.4258 11.5293 45.4824 11.7344 45.5566 11.9062V12H44.4258C44.3711 11.875 44.3281 11.709 44.2969 11.502C44.2656 11.291 44.25 11.0957 44.25 10.916ZM44.4375 8.15625L44.4492 8.91797H43.3535C43.0449 8.91797 42.7695 8.94336 42.5273 8.99414C42.2852 9.04102 42.082 9.11328 41.918 9.21094C41.7539 9.30859 41.6289 9.43164 41.543 9.58008C41.457 9.72461 41.4141 9.89453 41.4141 10.0898C41.4141 10.2891 41.459 10.4707 41.5488 10.6348C41.6387 10.7988 41.7734 10.9297 41.9531 11.0273C42.1367 11.1211 42.3613 11.168 42.627 11.168C42.959 11.168 43.252 11.0977 43.5059 10.957C43.7598 10.8164 43.9609 10.6445 44.1094 10.4414C44.2617 10.2383 44.3438 10.041 44.3555 9.84961L44.8184 10.3711C44.791 10.5352 44.7168 10.7168 44.5957 10.916C44.4746 11.1152 44.3125 11.3066 44.1094 11.4902C43.9102 11.6699 43.6719 11.8203 43.3945 11.9414C43.1211 12.0586 42.8125 12.1172 42.4688 12.1172C42.0391 12.1172 41.6621 12.0332 41.3379 11.8652C41.0176 11.6973 40.7676 11.4727 40.5879 11.1914C40.4121 10.9062 40.3242 10.5879 40.3242 10.2363C40.3242 9.89648 40.3906 9.59766 40.5234 9.33984C40.6562 9.07812 40.8477 8.86133 41.0977 8.68945C41.3477 8.51367 41.6484 8.38086 42 8.29102C42.3516 8.20117 42.7441 8.15625 43.1777 8.15625H44.4375ZM48.7266 11.3438L50.4902 5.66016H51.6504L49.1074 12.9785C49.0488 13.1348 48.9707 13.3027 48.873 13.4824C48.7793 13.666 48.6582 13.8398 48.5098 14.0039C48.3613 14.168 48.1816 14.3008 47.9707 14.4023C47.7637 14.5078 47.5156 14.5605 47.2266 14.5605C47.1406 14.5605 47.0312 14.5488 46.8984 14.5254C46.7656 14.502 46.6719 14.4824 46.6172 14.4668L46.6113 13.5879C46.6426 13.5918 46.6914 13.5957 46.7578 13.5996C46.8281 13.6074 46.877 13.6113 46.9043 13.6113C47.1504 13.6113 47.3594 13.5781 47.5312 13.5117C47.7031 13.4492 47.8477 13.3418 47.9648 13.1895C48.0859 13.041 48.1895 12.8359 48.2754 12.5742L48.7266 11.3438ZM47.4316 5.66016L49.0781 10.582L49.3594 11.7246L48.5801 12.123L46.248 5.66016H47.4316Z" fill="#E5E5E5"/>
<path d="M9 2.86677L16.7796 8L9 13.1332L9 2.86677Z" fill="#E5E5E5" stroke="#E5E5E5"/>
</svg>
