<svg width="18" height="18" viewBox="0 0 18 18" fill="none" xmlns="http://www.w3.org/2000/svg">
<path d="M12.2091 14.8184C12.2091 15.1953 11.9107 15.4938 11.5338 15.4938H2.67537C2.30627 15.4938 2 15.1875 2 14.8184V8.3238C2 7.94685 2.29842 7.64844 2.67537 7.64844H11.5338C11.9029 7.64844 12.2091 7.9547 12.2091 8.3238V14.8184V14.8184Z" stroke="#E5E5E5" stroke-width="0.75" stroke-miterlimit="10"/>
<path d="M3.98438 5.30078H13.9108C14.2799 5.30078 14.5862 5.59919 14.5862 5.97614V13.5309" stroke="#E5E5E5" stroke-width="0.75" stroke-miterlimit="10"/>
<path d="M6.36719 3H16.3329C16.702 3 17.0004 3.30629 17.0004 3.67539V11.1516" stroke="#E5E5E5" stroke-width="0.75" stroke-miterlimit="10"/>
<path d="M2.7067 8.02344H11.5101C11.6906 8.02344 11.834 8.17242 11.834 8.33952V9.22103H2.39062V8.33952C2.39062 8.16689 2.53178 8.02344 2.7067 8.02344Z" fill="#E5E5E5" stroke="#E5E5E5" stroke-width="0.75"/>
</svg>
