<svg width="54" height="16" viewBox="0 0 54 16" fill="none" xmlns="http://www.w3.org/2000/svg">
<path d="M14.9375 2.36426L17.4375 2.36426L17.4375 13.4565L14.9375 13.4565L14.9375 2.36426ZM6.43652 13.4563L6.43653 2.33203L8.93652 2.33203L8.93652 13.4561L6.43652 13.4563Z" fill="#E5E5E5" stroke="#E5E5E5"/>
<path d="M34.7793 9.84375C34.7793 9.64453 34.748 9.46875 34.6855 9.31641C34.627 9.16016 34.5215 9.01953 34.3691 8.89453C34.2207 8.76953 34.0137 8.65039 33.748 8.53711C33.4863 8.42383 33.1543 8.30859 32.752 8.19141C32.3301 8.06641 31.9492 7.92773 31.6094 7.77539C31.2695 7.61914 30.9785 7.44141 30.7363 7.24219C30.4941 7.04297 30.3086 6.81445 30.1797 6.55664C30.0508 6.29883 29.9863 6.00391 29.9863 5.67188C29.9863 5.33984 30.0547 5.0332 30.1914 4.75195C30.3281 4.4707 30.5234 4.22656 30.7773 4.01953C31.0352 3.80859 31.3418 3.64453 31.6973 3.52734C32.0527 3.41016 32.4492 3.35156 32.8867 3.35156C33.5273 3.35156 34.0703 3.47461 34.5156 3.7207C34.9648 3.96289 35.3066 4.28125 35.541 4.67578C35.7754 5.06641 35.8926 5.48438 35.8926 5.92969H34.7676C34.7676 5.60938 34.6992 5.32617 34.5625 5.08008C34.4258 4.83008 34.2188 4.63477 33.9414 4.49414C33.6641 4.34961 33.3125 4.27734 32.8867 4.27734C32.4844 4.27734 32.1523 4.33789 31.8906 4.45898C31.6289 4.58008 31.4336 4.74414 31.3047 4.95117C31.1797 5.1582 31.1172 5.39453 31.1172 5.66016C31.1172 5.83984 31.1543 6.00391 31.2285 6.15234C31.3066 6.29688 31.4258 6.43164 31.5859 6.55664C31.75 6.68164 31.957 6.79688 32.207 6.90234C32.4609 7.00781 32.7637 7.10938 33.1152 7.20703C33.5996 7.34375 34.0176 7.49609 34.3691 7.66406C34.7207 7.83203 35.0098 8.02148 35.2363 8.23242C35.4668 8.43945 35.6367 8.67578 35.7461 8.94141C35.8594 9.20312 35.916 9.5 35.916 9.83203C35.916 10.1797 35.8457 10.4941 35.7051 10.7754C35.5645 11.0566 35.3633 11.2969 35.1016 11.4961C34.8398 11.6953 34.5254 11.8496 34.1582 11.959C33.7949 12.0645 33.3887 12.1172 32.9395 12.1172C32.5449 12.1172 32.1562 12.0625 31.7734 11.9531C31.3945 11.8438 31.0488 11.6797 30.7363 11.4609C30.4277 11.2422 30.1797 10.9727 29.9922 10.6523C29.8086 10.3281 29.7168 9.95312 29.7168 9.52734H30.8418C30.8418 9.82031 30.8984 10.0723 31.0117 10.2832C31.125 10.4902 31.2793 10.6621 31.4746 10.7988C31.6738 10.9355 31.8984 11.0371 32.1484 11.1035C32.4023 11.166 32.666 11.1973 32.9395 11.1973C33.334 11.1973 33.668 11.1426 33.9414 11.0332C34.2148 10.9238 34.4219 10.7676 34.5625 10.5645C34.707 10.3613 34.7793 10.1211 34.7793 9.84375ZM39.8477 5.66016V6.49219H36.4199V5.66016H39.8477ZM37.5801 4.11914H38.6641V10.4297C38.6641 10.6445 38.6973 10.8066 38.7637 10.916C38.8301 11.0254 38.916 11.0977 39.0215 11.1328C39.127 11.168 39.2402 11.1855 39.3613 11.1855C39.4512 11.1855 39.5449 11.1777 39.6426 11.1621C39.7441 11.1426 39.8203 11.127 39.8711 11.1152L39.877 12C39.791 12.0273 39.6777 12.0527 39.5371 12.0762C39.4004 12.1035 39.2344 12.1172 39.0391 12.1172C38.7734 12.1172 38.5293 12.0645 38.3066 11.959C38.084 11.8535 37.9062 11.6777 37.7734 11.4316C37.6445 11.1816 37.5801 10.8457 37.5801 10.4238V4.11914ZM40.7148 8.90039V8.76562C40.7148 8.30859 40.7812 7.88477 40.9141 7.49414C41.0469 7.09961 41.2383 6.75781 41.4883 6.46875C41.7383 6.17578 42.041 5.94922 42.3965 5.78906C42.752 5.625 43.1504 5.54297 43.5918 5.54297C44.0371 5.54297 44.4375 5.625 44.793 5.78906C45.1523 5.94922 45.457 6.17578 45.707 6.46875C45.9609 6.75781 46.1543 7.09961 46.2871 7.49414C46.4199 7.88477 46.4863 8.30859 46.4863 8.76562V8.90039C46.4863 9.35742 46.4199 9.78125 46.2871 10.1719C46.1543 10.5625 45.9609 10.9043 45.707 11.1973C45.457 11.4863 45.1543 11.7129 44.7988 11.877C44.4473 12.0371 44.0488 12.1172 43.6035 12.1172C43.1582 12.1172 42.7578 12.0371 42.4023 11.877C42.0469 11.7129 41.7422 11.4863 41.4883 11.1973C41.2383 10.9043 41.0469 10.5625 40.9141 10.1719C40.7812 9.78125 40.7148 9.35742 40.7148 8.90039ZM41.7988 8.76562V8.90039C41.7988 9.2168 41.8359 9.51562 41.9102 9.79688C41.9844 10.0742 42.0957 10.3203 42.2441 10.5352C42.3965 10.75 42.5859 10.9199 42.8125 11.0449C43.0391 11.166 43.3027 11.2266 43.6035 11.2266C43.9004 11.2266 44.1602 11.166 44.3828 11.0449C44.6094 10.9199 44.7969 10.75 44.9453 10.5352C45.0938 10.3203 45.2051 10.0742 45.2793 9.79688C45.3574 9.51562 45.3965 9.2168 45.3965 8.90039V8.76562C45.3965 8.45312 45.3574 8.1582 45.2793 7.88086C45.2051 7.59961 45.0918 7.35156 44.9395 7.13672C44.791 6.91797 44.6035 6.74609 44.377 6.62109C44.1543 6.49609 43.8926 6.43359 43.5918 6.43359C43.2949 6.43359 43.0332 6.49609 42.8066 6.62109C42.584 6.74609 42.3965 6.91797 42.2441 7.13672C42.0957 7.35156 41.9844 7.59961 41.9102 7.88086C41.8359 8.1582 41.7988 8.45312 41.7988 8.76562ZM48.9297 6.87891V14.4375H47.8398V5.66016H48.8359L48.9297 6.87891ZM53.2012 8.77734V8.90039C53.2012 9.36133 53.1465 9.78906 53.0371 10.1836C52.9277 10.5742 52.7676 10.9141 52.5566 11.2031C52.3496 11.4922 52.0938 11.7168 51.7891 11.877C51.4844 12.0371 51.1348 12.1172 50.7402 12.1172C50.3379 12.1172 49.9824 12.0508 49.6738 11.918C49.3652 11.7852 49.1035 11.5918 48.8887 11.3379C48.6738 11.084 48.502 10.7793 48.373 10.4238C48.248 10.0684 48.1621 9.66797 48.1152 9.22266V8.56641C48.1621 8.09766 48.25 7.67773 48.3789 7.30664C48.5078 6.93555 48.6777 6.61914 48.8887 6.35742C49.1035 6.0918 49.3633 5.89062 49.668 5.75391C49.9727 5.61328 50.3242 5.54297 50.7227 5.54297C51.1211 5.54297 51.4746 5.62109 51.7832 5.77734C52.0918 5.92969 52.3516 6.14844 52.5625 6.43359C52.7734 6.71875 52.9316 7.06055 53.0371 7.45898C53.1465 7.85352 53.2012 8.29297 53.2012 8.77734ZM52.1113 8.90039V8.77734C52.1113 8.46094 52.0781 8.16406 52.0117 7.88672C51.9453 7.60547 51.8418 7.35938 51.7012 7.14844C51.5645 6.93359 51.3887 6.76562 51.1738 6.64453C50.959 6.51953 50.7031 6.45703 50.4062 6.45703C50.1328 6.45703 49.8945 6.50391 49.6914 6.59766C49.4922 6.69141 49.3223 6.81836 49.1816 6.97852C49.041 7.13477 48.9258 7.31445 48.8359 7.51758C48.75 7.7168 48.6855 7.92383 48.6426 8.13867V9.65625C48.7207 9.92969 48.8301 10.1875 48.9707 10.4297C49.1113 10.668 49.2988 10.8613 49.5332 11.0098C49.7676 11.1543 50.0625 11.2266 50.418 11.2266C50.7109 11.2266 50.9629 11.166 51.1738 11.0449C51.3887 10.9199 51.5645 10.75 51.7012 10.5352C51.8418 10.3203 51.9453 10.0742 52.0117 9.79688C52.0781 9.51562 52.1113 9.2168 52.1113 8.90039Z" fill="#E5E5E5"/>
</svg>
