<svg width="17" height="17" viewBox="0 0 17 17" fill="none" xmlns="http://www.w3.org/2000/svg">
<path d="M7.54472 5.7979C7.84953 5.68856 8.17831 5.62891 8.52096 5.62891C10.1088 5.62891 11.3857 6.88876 11.3857 8.45551C11.3857 8.80849 11.3198 9.14656 11.1995 9.45837M5.80884 7.54456C5.70993 7.8305 5.65625 8.13693 5.65625 8.45551C5.65625 10.0142 6.94128 11.2821 8.52096 11.2821C8.83078 11.2821 9.12926 11.2333 9.40894 11.1432" stroke="white" stroke-width="0.75" stroke-miterlimit="10" stroke-linecap="square" stroke-linejoin="round"/>
<path d="M3.66114 5.39582C2.48669 6.16892 1.50329 7.21057 0.796875 8.43219C2.352 11.1215 5.24945 12.9386 8.57251 12.9386C9.37643 12.9386 10.1554 12.8323 10.8965 12.6329M6.0332 4.29226C6.83821 4.05383 7.69036 3.92578 8.57251 3.92578C11.8956 3.92578 14.793 5.74288 16.3481 8.43219C15.6056 9.71626 14.5571 10.8015 13.3023 11.585" stroke="white" stroke-width="0.75" stroke-miterlimit="10" stroke-linecap="square" stroke-linejoin="round"/>
<path d="M1 1L16 16" stroke="white" stroke-width="0.75" stroke-linecap="round"/>
</svg>
